<?xml version="1.0" standalone="no"?><!DOCTYPE svg PUBLIC "-//W3C//DTD SVG 1.1//EN" "http://www.w3.org/Graphics/SVG/1.1/DTD/svg11.dtd" ><svg xmlns="http://www.w3.org/2000/svg"><metadata></metadata><defs><font id="FontForge 2.0 : KaTeX_Fraktur-Regular" horiz-adv-x="1050"><font-face font-family="KaTeX_Fraktur" font-weight="400" font-stretch="normal" units-per-em="1000" panose-1="0 0 0 0 0 0 0 0 0 0" ascent="741" descent="-257" x-height="0" bbox="-28 -238 1055 741" underline-thickness="50" underline-position="-125" unicode-range="U+0020-007a" /><missing-glyph horiz-adv-x="250" d="M50 0 l0 533 l150 0 l0 -533 l-150 0 ZM100 50 l50 0 l0 433 l-50 0 l0 -433 Z" /><glyph glyph-name="exclam" unicode="!" d="M107 6 q-17 17 -17 40 q0 23 17 40 q17 17 41 17 q23 0 39.5 -17 q16.5 -17 16.5 -40 q0 -23 -16.5 -40 q-16.5 -17 -39.5 -17 q-24 0 -41 17 ZM132 184 l-27 383 q-3 48 -3 51 l0 7 q0 37 12.5 51 q12.5 14 37.5 14 q37 0 37 -46 q0 -39 -5 -87 l-36 -371 l-16 -2 Z" /><glyph glyph-name="quotedbl" unicode="&quot;" d="M34 432 l-20 152 q-5 40 -5 73 q0 38 34 38 q12 0 22.5 -5 q10.5 -5 10.5 -15 l0 -52 l-21 -191 l-21 0 ZM155 432 l-22 193 q-5 35 -5 43 q0 24 39 24 q10 0 19.5 -5 q9.5 -5 9.5 -14 q0 -32 -1 -47 l-19 -194 l-21 0 Z" /><glyph glyph-name="ampersand" unicode="&amp;" d="M489 115 q62 -62 108 -62 q84 0 116 136 l21 -5 q-7 -37 -18.5 -68.5 q-11.5 -31.5 -30.5 -61.5 q-19 -30 -49.5 -47.5 q-30.5 -17.5 -69.5 -17.5 q-69 0 -130 59 l-5 4 q-75 -60 -153 -60 q-112 0 -167 55 q-62 62 -62 148 q0 65 34.5 106.5 q34.5 41.5 123.5 95.5 q-26 63 -26 123 q0 72 45 125 q45 53 118 53 q39 0 70.5 -26 q31.5 -26 31.5 -66 q0 -68 -47 -111 q-20 -18 -61.5 -44 q-41.5 -26 -59.5 -35 q71 -157 196 -285 q38 56 38 135 q0 43 -36 79 q-16 16 -61 16 q-31 0 -69 -5 l2 43 q56 -3 200 -3 q126 0 156 3 l-3 -48 q-41 7 -147 7 q9 -38 9 -63 q0 -84 -74 -180 ZM416 68 q-133 148 -200 308 q-89 -59 -89 -158 q0 -73 47 -130 q47 -57 119 -57 q77 0 123 37 ZM270 435 q62 39 83 68.5 q21 29.5 21 78.5 q0 27 -21.5 54 q-21.5 27 -45.5 27 q-28 0 -43.5 -18 q-15.5 -18 -18.5 -37.5 q-3 -19.5 -3 -48.5 q0 -58 28 -124 Z" /><glyph glyph-name="quotesingle" unicode="&#39;" d="M88 436 l-18 193 q-2 24 -2 37 q0 14 10.5 21.5 q10.5 7.5 25.5 7.5 q30 0 30 -33 q0 -14 -4 -40 l-26 -186 l-16 0 Z" /><glyph glyph-name="parenleft" unicode="(" d="M301 -163 l0 -24 q-71 6 -112.5 72 q-41.5 66 -57.5 153 q-18 103 -18 242 q0 130 20 230 q41 206 168 228 l0 -27 q-136 -34 -136 -437 q0 -63 1.5 -109 q1.5 -46 9.5 -109 q8 -63 21.5 -104.5 q13.5 -41.5 40 -74.5 q26.5 -33 63.5 -40 Z" /><glyph glyph-name="parenright" unicode=")" d="M86 709 l0 27 q190 -39 190 -464 q0 -52 -2 -93 q-2 -41 -7.5 -96.5 q-5.5 -55.5 -18.5 -97.5 q-13 -42 -33 -81.5 q-20 -39.5 -53 -63 q-33 -23.5 -76 -29.5 l0 24 q78 20 104 98 q34 102 34 309 l0 34 q0 137 -19 235 q-10 49 -19.5 80.5 q-9.5 31.5 -35.5 68 q-26 36.5 -64 49.5 Z" /><glyph glyph-name="asterisk" unicode="*" d="M157 448 l-40 0 q8 48 9 111 q-46 -36 -77 -72 l-21 35 q38 19 87 53 q-39 28 -85 52 l27 28 q38 -36 68 -59 q0 63 -8 96 l40 0 q-7 -35 -11 -95 q38 30 68 62 l25 -31 q-44 -21 -88 -52 q55 -40 88 -56 l-26 -29 q-27 30 -67 61 q2 -63 11 -104 Z" /><glyph glyph-name="plus" unicode="+" d="M396 276 l313 0 l-5 -40 l-308 0 l0 -303 l-40 -7 l0 310 l-310 0 l7 40 l303 0 l0 304 l40 6 l0 -310 Z" /><glyph glyph-name="comma" unicode="," d="M110 -210 l-19 14 q66 87 66 135 q0 26 -13 42 l-70 83 q-7 9 -7 26 q0 19 19.5 33.5 q19.5 14.5 39.5 14.5 q35 0 61.5 -63.5 q26.5 -63.5 26.5 -101.5 q0 -36 -24 -77.5 q-24 -41.5 -80 -105.5 Z" /><glyph glyph-name="hyphen" unicode="-" d="M704 236 l-658 0 l7 40 l657 0 l-6 -40 Z" /><glyph glyph-name="period" unicode="." d="M96.5 4.5 q-19.5 19.5 -19.5 47.5 q0 28 19.5 47.5 q19.5 19.5 47.5 19.5 q28 0 47.5 -19.5 q19.5 -19.5 19.5 -47.5 q0 -28 -19.5 -47.5 q-19.5 -19.5 -47.5 -19.5 q-28 0 -47.5 19.5 Z" /><glyph glyph-name="slash" unicode="/" d="M458 715 l5 -11 l-389 -896 l-32 8 l-3 14 l386 888 l11 2 l22 -5 Z" /><glyph glyph-name="zero" unicode="0" d="M261 493 q78 -23 136.5 -89 q58.5 -66 58.5 -144 q0 -98 -77 -185.5 q-77 -87.5 -166 -87.5 q-81 0 -126.5 63.5 q-45.5 63.5 -45.5 147.5 q0 91 63 167.5 q63 76.5 157 127.5 ZM195 418 q-76 -46 -76 -169 q0 -73 40.5 -134.5 q40.5 -61.5 108.5 -61.5 q113 0 113 159 q0 79 -52 139.5 q-52 60.5 -134 66.5 Z" /><glyph glyph-name="one" unicode="1" d="M299 469 l10 -8 q-12 -92 -12 -232 q0 -8 -0.5 -33.5 q-0.5 -25.5 -0.5 -40.5 q0 -112 21 -112 q71 0 143 3 l-1 -47 q-121 7 -207 7 q-108 0 -206 -7 l0 45 q48 -1 144 -1 q11 0 16 6 q6 4 6 211 q0 102 -7 131 q-5 21 -27 28.5 q-22 7.5 -64 12.5 q-7 1 -10 1 l-1 27 q112 0 196 9 Z" /><glyph glyph-name="two" unicode="2" d="M475 73 l10 -6 l-25 -66 l-399 0 l-2 16 l100 94 q150 141 150 222 q0 33 -24.5 57.5 q-24.5 24.5 -58.5 24.5 q-30 0 -112 -48 l-10 18 q103 89 178 89 q42 0 72.5 -30.5 q30.5 -30.5 30.5 -71.5 q0 -85 -189 -277 q-5 -6 -9 -9.5 q-4 -3.5 -7 -7.5 q-4 -4 -4 -5 q0 -8 16 -8 q253 8 283 8 Z" /><glyph glyph-name="three" unicode="3" d="M246 210 l3 -7 q77 0 129 -43 q52 -43 52 -118 q0 -96 -75.5 -160 q-75.5 -64 -173.5 -64 q-71 0 -143 41 l16 27 q66 -35 115 -35 q79 0 124 52 q45 52 45 126 q0 68 -38 106 q-37 36 -141 36 q-5 0 -15.5 -0.5 q-10.5 -0.5 -15.5 -0.5 l0 34 q30 2 59 9.5 q29 7.5 57 21 q28 13.5 45 37 q17 23.5 17 54.5 q0 41 -27 68.5 q-27 27.5 -70 27.5 q-31 0 -81 -37 l-16 11 q82 78 153 78 q50 0 85 -28.5 q35 -28.5 35 -77.5 q0 -99 -139 -158 Z" /><glyph glyph-name="four" unicode="4" d="M380 476 l5 -3 q-4 -166 -4 -251 q0 -91 3 -182 q64 2 98 5 l-8 -46 l-87 0 q0 -127 2 -161 l-78 -30 l-12 9 q7 71 7 182 l-296 0 l0 23 l289 429 l81 25 ZM79 41 l227 0 q0 246 -7 324 l-12 0 q-114 -142 -208 -324 Z" /><glyph glyph-name="five" unicode="5" d="M421 458 l-24 -80 l-259 0 q-17 0 -17 -12 l0 -176 l9 -5 q63 30 129 30 q78 0 130 -47.5 q52 -47.5 52 -125.5 q0 -77 -44 -130 q-44 -53 -106 -74.5 q-62 -21.5 -135 -21.5 q-51 0 -109 25 l12 25 q52 -20 97 -20 q78 0 128.5 50.5 q50.5 50.5 50.5 126.5 q0 62 -33.5 104 q-33.5 42 -95.5 42 q-57 0 -107 -55 l-18 11 l0 333 l340 0 Z" /><glyph glyph-name="six" unicode="6" d="M460 691 l-9 -57 l-7 -5 q-29 12 -60 12 q-83 -1 -160 -73 q-93 -87 -95 -262 l7 -1 q89 72 185 72 q66 0 108 -49.5 q42 -49.5 42 -116.5 q0 -87 -72.5 -155.5 q-72.5 -68.5 -162.5 -68.5 q-50 0 -88.5 23 q-38.5 23 -60 60.5 q-21.5 37.5 -32 80 q-10.5 42.5 -10.5 87.5 q0 96 34 184 q34 88 100 154 q118 124 237 124 q19 0 44 -9 ZM132 275 q18 -249 140 -249 q120 0 120 146 q0 60 -44 103 q-44 43 -102 43 q-37 0 -60 -10 q-23 -10 -54 -33 Z" /><glyph glyph-name="seven" unicode="7" d="M297 458 l201 0 l0 -16 q-268 -380 -385 -623 l-73 0 l-3 13 q127 177 359 545 q-1 0 -6 5 l-332 0 l32 86 q86 -10 207 -10 Z" /><glyph glyph-name="eight" unicode="8" d="M220 344 q-46 -24 -71.5 -69.5 q-25.5 -45.5 -25.5 -97.5 q0 -58 38.5 -107 q38.5 -49 93.5 -49 q120 0 120 147 q0 21 -7.5 41 q-7.5 20 -15 32.5 q-7.5 12.5 -28.5 30 q-21 17.5 -29.5 24 q-8.5 6.5 -38.5 25.5 q-30 19 -36 23 ZM300 394 q98 -70 122 -95 q39 -43 39 -102 q0 -89 -71 -148 q-71 -59 -171 -59 q-77 0 -128 45 q-51 45 -51 122 q0 37 13 68 q13 31 40 56 q27 25 51 41.5 q24 16.5 61 37.5 q-116 77 -116 170 q0 66 45 106 q45 40 120 70 q181 -13 181 -138 q0 -99 -135 -174 ZM283 410 q31 21 48.5 57 q17.5 36 17.5 77 q0 51 -34.5 84 q-34.5 33 -78.5 49 q-72 -25 -72 -114 q0 -73 119 -153 Z" /><glyph glyph-name="nine" unicode="9" d="M359 102 l-6 4 q-88 -72 -149 -72 q-86 6 -131.5 63 q-45.5 57 -45.5 137 q0 92 51 143 q38 38 156 93 q70 -6 97 -16 q137 -48 137 -254 q0 -167 -115 -282 q-100 -100 -281 -100 l0 28 q134 0 207 73 q60 60 80 183 ZM339 125 q30 30 30 79 q0 86 -39.5 153 q-39.5 67 -121.5 77 q-45 -21 -68.5 -68.5 q-23.5 -47.5 -23.5 -101.5 q0 -63 35 -116.5 q35 -53.5 95 -53.5 q62 0 93 31 Z" /><glyph glyph-name="colon" unicode=":" d="M67 5 q-17 17 -17 40 q0 23 17 40 q17 17 41 17 q23 0 39.5 -17 q16.5 -17 16.5 -40 q0 -23 -16.5 -40 q-16.5 -17 -39.5 -17 q-24 0 -41 17 ZM67 358 q-17 17 -17 40 q0 23 17 40 q17 17 41 17 q23 0 39.5 -17 q16.5 -17 16.5 -40 q0 -23 -16.5 -40 q-16.5 -17 -39.5 -17 q-24 0 -41 17 Z" /><glyph glyph-name="semicolon" unicode=";" d="M65 360 q-17 17 -17 40 q0 23 17 40 q17 17 41 17 q23 0 39.5 -17 q16.5 -17 16.5 -40 q0 -23 -16.5 -40 q-16.5 -17 -39.5 -17 q-24 0 -41 17 ZM89 -190 l-15 13 q47 63 47 113 q0 16 -13 38 l-34 51 q-9 14 -9 26 q0 26 11 37 q14 11 32 11 q24 0 47.5 -44 q23.5 -44 23.5 -77 q0 -28 -17 -62.5 q-17 -34.5 -30 -51.5 q-13 -17 -43 -54 Z" /><glyph glyph-name="equal" unicode="=" d="M716 329 l-662 0 l7 40 l661 0 l-6 -40 ZM716 132 l-662 0 l7 40 l661 0 l-6 -40 Z" /><glyph glyph-name="question" unicode="?" d="M122.5 6 q-16.5 17 -16.5 40 q0 23 16.5 40 q16.5 17 39.5 17 q24 0 41 -17 q17 -17 17 -40 q0 -23 -17 -40 q-17 -17 -41 -17 q-23 0 -39.5 17 ZM186 211 l-46 -32 q-42 26 -42 71 q0 23 26 55 q18 24 51.5 56 q33.5 32 55 53.5 q21.5 21.5 39 56.5 q17.5 35 17.5 74 q0 41 -30.5 78.5 q-30.5 37.5 -67.5 37.5 q-31 0 -56 -20 q-25 -20 -25 -52 q0 -36 32 -61 l-67 -40 q-28 25 -28 69 q0 58 59.5 97 q59.5 39 124.5 39 q57 0 93 -35.5 q36 -35.5 36 -92.5 q0 -38 -30 -89 q-15 -26 -45.5 -56 q-30.5 -30 -57 -51.5 q-26.5 -21.5 -46.5 -47.5 q-20 -26 -20 -47 q0 -32 27 -52 l0 -11 Z" /><glyph glyph-name="A" unicode="A" d="M400 319 l-178 -164 q44 0 87 -43 l48 -48 q13 1 144 85 l0 325 q0 30 -5 127 l127 96 l16 -11 q-35 -30 -42 -42 q-16 -22 -16 -174 l0 -92 q0 -81 5 -181 q2 -23 5 -32 q34 -89 52 -89 q13 0 60 25 l6 -16 l-144 -112 q-33 52 -63 150 l-203 -150 q-62 104 -146 104 q-42 0 -105 -40 l-16 11 l112 85 q7 5 28 21 q21 16 30 23.5 q9 7.5 27.5 21.5 q18.5 14 29 23.5 q10.5 9.5 24 22 q13.5 12.5 24 24 q10.5 11.5 18.5 22.5 q43 56 43 161 q0 74 -49 127.5 q-49 53.5 -122 53.5 q-42 0 -76.5 -27 q-34.5 -27 -34.5 -68 q0 -15 15 -34.5 q15 -19.5 32.5 -35.5 q17.5 -16 32.5 -38.5 q15 -22.5 15 -41.5 q0 -40 -34.5 -75 q-34.5 -35 -82.5 -58 l-16 11 q64 36 64 80 q0 12 -11 27 q-9 13 -32.5 38.5 q-23.5 25.5 -35 46.5 q-11.5 21 -11.5 48 q0 19 9.5 38 q9.5 19 19.5 30.5 q10 11.5 28 29.5 q25 25 82.5 53.5 q57.5 28.5 110.5 28.5 q73 0 124.5 -49 q51.5 -49 51.5 -121 q0 -99 -48 -197 Z" /><glyph glyph-name="B" unicode="B" d="M538 -27 q-57 0 -154 37.5 q-97 37.5 -133 37.5 q-65 0 -143 -48 l-12 21 l124 73 q139 81 147 158 q7 75 7 150 q0 110 -50.5 168 q-50.5 58 -107.5 58 q-45 0 -71 -22 q-26 -22 -26 -65 q0 -15 44.5 -71 q44.5 -56 44.5 -81 q0 -74 -123 -134 l-15 11 q24 13 44 35.5 q20 22.5 20 45.5 q0 11 -21 37 q-21 26 -42.5 60 q-21.5 34 -21.5 63 q0 47 51 98 q86 86 183 86 q41 0 81.5 -33.5 q40.5 -33.5 62.5 -77.5 q102 106 202 106 q43 0 64 -21 q11 -11 18 -52.5 q7 -41.5 19.5 -74.5 q12.5 -33 40.5 -33 q21 3 44 11 l0 -22 q-8 -3 -26.5 -10 q-18.5 -7 -28 -11 q-9.5 -4 -23.5 -11.5 q-14 -7.5 -25 -15.5 l-89 -63 q81 0 128.5 -44 q47.5 -44 47.5 -115 q0 -45 -22 -101 q-103 -87 -150.5 -118.5 q-47.5 -31.5 -88.5 -31.5 ZM456 350 q12 4 43.5 15.5 q31.5 11.5 41 15 q9.5 3.5 33 13 q23.5 9.5 36.5 16.5 q13 7 33 19 q20 12 41 26 q-28 13 -38 85 q-7 50 -25.5 72 q-18.5 22 -50.5 22 q-87 0 -122 -111 q10 -42 10 -124 q0 -21 -2 -49 ZM421 207 l-117 -90 q58 0 160.5 -40 q102.5 -40 137.5 -40 q52 0 82 42.5 q30 42.5 30 95.5 q0 72 -54.5 119 q-54.5 47 -126.5 47 q-43 0 -79 -16 q-6 -66 -33 -118 Z" /><glyph glyph-name="C" unicode="C" d="M267 601 l32 -16 q69 49 207 101 l28 -81 q4 -9 6 -12.5 q2 -3.5 8 -7 q6 -3.5 15 -3.5 q23 0 50 9 l0 -23 q-73 -35 -117 -41 q-27 16 -80 101 q-20 -6 -32 -22 q-12 -16 -14.5 -26.5 q-2.5 -10.5 -2.5 -19.5 q0 -31 13 -68 q20 -64 20 -93 q0 -50 -27 -85.5 q-27 -35.5 -63.5 -51.5 q-36.5 -16 -83.5 -23 l-12 16 q41 10 74 43 q16 16 16 69 q0 19 -15 79 q-15 60 -15 88 q0 15 3 30 q-49 -1 -81.5 -35 q-32.5 -34 -44.5 -76.5 q-12 -42.5 -12 -90.5 q0 -149 80 -229 q86 -87 225 -87 q46 0 72 13 l86 47 l0 -20 q-48 -40 -144 -102 q-36 -8 -82 -8 q-148 0 -238 89 q-79 78 -79 254 q0 95 43 181 q87 67 165 101 Z" /><glyph glyph-name="D" unicode="D" d="M368 559 l16 -11 q-27 -18 -56 -49.5 q-29 -31.5 -29 -56.5 q0 -19 45 -79.5 q45 -60.5 45 -85.5 q0 -83 -148 -146 q53 -11 134 -40 q118 -43 137 -43 q19 0 34.5 5 q15.5 5 24 9 q8.5 4 22 20 q13.5 16 17 21.5 q3.5 5.5 19.5 29.5 q42 64 42 192 q0 128 -69 197 q-90 90 -256 90 q-156 0 -231 -76 q-62 -62 -67 -169 l-21 11 q0 131 85 215 q48 47 118.5 72 q70.5 25 142.5 25 q106 0 179 -20 q84 -24 139 -97.5 q55 -73.5 55 -162.5 q0 -119 -55 -263 q-159 -174 -222 -174 q-23 0 -112 35 q-141 56 -202 56 q-56 0 -107 -80 l-16 16 q38 75 107 133 q58 0 109 25 q51 25 51 71 q0 37 -32 74 q-12 14 -33 44 q-21 30 -21 41 q0 90 155 171 Z" /><glyph glyph-name="E" unicode="E" d="M443 627 q-20 -7 -34.5 -26 q-14.5 -19 -14.5 -41 q0 -25 9 -54 q23 -69 23 -137 l102 62 q33 -46 77 -75 l0 -9 l-67 -38 l-59 42 q-8 5 -15 5 q-20 0 -38 -15 q-22 -100 -175 -123 l-16 16 q34 6 80 37 q17 19 17 73 q0 32 -16 95 q-16 63 -16 93 q0 17 4 32 q-49 -1 -82 -35 q-33 -34 -45 -76.5 q-12 -42.5 -12 -90.5 q0 -149 80 -229 q87 -87 226 -87 q61 0 158 60 l0 -20 q-54 -44 -144 -102 q-43 -8 -82 -8 q-149 0 -233 84 q-84 83 -84 259 q0 94 42 181 q91 69 165 101 l32 -16 q70 49 208 101 l28 -81 q6 -13 11.5 -18 q5.5 -5 20.5 -5 q24 0 48 8 l0 -22 q-75 -35 -119 -41 q-26 15 -79 100 Z" /><glyph glyph-name="F" unicode="F" d="M368 293 l122 117 q41 -42 54 -80 l-43 -59 q-25 43 -53 43 q-22 0 -71 -40 l87 -112 q21 -30 21 -88 q0 -93 -83.5 -161 q-83.5 -68 -182.5 -68 q-59 0 -87.5 43.5 q-28.5 43.5 -28.5 103.5 q0 16 3.5 49 q3.5 33 3.5 51 q0 24 -3 39.5 q-3 15.5 -9 21.5 q-6 6 -10 7.5 q-4 1.5 -11 1.5 l-2 0 q-26 0 -59 -18 l-5 21 q80 54 131 54 q25 0 38 -26 q13 -26 13 -59 q0 -21 -7 -63.5 q-7 -42.5 -7 -65.5 q0 -61 29 -90 q33 -35 64 -35 q61 0 97 47 q36 47 36 110 q0 23 -17.5 59.5 q-17.5 36.5 -30.5 55.5 q-13 19 -42 61 q-3 4 -13 18 q-10 14 -14 20 q-4 6 -12.5 19 q-8.5 13 -13 20.5 q-4.5 7.5 -10.5 19.5 q-6 12 -9 20.5 q-3 8.5 -5.5 18.5 q-2.5 10 -2.5 18 q0 47 44.5 93.5 q44.5 46.5 104.5 82.5 q-122 74 -187 74 q-90 0 -122 -154 l-16 11 q9 90 59 151 q50 61 138 61 q40 0 91.5 -26.5 q51.5 -26.5 100 -53 q48.5 -26.5 80.5 -26.5 q26 0 84 63 l9 -14 q-66 -89 -98 -113 q-21 -16 -38 -16 q-32 0 -73 25 q-46 -14 -74.5 -42.5 q-28.5 -28.5 -28.5 -67.5 q0 -43 59 -122 Z" /><glyph glyph-name="G" unicode="G" d="M672 606 l-176 -154 q24 3 45 3 q69 0 114 -37 q56 -46 56 -115 q0 -116 -93 -207 l-154 -104 q-48 -17 -83 -17 q-65 0 -128.5 23 q-63.5 23 -102.5 62 q-84 84 -84 259 q0 90 44 183 q87 63 162 99 l32 -16 l112 75 l10 -11 q-53 -45 -53 -90 q0 -30 26 -137 l51 27 q63 42 107 86 q-37 13 -67 38.5 q-30 25.5 -36 54.5 l68 64 q17 -35 44 -60 q27 -25 57 -25 q23 0 45 22 l4 -23 ZM235 213 l-16 16 q39 9 65.5 42 q26.5 33 26.5 77 q0 35 -15 96 q-15 61 -15 89 q0 15 3 31 q-48 -3 -80.5 -35 q-32.5 -32 -45 -73.5 q-12.5 -41.5 -12.5 -88.5 q0 -156 83 -239 q89 -89 186 -89 q86 0 140 44 q69 57 69 172 q0 62 -54 104.5 q-54 42.5 -118 42.5 q-24 0 -50 -6 q0 -88 -37 -125 q-45 -44 -130 -58 Z" /><glyph glyph-name="H" unicode="H" d="M368 -107 l48 64 q18 -37 58 -37 q23 0 40 17.5 q17 17.5 25.5 41 q8.5 23.5 13 62 q4.5 38.5 5.5 65 q1 26.5 1 65.5 l0 20 q0 213 -138 213 q-74 0 -155 -97 q28 -69 28 -122 q0 -38 -10 -51 q-25 -34 -68.5 -86.5 q-43.5 -52.5 -56.5 -63.5 q-56 52 -89 52 q-29 0 -66 -40 l-12 14 q24 43 57 74.5 q33 31.5 62 31.5 q44 0 89 -54 q21 26 24 69 q0 41 -50.5 144 q-50.5 103 -50.5 156 q0 98 197 236 q60 -60 128 -60 q6 0 11 1.5 q5 1.5 9 3 q4 1.5 11.5 7 q7.5 5.5 13 10 q5.5 4.5 18.5 14.5 q13 10 23 18 l13 -15 q-111 -108 -142 -108 q-50 0 -152 52 q-49 -49 -49 -111 q0 -40 52 -149 q73 76 181 138 q110 0 181 -53 q27 -96 27 -176 q0 -159 -43 -255 q-127 -117 -165 -117 q-43 0 -69 26 Z" /><glyph glyph-name="I" unicode="I" d="M522 671 l11 -16 q-74 -69 -155 -112 q-16 6 -45 17 q-29 11 -44 16.5 q-15 5.5 -35 12 q-20 6.5 -35 9.5 q-15 3 -27 3 q-94 0 -147 -145 l-17 11 q43 115 82 167 q39 52 104 52 q44 0 154 -53 q34 -16 53 -16 q42 0 101 54 ZM43 -16 l-5 16 q14 20 41.5 51 q27.5 31 48.5 52.5 q21 21.5 24 24.5 q31 -67 45 -81 q29 -29 69 -29 q31 0 54 18 q23 18 35 47 q12 29 17.5 60 q5.5 31 5.5 64 q0 48 -9 121 q-9 73 -9 101 q0 12 2 34 q72 80 140 122 l12 -7 q-65 -59 -65 -114 q0 -46 7.5 -115.5 q7.5 -69.5 7.5 -103.5 q0 -112 -59 -171 q-101 -101 -213 -101 q-42 0 -96 48 l-53 -37 Z" /><glyph glyph-name="J" unicode="J" d="M69 496 l-15 10 q28 71 72.5 125.5 q44.5 54.5 97.5 54.5 q30 0 65 -26.5 q35 -26.5 69.5 -53 q34.5 -26.5 62.5 -26.5 q37 0 101 32 l0 -21 q-119 -62 -160 -75 q-29 6 -82 46 q-53 40 -88 40 q-41 0 -69 -29 q-28 -29 -54 -77 ZM-13 60 l-5 13 q86 71 136 71 q39 0 51 -23.5 q12 -23.5 12 -67.5 q0 -156 96 -156 q52 0 79.5 42 q27.5 42 27.5 98 q0 57 -27.5 164 q-27.5 107 -27.5 158 q0 11 2 29 q56 78 138 144 l16 -10 q-35 -35 -52 -64.5 q-17 -29.5 -17 -74.5 q0 -47 21 -160.5 q21 -113.5 21 -137.5 q0 -85 -68 -154.5 q-68 -69.5 -150 -69.5 q-70 0 -101 32 q-26 26 -32 85 q-4 37 -8 55.5 q-4 18.5 -15 32.5 q-11 14 -30 14 q-36 0 -67 -20 Z" /><glyph glyph-name="K" unicode="K" d="M634 348 l-168 -76 l0 -1 q29 0 46 -16 q11 -11 20.5 -46 q9.5 -35 16 -68.5 q6.5 -33.5 23 -60.5 q16.5 -27 41.5 -27 q42 0 74 24 l3 -17 q-87 -87 -136 -87 q-61 0 -75 112 q-3 29 -7 48.5 q-4 19.5 -11 39 q-7 19.5 -17.5 31 q-10.5 11.5 -27 18.5 q-16.5 7 -38.5 7 q-43 0 -90 -22 q0 -47 -5 -79 q-80 -122 -176 -153 q-54 4 -91 57 l57 66 l10 0 q29 -62 69 -62 q22 0 36 9 q14 9 20.5 26.5 q6.5 17.5 8.5 34 q2 16.5 2 38.5 q0 53 -29.5 151.5 q-29.5 98.5 -29.5 131.5 q0 18 6 30 q39 98 121 161 q82 63 182 63 q31 0 63.5 -7 q32.5 -7 59.5 -27 q27 -20 27 -48 q0 -45 -17 -99 l-16 -5 q0 68 -52 103.5 q-52 35.5 -124 35.5 q-71 0 -120 -39.5 q-49 -39.5 -49 -104.5 q0 -61 20 -123 q126 133 208 133 q22 0 39 -14.5 q17 -14.5 24 -29.5 q7 -15 19 -47 q19 -50 56 -50 q11 0 21 5 l6 -16 ZM289 230 q66 30 119 40 q57 22 100 44 q-22 13 -39 69 q-7 24 -26.5 38.5 q-19.5 14.5 -39.5 14.5 q-71 0 -136 -109 q11 -27 22 -97 Z" /><glyph glyph-name="L" unicode="L" d="M629 197 l16 -11 q-17 -92 -41.5 -139 q-24.5 -47 -52.5 -60.5 q-28 -13.5 -77 -13.5 q-97 0 -282 80 q-36 16 -64 16 q-35 0 -84 -84 l-12 15 q1 3 7 18 q6 15 8.5 20.5 q2.5 5.5 9 19.5 q6.5 14 10.5 20.5 q4 6.5 11 18 q7 11.5 13.5 17.5 q6.5 6 15 13 q8.5 7 17.5 10.5 q9 3.5 19 5.5 l31 0 q31 10 55 34 q24 24 24 50 q0 30 -46.5 112 q-46.5 82 -46.5 129 q0 27 19 63 q42 74 113.5 114.5 q71.5 40.5 155.5 40.5 q124 0 124 -115 q0 -14 -2 -47.5 q-2 -33.5 -2 -40.5 q0 -31 67 -31 l0 -18 l-120 -30 q-12 0 -26 14.5 q-14 14.5 -14 31.5 q0 4 3.5 36 q3.5 32 3.5 56 q0 51 -30 76.5 q-30 25.5 -76 25.5 q-55 0 -95.5 -33 q-40.5 -33 -40.5 -89 q0 -25 10 -55 q4 -14 39.5 -89 q35.5 -75 35.5 -111 q0 -22 -49.5 -72.5 q-49.5 -50.5 -66.5 -62.5 q160 -68 255 -68 q80 0 117 37 q29 29 48 96 Z" /><glyph glyph-name="M" unicode="M" d="M421 569 q31 40 75 65.5 q44 25.5 90 25.5 q70 0 100 -83 q38 45 91 80 q53 35 102 35 q29 0 45.5 -20.5 q16.5 -20.5 22 -45.5 q5.5 -25 19.5 -45.5 q14 -20.5 38 -20.5 q20 0 45 9 l0 -15 q-64 -33 -111 -80 q-32 -63 -32 -197 q0 -107 10 -139 q6 -20 21.5 -39 q15.5 -19 32.5 -19 q18 0 58 21 l0 -19 l-144 -109 l-57 126 l-1 172 q0 53 16 128 q32 49 80 91 q-13 1 -21.5 16 q-8.5 15 -21.5 53 q-14 40 -24.5 54.5 q-10.5 14.5 -34.5 14.5 q-74 0 -125 -82 q14 -72 14 -110 q0 -157 -64 -308 l-123 -150 q-46 43 -69 43 q-20 0 -31.5 -8 q-11.5 -8 -27.5 -27 l-13 14 q73 104 104 104 q22 0 79 -38 q24 24 37 75 q13 51 15 93.5 q2 42.5 2 110.5 l0 22 q0 29 0 44.5 q0 15.5 -2 44 q-2 28.5 -6 45 q-4 16.5 -11 38 q-7 21.5 -17.5 33.5 q-10.5 12 -27 20.5 q-16.5 8.5 -37.5 8.5 q-56 0 -93 -72 q10 -40 10 -82 q0 -205 -72 -325 l-170 -149 q-51 53 -85 53 q-37 0 -69 -42 l-11 16 q63 106 117 106 q33 0 97 -58 q25 20 52 46 q25 25 43 104 q17 79 17 169 l0 41 q0 87 -44.5 154.5 q-44.5 67.5 -113.5 67.5 q-47 0 -73 -20 q-26 -20 -26 -46 q0 -27 14 -52.5 q14 -25.5 31.5 -42 q17.5 -16.5 31.5 -38 q14 -21.5 14 -42.5 q0 -43 -33.5 -74.5 q-33.5 -31.5 -89.5 -59.5 l-15 11 q26 14 45 36.5 q19 22.5 19 44.5 q0 10 -13 27 q-7 10 -23.5 31 q-16.5 21 -25 33 q-8.5 12 -16 31 q-7.5 19 -7.5 38 q0 47 51 98 q17 17 39 34 q22 17 63.5 34.5 q41.5 17.5 80.5 17.5 q48 0 89.5 -39.5 q41.5 -39.5 62.5 -90.5 q3 2 7 8 Z" /><glyph glyph-name="N" unicode="N" d="M422 533 q31 35 52 71 q22 36 64.5 59 q42.5 23 84.5 23 q52 0 73.5 -17.5 q21.5 -17.5 33.5 -56.5 q10 -36 19.5 -47 q9.5 -11 28.5 -11 q25 0 45 11 l0 -14 q-41 -29 -88 -67 q-37 -31 -37 -207 q0 -29 2.5 -59 q2.5 -30 9.5 -64.5 q7 -34.5 21.5 -56 q14.5 -21.5 35.5 -21.5 q21 0 63 22 l0 -22 l-144 -105 l-64 133 l1 167 q0 96 6 117 q3 9 8 19 q5 10 15 21.5 q10 11.5 16 18 q6 6.5 19.5 20.5 q13.5 14 16.5 17 q-18 4 -32 23 q-5 7 -15 40 q-10 33 -27 57 q-17 24 -44 24 q-82 0 -153 -127 q15 -90 15 -150 q0 -145 -43 -229 q-14 -24 -16 -26 q-132 -118 -179 -118 q-24 0 -47.5 17 q-23.5 17 -38.5 41 l56 65 l12 0 q9 -23 27 -42 q18 -19 44 -19 q29 0 68 39 q42 42 42 187 q0 88 -17.5 169.5 q-17.5 81.5 -41.5 114.5 q-22 31 -53.5 51.5 q-31.5 20.5 -64.5 20.5 q-100 0 -100 -71 q0 -31 46 -85 q46 -54 46 -83 q0 -43 -33.5 -74.5 q-33.5 -31.5 -89.5 -59.5 l-15 11 q26 14 45 36.5 q19 22.5 19 44.5 q0 10 -13 27 q-7 10 -23.5 31 q-16.5 21 -25 33 q-8.5 12 -16 31 q-7.5 19 -7.5 38 q0 47 51 98 q86 86 183 86 q53 0 95.5 -44 q42.5 -44 63.5 -108 Z" /><glyph glyph-name="O" unicode="O" d="M432 596 l-86 -3 q-29 0 -54 11.5 q-25 11.5 -25 34.5 q0 18 11.5 32.5 q11.5 14.5 30.5 31 q19 16.5 27 26.5 l16 0 q-10 -14 -10 -26 q0 -28 131 -38 q7 -1 11 -1.5 q4 -0.5 10.5 -1 q6.5 -0.5 11.5 -0.5 q70 -6 118.5 -29 q48.5 -23 74 -60 q25.5 -37 36.5 -79 q11 -42 11 -95 q0 -210 -91 -287 q-151 -139 -266 -139 q-84 0 -160 32 q-5 2 -24 10 q-19 8 -28.5 11.5 q-9.5 3.5 -25 7 q-15.5 3.5 -28.5 3.5 q-60 0 -96 -53 l-16 16 q47 62 91 106 q36 12 60.5 39 q24.5 27 24.5 62 q0 6 -1.5 13 q-1.5 7 -2.5 12 q-1 5 -5 13 q-4 8 -5.5 11.5 q-1.5 3.5 -7 12.5 q-5.5 9 -6.5 11 q-1 2 -7.5 12 q-6.5 10 -7.5 11 q-10 15 -25 36 q-15 21 -21.5 30 q-6.5 9 -12 20.5 q-5.5 11.5 -5.5 20.5 q0 52 39 99.5 q39 47.5 95 81.5 l21 -11 q-70 -51 -70 -96 q0 -32 48 -110.5 q48 -78.5 48 -112.5 q0 -28 -17.5 -57.5 q-17.5 -29.5 -35.5 -48 q-18 -18.5 -48 -43.5 q17 0 39 -8 q22 -7 63 -22 q41 -15 66 -23 q25 -8 61.5 -15.5 q36.5 -7.5 70.5 -7.5 q54 0 93.5 25 q39.5 25 60.5 68.5 q21 43.5 31 93 q10 49.5 10 107.5 q0 79 -16.5 133 q-16.5 54 -48 82 q-31.5 28 -69.5 39.5 q-38 11.5 -89 11.5 Z" /><glyph glyph-name="P" unicode="P" d="M410 509 l0 -387 l1 0 q35 -11 72 -24 q37 -13 52.5 -18 q15.5 -5 33 -10 q17.5 -5 28 -6.5 q10.5 -1.5 22.5 -1.5 q34 0 57.5 20.5 q23.5 20.5 23.5 55.5 q0 33 -49 103.5 q-49 70.5 -49 104.5 q0 21 16 45 q16 24 31 37.5 q15 13.5 41 35.5 q-53 12 -56 90 q-2 41 -15.5 60 q-13.5 19 -48.5 19 q-35 0 -68 -21.5 q-33 -21.5 -51 -44 q-18 -22.5 -41 -58.5 ZM398 540 q40 60 107.5 106 q67.5 46 133.5 46 q38 0 56 -25.5 q18 -25.5 19 -55.5 q1 -30 11.5 -55.5 q10.5 -25.5 36.5 -25.5 q13 0 37 8 l5 -16 q-46 -24 -87 -59.5 q-41 -35.5 -41 -63.5 q0 -29 37.5 -88 q37.5 -59 37.5 -98 q0 -81 -60 -152.5 q-60 -71.5 -132 -71.5 q-11 0 -31 6 l-118 42 q0 -101 11 -186 q-9 -7 -96 -70 l-21 11 q27 66 27 271 q-56 17 -80 17 q-9 0 -17.5 -1.5 q-8.5 -1.5 -17 -6 q-8.5 -4.5 -15 -8 q-6.5 -3.5 -14.5 -11 q-8 -7.5 -13 -12 q-5 -4.5 -12.5 -14.5 q-7.5 -10 -11 -14 q-3.5 -4 -12 -15 q-8.5 -11 -10.5 -14 l-10 21 q16 32 29 53 q13 21 33.5 46 q20.5 25 46 37.5 q25.5 12.5 56.5 12.5 q19 0 48 -8 l0 250 q0 90 -43 158 q-43 68 -115 68 q-102 0 -102 -71 q0 -33 47 -85 q47 -52 47 -83 q0 -43 -33.5 -74.5 q-33.5 -31.5 -89.5 -59.5 l-15 11 q26 14 45 36.5 q19 22.5 19 44.5 q0 10 -13 27 q-7 10 -23.5 31 q-16.5 21 -25 33 q-8.5 12 -16 31 q-7.5 19 -7.5 38 q0 47 51 98 q86 86 183 86 q51 0 95 -44.5 q44 -44.5 63 -100.5 Z" /><glyph glyph-name="Q" unicode="Q" d="M513 10 q-72 -37 -124 -37 q-82 0 -160 32 q-5 2 -24 10 q-19 8 -28.5 11.5 q-9.5 3.5 -25 7 q-15.5 3.5 -28.5 3.5 q-60 0 -96 -53 l-16 16 q47 62 91 106 q36 12 60.5 39 q24.5 27 24.5 62 q0 6 -1.5 13 q-1.5 7 -2.5 12 q-1 5 -5 13 q-4 8 -5.5 11.5 q-1.5 3.5 -7 12.5 q-5.5 9 -6.5 11 q-1 2 -7.5 12 q-6.5 10 -7.5 11 q-10 15 -25 36 q-15 21 -21.5 30 q-6.5 9 -12 20.5 q-5.5 11.5 -5.5 20.5 q0 52 39 99.5 q39 47.5 95 81.5 l21 -11 q-70 -51 -70 -96 q0 -32 48 -110.5 q48 -78.5 48 -112.5 q0 -71 -102 -148 q15 0 40 -9 q19 -6 77 -27 q58 -21 98 -30.5 q40 -9.5 82 -9.5 q56 0 101 29 q45 29 68 80 q30 66 30 184 q0 79 -16.5 133 q-16.5 54 -48 82 q-31.5 28 -69.5 39.5 q-38 11.5 -89 11.5 l-86 -3 q-29 0 -54 11.5 q-25 11.5 -25 34.5 q0 21 11 32 l58 58 l16 0 q-10 -14 -10 -26 q0 -19 32.5 -26 q32.5 -7 102.5 -13 q19 -1 29 -2 q70 -6 118.5 -29 q48.5 -23 74 -60 q25.5 -37 36.5 -79 q11 -42 11 -95 q0 -205 -91 -287 q-34 -30 -52 -44 q20 -22 32.5 -34.5 q12.5 -12.5 34 -26 q21.5 -13.5 39.5 -13.5 q34 0 74 27 l0 -27 l-117 -63 q-102 31 -153 79 Z" /><glyph glyph-name="R" unicode="R" d="M432 348 q60 31 115 40 l129 75 q-23 2 -37 16 q-7 7 -11 32.5 q-4 25.5 -7 50.5 q-3 25 -17 45.5 q-14 20.5 -39 20.5 q-42 0 -72 -30 q-30 -30 -63 -86 q5 -25 5 -61 q0 -69 -3 -103 ZM418 548 q51 64 100 101 q49 37 111 37 q69 0 80 -95 l0 -10 l0 -15 q0 -16 2.5 -25.5 q2.5 -9.5 15 -18.5 q12.5 -9 34.5 -9 q14 0 38 4 l7 -13 q-121 -45 -210 -116 q58 0 102 -37 q8 -173 16 -197 q27 -85 53 -85 q7 0 59 21 l0 -16 l-133 -101 l-64 117 q0 4 1.5 38 q1.5 34 1.5 51 q0 100 -29 129 q-35 35 -83 35 q-28 0 -92 -19 q-17 -127 -68 -205 q-31 -25 -88 -75.5 q-57 -50.5 -80 -70.5 q-53 53 -81 53 q-41 0 -73 -42 l-11 16 q14 22 22.5 34 q8.5 12 25 32 q16.5 20 34 30 q17.5 10 35.5 10 q40 0 94 -58 q73 50 94.5 125 q21.5 75 21.5 194 q0 125 -40 184 q-21 31 -52.5 51.5 q-31.5 20.5 -65.5 20.5 q-44 0 -70.5 -21.5 q-26.5 -21.5 -26.5 -65.5 q0 -19 44.5 -70.5 q44.5 -51.5 44.5 -81.5 q0 -43 -33.5 -74.5 q-33.5 -31.5 -89.5 -59.5 l-15 11 q26 14 45 36.5 q19 22.5 19 44.5 q0 10 -13 27 q-7 10 -23.5 31 q-16.5 21 -25 33 q-8.5 12 -16 31 q-7.5 19 -7.5 38 q0 47 51 98 q86 86 183 86 q50 0 92.5 -42 q42.5 -42 62.5 -96 Z" /><glyph glyph-name="S" unicode="S" d="M339 508 l13 -13 q-48 -15 -48 -69 q0 -28 17.5 -43.5 q17.5 -15.5 46.5 -15.5 q28 0 118 21.5 q90 21.5 127 21.5 q58 0 98 -36.5 q40 -36.5 40 -96.5 q0 -75 -33.5 -135 q-33.5 -60 -89 -96 q-55.5 -36 -121 -54.5 q-65.5 -18.5 -134.5 -18.5 q-135 0 -210 75 q-51 51 -79 119.5 q-28 68.5 -28 141.5 q0 147 108 255 q88 90 261 125 q11 -6 35 -19 q24 -13 34.5 -18.5 q10.5 -5.5 31 -16 q20.5 -10.5 31 -15.5 q10.5 -5 26.5 -11.5 q16 -6.5 27 -9.5 q11 -3 23 -5.5 q12 -2.5 22 -2.5 q58 0 82 75 l19 -11 q-24 -97 -149 -144 q-36 3 -129.5 60 q-93.5 57 -141.5 57 q-84 0 -140.5 -78.5 q-56.5 -78.5 -56.5 -171.5 q0 -92 37 -171.5 q37 -79.5 110.5 -130 q73.5 -50.5 168.5 -50.5 q124 0 175 51 q47 47 47 130 q0 56 -33 95 q-33 39 -90 39 q-34 0 -112 -16 q-78 -16 -117 -16 q-40 0 -68 21 q-28 21 -28 58 q0 43 33 75.5 q33 32.5 77 44.5 Z" /><glyph glyph-name="T" unicode="T" d="M607 133 l11 -16 q-94 -107 -170 -144 q-36 5 -105 40 q-69 35 -108 35 q-47 0 -123 -59 l-10 16 q53 56 122 112 q10 1 30 1 q33 0 55 -6 q30 17 52.5 43 q22.5 26 22.5 52 q0 29 -58.5 97 q-58.5 68 -64.5 100 q22 94 123 192 q-78 27 -160 27 q-60 0 -105 -25 q-45 -25 -45 -82 q0 -28 18.5 -51 q18.5 -23 46.5 -34 l-64 -64 q-51 40 -51 98 q0 39 24 82 q24 43 58 74 q69 65 177 65 q50 0 146.5 -18.5 q96.5 -18.5 140.5 -18.5 q59 0 106 54 l0 -22 l-69 -90 q-26 -16 -69 -16 q-70 0 -128 14 q-28 -22 -51 -56 q-23 -34 -23 -70 q0 -19 18.5 -46.5 q18.5 -27.5 40 -50.5 q21.5 -23 40 -54 q18.5 -31 18.5 -57 q0 -25 -21.5 -56.5 q-21.5 -31.5 -41.5 -50 q-20 -18.5 -53 -45.5 q97 -45 137 -45 q58 0 133 75 Z" /><glyph glyph-name="U" unicode="U" d="M455 120 l-114 -126 q-27 -21 -58 -21 q-46 0 -126.5 32 q-80.5 32 -118.5 32 q-23 0 -54 -43 l-10 17 l80 90 q25 2 69 48 q37 38 37 101 q0 34 -50.5 124 q-50.5 90 -50.5 132 q0 40 51.5 99 q51.5 59 108.5 92 l10 -16 q-85 -62 -85 -127 q0 -36 42.5 -124 q42.5 -88 42.5 -137 q0 -44 -15 -75 l-101 -112 q35 0 106.5 -29 q71.5 -29 95.5 -29 q36 0 81 41 q45 41 57 76 q5 16 5 85 q0 202 -10 346 l127 90 l16 -10 q-27 -27 -40.5 -65 q-13.5 -38 -15.5 -66 q-2 -28 -2 -75 l0 -7 l0 -202 q0 -13 2.5 -36.5 q2.5 -23.5 8.5 -59.5 q6 -36 22.5 -61 q16.5 -25 39.5 -25 q29 0 60 22 l0 -21 l-144 -107 l-67 147 Z" /><glyph glyph-name="V" unicode="V" d="M378 224 l-93 -73 q27 -2 52 -14.5 q25 -12.5 79 -46.5 q93 -58 143 -58 q28 0 48 11 q20 11 30 26.5 q10 15.5 16 41.5 q6 26 7 46 q1 20 1 50 q0 26 -5.5 89.5 q-5.5 63.5 -5.5 97.5 q0 34 11 69 l74 85 q-31 0 -84 34.5 q-53 34.5 -86 34.5 q-13 0 -29.5 -9 q-16.5 -9 -26.5 -18 l-10 -9 q-42 -40 -66 -95 q0 -155 -55 -262 ZM425 526 q33 56 89 108 q56 52 109 52 q42 0 96 -37 q44 -32 81 -32 q14 0 26 6 l0 -16 q-45 -31 -73 -75.5 q-28 -44.5 -28 -95.5 q0 -39 13 -117 q13 -78 13 -101 q0 -41 -17.5 -83 q-17.5 -42 -46.5 -64 l-117 -85 q-17 -13 -47 -13 l-6 0 q-61 0 -149 53 q-107 64 -154 64 q-69 0 -123 -64 l-11 16 q63 71 128 112 q146 0 146 249 q-2 88 -44.5 154 q-42.5 66 -113.5 66 q-100 0 -100 -71 q0 -33 46 -85.5 q46 -52.5 46 -82.5 q0 -43 -33.5 -74.5 q-33.5 -31.5 -89.5 -59.5 l-15 11 q26 14 45 36.5 q19 22.5 19 44.5 q0 10 -13 27 q-7 10 -23.5 31 q-16.5 21 -25 33 q-8.5 12 -16 31 q-7.5 19 -7.5 38 q0 47 51 98 q86 86 183 86 q55 0 98 -47 q43 -47 64 -113 Z" /><glyph glyph-name="W" unicode="W" d="M895 485 l59 63 q-19 0 -72 34.5 q-53 34.5 -88 34.5 q-59 0 -119 -87 q4 -66 4 -103 q0 -129 -29 -227 q-53 -72 -79 -99 q30 0 110.5 -34.5 q80.5 -34.5 112.5 -34.5 q49 0 74 42 q18 29 18 112 q0 35 -6 103 q-6 68 -6 102 q0 67 21 94 ZM352 191 q-50 -41 -118 -81 q87 -68 160 -68 q85 0 155 70 q58 57 58 250 q0 78 -26.5 148 q-26.5 70 -84.5 95 q-57 -51 -78 -80 q0 -1 3.5 -22 q3.5 -21 3.5 -27 q0 -28 -4.5 -69.5 q-4.5 -41.5 -22 -107 q-17.5 -65.5 -46.5 -108.5 ZM409 551 l12 13 q52 57 138 122 q63 -36 107 -127 q35 37 57.5 59 q22.5 22 59 45 q36.5 23 64.5 23 q34 0 88 -33 q54 -33 83 -33 q18 0 37 8 l-6 -21 q-49 -36 -72 -73.5 q-23 -37.5 -23 -99.5 q0 -37 7.5 -110.5 q7.5 -73.5 7.5 -110.5 q0 -44 -9 -74 q-15 -47 -91.5 -105.5 q-76.5 -58.5 -134.5 -58.5 q-41 0 -120 31 q-79 31 -118 31 q-74 -34 -118 -64 q-2 0 -7.5 -0.5 q-5.5 -0.5 -8.5 -0.5 q-64 0 -127 39 q-59 37 -86 37 q-39 0 -103 -59 l-14 16 q56 65 123 117 l3 0 q53 0 91 24 q38 24 58.5 66 q20.5 42 29.5 88.5 q9 46.5 9 101.5 q-2 88 -44.5 154.5 q-42.5 66.5 -113.5 66.5 q-100 0 -100 -69 q0 -30 23 -59.5 q23 -29.5 46 -57 q23 -27.5 23 -53.5 q0 -43 -33.5 -74.5 q-33.5 -31.5 -89.5 -59.5 l-15 11 q26 14 45 36.5 q19 22.5 19 44.5 q0 10 -13 27 q-7 10 -23.5 31 q-16.5 21 -25 33 q-8.5 12 -16 31 q-7.5 19 -7.5 38 q0 47 51 98 q86 86 183 86 q49 0 91.5 -41 q42.5 -41 62.5 -94 Z" /><glyph glyph-name="X" unicode="X" d="M78 527 l148 159 q76 -3 120 -47 q30 -30 53 -117 q0 -1 0.5 -3 q0.5 -2 0.5 -3 q57 119 188 173 q4 -8 14.5 -31.5 q10.5 -23.5 17 -35.5 q6.5 -12 19 -23 q12.5 -11 27.5 -11 q11 0 43 16 l0 -19 l-102 -58 q-27 12 -57 39.5 q-30 27.5 -38 49.5 q-54 -36 -80.5 -104.5 q-26.5 -68.5 -26.5 -144.5 l176 0 l-37 -42 q-46 6 -139 8 q0 -43 7 -86 q7 -43 23 -89.5 q16 -46.5 51 -75.5 q35 -29 84 -29 q43 0 106 43 l0 -22 l-111 -90 q-35 -11 -48 -11 q-65 0 -105 53.5 q-40 53.5 -55 127.5 l-42 -42 q-59 -59 -107 -91 q-63 -43 -96 -43 q-51 0 -85 54 l59 69 q26 -53 79 -53 q52 0 99 47 q72 72 72 238 q-117 0 -176 -8 l37 42 l139 0 q0 71 -5 107 q-7 44 -37 82 q-30 38 -70 38 q-65 0 -129 -82 l-17 15 Z" /><glyph glyph-name="Y" unicode="Y" d="M353 397 q0 89 -43 157.5 q-43 68.5 -115 68.5 q-101 0 -101 -72 q0 -31 46.5 -84 q46.5 -53 46.5 -83 q0 -43 -33.5 -74.5 q-33.5 -31.5 -89.5 -59.5 l-15 11 q26 14 45 36.5 q19 22.5 19 44.5 q0 10 -13 27 q-7 10 -23.5 31 q-16.5 21 -25 33 q-8.5 12 -16 31 q-7.5 19 -7.5 38 q0 47 51 98 q86 86 183 86 q52 0 96.5 -45.5 q44.5 -45.5 62.5 -103.5 q107 107 197 149 q32 -40 107 -90 q16 -80 16 -255 q0 -232 -65 -357 q-54 -82 -143.5 -142.5 q-89.5 -60.5 -170.5 -60.5 q-43 0 -81 17.5 q-38 17.5 -52 52.5 l67 71 l10 0 q8 -38 39 -65.5 q31 -27.5 71 -27.5 q44 0 73 14 q29 14 62 46 q67 65 88.5 172 q21.5 107 21.5 253 q0 132 -27 213 q-52 58 -90 74 q-8 -3 -25 -12 q-17 -9 -45 -31 q-28 -22 -46 -46 q4 -19 4 -44 q-4 -161 -70 -261 l-116 -92 q18 -5 71 -31 q53 -26 83 -26 q43 0 85 48 l9 -16 q-1 -2 -11 -15 q-10 -13 -13 -16.5 q-3 -3.5 -13 -16 q-10 -12.5 -14.5 -17 q-4.5 -4.5 -13.5 -14 q-9 -9.5 -15.5 -13.5 q-6.5 -4 -14.5 -9.5 q-8 -5.5 -15 -7.5 q-7 -2 -14 -2 q-36 0 -107 41 q-60 34 -100 34 q-46 0 -126 -58 l-11 15 q35 37 122 113 q52 0 68 -2 q137 75 137 275 Z" /><glyph glyph-name="Z" unicode="Z" d="M181 309 l43 63 q61 4 110.5 56.5 q49.5 52.5 49.5 114.5 q0 27 -23 42.5 q-23 15.5 -52 15.5 q-27 0 -84 -5 q-57 -5 -65 -5 q-69 0 -69 42 l69 96 l16 0 q-8 -14 -8 -24 q0 -16 15.5 -24 q15.5 -8 29.5 -9 q14 -1 38 -1 q10 0 49 2.5 q39 2.5 57 2.5 q51 0 81.5 -20 q30.5 -20 30.5 -60 q0 -117 -172 -222 l5 -2 q32 6 55 6 q114 0 160 -69 q16 -54 16 -112 q0 -126 -80 -245 q-110 -91 -245 -91 q-52 0 -96 11 l0 38 q0 41 -6.5 57.5 q-6.5 16.5 -30.5 16.5 q-17 0 -52 -26 l-12 15 q78 64 138 64 q31 0 39.5 -14.5 q8.5 -14.5 8.5 -65.5 q0 -37 14.5 -51.5 q14.5 -14.5 47.5 -14.5 q49 0 86.5 25.5 q37.5 25.5 57.5 67 q20 41.5 29.5 85.5 q9.5 44 9.5 90 q0 84 -44 122 q-44 38 -115 38 q-49 0 -91 -21 l-11 11 Z" /><glyph glyph-name="bracketleft" unicode="[" d="M279 712 l-119 -13 l0 -782 l119 -13 l0 -24 q-107 0 -159 -5 l0 866 q39 -5 159 -5 l0 -24 Z" /><glyph glyph-name="bracketright" unicode="]" d="M118 699 l-119 13 l0 24 q120 0 159 5 l0 -866 q-52 5 -159 5 l0 24 l119 13 l0 782 Z" /><glyph glyph-name="a" unicode="a" d="M329 91 l-175 -127 q-42 45 -87 101 q-2 30 -2 91 q0 118 20 209 l169 106 q43 -29 93 -40 l67 34 l8 -6 q-15 -101 -15 -203 q0 -91 1 -137 l36 -45 q24 8 46 22 l7 -13 l-123 -110 l-45 73 l0 45 ZM329 119 l-1 246 q-53 0 -142 27 q-19 -19 -28.5 -57 q-9.5 -38 -11 -64 q-1.5 -26 -1.5 -70 q0 -39 3 -80 q54 -66 67 -66 q20 0 114 64 Z" /><glyph glyph-name="b" unicode="b" d="M135 599 l120 87 l17 -13 q-1 0 -30 -26 q-40 -34 -53 -85 q-13 -51 -13 -121 q0 -13 0.5 -38.5 q0.5 -25.5 0.5 -37.5 l7 -2 q89 75 140 107 q65 -37 117 -61 q3 -48 3 -96 q0 -121 -20 -216 q-131 -84 -228 -128 q-84 75 -110 102 q14 73 14 236 q0 221 -7 361 l17 4 l17 -77 l8 4 ZM178 332 l0 -209 q79 -81 107 -81 q24 0 40.5 18.5 q16.5 18.5 24 49.5 q7.5 31 10.5 59 q3 28 3 58 q0 72 -4 113 q-12 16 -85 46 q-32 -4 -96 -54 Z" /><glyph glyph-name="c" unicode="c" d="M359 92 l-172 -121 q-50 43 -110 113 q-5 75 -5 134 q0 89 12 145 l165 103 q47 -4 108 -44 l-52 -79 l-9 -3 q-26 23 -59.5 38.5 q-33.5 15.5 -60.5 15.5 q-21 -35 -21 -148 q0 -57 7 -99 q19 -30 84 -89 q39 12 105 51 l8 -17 Z" /><glyph glyph-name="d" unicode="d" d="M401 109 l-187 -143 q-96 65 -138 115 q-3 45 -3 85 q0 55 6 169 q85 81 132 112 l19 -4 q-46 -50 -65 -97 q-13 -33 -13 -92 q0 -35 7 -119 q15 -19 45 -41 q61 -45 80 -45 q9 0 15 10 q50 79 50 208 q0 66 -12 132 q-140 147 -241 147 q-21 0 -24 -1 l-46 -18 l-13 16 q50 28 138 69 q101 -14 276 -157 q3 -54 3 -127 q0 -78 -5 -126 q-5 -48 -24 -93 Z" /><glyph glyph-name="e" unicode="e" d="M84 366 l162 101 q46 -58 118 -109 q-141 -135 -213 -192 q0 -13 5 -26 q2 -11 36.5 -38.5 q34.5 -27.5 63.5 -40.5 q1 0 10.5 1 q9.5 1 12.5 2 l74 39 l5 -16 q-89 -69 -169 -118 q-80 74 -114 116 q-5 43 -5 103 q0 86 14 178 ZM148 193 q82 60 136 119 q-61 39 -108 84 q0 1 -2 1 q-26 0 -26 -204 Z" /><glyph glyph-name="f" unicode="f" d="M206 351 l-4 -206 q0 -106 -11 -170.5 q-11 -64.5 -45 -124.5 l-50 -88 l-19 7 l26 90 q17 57 17 269 q0 147 -1 223 l-89 0 l15 35 l73 0 q0 8 -13.5 65.5 q-13.5 57.5 -13.5 76.5 q0 80 101 151 q85 0 124 -40 l-47 -92 l-10 -1 q-32 69 -78 69 q-51 0 -51 -47 q0 -19 21 -59 l50 -95 q5 -8 9 -26 l114 0 l-12 -37 l-106 0 Z" /><glyph glyph-name="g" unicode="g" d="M16 -131 q51 35 134 107 l-72 89 q-4 68 -4 103 q0 101 15 200 q67 46 162 102 q43 -29 114 -45 l72 40 l6 -6 q-23 -46 -23 -182 q0 -20 0.5 -62.5 q0.5 -42.5 0.5 -64.5 q0 -19 5 -41 l29 -126 q-92 -115 -163 -184 q-24 -8 -36 -8 q-91 0 -194 84 l-35 -19 l-11 13 ZM342 97 q-96 -67 -195 -152 q80 -80 148 -80 q34 0 54 26.5 q20 26.5 20 63.5 q0 27 -27 142 ZM228 41 l112 82 q0 132 9 228 q-118 16 -176 43 q-18 -45 -18 -134 q0 -80 5 -136 q20 -39 68 -83 Z" /><glyph glyph-name="h" unicode="h" d="M228 -184 l64 55 q28 20 43.5 74 q15.5 54 18 99.5 q2.5 45.5 2.5 113.5 l0 35 q0 26 -10 161 q-49 36 -88 36 q-33 0 -94 -49 l-5 -215 l54 -77 l-82 -75 l-55 91 q11 192 11 366 q0 147 -6 244 l12 2 l24 -76 q117 88 121 88 l17 -11 q-56 -52 -73 -98 q-17 -46 -17 -99 l-1 -110 q39 30 148 107 q42 -38 116 -61 q7 -100 7 -171 q0 -186 -27 -277 q-58 -85 -164 -167 l-16 14 Z" /><glyph glyph-name="i" unicode="i" d="M27 369 l-13 13 q50 41 105 93 q35 -37 60 -55 q-8 -69 -8 -181 l0 -42 q0 -43 7 -71 q7 -28 30 -51 q18 0 53 27 l7 -19 q-55 -52 -123 -104 l-54 76 q3 53 3 139 q0 94 -4 173 l-21 24 q-25 -9 -42 -22 ZM187 616 l-57 -60 q-25 23 -58 61 q6 6 28 26 q22 20 32 32 q41 -48 55 -59 Z" /><glyph glyph-name="j" unicode="j" d="M168 -44 q-67 -82 -161 -158 l-16 18 q54 41 83 71 q20 20 30 75 q10 55 12 106 q2 51 2 135 q0 119 -10 149 q-4 12 -15 24.5 q-11 12.5 -17 12.5 q-5 0 -8 -3 l-29 -19 l-14 13 l106 95 q23 -17 65 -53 q0 -242 -6 -396 q-2 -48 -22 -70 ZM183 615 l-58 -60 q-14 12 -54 61 l61 57 q27 -35 51 -58 Z" /><glyph glyph-name="k" unicode="k" d="M350 110 l13 -15 q-34 -30 -168 -121 l-107 95 q6 29 6 58 l0 181 l-70 0 l9 35 l62 0 q0 251 -7 326 l17 4 q4 -11 8.5 -30.5 q4.5 -19.5 7 -34 q2.5 -14.5 2.5 -15.5 q90 70 130 93 l16 -10 q-55 -51 -73 -87 q-18 -36 -23 -91 q5 4 127 87 q60 -58 60 -102 q0 -26 -23 -49 l-86 -91 l95 0 l-14 -35 l-159 0 l0 -180 q33 -33 82 -68 q8 4 30 14 q22 10 37 18.5 q15 8.5 28 17.5 ZM173 343 q43 0 79 31 q36 31 36 72 q0 32 -47 72 q-43 -21 -55.5 -54 q-12.5 -33 -12.5 -87 l0 -34 Z" /><glyph glyph-name="l" unicode="l" d="M261 686 l16 -13 q-66 -57 -80.5 -105.5 q-14.5 -48.5 -14.5 -176.5 q0 -89 2 -269 q12 -18 42 -41 q18 5 40 23 l10 -17 l-128 -107 l-51 76 q8 144 8 326 q0 172 -6 286 l17 4 l17 -78 l128 92 Z" /><glyph glyph-name="m" unicode="m" d="M168 376 l127 99 q63 -38 120 -57 l0 -39 q81 55 129 95 q86 -46 121 -56 q-4 -57 -4 -171 l0 -121 q22 -32 37 -47 q28 10 47 26 l12 -17 l-126 -107 q-8 15 -59 79 q11 77 11 214 q0 41 -3 68 q-1 6 -5 11 q-4 5 -12 9.5 q-8 4.5 -14.5 7.5 q-6.5 3 -18.5 7 q-12 4 -17.5 5.5 q-5.5 1.5 -18.5 5 q-13 3.5 -14 3.5 q-37 -19 -65 -38 l0 -218 q0 -14 9 -30.5 q9 -16.5 41 -57.5 l-86 -73 q-13 27 -54 72 q14 61 14 202 q0 58 -5 99 q-26 23 -105 44 l-61 -42 l0 -197 l0 -9 q0 -27 6 -37.5 q6 -10.5 43 -57.5 l-83 -70 l-49 80 q7 56 7 119 q0 104 -4 188 l-26 26 l-43 -24 l-12 12 l111 93 q50 -50 50 -52 l0 -44 Z" /><glyph glyph-name="n" unicode="n" d="M176 367 l144 108 q50 -34 113 -58 q-8 -86 -8 -164 l4 -126 q1 -2 5.5 -10 q4.5 -8 7.5 -12.5 q3 -4.5 7.5 -10.5 q4.5 -6 9 -9 q4.5 -3 9.5 -3 q2 0 10 5 l31 22 l12 -16 l-127 -112 l-55 84 q8 47 8 130 q0 76 -5 163 q-42 22 -101 27 l-65 -44 l-4 -207 q0 -19 7 -28 l40 -54 l-87 -75 q-22 39 -49 69 q11 63 11 165 q0 56 -4 154 l-24 23 l-35 -20 l-13 12 q102 90 104 90 q15 -16 54 -45 l0 -58 Z" /><glyph glyph-name="o" unicode="o" d="M165 -28 q-68 58 -99 96 q0 160 18 296 q78 45 176 117 q77 -52 148 -66 q5 -63 5 -113 q0 -115 -22 -210 q-122 -78 -226 -120 ZM268 44 q6 0 22 19 q28 34 36 83.5 q8 49.5 8 141.5 l0 68 q-56 4 -149 45 q-38 -65 -38 -190 q0 -52 6 -88 q58 -71 115 -79 Z" /><glyph glyph-name="p" unicode="p" d="M169 -170 l-80 -44 l-11 7 q9 187 9 254 q-38 0 -64 -23 l-11 14 q62 57 76 67 l0 247 q-6 8 -13 18 q-7 10 -11 15 q-4 5 -8.5 11 q-4.5 6 -6.5 9.5 q-2 3.5 -4 7 q-2 3.5 -2.5 5.5 q-0.5 2 -0.5 4 q0 36 83 116 l14 -9 q-18 -22 -18 -42 q0 -35 46 -81 q0 -10 -2 -34 q51 34 142 106 q45 -36 118 -64 q5 -73 5 -132 q0 -130 -23 -193 l-134 -107 q-57 46 -108 55 q0 -115 4 -207 ZM166 347 l0 -241 q47 0 157 -54 q26 49 26 178 q0 41 -6 123 q-32 17 -96 38 q-28 -11 -81 -44 Z" /><glyph glyph-name="q" unicode="q" d="M406 -179 l-83 -45 l-11 10 q8 196 8 307 q-69 -56 -174 -122 l-84 94 q-3 43 -3 86 q0 122 23 218 q113 62 165 104 q52 -32 93 -41 l70 48 l8 -7 q-19 -108 -19 -332 q0 -215 7 -320 ZM218 50 q20 11 101 71 q0 146 5 246 q-60 4 -150 31 q-36 -64 -36 -198 q0 -53 1 -56 q0 -24 79 -94 Z" /><glyph glyph-name="r" unicode="r" d="M182 382 l109 87 q39 -71 66 -71 q11 0 38 15 l-1 -13 l-59 -55 q-11 -10 -33 -10 q-32 0 -83 49 q-29 -21 -37 -34 l0 -198 q0 -38 73 -92 l89 42 l2 -19 l-146 -104 q-41 32 -103 96 q6 59 6 170 q0 121 -8 121 l-1 -1 q-9 8 -29 22 l-38 -16 l-12 10 l101 93 q32 -32 66 -60 l0 -32 Z" /><glyph glyph-name="s" unicode="s" d="M192 244 l123 56 q24 -8 56 -38 q3 -39 3 -77 q0 -76 -16 -135 q-106 -47 -160 -80 q-79 77 -128 77 q-39 0 -89 -44 l-9 9 q4 4 21 23.5 q17 19.5 26.5 28.5 q9.5 9 26 22 q16.5 13 33 19 q16.5 6 34.5 6 q37 0 72 -22 l81 -54 q1 -1 4 -1 q26 0 26 106 q0 96 -52 96 q-18 0 -35 -10 l-102 -58 q-21 26 -43 67 q0 88 6 142 l152 102 l81 -46 q12 -6 26 -6 q26 0 72 30 l6 -16 l-92 -78 q-104 6 -152 52 q-20 -19 -20 -79 q0 -33 7.5 -63.5 q7.5 -30.5 24.5 -30.5 q12 0 17 2 Z" /><glyph glyph-name="t" unicode="t" d="M228 641 l14 -14 l-27 -26 q-7 -7 -9 -19 q-12 -70 -12 -196 l108 0 l-17 -35 l-90 0 l1 -228 q62 -55 80 -55 q23 0 70 32 l3 -22 l-137 -99 l-97 83 q0 192 1 289 l-90 0 l16 35 l73 0 l0 172 l113 83 Z" /><glyph glyph-name="u" unicode="u" d="M421 468 l7 -6 q-13 -103 -13 -237 l0 -7 q0 -135 40 -135 q13 0 53 20 l6 -15 q-70 -57 -122 -106 l-8 2 q-38 64 -51 103 q-30 -20 -68.5 -48 q-38.5 -28 -61.5 -47 l-23 -18 q-3 2 -24.5 16.5 q-21.5 14.5 -35 23 q-13.5 8.5 -33 19.5 q-19.5 11 -32.5 15 q42 73 42 216 q0 31 -1 49 q-1 18 -9.5 43.5 q-8.5 25.5 -25.5 39.5 l-38 -20 l-15 10 l111 88 q32 -38 52 -53 q0 -11 0.5 -32.5 q0.5 -21.5 0.5 -32.5 q0 -159 -26 -252 l101 -48 l88 59 q4 67 4 149 q0 78 -3 160 l85 44 Z" /><glyph glyph-name="v" unicode="v" d="M96 231 q0 24 -4 114 q0 10 -20.5 33 q-20.5 23 -20.5 40 q0 35 80 115 l14 -4 q-16 -25 -16 -46 q0 -23 46 -75 l0 -34 l143 103 q58 -39 115 -61 q6 -66 6 -171 q0 -29 -10 -79.5 q-10 -50.5 -22 -79.5 l-215 -114 q-43 45 -103 94 q7 77 7 165 ZM175 348 l-3 -193 q-1 -35 34 -62 q2 0 29.5 -22 q27.5 -22 49.5 -22 q28 0 45.5 36 q17.5 36 23 76.5 q5.5 40.5 5.5 81.5 q0 54 -8 115 q-30 27 -85 38 q-30 -2 -91 -48 Z" /><glyph glyph-name="w" unicode="w" d="M418 368 l142 103 q62 -36 126 -66 q7 -39 7 -137 q0 -23 -2 -43.5 q-2 -20.5 -3.5 -33.5 q-1.5 -13 -7 -33.5 q-5.5 -20.5 -7.5 -26 q-2 -5.5 -11 -30.5 q-9 -25 -10 -29 l-187 -100 q-68 42 -134 74 q8 94 8 176 q0 70 -5 119 q-74 51 -94 51 q-9 0 -21.5 -7 q-12.5 -7 -30.5 -20.5 q-18 -13.5 -22 -16.5 q0 -13 -0.5 -83.5 q-0.5 -70.5 -0.5 -106.5 q0 -52 47 -110 l-75 -75 q-32 54 -59 79 q10 64 10 155 l0 46 q0 61 -3 92 q-1 13 -21 34.5 q-20 21.5 -20 38.5 q0 35 80 115 l14 -4 q-16 -25 -16 -46 q0 -23 46 -75 l0 -32 q82 57 123 97 q55 -35 128 -68 l-1 -37 ZM498 386 q-6 0 -14.5 -3 q-8.5 -3 -18.5 -9.5 q-10 -6.5 -17 -11 q-7 -4.5 -17.5 -12.5 q-10.5 -8 -12.5 -9 q-2 -74 -2 -106 q0 -39 3 -81 q2 -37 43 -73.5 q41 -36.5 86 -36.5 q62 0 62 220 q0 38 -12 84 q-48 30 -100 38 Z" /><glyph glyph-name="x" unicode="x" d="M192 376 l109 89 q20 -32 69 -67 l-67 -59 q-17 8 -37.5 29 q-20.5 21 -21.5 22 q-33 -20 -49 -43 q-5 -24 -5 -57 l0 -30 q0 -65 5 -143 q55 -58 76 -58 q20 4 22 5 l63 34 l3 -18 l-149 -105 q-32 36 -84 74 q-61 -57 -61 -103 q0 -40 36.5 -60 q36.5 -20 85.5 -25 l0 -9 l-64 -40 q-113 27 -113 90 q0 24 17.5 55.5 q17.5 31.5 33 51 q15.5 19.5 43.5 50.5 q7 49 7 133 l0 54 q0 72 -3 107 q-31 33 -40 33 q-4 0 -21.5 -9 q-17.5 -9 -19.5 -9 l-13 9 q38 39 104 96 q71 -63 76 -66 l-2 -31 Z" /><glyph glyph-name="y" unicode="y" d="M89 255 q-2 74 -3 81 q-1 13 -21 34 q-20 21 -20 40 q0 34 80 114 l14 -4 q-16 -25 -16 -46 q0 -23 46 -75 l0 -32 l142 106 q74 -44 115 -59 q11 -94 11 -186 q0 -146 -30 -251 q-9 -32 -68 -92.5 q-59 -60.5 -117 -103.5 l-38 17 q62 31 94 62 q33 32 50 93 q17 61 19.5 106 q2.5 45 2.5 121 l0 9 q0 66 -11 167 q-46 29 -80 35 q-22 0 -89 -51 q0 -22 -1 -50 q-1 -28 -1.5 -59 q-0.5 -31 -0.5 -79 q0 -47 45 -104 l-75 -75 q-32 55 -59 79 q11 67 11 203 Z" /><glyph glyph-name="z" unicode="z" d="M290 -99 l-137 -116 q-54 0 -103 26.5 q-49 26.5 -57 72.5 q11 41 87 129 q42 49 127 134 q-64 29 -110 34 l0 11 l73 67 q34 32 34 56 q0 28 -25 50.5 q-25 22.5 -48 22.5 q-19 0 -84 -53 l-11 12 q73 73 146 124 q102 -52 102 -101 q0 -21 -15 -36 l-81 -87 q74 -26 112 -49 q14 -55 14 -134 q0 -72 -24 -163 ZM225 130 q-32 -28 -52 -46.5 q-20 -18.5 -47 -48 q-27 -29.5 -40.5 -56.5 q-13.5 -27 -13.5 -52 q0 -30 36.5 -55.5 q36.5 -25.5 74.5 -25.5 q28 0 42.5 54.5 q14.5 54.5 14.5 119.5 q0 61 -15 110 Z" /></font>
</defs>
</svg>
