<?xml version="1.0" standalone="no"?><!DOCTYPE svg PUBLIC "-//W3C//DTD SVG 1.1//EN" "http://www.w3.org/Graphics/SVG/1.1/DTD/svg11.dtd" ><svg xmlns="http://www.w3.org/2000/svg"><metadata></metadata><defs><font id="FontForge 2.0 : KaTeX_Main-BoldItalic" horiz-adv-x="1160"><font-face font-family="KaTeX_Main" font-weight="700" font-stretch="normal" units-per-em="1000" panose-1="0 0 0 0 0 0 0 0 0 0" ascent="761" descent="-250" x-height="0" bbox="-27 -250 1274 750" underline-thickness="50" underline-position="-125" unicode-range="U+0020-201d" /><missing-glyph horiz-adv-x="250" d="M50 0 l0 533 l150 0 l0 -533 l-150 0 ZM100 50 l50 0 l0 433 l-50 0 l0 -433 Z" /><glyph glyph-name="exclam" unicode="!" d="M363 711 q33 0 52.5 -17 q19.5 -17 19.5 -44 q0 -6 -2 -16 q-2 -7 -73 -200.5 q-71 -193.5 -73 -196.5 q-2 -4 -6.5 -5 q-4.5 -1 -26.5 -1 q-27 0 -29 2 q-6 5 -6 12 q0 5 26 198.5 q26 193.5 27 197.5 q5 22 24.5 40.5 q19.5 18.5 44.5 25.5 q1 0 3 0.5 q2 0.5 3.5 1 q1.5 0.5 3 1 q1.5 0.5 2.5 0.5 q2 1 10 1 ZM227 162 q31 0 50 -19.5 q19 -19.5 19 -46.5 q0 -39 -30.5 -67.5 q-30.5 -28.5 -66.5 -28.5 q-27 0 -47.5 17.5 q-20.5 17.5 -20.5 44.5 l0 5 q0 49 45 78 q28 17 51 17 Z" /><glyph glyph-name="quotedbl" unicode="&quot;" d="M283 532 q-30 0 -48 17 q-18 17 -18 46 q0 43 30 71 q30 28 72 28 q35 -2 53 -26 q18 -24 18 -63 q0 -75 -64 -164 q-38 -53 -94 -94 q-15 -9 -20 -9 q-6 0 -18 16 q-6 10 -6 14 q0 5 2 7 q0 2 14 12 q92 64 121 154 q-22 -9 -42 -9 ZM533 532 q-30 0 -48 17 q-18 17 -18 46 q0 43 30 71 q30 28 72 28 q35 -2 53 -26 q18 -24 18 -63 q0 -75 -64 -164 q-38 -53 -94 -94 q-15 -9 -20 -9 q-6 0 -18 16 q-6 10 -6 14 q0 5 2 7 q0 2 14 12 q92 64 121 154 q-22 -9 -42 -9 Z" /><glyph glyph-name="numbersign" unicode="#" d="M867 169 q21 -13 21 -30 q0 -22 -21 -30 l-129 -1 l-128 0 l-76 -144 q-62 -117 -72.5 -134.5 q-10.5 -17.5 -17.5 -20.5 q-7 -3 -13 -3 q-13 0 -21 9 q-8 9 -8 22 q0 8 3 15 q3 3 69.5 129 q66.5 126 66.5 127 l-166 0 l-76 -144 q-62 -117 -72.5 -134.5 q-10.5 -17.5 -17.5 -20.5 q-7 -3 -13 -3 q-13 0 -21 9 q-8 9 -8 22 q0 8 3 15 q3 3 69.5 129 q66.5 126 66.5 127 l-79 0 q-78 0 -84 3 q-18 7 -18 27 q0 21 18 28 q6 3 101 3 l96 0 l42 81 l43 81 q0 1 -111 1 q-109 0 -115 3 q-18 7 -18 27 q0 21 18 28 q6 3 132 3 l128 0 l42 79 q13 25 42 79 q29 54 35 66 q29 54 35 63 q6 9 14 12 q6 2 10 2 q12 0 21 -8 q9 -8 9 -22 q0 -9 -3 -15 q-6 -12 -40 -76 q-34 -64 -64.5 -120.5 q-30.5 -56.5 -30.5 -57.5 l13 -2 l69 0 l83 1 l76 143 q62 116 72.5 133.5 q10.5 17.5 17.5 20.5 q8 3 13 3 q12 0 20.5 -9 q8.5 -9 8.5 -21 l0 -8 l-8 -17 q-2 -3 -12 -22 q-10 -19 -26.5 -50.5 q-16.5 -31.5 -31.5 -58.5 l-61 -114 l80 -1 l80 0 q21 -13 21 -30 q0 -22 -21 -30 l-97 -1 l-97 0 l-42 -81 l-43 -81 q0 -1 111 -1 l112 0 ZM660 331 q0 1 -83 1 l-83 0 l-42 -81 l-43 -81 q0 -1 83 -1 l83 0 l42 81 l43 81 Z" /><glyph glyph-name="percent" unicode="%" d="M337 347 q-56 0 -87.5 35 q-31.5 35 -31.5 93 q0 87 41 158 q54 99 151 116 q5 1 17 1 q29 0 44 -7 q15 -7 35 -26 q71 -71 178 -71 q119 0 198 83 q14 14 19 17 q5 3 15 3 q13 0 21 -8.5 q8 -8.5 8 -20.5 q0 -9 -2 -14 q-4 -6 -362.5 -381 q-358.5 -375 -365.5 -378 q-7 -3 -13 -3 q-12 0 -21 9.5 q-9 9.5 -9 21.5 q0 8 3 13 q3 6 151 160.5 q148 154.5 294 306 q146 151.5 146 153.5 l-40 -8 q-11 -2 -49 -2 q-72 0 -134 30 l-10 5 q-1 0 -1 -10 q0 -49 -21 -110 q-19 -59 -53 -100 q-34 -41 -76 -58 q-22 -8 -45 -8 ZM318 433 q0 -35 26 -35 q6 0 9 1 q35 9 64.5 65.5 q29.5 56.5 39.5 116.5 q5 32 5 51 q0 68 -34 68 q-8 0 -19 -6 q-24 -11 -37 -41 q-15 -37 -33 -111 q-21 -88 -21 -109 ZM803 347 q49 -2 73.5 -35.5 q24.5 -33.5 24.5 -89.5 q0 -74 -33 -145 q-47 -107 -132 -129 q-11 -3 -29 -3 q-20 0 -26 1 q-94 21 -94 128 q0 46 19 107 q40 117 135 155 q30 9 41 10 q1 0 8.5 0.5 q7.5 0.5 12.5 0.5 ZM687 29 q0 -14 7 -24 q7 -10 18 -10 q19 0 41 19 q50 47 72 160 q6 30 6 55 q0 66 -35 66 q-27 0 -46 -29 q-16 -23 -42 -128 q-21 -83 -21 -109 Z" /><glyph glyph-name="ampersand" unicode="&amp;" d="M840 694 q24 0 40 -14 q16 -14 16 -37 q0 -34 -29 -85 q-12 -24 -33 -49 q-3 -4 -47 -48 q0 -1 7 -12 q40 -63 40 -140 l0 -12 q0 -33 -12 -76 q-32 -118 -128.5 -178 q-96.5 -60 -247.5 -60 q-171 0 -249 72 q-56 50 -56 127 q0 23 8 55 q21 83 71 144 l8 9 l-3 11 q-2 10 -2 36 l0 12 q0 21 7 53 q21 85 75.5 142 q54.5 57 136.5 66 q4 2 22 0 q47 0 80 -24 q33 -24 42 -62 q2 -9 2 -26 q0 -57 -38 -81 q-17 -14 -43 -14 q-24 0 -39.5 14.5 q-15.5 14.5 -15.5 37.5 q0 25 14 45 q14 20 35 29 l7 3 q0 5 -13 15 q-15 12 -39 12 q-36 0 -61 -35 q-18 -25 -43 -120 l-9 -38 q50 10 66 10 q34 0 54 -17.5 q20 -17.5 20 -50.5 q0 -6 -2 -20 q-9 -43 -38 -70 q-29 -27 -73 -27 q-31 0 -62 11 q-3 1 -4 1.5 q-1 0.5 -2 -0.5 q-2 -2 -13.5 -46.5 q-11.5 -44.5 -13.5 -58.5 q-4 -28 -4 -42 q0 -49 26 -75 q43 -47 154 -47 q193 0 263 109 q35 51 47 123 q1 8 1 31 q0 60 -34 113 l-5 9 q-5 -4 -23 -13 q-18 -9 -22 -12 q-38 -24 -49 -52 l5 4 q24 24 56 24 q25 0 40.5 -14.5 q15.5 -14.5 15.5 -38.5 q0 -32 -25 -56.5 q-25 -24.5 -59 -24.5 q-38 0 -66.5 17.5 q-28.5 17.5 -37.5 44.5 q-2 5 -3 21 q0 14 3 25 q15 57 88 104 q18 12 43 27 q51 31 75 55 q6 6 13 14 q7 8 11.5 13.5 q4.5 5.5 3.5 5.5 q-3 2 -7 4 q-27 12 -27 45 q0 32 24 57 q24 25 58 25 ZM412 424 l-2 0 q-3 1 -5 1 q-24 0 -48 -21 q-6 -5 -14.5 -14 q-8.5 -9 -9.5 -12 q0 -8 9 -19 q11 -17 37 -17 q15 0 20 12 q5 9 11 36.5 q6 27.5 5 31.5 q-1 1 -3 2 Z" /><glyph glyph-name="quotesingle" unicode="&#39;" d="M314 532 q-30 0 -48 17 q-18 17 -18 46 q0 43 30 71 q30 28 72 28 q34 -2 52 -25.5 q18 -23.5 18 -62.5 q0 -75 -59 -160 q-40 -58 -98 -99 q-15 -9 -20 -9 q-6 0 -18 16 q-6 10 -6 14 q0 8 10 15 q97 67 127 158 q-22 -9 -42 -9 Z" /><glyph glyph-name="parenleft" unicode="(" d="M324 -235 q0 -14 -27 -14 q-13 0 -15 1 q-8 4 -36 37 q-84 108 -84 277 q0 65 10 118 q29 169 115.5 314.5 q86.5 145.5 210.5 232.5 q19 12 28 19 l15 0 q16 0 19 -2 q8 -5 8 -11 q0 -6 -17 -21 q-62 -54 -106 -119 q-116 -163 -165 -413 q-20 -93 -20 -176 q0 -138 58 -230 q6 -8 6 -13 Z" /><glyph glyph-name="parenright" unicode=")" d="M275 739 q0 11 25 11 q14 0 18 -2 q4 -2 14 -13 q105 -114 105 -299 q0 -99 -29.5 -209 q-29.5 -110 -83.5 -204 q-93 -164 -236 -262 l-14 -9 l-14 -1 l-18 0 q-14 4 -10 18 q2 5 13 14 q96 87 158.5 200.5 q62.5 113.5 100.5 270.5 q34 135 34 242 q0 134 -55 222 q-8 14 -8 21 Z" /><glyph glyph-name="asterisk" unicode="*" d="M245 392 q-33 0 -38 37 q0 38 30 52 q1 1 65 24 q64 23 65 23 q-25 11 -54 23.5 q-29 12.5 -41 18 q-12 5.5 -15 8.5 q-8 8 -8 22 q0 22 15 38.5 q15 16.5 34 23.5 q18 7 30 0 q3 -1 24 -22 q21 -21 40 -40.5 q19 -19.5 19 -18.5 q2 28 5 62 q6 60 8 67 q5 17 21.5 28.5 q16.5 11.5 37.5 11.5 q17 0 28.5 -9.5 q11.5 -9.5 11.5 -24.5 q0 -6 -1 -9 l-51 -126 l7 5 q8 5 23.5 15.5 q15.5 10.5 28.5 18.5 q59 41 64 42 q5 2 16 2 q33 0 38 -37 q0 -38 -30 -52 q-1 -1 -65 -24 q-64 -23 -65 -23 q25 -11 54 -23.5 q29 -12.5 41 -18 q12 -5.5 15 -8.5 q8 -8 8 -22 q0 -22 -15 -38.5 q-15 -16.5 -34 -23.5 q-18 -7 -30 0 q-3 1 -24 22 q-21 21 -40 40.5 q-19 19.5 -19 18.5 q-2 -28 -5 -62 q-6 -61 -8 -66 q-5 -18 -22.5 -29.5 q-17.5 -11.5 -36.5 -11.5 q-17 0 -28.5 9.5 q-11.5 9.5 -11.5 24.5 q0 6 1 9 l51 126 l-122 -81 q-6 -2 -17 -2 Z" /><glyph glyph-name="plus" unicode="+" d="M586 602 q13 0 22 -8.5 q9 -8.5 9 -20.5 q0 -6 -36 -149 l-36 -143 l292 0 q21 -13 21 -30 q0 -22 -21 -30 l-154 -1 l-153 0 l-1 -4 q0 -5 -37.5 -152 q-37.5 -147 -39.5 -150 q-9 -16 -26 -16 q-11 0 -20.5 8 q-9.5 8 -10.5 20 l72 292 q0 2 -146 2 l-145 1 q-23 9 -23 30 q0 19 18 27 q6 3 158 3 l153 1 l38 150 q37 145 40 155 q8 15 26 15 Z" /><glyph glyph-name="comma" unicode="," d="M115 64 q0 40 28.5 69 q28.5 29 68.5 29 q72 0 72 -86 q0 -23 -5 -44 q-14 -61 -53.5 -118.5 q-39.5 -57.5 -96.5 -98.5 q-12 -9 -19 -9 q-5 0 -14.5 11 q-9.5 11 -9.5 19 q0 8 12 16 q69 51 106 122 q15 26 15 33 q-28 -7 -38 -7 q-30 0 -48 17 q-18 17 -18 47 Z" /><glyph glyph-name="hyphen" unicode="-" d="M111 268 q3 5 11 8 l126 0 q126 0 131 -2 q9 -4 9 -13 q0 -5 -9.5 -43 q-9.5 -38 -11.5 -42 q-2 -4 -10 -8 l-125 -1 q-126 0 -129 1 q-13 4 -13 16 l21 84 Z" /><glyph glyph-name="period" unicode="." d="M182 0 q-30 0 -48.5 18 q-18.5 18 -18.5 48 q0 11 3 20 q8 29 31.5 50 q23.5 21 53.5 25 q12 3 31 -1 q47 -12 47 -65 q-2 -40 -33 -67.5 q-31 -27.5 -66 -27.5 Z" /><glyph glyph-name="slash" unicode="/" d="M648 750 q13 0 22.5 -8.5 q9.5 -8.5 9.5 -21.5 q0 -9 -3 -14 q-5 -10 -296.5 -477.5 q-291.5 -467.5 -293.5 -469.5 q-8 -8 -21 -8 q-20 0 -28 17 q-7 13 0 25 q2 5 294 473.5 q292 468.5 295 472.5 q9 11 21 11 Z" /><glyph glyph-name="zero" unicode="0" d="M291 -17 q-183 0 -183 179 q0 28 1 36 q13 122 60 240 q79 206 265 222 l17 0 q98 0 145.5 -43 q47.5 -43 47.5 -138 q0 -59 -27 -165 q-40 -162 -113 -241 q-81 -90 -213 -90 ZM225 112 q0 -36 23 -57 q23 -21 58 -21 q37 0 70.5 25 q33.5 25 48.5 58 q21 49 63 215 q30 121 35 157 q5 27 5 48 q0 27 -15.5 45.5 q-15.5 18.5 -39.5 24.5 q-14 2 -31 2 l-10 0 q-56 -9 -91 -55 q-24 -32 -71 -219 q-45 -180 -45 -223 Z" /><glyph glyph-name="one" unicode="1" d="M504 662 q21 0 21 -16 q0 -6 -36 -151.5 q-36 -145.5 -71.5 -287.5 q-35.5 -142 -36.5 -143 q0 -2 51 -2 q51 0 56 -2 q9 -4 9 -14 q0 -20 -9 -38 q-5 -5 -12 -8 l-42 1 q-26 1 -133 1 q-38 0 -87 -1 q-49 -1 -67 -1 q-23 0 -23 18 q0 5 4 19.5 q4 14.5 6 17.5 q4 4 6 5 q5 2 59 2 l54 0 l108 432 q0 1 -15 -5 q-42 -16 -90 -19 q-18 0 -23 5 q-6 4 -6 12 q0 8 4 20 q4 16 8.5 20 q4.5 4 19.5 5 q43 3 89 20 q78 31 132 96 q12 14 24 14 Z" /><glyph glyph-name="two" unicode="2" d="M239 346 q-33 0 -55 21.5 q-22 21.5 -22 54.5 q0 58 58 133 q55 66 131 93 q39 12 69 12 q39 0 47 -1 q149 -25 149 -165 q0 -55 -18 -93 q-16 -33 -48 -64 q-53 -52 -191 -125 q-45 -23 -69.5 -40 q-24.5 -17 -54.5 -46 l-11 -10 l24 -2 q21 0 57 -4 q99 -7 121 -7 q35 0 60 12 q19 9 33.5 25 q14.5 16 17.5 32 q3 10 11 10 q2 1 26 1 q27 0 32 -7 q4 -5 -1 -19 q-16 -62 -65 -113 q-49 -51 -108 -60 q-5 -1 -18 -1 q-14 0 -28 2 q-39 9 -89 41 q-59 37 -92 38 q-17 0 -24 -8 q-13 -13 -25 -56 q-4 -13 -8.5 -15 q-4.5 -2 -29.5 -2 q-22 1 -26.5 2 q-4.5 1 -6.5 6 q-2 4 -1 12 q10 41 38 87.5 q28 46.5 66 83.5 q50 47 118 84 q28 16 51 31 q77 53 107 115 q10 21 19.5 67 q9.5 46 9.5 67 q0 71 -73 71 q-17 0 -23 -1 q-32 -7 -64.5 -29 q-32.5 -22 -52.5 -49 q-37 -48 -45 -94 q-2 -6 -2 -19 q0 -20 16 -20 q20 2 39.5 19 q19.5 17 32.5 42 q13 29 13 40 q0 7 -7.5 19.5 q-7.5 12.5 -7.5 18.5 q0 9 26 27 q5 3 8 3 q14 0 23.5 -26 q9.5 -26 9.5 -39 q0 -21 -18 -59 q-22 -44 -57 -70 q-35 -26 -72 -26 Z" /><glyph glyph-name="three" unicode="3" d="M288 413 q-34 0 -54 19.5 q-20 19.5 -20 51.5 q0 51 46 99 q57 60 163 76 q5 1 13 1 l14 0 q92 0 134 -37 q43 -35 43 -98 q0 -19 -3 -33 q-24 -110 -123 -160 l-10 -6 l1 -1 q56 -38 56 -115 q0 -46 -21 -90 q-31 -63 -98 -99.5 q-67 -36.5 -158 -36.5 q-34 0 -55 5 q-40 10 -67.5 35 q-27.5 25 -36.5 60 q-4 12 -4 31 q0 43 22 71 q22 28 61 28 q24 0 39.5 -14.5 q15.5 -14.5 15.5 -36.5 q0 -26 -15.5 -47 q-15.5 -21 -38.5 -29 q-6 -2 -6 -3 q2 -3 4 -7 q8 -18 28 -29 q22 -14 56 -14 q57 0 92 35 q24 24 42 99 q16 60 16 89 q0 21 -8.5 30.5 q-8.5 9.5 -27.5 15.5 l-37 1 q-38 0 -40 1 q-7 4 -9 10 q0 8 5.5 27 q5.5 19 10.5 22 q4 2 40 2 q47 0 65 6 q26 9 41.5 27 q15.5 18 21 34 q5.5 16 16.5 57 q12 48 12 70 q0 50 -64 50 q-87 0 -144 -69 q-22 -30 -22 -61 q0 -17 10 -17 q15 0 27.5 12 q12.5 12 12.5 26 q0 11 -10 23 q-7 10 -4 18 q3 4 15.5 14.5 q12.5 10.5 17.5 10.5 q12 0 23 -22.5 q11 -22.5 11 -39.5 q0 -21 -9 -34 q-27 -58 -90 -58 Z" /><glyph glyph-name="four" unicode="4" d="M338 -194 q-23 0 -36.5 13.5 q-13.5 13.5 -13.5 34.5 q0 9 16 74 l17 64 q0 2 -24 10 q-38 13 -54.5 16 q-16.5 3 -51.5 3 q-69 0 -88 -14 q-10 -7 -16 -7 q-6 0 -19 16 q-12 16 -12 23 q0 8 9 15 q9 7 23 15 q14 8 20 13 q214 166 303 510 q8 30 21 45 q13 15 38 22 q10 2 16 2 q21 0 36 -13 q15 -13 15 -34 q0 -8 -6 -31 q-35 -132 -118 -262.5 q-83 -130.5 -189 -221.5 l-18 -15 l6 -1 q45 -1 104 -21 q20 -6 21 -6 l35 136 q8 19 25.5 31.5 q17.5 12.5 40.5 12.5 q23 0 37.5 -14 q14.5 -14 14.5 -34 l-37 -157 q30 0 54 8 q4 1 9 1 q3 0 5 -1 q2 -1 3 -2.5 q1 -1.5 4 -6 q3 -4.5 5 -7.5 q13 -18 12 -24 q-1 -8 -17 -13 q-50 -16 -80 -17 l-12 0 l-13 -56 q-3 -12 -7 -27.5 q-4 -15.5 -6.5 -24 q-2.5 -8.5 -2.5 -9.5 q-8 -20 -27.5 -33 q-19.5 -13 -41.5 -13 Z" /><glyph glyph-name="five" unicode="5" d="M263 -16 q-67 0 -106 36.5 q-39 36.5 -39 101.5 q2 46 25 74.5 q23 28.5 65 28.5 q26 0 42.5 -15 q16.5 -15 16.5 -40 q0 -28 -18.5 -51 q-18.5 -23 -43.5 -32 q-8 -2 -8 -3 q0 -6 15 -21 q22 -22 55 -22 q39 0 72 22 q17 13 29 31 q17 27 39 114 q23 90 23 113 q0 42 -46 42 q-27 0 -47 -7 q-47 -16 -78 -53 q-8 -10 -12.5 -11.5 q-4.5 -1.5 -21.5 -1.5 q-18 0 -22 2 q-9 6 -9 13 q0 6 42.5 176.5 q42.5 170.5 44.5 173.5 q5 5 9.5 5.5 q4.5 0.5 17.5 -4.5 q63 -27 137 -27 q72 0 148 26 q18 6 22 6 q2 0 8 -4 q7 -5 2 -23 q-4 -14 -5.5 -17 q-1.5 -3 -12.5 -14 q-113 -104 -246 -104 q-37 0 -40 3 q-2 0 -16 -56 q-15 -56 -15 -57 q6 2 13 5 q43 21 90 21 q78 0 125 -40.5 q47 -40.5 47 -114.5 q0 -28 -7 -55 q-19 -85 -82 -142 q-63 -57 -152 -74 q-30 -5 -49 -5 l-12 0 Z" /><glyph glyph-name="six" unicode="6" d="M504 479 q-16 14 -16 38 q0 24 15.5 45 q15.5 21 36.5 30 l5 2 q0 5 -16 10 q-5 2 -22 2 q-17 0 -25 -2 q-41 -9 -75 -37.5 q-34 -28.5 -53 -68.5 q-19 -37 -40 -112 q0 -1 8 5 q45 40 96 40 q50 0 80.5 -14 q30.5 -14 52.5 -47 q28 -41 28 -88 q0 -32 -12 -77 q-17 -68 -51 -113 q-7 -9 -24.5 -26.5 q-17.5 -17.5 -27.5 -24.5 q-41 -32 -75 -44.5 q-34 -12.5 -89 -12.5 q-62 0 -100 26 q-68 44 -68 160 q0 25 2 43 q14 111 49 197 q43 100 122 170 q79 70 185 80 l15 0 q121 0 121 -99 q-3 -65 -49 -88 q-18 -8 -33 -8 q-24 0 -40 14 ZM454 342 q-8 38 -54 38 q-33 0 -61 -28 q-35 -37 -57 -103 q-10 -30 -21.5 -82 q-11.5 -52 -11.5 -68 q0 -22 14 -39.5 q14 -17.5 36 -17.5 l7 0 q44 0 71 30 q9 9 13 17 q14 29 35 119 q24 93 28 122 l1 12 Z" /><glyph glyph-name="seven" unicode="7" d="M519 519 q-17 0 -56.5 10.5 q-39.5 10.5 -51.5 10.5 l-11 0 q-64 0 -116 -27 q-52 -27 -76 -71 q-5 -9 -9.5 -10.5 q-4.5 -1.5 -26.5 -1.5 q-25 0 -28 2 q-7 3 -7 12 q0 4 26.5 56 q26.5 52 54.5 104 q28 52 28 53 q3 3 5 3 q1 1 26 1 q29 0 33 -6 q5 -7 -5 -28 l12 7 q56 27 108 27 q23 0 40 -15 q10 -9 23 -39 q12 -25 18 -30 q8 -9 28 -6 q47 8 102 74 q3 3 13 14 q3 2 28 2 q29 0 33 -5 q5 -7 2 -13 q0 -2 -14 -20 q-174 -227 -259 -563 q-7 -34 -29.5 -55.5 q-22.5 -21.5 -55.5 -21.5 q-43 0 -56 36 q0 4 -2 16 q0 16 11 51 q51 182 222 418 l12 17 q-4 -1 -8 -1 q-4 -1 -14 -1 Z" /><glyph glyph-name="eight" unicode="8" d="M496 368 q32 -20 52.5 -56.5 q20.5 -36.5 20.5 -79.5 q0 -18 -7 -48 q-21 -88 -95.5 -144.5 q-74.5 -56.5 -173.5 -56.5 q-74 0 -121.5 28.5 q-47.5 28.5 -59.5 84.5 q-2 12 -2 26 q0 14 2 26 q12 65 50 107 q38 42 103 75 l-8 9 q-38 38 -38 98 q0 26 6 48 q19 74 79 124.5 q60 50.5 147 50.5 q59 0 90 -12 q64 -25 76 -87 q1 -5 1 -16 q0 -81 -60 -134 q-22 -20 -59 -41 l-3 -2 ZM528 539 q0 57 -59 67 q-2 0 -9.5 0.5 q-7.5 0.5 -10.5 0.5 q-97 -2 -120 -71 q-4 -16 -4 -21 q0 -8 5 -20 q4 -8 13.5 -16 q9.5 -8 51.5 -38 l51 -36 q4 0 23.5 18 q19.5 18 27.5 30 q31 43 31 86 ZM213 123 q0 -82 90 -82 q56 0 96.5 29.5 q40.5 29.5 50.5 74.5 q1 4 1 14 q0 17 -4 26 q-5 14 -15.5 23.5 q-10.5 9.5 -59.5 45.5 l-56 39 q-2 0 -18 -13 q-36 -27 -60.5 -68.5 q-24.5 -41.5 -24.5 -88.5 Z" /><glyph glyph-name="nine" unicode="9" d="M208 179 q24 0 40 -14 q16 -14 16 -38 q0 -45 -41 -69 q-6 -3 -7 -4.5 q-1 -1.5 0.5 -2.5 q1.5 -1 7.5 -4 q16 -6 33 -6 q34 0 69 20.5 q35 20.5 57 54.5 q24 36 55 144 l-8 -6 q-44 -40 -98 -40 q-68 0 -107 33 q-50 44 -50 119 q0 88 44 160 q20 33 53.5 63 q33.5 30 70.5 48 q49 23 107 23 q37 0 44 -1 q126 -24 126 -178 q0 -30 -1 -40 q-11 -108 -47 -197 q-39 -102 -108 -168.5 q-69 -66.5 -155 -85.5 q-26 -6 -57 -6 q-57 0 -91.5 24.5 q-34.5 24.5 -34.5 73.5 q0 66 49 89 q18 8 33 8 ZM505 550 q0 26 -14.5 41.5 q-14.5 15.5 -37.5 15.5 q-30 0 -54.5 -14.5 q-24.5 -14.5 -35.5 -36.5 q-13 -28 -39 -132 q-24 -96 -24 -117 q0 -42 50 -42 q24 0 40 10 q40 22 63 76.5 q23 54.5 42 140.5 q10 44 10 58 Z" /><glyph glyph-name="colon" unicode=":" d="M252 282 q-28 0 -47 19 q-19 19 -19 47 q0 44 41 75 q22 17 44 20 q1 0 6 0.5 q5 0.5 8 0.5 q28 0 47 -17.5 q19 -17.5 19 -46.5 q0 -39 -30 -68.5 q-30 -29.5 -69 -29.5 ZM182 0 q-30 0 -48.5 18 q-18.5 18 -18.5 48 q0 11 3 20 q8 29 31.5 50 q23.5 21 53.5 25 q12 3 31 -1 q47 -12 47 -65 q-2 -40 -33 -67.5 q-31 -27.5 -66 -27.5 Z" /><glyph glyph-name="semicolon" unicode=";" d="M252 282 q-28 0 -47 19 q-19 19 -19 47 q0 44 41 75 q22 17 44 20 q1 0 6 0.5 q5 0.5 8 0.5 q28 0 47 -17.5 q19 -17.5 19 -46.5 q0 -39 -30 -68.5 q-30 -29.5 -69 -29.5 ZM115 64 q0 40 28.5 69 q28.5 29 67.5 29 q66 0 66 -81 q0 -26 -10 -62 q-23 -82 -86 -154 q-14 -16 -37 -36.5 q-23 -20.5 -28 -21.5 q-7 -2 -11.5 1 q-4.5 3 -12.5 14 q-6 9 -6 15 q0 6 18 21 q50 43 79 92 q26 46 26 53 q-18 -2 -27 -2 l-7 0 q-27 0 -43.5 17.5 q-16.5 17.5 -16.5 45.5 Z" /><glyph glyph-name="equal" unicode="=" d="M204 333 q-23 9 -23 30 q0 21 21 29 q4 1 334 1 l329 0 q21 -13 21 -30 q0 -22 -21 -30 l-661 0 ZM148 109 q-23 9 -23 30 q0 21 21 29 q4 1 334 1 l329 0 q21 -13 21 -30 q0 -22 -21 -30 l-661 0 Z" /><glyph glyph-name="question" unicode="?" d="M271 444 q-23 0 -39 14 q-16 14 -16 37 q0 15 9 40 q23 66 85 116 q62 50 133 59 q3 0 11 0.5 q8 0.5 14 0.5 q63 0 104 -31 q41 -32 41 -94 q0 -43 -18 -79 q-23 -49 -72 -86 q-120 -72 -148 -93 q-2 -3 -7 -8 q-8 -14 -8 -29 q0 -1 0 -3 l1 -2 l0 -4 l5 0 q20 0 37.5 13 q17.5 13 23.5 29 q2 4 4 7.5 q2 3.5 3.5 5 q1.5 1.5 2 3 q0.5 1.5 5 2 q4.5 0.5 9 0.5 q4.5 0 15.5 0 q24 0 28 -2 q7 -4 7 -12 q0 -8 -7 -22 q-24 -52 -111 -74 q-5 -1 -18 -1 q-77 0 -77 74 q0 45 26 87 q15 23 34 35 q3 2 73.5 46 q70.5 44 71.5 45 q23 16 39 45 q7 16 7 38 q0 26 -15 40 q-19 19 -60 19 q-53 0 -102 -40 q-21 -15 -37 -38 l-7 -9 q33 -17 33 -49 q0 -33 -23.5 -56.5 q-23.5 -23.5 -56.5 -23.5 ZM330 162 q31 0 50 -19.5 q19 -19.5 19 -46.5 q0 -39 -30.5 -67.5 q-30.5 -28.5 -66.5 -28.5 q-27 0 -47.5 17.5 q-20.5 17.5 -20.5 44.5 l0 5 q0 49 45 78 q28 17 51 17 Z" /><glyph glyph-name="at" unicode="@" d="M824 449 q0 98 -57.5 150 q-57.5 52 -156.5 52 q-33 0 -73 -8 q-72 -14 -133 -58 q-19 -13 -44 -38 q-68 -68 -101 -166 q-23 -63 -24 -126 q0 -212 223 -212 q129 0 261 48 l16 6 l35 0 q36 0 39 -2 q7 -4 7.5 -12 q0.5 -8 -6.5 -12 q-22 -14 -105 -39 q-130 -40 -259 -40 q-113 0 -185 50 q-72 50 -91 139 q-5 25 -6 59 q0 55 14 111 q20 83 70 159 q57 84 143 133.5 q86 49.5 191 57.5 l20 0 q49 0 60 -1 q165 -21 218 -152 q16 -48 16 -100 q0 -93 -38.5 -180.5 q-38.5 -87.5 -86.5 -120.5 q-36 -23 -78 -23 q-60 3 -95 38 l-10 -6 q-53 -32 -110 -32 q-79 0 -124 41.5 q-45 41.5 -45 116.5 q0 34 10 70 q29 119 125 179 q60 39 139 39 q100 0 134 -87 l0 -3 l20 0 q22 0 24 -1 q10 -2 10 -12 q0 -6 -31.5 -131.5 q-31.5 -125.5 -33.5 -140.5 q-1 -13 1.5 -17 q2.5 -4 11.5 -3 q39 6 66 80 q39 110 39 194 ZM650 465 q-21 53 -73 53 q-35 0 -66 -31 q-33 -33 -58.5 -96.5 q-25.5 -63.5 -25.5 -127.5 q0 -38 14 -63 q14 -25 43 -25 q58 0 108 60 q10 38 29 115 q19 77 29 115 Z" /><glyph glyph-name="A" unicode="A" d="M481 0 q-25 0 -25 18 q0 8 5 23 q5 15 10 18 q5 3 45 3 l42 1 q1 0 -0.5 15.5 q-1.5 15.5 -3.5 39.5 l-5 54 l-219 0 l-31 -52 l-31 -53 q5 -5 59 -5 q25 0 25 -17 q0 -2 -4 -18 q-4 -16 -6.5 -20 q-2.5 -4 -10.5 -7 l-35 1 q-22 1 -97 1 q-73 0 -89 -1 q-23 -1 -28 1 q-7 3 -10 13 q0 4 4 20 q4 19 9 23 q5 4 24 4 q47 0 73 6 q6 3 7 4 q1 1 187 312.5 q186 311.5 189 314.5 q11 12 43 12 l11 0 q31 0 33 -15 q1 -4 31 -316.5 q30 -312.5 30 -313.5 l0 -4 l41 0 q41 0 45 -2 q10 -5 10 -16 q0 -5 -4 -19.5 q-4 -14.5 -6 -17.5 q-3 -3 -11 -7 l-38 1 q-23 1 -120 1 q-35 0 -82.5 -1 q-47.5 -1 -66.5 -1 ZM531 361 l-13 126 q-34 -57 -76 -126 l-75 -126 l44 -1 l88 0 l44 1 l-12 126 Z" /><glyph glyph-name="B" unicode="B" d="M183 62 q1 6 36 146 q35 140 69.5 277 q34.5 137 34.5 138 q0 1 -44 1 q-44 0 -49 2 q-7 3 -10 13 q0 4 4 20 q6 22 13 25 q4 2 220 2 q217 -1 228 -2 q146 -23 146 -135 q0 -12 -4 -34 q-12 -49 -49.5 -86 q-37.5 -37 -89.5 -56 q-31 -13 -44 -13 q-4 0 -1 -1 l6 -1 q7 -2 18 -4 q87 -23 106 -86 q5 -15 5 -30 l0 -12 q0 -28 -9 -53 q-27 -81 -101 -128 q-50 -31 -123 -42 l-15 -2 l-226 -1 l-225 0 q-11 4 -15 15 q0 4 4 20 q6 22 13 25 q4 2 53 2 l49 0 ZM638 622 q-6 2 -91 2 l-83 0 l-29 -120 q-31 -120 -31 -121 q0 -1 73 -1 q74 1 83 3 q84 19 113 110 q11 35 11 59 q0 59 -46 68 ZM629 251 q0 62 -44 77 l-6 3 l-188 0 l-33 -133 q-33 -133 -34 -134 q0 -2 88 -2 l89 1 l11 3 q51 14 84 65 q33 51 33 120 Z" /><glyph glyph-name="C" unicode="C" d="M772 480 q0 75 -30.5 118 q-30.5 43 -89.5 43 q-147 0 -234 -107 q-52 -64 -83 -194 q-22 -84 -22 -135 q0 -79 47.5 -119.5 q47.5 -40.5 134.5 -40.5 q85 0 158 71 q49 51 68 111 q1 3 2.5 7.5 q1.5 4.5 2 6 q0.5 1.5 2 4.5 q1.5 3 2 3.5 q0.5 0.5 2.5 2.5 q2 2 3 2 q1 0 4 0.5 q3 0.5 5.5 0.5 q2.5 0 6.5 0 l11 0 q24 0 28 -2 q7 -4 7 -12 q0 -7 -9 -30 q-30 -85 -111.5 -148.5 q-81.5 -63.5 -176.5 -75.5 q-18 -3 -43 -3 q-115 0 -189 49 q-74 49 -96 137 q-8 31 -8 76 q0 54 12 102 q22 84 71 158 q53 79 134.5 129 q81.5 50 180.5 64 q24 4 59 4 q58 0 94 -14 q36 -14 71 -45 l4 -5 l40 30 q40 31 44 33 q3 2 14 2 q21 0 21 -13 q0 -4 -32 -132.5 q-32 -128.5 -34 -131.5 q-3 -5 -8 -6 q-5 -1 -29 -1 l-14 0 q-12 0 -15 1 q-3 1 -6 7 q-2 4 0 18 q1 9 1 35 Z" /><glyph glyph-name="D" unicode="D" d="M183 62 q1 6 36 146 q35 140 69.5 277 q34.5 137 34.5 138 q0 1 -44 1 q-45 0 -49 2 q-7 3 -10 13 q0 4 4 20 q6 22 13 25 q4 2 208 2 q208 0 216 -1 q104 -8 163.5 -69 q59.5 -61 59.5 -168 q0 -48 -12 -102 q-30 -132 -118.5 -224 q-88.5 -92 -218.5 -115 q-25 -5 -47.5 -5.5 q-22.5 -0.5 -200.5 -1.5 l-112 0 q-103 0 -106 5 q-1 1 -1 2 q-6 8 0 28 q6 22 13 25 q4 2 53 2 l49 0 ZM616 622 q-7 1 -78 2 l-68 0 l-70 -280 q-71 -280 -71 -281 q0 -1 44 -1 q85 0 105 2 q142 21 199 147 q17 37 39 125 q3 10 7.5 29 q4.5 19 6 25.5 q1.5 6.5 4.5 19.5 q3 13 4 19 q1 6 2 16.5 q1 10.5 1.5 19 q0.5 8.5 0.5 19.5 q0 34 -9 57 q-25 66 -117 81 Z" /><glyph glyph-name="E" unicode="E" d="M184 66 q0 1 68.5 275 q68.5 274 69.5 275 q0 2 -44 2 q-45 0 -48 2 q-11 5 -11 16 q0 5 4 19.5 q4 14.5 6 17.5 q3 3 11 7 l550 0 q14 -5 14 -15 q0 -6 -13 -116.5 q-13 -110.5 -16 -115.5 q-7 -9 -22 -9 l-11 0 q-22 0 -26 2 q-9 5 -9 16 q0 10 3 39 q3 29 3 38 q0 39 -12.5 59.5 q-12.5 20.5 -41.5 29.5 q-30 10 -125 10 l-60 0 q-4 -15 -31 -123 q-27 -108 -27 -110 q0 -1 16 -1 q58 0 80.5 17.5 q22.5 17.5 37.5 76.5 q5 17 10 20 q5 3 27 3 l8 0 q15 0 20 -2.5 q5 -2.5 8 -12.5 q0 -4 -33 -137 q-33 -133 -36 -136 q-2 -4 -6 -6 q-4 -2 -26 -2 q-25 0 -31 6 q-6 7 -1 27 q7 28 7 48 q0 22 -14 28.5 q-14 6.5 -47 7.5 q-2 0 -3.5 0 q-1.5 0 -3.5 0 l-29 0 q-11 -43 -32.5 -129 q-21.5 -86 -32.5 -129 q0 -2 67 -2 q72 1 80 2 q89 12 134 66 q32 37 73 132 q2 4 3.5 9.5 q1.5 5.5 2.5 7 q1 1.5 3 4.5 q2 3 3.5 3.5 q1.5 0.5 5.5 1.5 q4 1 9 1 q5 0 13 0 q22 0 26 -2 q9 -5 9 -15 q0 -9 -52.5 -134 q-52.5 -125 -55.5 -130 q-2 -4 -11 -8 l-566 0 q-11 4 -15 15 q0 4 4 20 q6 22 13 25 q4 2 53 2 l49 0 l1 4 Z" /><glyph glyph-name="F" unicode="F" d="M184 66 q0 1 68.5 275 q68.5 274 69.5 275 q0 2 -44 2 q-48 0 -53 5 q-6 4 -6 13 q0 17 9 35 q5 7 11 9 l536 0 q14 -5 14 -15 q0 -6 -13 -116.5 q-13 -110.5 -16 -115.5 q-7 -9 -22 -9 l-11 0 q-22 0 -26 2 q-9 5 -9 16 q0 11 3 40 q3 29 3 38 q0 21 -4 36 q-4 15 -9.5 25.5 q-5.5 10.5 -18 17.5 q-12.5 7 -22.5 11 q-10 4 -31 5.5 q-21 1.5 -35.5 2 q-14.5 0.5 -42.5 0.5 l-6 0 l-55 0 l-1 -4 q0 -3 -31 -123 l-30 -120 l23 0 q38 1 57 10 q30 14 48 83 q5 18 10 21 q5 3 28 3 q22 0 26 -2 q9 -6 9 -13 q0 -6 -32.5 -136.5 q-32.5 -130.5 -34.5 -135.5 q-6 -9 -17 -9 l-16 0 q-35 0 -35 16 q0 6 3 16 q7 28 7 49 q0 24 -14.5 29.5 q-14.5 5.5 -50.5 5.5 l-26 1 l-31 -121 q-7 -27 -14.5 -59.5 q-7.5 -32.5 -11.5 -48.5 l-4 -15 l-1 -3 l58 0 q58 0 62 -2 q10 -5 10 -16 q0 -5 -4 -19.5 q-4 -14.5 -6 -17.5 q-3 -3 -11 -7 l-48 1 q-30 1 -146 1 q-42 0 -93.5 -1 q-51.5 -1 -70.5 -1 q-21 0 -21 16 q0 8 3 17 q4 16 6 20.5 q2 4.5 8 6.5 q3 2 52 2 l49 0 l1 4 Z" /><glyph glyph-name="G" unicode="G" d="M644 42 q-73 -58 -185 -58 q-146 0 -225 76 q-21 21 -31 36 q-40 62 -40 146 q0 32 3 51 q20 155 125 267 q52 56 129.5 94.5 q77.5 38.5 167.5 46.5 q7 1 17 1 l16 0 q41 0 48 -1 q79 -13 120 -63 l40 30 q40 31 44 33 q3 2 14 2 q21 0 21 -13 q0 -4 -32 -132.5 q-32 -128.5 -34 -131.5 q-3 -5 -8 -6 q-5 -1 -29 -1 l-14 0 q-12 0 -15 1 q-3 1 -6 7 q-2 4 0 18 q2 16 2 37 q0 64 -24.5 106.5 q-24.5 42.5 -72.5 50.5 q-6 1 -29 1 q-25 0 -33 -1 q-126 -18 -196 -106 q-50 -62 -82 -193 q-22 -87 -22 -138 q0 -78 48.5 -117.5 q48.5 -39.5 133.5 -39.5 q39 0 69.5 17 q30.5 17 44.5 44 q4 8 17 58 l12 50 l-56 0 q-57 0 -60 2 q-11 5 -11 16 q0 5 4 19.5 q4 14.5 6 17.5 q3 3 11 7 l47 -1 q30 -1 135 -1 q99 0 117 1 l28 1 q15 -6 15 -17 q0 -16 -12 -40 q-6 -5 -41 -5 l-31 0 q0 -3 -26 -105 q-26 -102 -27 -104 q-5 -5 -12 -5 q-6 0 -38 17 q-32 17 -43 25 Z" /><glyph glyph-name="H" unicode="H" d="M183 62 q1 6 36 146 q35 140 69.5 277 q34.5 137 34.5 138 q0 1 -44 1 q-44 0 -49 2 q-7 3 -10 13 q0 4 4 20 q6 22 13 25 q4 2 23 2 q50 -2 161 -2 q29 0 78 1 q49 1 72 1 q23 0 23 -18 q0 -5 -4 -19.5 q-4 -14.5 -6 -17.5 q-4 -4 -6 -5 q-5 -2 -54 -2 l-49 0 l-29 -117 l-29 -118 q0 -1 128 -1 l129 0 l29 117 l29 118 q0 1 -44 1 q-44 0 -49 2 q-7 3 -10 13 q0 4 4 20 q4 14 5.5 18 q1.5 4 6 6.5 q4.5 2.5 15.5 2.5 q21 0 73 -1 q52 -1 91 -1 q38 0 87.5 1 q49.5 1 68.5 1 q23 0 23 -18 q0 -5 -4 -19.5 q-4 -14.5 -6 -17.5 q-4 -4 -6 -5 q-5 -2 -54 -2 l-49 0 l-69 -280 q-71 -280 -71 -281 q0 -1 44 -1 q45 0 49 -2 q10 -5 10 -16 q0 -5 -4 -19.5 q-4 -14.5 -6 -17.5 q-3 -3 -11 -7 l-42 1 q-26 1 -132 1 q-38 0 -88 -1 q-50 -1 -69 -1 q-17 0 -22 15 q0 4 4 20 q6 22 13 25 q4 2 53 2 l49 0 l1 4 l65 258 q0 2 -128 2 l-129 0 l-1 -4 l-65 -258 q0 -2 44 -2 q45 0 49 -2 q10 -5 10 -16 q0 -5 -4 -19.5 q-4 -14.5 -6 -17.5 q-3 -3 -11 -7 l-42 1 q-26 1 -132 1 q-38 0 -88 -1 q-50 -1 -69 -1 q-18 0 -22 15 q0 4 4 20 q6 22 13 25 q4 2 53 2 l49 0 Z" /><glyph glyph-name="I" unicode="I" d="M176 62 q1 6 36 146 q35 140 69.5 277 q34.5 137 34.5 138 q0 1 -47 1 q-47 0 -50 2 q-11 5 -11 16 q0 5 4 19.5 q4 14.5 6 17.5 q1 3 6 5 q4 2 23 2 q52 -2 168 -2 q29 0 81 1 q52 1 75 1 q17 0 22 -15 q0 -4 -4 -20 q-6 -22 -13 -25 q-4 -2 -56 -2 l-52 0 l-69 -280 q-71 -280 -71 -281 q0 -1 47 -1 q48 0 52 -2 q7 -3 10 -13 q0 -4 -4 -20 q-4 -14 -5.5 -18 q-1.5 -4 -6 -6.5 q-4.5 -2.5 -15.5 -2.5 q-22 0 -76 1 q-54 1 -94 1 q-39 0 -90 -1 q-51 -1 -71 -1 q-23 0 -23 18 q0 5 4 19.5 q4 14.5 6 17.5 q1 3 6 5 q4 2 56 2 l52 0 Z" /><glyph glyph-name="J" unicode="J" d="M156 195 q30 0 49 -17 q19 -17 19 -46 q0 -24 -14 -48 q-14 -24 -33 -35 q-2 -1 -3.5 -2 q-1.5 -1 -2.5 -2 l-1 -1 q2 0 10 -3 q23 -7 44 -7 q3 0 7 0.5 q4 0.5 6 0.5 q30 5 54.5 30 q24.5 25 37.5 65 q2 7 63 249 q61 242 61 244 q0 1 -60 1 q-61 0 -64 2 q-11 5 -11 16 q0 5 4 19.5 q4 14.5 6 17.5 q1 3 6 5 q4 2 25 2 q56 -2 175 -2 q87 0 116 1 q27 1 30 -1 q11 -5 11 -16 q0 -5 -4 -19.5 q-4 -14.5 -6 -17.5 q-7 -7 -16 -7 l-30 0 l-36 0 l-60 -244 q-15 -58 -31 -121 q-16 -63 -24.5 -96.5 q-8.5 -33.5 -8.5 -34.5 q-25 -68 -91 -106 q-66 -38 -160 -38 q-91 0 -139 42 q-28 28 -28 65 q0 46 29.5 75 q29.5 29 69.5 29 Z" /><glyph glyph-name="K" unicode="K" d="M776.5 685 q45.5 -1 74.5 -1 q29 0 61 1 q32 1 43 1 q6 0 14 -8 q5 -7 0 -26 q-5 -20 -10 -24 q-5 -4 -22 -4 q-49 0 -77 -7 q-10 -2 -29.5 -16 q-19.5 -14 -114.5 -88 l-120 -94 q0 -1 73.5 -177 q73.5 -176 74.5 -177 q1 -1 42 -3 q32 0 35 -2 q10 -6 10 -14 q0 -23 -10 -38 q-1 -3 -11 -8 l-34 1 q-20 1 -110 1 q-92 0 -118 -1 l-36 -1 q-15 6 -15 17 q0 7 3 17 q5 20 10 24 q5 4 23 4 q35 0 49 4 l-54 127 q-53 128 -54 129 q0 1 -3.5 -1.5 q-3.5 -2.5 -14 -10.5 q-10.5 -8 -26.5 -21 q-36 -26 -46 -36 q-2 -2 -25 -95 q-23 -93 -24 -94 q0 -2 44 -2 q45 0 49 -2 q10 -5 10 -16 q0 -1 -4 -19 q-4 -17 -8 -21 q-4 -4 -21 -4 q-21 0 -72.5 1 q-51.5 1 -89.5 1 q-38 0 -88 -1 q-50 -1 -69 -1 q-17 0 -22 15 q0 4 4 20 q6 22 13 25 q4 2 53 2 l49 0 q1 6 36 146 q35 140 69.5 277 q34.5 137 34.5 138 q0 1 -44 1 q-45 0 -49 2 q-7 3 -10 13 q0 4 4 20 q6 22 13 25 q4 2 23 2 q50 -2 161 -2 q29 0 78 1 q49 1 72 1 q23 0 23 -18 q0 -5 -4 -19.5 q-4 -14.5 -6 -17.5 q-1 -3 -6 -5 q-4 -2 -54 -2 l-49 0 l-33 -135 q-34 -132 -34 -136 q2 0 172 134 l172 134 l-5 0 q-24 3 -40 3 q-15 0 -19 8 q-6 7 0 27 q5 19 8 23 q3 4 16 4 q19 0 64.5 -1 Z" /><glyph glyph-name="L" unicode="L" d="M183 62 q1 6 36 146 q35 140 69.5 277 q34.5 137 34.5 138 q0 1 -44 1 q-44 0 -49 2 q-7 3 -10 13 q0 4 4 20 q6 22 13 25 q4 2 23 2 q50 -2 168 -2 q29 0 85.5 1 q56.5 1 83.5 1 q24 0 24 -18 q0 -5 -4 -19.5 q-4 -14.5 -6 -17.5 q-1 -3 -6 -5 q-4 -2 -67 -2 l-63 0 l-69 -280 q-71 -280 -71 -281 q0 -1 47 -1 q62 0 100 19 q83 40 130 172 q10 31 18 34 q4 2 25 2 l10 0 q26 0 26 -20 q-1 -4 -47 -130.5 q-46 -126.5 -48 -130.5 q-2 -4 -11 -8 l-506 0 q-11 4 -15 15 q0 4 4 20 q6 22 13 25 q4 2 53 2 l49 0 Z" /><glyph glyph-name="M" unicode="M" d="M84 0 q-16 0 -20 15 q0 4 4 20 q5 20 10.5 23.5 q5.5 3.5 36.5 3.5 q52 2 70 7 l69 276 q69 274 69 277 q0 2 -44 2 q-45 0 -49 2 q-7 3 -10 13 q0 4 4 20 q6 22 13 25 q4 2 129 2 q126 0 129 -1 q11 -3 14 -14 q0 -2 16 -115.5 q16 -113.5 33.5 -240 q17.5 -126.5 20.5 -147.5 q1 0 63.5 98.5 q62.5 98.5 144 226.5 q81.5 128 116.5 181 q2 2 5 4 q3 2 7 4.5 q4 2.5 6 3.5 l121 0 q123 0 125 -1 q13 -3 13 -17 q0 -5 -4 -19.5 q-4 -14.5 -6 -17.5 q-1 -3 -6 -5 q-4 -2 -54 -2 l-49 0 l-69 -280 q-71 -280 -71 -281 q0 -1 44 -1 q45 0 49 -2 q10 -5 10 -16 q0 -5 -4 -19.5 q-4 -14.5 -6 -17.5 q-4 -7 -19 -7 q-20 0 -70 1 q-50 1 -87 1 q-36 0 -83 -1 q-47 -1 -66 -1 q-17 0 -22 15 q0 4 4 20 q6 22 13 25 q4 2 53 2 l49 0 q134 536 134 537 q-199 -310 -335 -524 q-30 -46 -35.5 -54.5 q-5.5 -8.5 -6.5 -9.5 q-7 -7 -16 -10 l-21 0 q-22 0 -26 2 q-7 5 -9 11 q0 3 -39 284.5 q-39 281.5 -40 282.5 q0 6 -65 -255 l-64 -259 q10 -5 69 -5 q22 0 28 -6 q4 -6 4 -10 q0 -1 -4 -21 q-4 -17 -7.5 -21 q-3.5 -4 -16.5 -4 q-17 0 -58.5 1 q-41.5 1 -71.5 1 q-29 0 -68 -1 q-39 -1 -54 -1 Z" /><glyph glyph-name="N" unicode="N" d="M84 0 q-16 0 -20 15 q0 4 4 20 q5 20 10.5 23.5 q5.5 3.5 36.5 3.5 q51 2 70 7 l69 276 q69 274 69 277 q0 2 -44 2 q-44 0 -49 2 q-7 3 -10 13 q0 4 4 20 q6 22 13 25 q4 2 123 2 q95 0 109.5 -0.5 q14.5 -0.5 18.5 -4.5 l221 -445 q1 2 48.5 190.5 q47.5 188.5 47.5 190.5 q0 2 -2 2 q-8 3 -57 5 q-24 0 -30 1.5 q-6 1.5 -9 6.5 q-6 7 0 27 q6 23 12 25 q3 2 11 2 q17 0 58.5 -1 q41.5 -1 72.5 -1 q30 0 68.5 1 q38.5 1 52.5 1 q21 0 21 -18 q0 -5 -4 -19.5 q-4 -14.5 -6 -17.5 q-7 -7 -17 -7 l-22 0 q-66 -2 -71 -7 q0 -1 -76 -303.5 q-76 -302.5 -78 -305.5 q-1 -3 -6 -6 q-4 -2 -29 -2 q-29 0 -33 5 l-275 555 q-122 -486 -122 -492 q0 -6 68 -6 q18 0 22 -2 q10 -5 10 -16 q0 -5 -4 -19.5 q-4 -14.5 -6 -17.5 q-3 -3 -11 -7 l-35 1 q-21 1 -102 1 q-29 0 -68 -1 q-39 -1 -54 -1 Z" /><glyph glyph-name="O" unicode="O" d="M424 -17 q-121 0 -192.5 64 q-71.5 64 -71.5 182 q0 60 22 135 q40 140 141.5 233 q101.5 93 249.5 105 l19 0 q44 0 54 -1 q103 -13 161 -76.5 q58 -63.5 58 -170.5 q0 -52 -13 -105 q-26 -109 -88 -192.5 q-62 -83.5 -150 -128.5 q-90 -45 -190 -45 ZM718 500 q0 147 -134 147 q-24 0 -37 -5 q-67 -16 -114 -71 q-49 -57 -80 -158 q-26 -92 -34 -145 q-7 -38 -7 -74 q0 -46 14 -82 q14 -34 44 -53 q30 -19 68 -19 q25 0 52 9 q97 32 153 151 q25 51 50 146 q25 100 25 154 Z" /><glyph glyph-name="P" unicode="P" d="M183 62 q1 6 36 146 q35 140 69.5 277 q34.5 137 34.5 138 q0 1 -44 1 q-44 0 -49 2 q-10 4 -10 14 q0 3 4 17 q4 16 6 20.5 q2 4.5 8 6.5 q3 2 200 2 q200 0 210 -1 q71 -5 116.5 -36.5 q45.5 -31.5 57.5 -87.5 q1 -6 1 -27 q0 -26 -2 -35 q-15 -83 -82.5 -139.5 q-67.5 -56.5 -164.5 -69.5 q-14 -2 -99 -3 l-84 0 l-27 -111 q-6 -25 -13.5 -54.5 q-7.5 -29.5 -11.5 -43.5 l-4 -14 q0 -2 44 -2 q48 0 53 -5 q6 -4 6 -13 q0 -17 -9 -35 q-4 -6 -12 -9 l-42 1 q-26 1 -132 1 q-39 0 -88.5 -1 q-49.5 -1 -68.5 -1 q-21 0 -21 16 q0 8 3 17 q4 16 6 20.5 q2 4.5 8 6.5 q3 2 52 2 l49 0 ZM608 622 q-7 1 -74 2 l-64 0 q-43 -168 -71 -281 l55 0 q68 0 93 4 q49 8 74 38 q19 25 37 97 q15 58 15 80 q0 23 -14 37 q-17 17 -51 23 Z" /><glyph glyph-name="Q" unicode="Q" d="M752 18 q8 0 13.5 -4.5 q5.5 -4.5 5.5 -10.5 q0 -3 -4 -21 q-10 -33 -25 -63 q-44 -92 -115 -110 q-9 -2 -27 -2 q-49 0 -69 29 q-20 29 -20 87 q0 40 2 62 l0 8 l-12 -3 q-44 -7 -78 -7 q-88 0 -150.5 35 q-62.5 35 -89.5 97 q-23 51 -23 114 q0 60 22 135 q40 140 141.5 233 q101.5 93 249.5 105 l19 0 q44 0 54 -1 q103 -13 161 -76.5 q58 -63.5 58 -170.5 q0 -52 -13 -105 q-27 -116 -95 -203 q-68 -87 -164 -128 l-9 -4 l0 -1 q0 -1 0.5 -3 q0.5 -2 1.5 -4 q11 -23 23 -32 q12 -9 34 -9 q80 0 92 38 q6 15 17 15 ZM721 497 q0 72 -34.5 111 q-34.5 39 -102.5 39 q-24 0 -37 -5 q-81 -20 -139 -102 q-26 -38 -44 -83 q-17 -43 -34.5 -110.5 q-17.5 -67.5 -23.5 -114.5 q-2 -20 -2 -40 q0 -76 35 -113 l6 -7 l3 8 q9 35 42.5 59 q33.5 24 73.5 24 q54 0 81 -50 q14 -21 14 -30 q0 -3 13 9 q43 36 78 106 q18 36 41 121.5 q23 85.5 28 136.5 q2 20 2 41 ZM513 60 q-7 52 -52 52 q-23 0 -43.5 -14.5 q-20.5 -14.5 -20.5 -37.5 q0 -22 38 -22 q32 0 75 15 l3 2 l0 5 Z" /><glyph glyph-name="R" unicode="R" d="M183 62 q1 6 36 146 q35 140 69.5 277 q34.5 137 34.5 138 q0 1 -44 1 q-44 0 -49 2 q-10 4 -10 14 q0 3 4 17 q4 16 6 20.5 q2 4.5 8 6.5 q3 2 194 2 q202 -1 223 -4 q2 -1 10 -2 q112 -20 145 -87 q14 -28 14 -59 q0 -51 -31 -95 q-47 -65 -139 -96 l-15 -6 l10 -6 q55 -36 55 -98 q0 -9 -9.5 -75 q-9.5 -66 -9.5 -70 q0 -53 40 -53 q10 0 15 2 q24 13 38 61 q4 13 10 17 q4 2 26 2 q26 0 30 -4 q6 -6 6 -13 q0 -21 -26 -59 q-31 -41 -75 -55 q-10 -2 -37 -2 q-187 0 -187 112 q0 12 15 76 q16 64 16 76 q0 45 -34 64 q-12 6 -76 6 l-53 0 l-1 -4 q0 -2 -31 -125.5 q-31 -123.5 -32 -124.5 q0 -2 44 -2 q48 0 53 -5 q6 -4 6 -13 q0 -17 -9 -35 q-4 -6 -12 -9 l-42 1 q-26 1 -128 1 q-37 0 -86 -1 q-49 -1 -69 -1 q-21 0 -21 16 q0 8 3 17 q4 16 6 20.5 q2 4.5 8 6.5 q3 2 52 2 l49 0 ZM600 622 q-5 1 -70 2 l-60 0 l-32 -126 q-7 -30 -15.5 -62 q-8.5 -32 -12.5 -48 l-4 -17 q0 -2 50 -2 q78 0 107 8 q35 8 55.5 27.5 q20.5 19.5 32.5 55.5 q9 28 18 71 q3 15 3 28 q0 23 -12 37 q-20 20 -60 26 Z" /><glyph glyph-name="S" unicode="S" d="M359 45 q54 0 95 43 q41 43 41 102 q0 56 -44 74 q-2 1 -71 18.5 q-69 17.5 -71 18.5 q-45 12 -73 53.5 q-28 41.5 -28 95.5 q0 37 15 79 q37 97 124 145 q52 28 101 28 l13 0 q90 0 138 -41 q8 -8 9 -8 l61 49 q3 2 11 2 q23 0 23 -14 q0 -4 -27 -112 q-27 -108 -29 -112 q-5 -8 -15 -8 l-19 0 l-19 0 q-7 0 -15 8 l0 6 q0 5 1.5 21.5 q1.5 16.5 1.5 22.5 q0 128 -119 128 q-52 0 -86.5 -30 q-34.5 -30 -43.5 -77 q-2 -12 -2 -20 q0 -49 42 -66 q2 -1 72 -19 q71 -17 86 -25 q87 -43 87 -149 q0 -37 -16 -87 q-50 -144 -186 -180 q-31 -7 -53 -7 l-13 0 q-99 0 -156 44 q-9 7 -9 5 q-1 0 -14.5 -11 q-13.5 -11 -29 -23.5 q-15.5 -12.5 -20.5 -15.5 l-13 0 q-7 0 -10.5 2 q-3.5 2 -4 3 q-0.5 1 -4.5 7 l27 112 q4 17 9.5 37.5 q5.5 20.5 8.5 32.5 q3 12 6 24 q3 12 5.5 18 q2.5 6 5.5 7 q3 2 28 2 q29 0 33 -6 q4 -5 0 -20 q-4 -19 -4 -39 q0 -76 70 -103 q33 -15 81 -15 Z" /><glyph glyph-name="T" unicode="T" d="M201 0 q-26 0 -26 17 q0 19 9 37 q5 5 11 8 l71 0 q71 0 72 1 l9 35 q9 36 26.5 105.5 q17.5 69.5 33.5 135.5 l69 274 l-36 0 q-49 -1 -72 -9 q-20 -6 -35.5 -18 q-15.5 -12 -25.5 -22.5 q-10 -10.5 -21 -34 q-11 -23.5 -15.5 -35.5 q-4.5 -12 -16.5 -45 q-6 -18 -9 -24 q-6 -6 -31 -6 q-22 0 -26 2 q-9 5 -9 15 q0 7 37 117 q37 110 39 113 q5 7 11 9 l296 0 q296 0 300 -2 q10 -5 10 -16 q0 -3 -18 -112.5 q-18 -109.5 -19 -114.5 q-2 -6 -10 -9 q-3 -2 -25 -2 q-21 0 -25 2 q-9 4 -9 13 q-1 3 2 22 q8 56 8 83 q0 47 -25 60.5 q-25 13.5 -85 13.5 l-38 0 l-69 -273 q-15 -61 -33 -133.5 q-18 -72.5 -26 -106.5 l-9 -35 l-1 -3 l134 0 q14 -6 14 -17 q0 -7 -3 -17 q-1 -3 -2.5 -9.5 q-1.5 -6.5 -2.5 -8.5 q-1 -2 -3.5 -5 q-2.5 -3 -7 -4 q-4.5 -1 -11.5 -1 q-27 0 -93 1 q-66 1 -116 1 q-49 0 -111.5 -1 q-62.5 -1 -86.5 -1 Z" /><glyph glyph-name="U" unicode="U" d="M461 -17 q-108 0 -175.5 48.5 q-67.5 48.5 -67.5 140.5 q0 23 3 38 q2 13 27.5 115.5 q25.5 102.5 50 199.5 q24.5 97 24.5 98 q0 1 -44 1 q-45 0 -49 2 q-7 3 -10 13 q0 4 4 20 q6 22 13 25 q4 2 23 2 q50 -2 161 -2 q29 0 78 1 q49 1 72 1 q23 0 23 -18 q0 -5 -4 -19.5 q-4 -14.5 -6 -17.5 q-1 -3 -6 -5 q-4 -2 -54 -2 l-49 0 l-53 -215 q-57 -231 -60 -249 q-2 -12 -2 -27 q0 -87 108 -87 q25 0 34 1 q139 20 185 160 q5 18 53.5 210 q48.5 192 48.5 201 q0 2 -1 2 l-14 2 q-11 0 -41 2 q-34 0 -40 7 q-6 8 0 28 q6 23 12 25 q3 2 11 2 q17 0 58.5 -1 q41.5 -1 72.5 -1 q29 0 67 1 q38 1 53 1 q21 0 21 -18 q0 -5 -4 -19.5 q-4 -14.5 -6 -17.5 q-6 -7 -39 -7 q-66 -2 -71 -7 q0 -2 -51.5 -204.5 q-51.5 -202.5 -53.5 -209.5 q-29 -96 -110 -158 q-81 -62 -192 -62 Z" /><glyph glyph-name="V" unicode="V" d="M959 686 q20 0 20 -18 q0 -17 -9 -35 q-4 -7 -8 -8 q-4 -1 -18 -1 q-50 0 -71 -7 q-4 0 -8 -4 q-1 -3 -193.5 -308.5 q-192.5 -305.5 -197.5 -310.5 q-3 -5 -15 -10 l-27 -1 q-29 0 -32 1 q-10 4 -13 13 q-1 1 -41 315 l-40 312 l-40 0 l-39 1 q-13 7 -13 16 q0 16 9 34 q3 8 8 9.5 q5 1.5 21 1.5 q46 -2 145 -2 q25 0 72.5 1 q47.5 1 70.5 1 q23 0 23 -17 q0 -19 -9 -37 q-9 -9 -16 -9 q-1 0 -12 0.5 q-11 0.5 -22 0.5 q-41 0 -41 -2 q0 -6 27 -216 q27 -210 27 -216 q72 114 131 208 q59 94 97 155 q38 61 41 66 q-4 3 -48 5 q-25 0 -30 7 q-5 9 0 26 q4 20 7.5 24.5 q3.5 4.5 19.5 4.5 q16 0 55 -1 q39 -1 66 -1 q26 0 59 1 q33 1 44 1 Z" /><glyph glyph-name="W" unicode="W" d="M353 -5 l-55 627 l0 2 l-35 0 q-36 0 -40 2 q-10 4 -10 14 q0 3 4 17 q4 16 6 20.5 q2 4.5 8 6.5 q3 2 19 2 q46 -2 142 -2 q24 0 71 1 q47 1 69 1 q23 0 23 -16 q0 -1 -4 -21 q-5 -18 -11 -22 q-4 -3 -45 -3 l-42 -1 l9 -103 q8 -102 16 -205 l9 -103 q43 73 95 161 l94 161 l-4 43 q-2 43 -4 45 l0 2 l-35 0 q-36 0 -40 2 q-7 3 -10 13 q0 4 4 20 q4 14 5.5 18 q1.5 4 5 6.5 q3.5 2.5 12.5 2.5 q18 0 63.5 -1 q45.5 -1 80.5 -1 q34 0 81.5 1 q47.5 1 66.5 1 q23 0 23 -18 q0 -5 -4 -19.5 q-4 -14.5 -6 -17.5 q-4 -5 -8.5 -5.5 q-4.5 -0.5 -41.5 -1.5 l-42 -1 l9 -103 q8 -102 16 -205 l9 -103 q73 123 238 406 q-6 6 -69 6 q-26 0 -26 17 q0 4 4 18 q4 16 6.5 20 q2.5 4 10.5 7 l37 -1 q22 -1 98 -1 q70 0 83 1 q21 1 24 -1 q11 -6 11 -14 q0 -8 -4 -19 q-5 -19 -9.5 -23 q-4.5 -4 -20.5 -4 q-61 0 -71 -10 q-3 -3 -89.5 -151 q-86.5 -148 -177 -302.5 q-90.5 -154.5 -98.5 -166.5 q-15 -9 -17 -10 l-24 -1 q-25 0 -27 1 q-9 2 -13 11 q0 5 -18.5 210.5 q-18.5 205.5 -18.5 214.5 q0 5 -252 -426 q-15 -9 -17 -10 l-24 -1 q-25 0 -27 1 q-9 2 -13 11 Z" /><glyph glyph-name="X" unicode="X" d="M485 0 q-23 0 -23 18 q0 5 4 19.5 q4 14.5 6 17.5 q7 7 17 7 l22 0 q9 0 21 0 l12 1 l6 1 q-52 134 -77 202 q-3 -3 -14.5 -16 q-11.5 -13 -34 -38 q-22.5 -25 -44.5 -49 q-84 -93 -84 -96 l1 0 q11 -3 48 -5 q5 0 13 0 l7 -1 q12 -3 12 -17 q0 -17 -9 -35 q-4 -6 -12 -9 l-39 1 q-24 1 -110 1 q-83 0 -101 -1 q-26 -1 -31 1 q-10 4 -10 14 q0 3 4 17 q5 21 9.5 25 q4.5 4 26.5 4 q59 0 89 7 q6 0 13 5 q4 3 122 133 l117 130 l-52 137 q-54 139 -57 150 l-43 0 q-44 0 -47 2 q-11 5 -11 15 q0 19 9 37 q6 6 9 7 q3 1 19 1 q44 -2 146 -2 q26 0 77 1 q51 1 74 1 q20 0 20 -17 q0 -7 -3 -18 q-5 -21 -10.5 -23.5 q-5.5 -2.5 -38.5 -3.5 q-5 0 -10.5 0 q-5.5 0 -9.5 0 q-4 0 -7.5 -0.5 q-3.5 -0.5 -5.5 -0.5 l-2 0 q0 -1 29 -77.5 q29 -76.5 30 -77.5 q0 -1 18.5 19.5 q18.5 20.5 50.5 55.5 q66 73 66 76 l-1 0 q-6 2 -49 5 q-23 0 -28 8 q-5 7 0 26 q1 3 3 9.5 q2 6.5 2.5 8.5 q0.5 2 3 5 q2.5 3 6.5 4 q4 1 10 1 q19 0 64.5 -1 q45.5 -1 77.5 -1 q84 0 101 1 l26 1 q15 -6 15 -17 q0 -16 -12 -40 q-6 -5 -28 -5 q-58 0 -89 -7 q-9 -2 -13 -5 q-2 -1 -23 -23.5 q-21 -22.5 -49.5 -54.5 q-28.5 -32 -56.5 -63 q-28 -31 -48 -53 l-20 -23 l126 -333 l44 0 q43 0 48 -2 q10 -4 10 -14 q0 -3 -4 -17 q-4 -19 -8.5 -24 q-4.5 -5 -20.5 -5 q-18 0 -64 1 q-46 1 -83 1 q-36 0 -84.5 -1 q-48.5 -1 -67.5 -1 Z" /><glyph glyph-name="Y" unicode="Y" d="M595 0 q-20 0 -72 1 q-52 1 -91 1 q-103 0 -127 -1 l-34 -1 q-15 6 -15 17 q0 16 12 40 q6 5 59 5 l49 0 q17 71 53 213 q-51 146 -121 349 l-44 0 q-42 0 -47 3 q-9 5 -9 14 q0 5 3 17 q1 3 3 10 q2 7 3 8 q1 1 3 4.5 q2 3.5 5 4 q3 0.5 8 1 q5 0.5 13 0.5 q47 -2 150 -2 q26 0 77 1 q51 1 74 1 q20 0 20 -16 q0 -20 -9 -38 q-8 -8 -16 -8 l-30 0 l-35 0 l44 -127 q10 -28 21.5 -62 q11.5 -34 17.5 -50 l5 -16 q1 0 106.5 125 q105.5 125 105.5 126 q0 2 -36 4 q-4 0 -9 0 q-5 0 -8.5 0.5 q-3.5 0.5 -4.5 0.5 q-12 3 -12 17 q0 5 4 19.5 q4 14.5 6 17.5 q4 7 18 7 q17 0 57.5 -1 q40.5 -1 68.5 -1 q73 0 87 1 q23 1 26 -1 q11 -5 11 -16 q0 -1 -4 -19 q-4 -18 -9 -21.5 q-5 -3.5 -23 -3.5 q-58 0 -80 -8 q-4 0 -10 -6 q-3 -2 -145 -170 l-140 -165 l-26 -105 q-26 -105 -27 -106 q0 -2 45 -2 q45 0 49 -2 q7 -3 10 -13 q0 -4 -4 -20 q-6 -23 -11 -25 q-4 -2 -15 -2 Z" /><glyph glyph-name="Z" unicode="Z" d="M286 678 q5 5 11 8 l240 0 q240 0 241 -1 q9 -5 9 -10 q0 -7 -10 -37 q-1 -3 -245 -284.5 q-244 -281.5 -248 -285.5 l5 -2 l55 0 q72 1 99 7 q74 14 111 62 q37 48 66 136 q6 21 10.5 24.5 q4.5 3.5 29.5 3.5 q21 0 25 -2 q10 -5 10 -16 q0 -4 -42 -137 q-42 -133 -44 -136 q-2 -4 -11 -8 l-246 0 q-253 0 -255 4 l-1 1 q-1 1 -1 5 q0 13 9 40 q2 3 495 573 q-24 1 -50 1 q-15 0 -37 -0.5 q-22 -0.5 -24 -0.5 q-80 -6 -125 -48 q-45 -42 -71 -119 q-2 -5 -4.5 -11.5 q-2.5 -6.5 -3 -8 q-0.5 -1.5 -4.5 -4 q-4 -2.5 -9.5 -2.5 q-5.5 0 -17.5 0 q-25 0 -30 5 q-6 4 -6 13 q0 3 33.5 115.5 q33.5 112.5 35.5 114.5 Z" /><glyph glyph-name="bracketleft" unicode="[" d="M102 -250 q-13 5 -14 15 q0 5 61 249 q61 244 121.5 485.5 q60.5 241.5 61.5 242.5 q5 5 11 8 l128 0 q14 -6 14 -17 q0 -7 -3 -17 q-5 -21 -11 -23.5 q-6 -2.5 -48 -3.5 l-43 0 q-37 -146 -110.5 -439 q-73.5 -293 -109.5 -439 l38 0 q38 0 42 -2 q10 -5 10 -16 q0 -4 -3.5 -18.5 q-3.5 -14.5 -5.5 -16.5 q-5 -5 -11 -8 l-128 0 Z" /><glyph glyph-name="bracketright" unicode="]" d="M379 750 q13 -5 14 -15 q0 -5 -61 -249 q-61 -244 -121.5 -485.5 q-60.5 -241.5 -61.5 -242.5 q-5 -5 -11 -8 l-128 0 q-14 6 -14 17 q0 7 3 17 q5 21 11 23.5 q6 2.5 48 3.5 l43 1 q36 146 109.5 438.5 q73.5 292.5 110.5 438.5 l-38 0 q-38 0 -41 2 q-11 5 -11 16 q0 4 3.5 18.5 q3.5 14.5 5.5 16.5 q5 5 11 8 l128 0 Z" /><glyph glyph-name="underscore" unicode="_" d="M98 -43 q0 24 13 31 l5 2 l500 0 q14 -6 14 -18 q0 -22 -13 -31 l-5 -2 l-250 0 q-250 0 -253 2 q-11 5 -11 16 Z" /><glyph glyph-name="a" unicode="a" d="M264 -8 q-75 0 -120.5 43.5 q-45.5 43.5 -45.5 119.5 q0 84 50 167 q76 117 208 129 q4 2 23 0 q52 0 86 -29 l6 -4 l2 1 q2 1 4 2 q19 14 42 14 q23 0 36.5 -13 q13.5 -13 13.5 -35 q0 -7 -16.5 -74.5 q-16.5 -67.5 -35 -139.5 q-18.5 -72 -20.5 -84 q-1 -5 -1 -20 l0 -6 q0 -20 13 -20 q24 0 47 89 q6 22 9.5 26 q3.5 4 20.5 4 l10 0 q25 0 29 -2 q7 -4 7 -12 q0 -8 -10 -36 q-13 -36 -31 -65 q-28 -41 -66 -52 q-7 -2 -26 -2 q-65 0 -104 44 l-9 -6 q-56 -39 -122 -39 ZM439 347 q-13 39 -49 52 q-6 1 -25 1 q-32 0 -63 -31 q-18 -18 -30.5 -49 q-12.5 -31 -29.5 -100 q-21 -83 -21 -117 q0 -18 1 -23 q12 -37 52 -37 q56 0 99 55 l6 7 q10 40 30 121 q20 81 30 121 Z" /><glyph glyph-name="b" unicode="b" d="M268 -8 q-75 0 -119 43 q-44 43 -44 117 q0 18 3 38 q4 24 58 240 l48 192 l-4 0 q-1 0 -5 0.5 q-4 0.5 -10.5 1 q-6.5 0.5 -11.5 0.5 q-5 0 -11 0 q-6 0 -10 0.5 q-4 0.5 -5 0.5 q-12 3 -12 17 q0 5 4 19.5 q4 14.5 6 17.5 q4 4 6 5 q3 2 78 6 q75 4 89 4 q18 0 21 -15 q0 -2 -30 -126 l-31 -122 q47 21 89 21 q78 0 122.5 -43 q44.5 -43 44.5 -118 q0 -31 -7 -62 q-33 -151 -154 -210 q-54 -27 -115 -27 ZM422 342 q0 59 -55 59 q-29 0 -65 -25 q-6 -4 -20 -17.5 q-14 -13.5 -16 -17.5 l-2 -10 q-3 -10 -8 -30 q-5 -20 -9 -37 q-22 -86 -26 -107.5 q-4 -21.5 -4 -46.5 q0 -24 3 -32 q3 -8 14 -21 q16 -14 39 -14 q28 0 53.5 19.5 q25.5 19.5 38.5 46.5 q17 37 37 117 q20 79 20 116 Z" /><glyph glyph-name="c" unicode="c" d="M224 121 q0 -42 22 -60 q22 -18 68 -18 q98 4 163 63 q12 12 17 12 q6 0 18 -13 q21 -21 22 -26 q1 -8 -11 -20 q-71 -67 -223 -67 q-77 0 -129 31 q-52 31 -65 91 q-5 17 -5 35 l0 15 q0 32 7 63 q25 94 97 154.5 q72 60.5 176 69.5 l14 0 q70 0 102 -27 q32 -23 32 -64 q0 -36 -23 -61 q-23 -25 -58 -25 q-24 0 -39.5 14.5 q-15.5 14.5 -15.5 36.5 q0 40 38 69 q0 7 -34 7 q-29 0 -58 -15 q-42 -20 -66 -70 q-14 -28 -32 -100 q-17 -65 -17 -95 Z" /><glyph glyph-name="d" unicode="d" d="M264 -8 q-75 0 -120.5 43.5 q-45.5 43.5 -45.5 119.5 q0 84 50 167 q18 28 41 52 q65 63 155 76 q12 2 31 2 q42 0 77 -20 l7 -4 q1 0 25 97 l24 97 l-4 0 q-1 0 -5 0.5 q-4 0.5 -10.5 1 q-6.5 0.5 -11.5 0.5 q-5 0 -11 0 q-6 0 -10 0.5 q-4 0.5 -5 0.5 q-12 3 -12 17 q0 5 4 19.5 q4 14.5 6 17.5 q4 5 14.5 6.5 q10.5 1.5 73.5 4.5 q72 4 85 4 q18 0 21 -15 q0 -7 -146 -593 q-1 -5 -1 -23 q0 -20 13 -20 q24 0 47 89 q6 22 9.5 26 q3.5 4 20.5 4 l10 0 q25 0 29 -2 q7 -4 7 -12 q0 -8 -10 -36 q-13 -36 -31 -65 q-28 -41 -66 -52 q-7 -2 -26 -2 q-65 0 -104 44 l-9 -6 q-56 -39 -122 -39 ZM439 347 q-13 39 -49 52 q-6 1 -25 1 q-32 0 -63 -31 q-18 -18 -30.5 -49 q-12.5 -31 -29.5 -100 q-21 -83 -21 -117 q0 -18 1 -23 q12 -37 52 -37 q56 0 99 55 l6 7 q10 40 30 121 q20 81 30 121 Z" /><glyph glyph-name="e" unicode="e" d="M226 123 q0 -79 81 -79 q99 0 170 62 q12 12 17 12 q6 0 18 -13 q21 -21 22 -26 q1 -8 -11 -20 q-71 -67 -216 -67 q-77 0 -127 28 q-78 48 -78 146 q0 58 23 115 q35 77 106 124 q71 47 171 47 q58 0 97 -25 q39 -25 39 -73 q0 -15 -5 -34 q-18 -61 -93 -88 q-63 -21 -171 -21 l-30 0 l-2 -11 q-11 -43 -11 -77 ZM457 351 q0 22 -16 36 q-16 14 -41 14 q-34 0 -64 -15 q-55 -26 -84 -124 l22 0 q38 0 67 3.5 q29 3.5 57 12 q28 8.5 43.5 27 q15.5 18.5 15.5 46.5 Z" /><glyph glyph-name="f" unicode="f" d="M63 -33 q25 0 40.5 -14 q15.5 -14 15.5 -38 q0 -32 -25 -57 q-7 -7 -7 -8 q4 0 8 -1 q25 0 35 36 q7 24 37 178 q1 6 5.5 30 q4.5 24 12.5 67.5 q8 43.5 14 73.5 q26 145 27 146 l0 2 l-56 0 q-56 0 -61 2 q-9 4 -9 14 q0 20 9 38 q4 4 6 5 q4 3 63 3 l59 1 l4 21 q22 115 37 146 q44 89 139 89 q65 0 97 -32 q22 -22 22 -51 q0 -34 -23 -59.5 q-23 -25.5 -57 -25.5 q-25 0 -40.5 14 q-15.5 14 -15.5 38 q0 35 31 64 q-4 2 -10 2 q-19 0 -26 -18 q-6 -19 -23 -121 q-3 -14 -6 -31.5 q-3 -17.5 -5 -26.5 l-2 -8 l0 -2 l65 0 q64 0 69 -2 q9 -4 9 -14 q0 -20 -9 -38 q-4 -4 -6 -5 q-5 -3 -71 -3 l-68 0 l-24 -129 q-33 -181 -48 -241 q-23 -92 -55 -136 q-44 -60 -99 -75 q-10 -2 -29 -2 q-47 0 -78.5 22 q-31.5 22 -31.5 61 q0 35 23 60 q23 25 57 25 Z" /><glyph glyph-name="g" unicode="g" d="M357 21 q-42 -21 -89 -21 q-112 0 -151 82 q-17 31 -17 81 q0 27 9 66 q15 59 46 105 q34 50 86.5 81 q52.5 31 113.5 36 q2 1 17 1 q55 0 92 -29 l7 -5 q30 17 46 17 q22 0 36.5 -12.5 q14.5 -12.5 14.5 -35.5 q0 -8 -29 -125.5 q-29 -117.5 -58 -231.5 q-29 -114 -30 -115 q-22 -55 -88 -86 q-66 -31 -152 -31 q-158 0 -158 77 q0 53 49 75 q13 7 31 7 q24 0 40 -14 q16 -14 16 -37 q0 -30 -21 -54 l4 0 q15 -3 45 -3 q41 0 71 21.5 q30 21.5 44 55.5 q2 6 13 50 l12 45 ZM221 108 q0 -27 15 -42 q15 -15 40 -15 q28 0 58.5 18.5 q30.5 18.5 42.5 39.5 q4 6 32 120.5 q28 114.5 28 120.5 q0 17 -15.5 30 q-15.5 13 -32.5 19 q-10 2 -20 2 q-36 0 -68 -32 q-30 -31 -59 -147 q-21 -84 -21 -114 Z" /><glyph glyph-name="h" unicode="h" d="M435 352 q0 25 -8 36.5 q-8 11.5 -30 11.5 q-66 0 -115 -61 q-25 -33 -27 -41 q0 -4 -32 -130.5 q-32 -126.5 -37 -135.5 q-9 -17 -27 -28.5 q-18 -11.5 -37 -11.5 q-35 0 -46 27 q-5 10 -5 19 l0 12 q56 230 143 572 l-4 0 q-1 0 -5 0.5 q-4 0.5 -10.5 1 q-6.5 0.5 -11.5 0.5 q-5 0 -11 0 q-6 0 -10 0.5 q-4 0.5 -5 0.5 q-12 3 -12 17 q0 5 4 19.5 q4 14.5 6 17.5 q4 5 14.5 6.5 q10.5 1.5 73.5 4.5 q72 4 85 4 q18 0 21 -15 q0 -8 -33 -138 l-33 -130 q0 -1 1.5 0 q1.5 1 4.5 3 q51 38 119 38 q67 0 106 -28 q39 -28 39 -86 q0 -11 -4 -35 q-10 -56 -55 -176 q-21 -56 -21 -71 q0 -13 8 -13 q18 0 36 18 q26 26 41 77 q5 18 8.5 21 q3.5 3 23.5 3 l7 0 q24 0 28 -2 q7 -4 7 -12 q0 -4 -3 -13 q-16 -56 -58.5 -99.5 q-42.5 -43.5 -98.5 -43.5 q-47 0 -79.5 25 q-32.5 25 -32.5 65 q0 15 15 55 q60 160 60 215 Z" /><glyph glyph-name="i" unicode="i" d="M296 562 q-24 0 -38.5 15.5 q-14.5 15.5 -14.5 37.5 q0 28 18.5 49 q18.5 21 43.5 28 q10 2 16 2 q25 0 40.5 -14.5 q15.5 -14.5 15.5 -38.5 q0 -32 -26 -55.5 q-26 -23.5 -55 -23.5 ZM143 418 q42 34 83 34 q45 0 75 -19 q30 -19 39 -53 q2 -8 2 -16 q0 -14 -3 -23 q0 -2 -23 -63.5 q-23 -61.5 -47 -124.5 l-24 -63 q-7 -21 -7 -35 q-1 -9 0.5 -10.5 q1.5 -1.5 9.5 -1.5 q49 5 76 100 q4 14 8.5 16.5 q4.5 2.5 28.5 2.5 q25 0 29 -2 q7 -4 7 -12 q0 -15 -20 -55 q-42 -80 -110 -97 q-11 -3 -30 -3 q-49 0 -80.5 24.5 q-31.5 24.5 -31.5 67.5 q0 2 0.5 6.5 q0.5 4.5 1 7.5 q0.5 3 1.5 5 q0 1 23 63 q23 62 47 124 q24 62 24 63 q7 21 7 35 q1 9 -0.5 10.5 q-1.5 1.5 -9.5 1.5 q-48 -5 -76 -99 q-4 -15 -8.5 -17.5 q-4.5 -2.5 -29.5 -2.5 q-24 0 -28 2 q-7 4 -7 12 q0 4 3 13 q20 68 70 109 Z" /><glyph glyph-name="j" unicode="j" d="M283 616 q0 30 23.5 54 q23.5 24 55.5 24 q25 0 40.5 -14.5 q15.5 -14.5 15.5 -39.5 q0 -29 -23.5 -53.5 q-23.5 -24.5 -56.5 -24.5 q-23 0 -39 15 q-16 15 -16 39 ZM266 375 q0 14 -2.5 19.5 q-2.5 5.5 -14.5 5.5 q-30 0 -58 -29 q-28 -29 -44 -63 q-1 -4 -3 -9 q-2 -5 -2.5 -6.5 q-0.5 -1.5 -2.5 -4 q-2 -2.5 -4 -3.5 q-2 -1 -6 -2 q-4 -1 -9 -1 q-5 0 -14 0 q-25 0 -29 2 q-7 4 -7 12 q0 10 22 48 q35 57 92 89 q36 19 75 19 q60 0 97 -35 q27 -26 27 -62 q0 -14 -19 -90 q-18 -70 -32 -127 q-49 -198 -53 -207 q-16 -46 -58.5 -79.5 q-42.5 -33.5 -97.5 -45.5 q-26 -7 -58 -7 q-54 0 -77 31 q-15 19 -15 44 q0 35 23 59 q23 24 58 24 q25 0 40 -15 q15 -15 15 -41 q-3 -23 -15 -41 q-2 -3 -3.5 -5 q-1.5 -2 -0.5 -2 q3 1 6 3 q42 21 62 80 q3 9 53.5 208 q50.5 199 52.5 211 q2 12 2 20 Z" /><glyph glyph-name="k" unicode="k" d="M121 -8 q-21 0 -35.5 13 q-14.5 13 -14.5 33 l0 12 q56 230 143 572 l-4 0 q-1 0 -5 0.5 q-4 0.5 -10.5 1 q-6.5 0.5 -11.5 0.5 q-5 0 -11 0 q-6 0 -10 0.5 q-4 0.5 -5 0.5 q-12 3 -12 17 q0 5 4 19.5 q4 14.5 6 17.5 q4 4 6 5 q3 2 78 6 q75 4 89 4 q18 0 21 -15 q0 -5 -48 -198 q-49 -194 -48 -194 q1 0 18 13 q20 16 57 54 q52 51 83 71 q37 24 76 27 q72 0 72 -82 q0 -49 -20.5 -79.5 q-20.5 -30.5 -61.5 -34.5 l-3 0 q-24 0 -39.5 14 q-15.5 14 -15.5 38 q0 33 21 53.5 q21 20.5 53 26.5 l0 5 q-1 8 -8 8 q-33 0 -73 -28 q-18 -13 -78 -70 q-35 -35 -50 -47 q4 0 16 -3 q111 -20 130 -83 q2 -8 2 -25 q0 -12 -4.5 -40 q-4.5 -28 -4.5 -35 q0 -11 0.5 -15.5 q0.5 -4.5 4 -7.5 q3.5 -3 11.5 -3 q22 0 39 32 q10 19 20 59 q5 20 9 23.5 q4 3.5 24 3.5 l6 0 q25 0 29 -2 q7 -4 7 -12 q0 -12 -11 -36 q-35 -92 -98 -115 q-12 -3 -15 -3 q-12 -2 -19 -2 q-52 0 -88 27.5 q-36 27.5 -36 74.5 q0 6 2.5 22 q2.5 16 2.5 23 q0 34 -30 48 q-28 17 -46 17 l-3 1 l-21 -83 q-18 -72 -22.5 -84.5 q-4.5 -12.5 -15.5 -23.5 q-22 -22 -52 -22 Z" /><glyph glyph-name="l" unicode="l" d="M202 68 q0 -25 12 -25 q8 0 16 9 q17 19 33 83 q1 4 2 9 q1 5 2 7 q1 2 1.5 4.5 q0.5 2.5 2.5 3 q2 0.5 3.5 2 q1.5 1.5 6.5 1.5 q5 0 8.5 0 q3.5 0 12.5 0 q25 0 29 -2 q7 -4 7 -12 q0 -4 -3 -13 q-33 -121 -104 -140 q-11 -3 -25 -3 q-35 0 -64.5 14.5 q-29.5 14.5 -44.5 37.5 q-13 20 -13 44 q0 17 27 123 q21 86 38 153 l65 258 l-4 0 q-1 0 -5 0.5 q-4 0.5 -10.5 1 q-6.5 0.5 -11.5 0.5 q-5 0 -11 0 q-6 0 -10 0.5 q-4 0.5 -5 0.5 q-12 3 -12 17 q0 5 4 19.5 q4 14.5 6 17.5 q4 4 6 5 q3 2 78 6 q75 4 89 4 q18 0 21 -15 q0 -7 -146 -593 q-1 -5 -1 -18 Z" /><glyph glyph-name="m" unicode="m" d="M206 376 l0 6 q0 19 -13 19 q-24 0 -47 -89 q-6 -22 -10 -26 q-4 -4 -21 -4 l-10 0 q-24 0 -28 2 q-7 4 -7 12 q0 15 19 60 q17 39 38.5 62.5 q21.5 23.5 55.5 32.5 q5 1 23 1 q75 -3 105 -52 q4 -7 5.5 -8 q1.5 -1 2.5 -1.5 q1 -0.5 3 2.5 q2 3 5 5 q46 40 106 52 q12 2 34 2 q69 0 107 -29 q14 -10 31 -41 q14 18 50 41 q49 29 107 29 q66 0 105 -28 q39 -28 39 -86 q0 -11 -4 -35 q-10 -56 -55 -176 q-18 -50 -20 -62 q-2 -10 -2 -11 q0 -12 10 -12 q25 0 47 33 q18 24 29 63 q5 18 8.5 21 q3.5 3 23.5 3 l7 0 q24 0 28 -2 q7 -4 7 -12 q0 -4 -3 -13 q-17 -56 -59.5 -99.5 q-42.5 -43.5 -98.5 -43.5 q-47 0 -79 25.5 q-32 25.5 -32 64.5 q0 15 15 55 q60 160 60 215 q0 25 -8 36.5 q-8 11.5 -30 11.5 q-66 0 -115 -61 q-25 -33 -27 -41 q-1 -2 -31 -124 q-30 -122 -34 -134 q-7 -13 -8 -15 q-21 -33 -61 -33 q-20 0 -35 13 q-15 13 -15 33 l0 6 q0 2 16.5 70.5 q16.5 68.5 33.5 137.5 q17 69 17 70 q3 15 3 31 q0 25 -9 36 q-9 11 -31 11 q-79 0 -135 -91 l-6 -9 l-30 -124 q-7 -29 -15.5 -62 q-8.5 -33 -13.5 -51 q-5 -18 -5 -20 q-7 -22 -25.5 -36.5 q-18.5 -14.5 -43.5 -14.5 q-21 0 -36 13 q-15 13 -15 33 l0 6 q0 2 38 156 l38 155 q0 2 0.5 9.5 q0.5 7.5 0.5 11.5 Z" /><glyph glyph-name="n" unicode="n" d="M206 376 l0 6 q0 19 -13 19 q-24 0 -47 -89 q-6 -22 -10 -26 q-4 -4 -21 -4 l-10 0 q-24 0 -28 2 q-7 4 -7 12 q0 15 19 60 q17 39 38.5 62.5 q21.5 23.5 55.5 32.5 q5 1 23 1 q75 -3 105 -52 q4 -7 5.5 -8 q1.5 -1 2.5 -1.5 q1 -0.5 3 2.5 q2 3 5 5 q46 40 106 52 q12 2 34 2 q145 0 145 -116 q0 -22 -9 -55 q-13 -57 -50 -154 q-18 -50 -20 -62 q-2 -10 -2 -11 q0 -12 10 -12 q25 0 47 33 q18 24 29 63 q5 18 8.5 21 q3.5 3 23.5 3 l7 0 q24 0 28 -2 q7 -4 7 -12 q0 -4 -3 -13 q-17 -56 -59.5 -99.5 q-42.5 -43.5 -98.5 -43.5 q-47 0 -79 25.5 q-32 25.5 -32 64.5 q0 15 15 55 q60 160 60 216 q0 25 -9 36 q-9 11 -31 11 q-79 0 -135 -91 l-6 -9 l-30 -124 q-7 -29 -15.5 -62 q-8.5 -33 -13.5 -51 q-5 -18 -5 -20 q-7 -22 -25.5 -36.5 q-18.5 -14.5 -43.5 -14.5 q-21 0 -36 13 q-15 13 -15 33 l0 6 q0 2 38 156 l38 155 q0 2 0.5 9.5 q0.5 7.5 0.5 11.5 Z" /><glyph glyph-name="o" unicode="o" d="M138 301 q39 67 105 108.5 q66 41.5 154 41.5 q41 0 48 -1 q131 -19 154 -130 q2 -12 2 -38 q0 -34 -7 -65 q-24 -91 -91 -150 q-67 -59 -165 -73 q-16 -2 -40 -2 q-168 0 -195 132 q-2 12 -2 38 l0 16 q0 59 37 123 ZM224 116 q0 -72 77 -72 q75 0 116 61 q29 44 55 168 q6 31 6 55 q0 56 -55 71 q-4 1 -27 1 l-9 0 q-31 0 -58.5 -18 q-27.5 -18 -43.5 -43 q-29 -44 -55 -168 q-6 -32 -6 -55 Z" /><glyph glyph-name="p" unicode="p" d="M327 -8 q-43 0 -84 24 q-1 -1 -19 -73.5 q-18 -72.5 -18 -73.5 q0 -1 27 -1 q28 0 32 -2 q10 -5 10 -16 q0 -5 -4 -19.5 q-4 -14.5 -6 -17.5 q-3 -7 -18 -7 q-15 0 -52 1 q-37 1 -62 1 q-67 0 -81 -1 q-24 -1 -29 4 q-6 4 -6 13 q0 17 9 35 q6 9 17 9 l17 0 l24 0 l60 241 q9 37 18.5 76 q9.5 39 17 68.5 q7.5 29.5 13 53 q5.5 23.5 9 37 q3.5 13.5 3.5 14.5 q1 5 1 23 q0 20 -13 20 q-24 0 -47 -89 q-6 -22 -10 -26 q-4 -4 -21 -4 l-10 0 q-24 0 -28 2 q-7 4 -7 12 q0 15 19 60 q22 52 54 76 q29 20 63 20 q65 -3 101 -45 l9 6 q56 39 122 39 q65 0 114 -38 q52 -42 52 -124 q0 -125 -91 -220 q-64 -63 -154 -76 q-14 -2 -32 -2 ZM263 97 q18 -54 69 -54 q38 0 68 32 q18 18 30.5 49 q12.5 31 29.5 100 q21 83 21 117 q0 18 -1 23 q-13 37 -51 37 q-27 0 -55.5 -16.5 q-28.5 -16.5 -44.5 -38.5 l-6 -6 l-60 -243 Z" /><glyph glyph-name="q" unicode="q" d="M355 13 q-47 -21 -89 -21 q-79 0 -123 43 q-44 43 -44 121 q0 20 3 41 q18 104 84 173.5 q66 69.5 169 80.5 q4 2 23 0 q49 0 88 -29 q23 14 48 19 q39 11 50 11 q6 0 11.5 -5 q5.5 -5 5.5 -10 q0 -8 -70 -287.5 q-70 -279.5 -70 -280.5 q0 -1 27 -1 q28 0 32 -2 q10 -5 10 -16 q0 -5 -4 -19.5 q-4 -14.5 -6 -17.5 q-3 -3 -11 -7 l-32 1 q-20 1 -93 1 q-73 0 -91 -1 q-25 -1 -30 1 q-7 3 -10 13 q0 4 4 20 q5 20 10.5 23.5 q5.5 3.5 31.5 3.5 l40 0 q6 24 18 72.5 q12 48.5 18 72.5 ZM436 351 q-14 50 -68 50 q-29 0 -53 -19.5 q-24 -19.5 -37 -45.5 q-17 -39 -37 -118 q-20 -79 -20 -116 q0 -19 3 -26 q13 -33 50 -33 q31 0 67 25 q6 4 20 17.5 q14 13.5 16 17.5 q0 3 31 123 l30 120 l-2 5 Z" /><glyph glyph-name="r" unicode="r" d="M207 376 l0 6 q0 19 -13 19 q-26 0 -50 -95 q-5 -18 -8.5 -21 q-3.5 -3 -23.5 -3 l-7 0 q-24 0 -28 2 q-7 4 -7 12 q0 4 3 13 q16 59 45 96 q29 37 64 45 q10 2 20 2 q57 0 97 -35 l8 -8 l8 6 q47 37 107 37 q45 0 79 -18.5 q34 -18.5 48 -49.5 q8 -18 8 -39 q0 -37 -23 -63 q-23 -26 -59 -26 q-24 0 -39.5 14 q-15.5 14 -15.5 38 q0 49 48 73 q-20 20 -54 20 q-24 0 -44 -14 q-21 -13 -44 -48 q-3 -4 -19.5 -71.5 q-16.5 -67.5 -35 -141 q-18.5 -73.5 -23.5 -88.5 q-7 -20 -27 -33 q-20 -13 -41 -13 q-20 0 -35 13 q-15 13 -15 33 l0 6 q0 2 38 156 l38 155 q0 2 0.5 9.5 q0.5 7.5 0.5 11.5 Z" /><glyph glyph-name="s" unicode="s" d="M183 57 q30 -13 71 -13 q92 0 117 60 q3 9 3 20 q0 11 -2 16 q-8 17 -34 28 q-2 1 -46.5 10.5 q-44.5 9.5 -48.5 11.5 q-34 11 -55.5 37 q-21.5 26 -21.5 64 q0 43 30 90 q48 71 157 71 q78 0 115 -40 q18 -19 18 -48 q0 -32 -21 -54 q-21 -22 -53 -22 q-22 0 -34.5 13.5 q-12.5 13.5 -12.5 32.5 q0 28 29 57 q-23 10 -51 10 q-59 0 -79 -41 q-8 -16 -8 -26 q0 -12 10 -22 q7 -8 17 -11.5 q10 -3.5 45 -11.5 q55 -11 76 -23 q62 -36 62 -99 q0 -25 -11 -53 q-48 -122 -207 -122 q-32 0 -67 7 q-46 10 -71 33.5 q-25 23.5 -25 57.5 q0 37 23 62 q23 25 59 25 q25 0 40 -15 q15 -15 15 -41 q-4 -41 -39 -64 Z" /><glyph glyph-name="t" unicode="t" d="M236 -8 q-52 0 -87.5 27.5 q-35.5 27.5 -35.5 69.5 q0 13 35 153 l35 138 q0 2 -41 2 q-12 0 -23.5 -0.5 q-11.5 -0.5 -12.5 -0.5 q-7 0 -16 9 q-5 7 0 26 q5 18 9 23 q6 5 55 5 l45 0 l18 73 q18 75 21 79 q5 19 24 33 q19 14 42 14 q24 0 38 -13 q14 -13 14 -35 q0 -12 -17.5 -80.5 q-17.5 -68.5 -17.5 -69.5 q0 -1 41 -1 q41 0 45 -2 q9 -4 9 -14 q0 -20 -9 -38 q-5 -5 -7 -6 q-4 -2 -50 -2 l-45 0 q-3 -12 -21 -84 q-18 -72 -34.5 -138.5 q-16.5 -66.5 -17.5 -70.5 q-2 -12 -2 -20 q0 -15 3 -20.5 q3 -5.5 15 -5.5 q16 2 29 9 q44 22 72 85 q2 5 4.5 11 q2.5 6 3.5 7.5 q1 1.5 5 4 q4 2.5 10 2.5 q6 0 18 0 q25 0 29 -2 q7 -4 7 -14 q-2 -16 -28 -55 q-46 -70 -112 -91 q-26 -8 -50 -8 Z" /><glyph glyph-name="u" unicode="u" d="M308 -8 q-153 0 -153 131 q0 53 55 198 q20 53 20 67 q0 13 -8 13 q-24 0 -48 -31 q-18 -23 -30 -64 q-5 -18 -8.5 -21 q-3.5 -3 -23.5 -3 l-7 0 q-24 0 -28 2 q-7 4 -7 12 q0 10 10 32 q5 15 18 36 q45 77 115 87 q2 0 8 0.5 q6 0.5 9 0.5 q41 0 70 -18 q29 -18 40 -49 q2 -8 2 -22 q0 -19 -15 -59 q-32 -84 -44 -128 q-11 -46 -11 -72 q0 -61 48 -61 q25 0 50 17 q11 8 24.5 23 q13.5 15 13.5 20 q0 3 35.5 145 q35.5 142 37.5 148 q6 13 8 15 q21 33 61 33 q23 0 37 -13.5 q14 -13.5 14 -37.5 q-1 -1 -38 -152 q-37 -151 -37 -152 q-2 -12 -2 -21 q0 -25 14 -25 q14 0 28 29 q12 25 22 66 q5 18 8.5 21 q3.5 3 23.5 3 l7 0 q24 0 28 -2 q7 -4 7 -12 q0 -4 -3 -13 q-20 -73 -58 -111 q-18 -18 -32 -24.5 q-14 -6.5 -40 -6.5 q-61 0 -96 35 l-9 9 q-23 -18 -35 -25 q-12 -7 -33 -13.5 q-21 -6.5 -48 -6.5 Z" /><glyph glyph-name="v" unicode="v" d="M486 453 q32 0 49.5 -26 q17.5 -26 17.5 -66 q0 -36 -16 -100 q-7 -33 -17 -63 q-26 -74 -63 -125 q-37 -51 -80 -70 q-25 -11 -55 -11 q-167 0 -167 132 q0 37 10 72 q10 35 45 127 q19 50 19 67 q0 11 -7 11 q-19 0 -37 -18 q-26 -26 -41 -77 q-5 -18 -8.5 -21 q-3.5 -3 -23.5 -3 l-7 0 q-24 0 -28 2 q-7 4 -7 12 q0 4 3 13 q21 72 76 114 q38 29 82 29 q46 0 78 -24 q32 -24 32 -65 q0 -21 -14 -55 q-33 -88 -43.5 -125 q-10.5 -37 -10.5 -71 q0 -69 59 -69 q16 0 29 6 q58 27 101 195 q4 17 4 29 q-3 29 -38 53 q-26 17 -26 45 q0 30 25 56 q25 26 59 26 Z" /><glyph glyph-name="w" unicode="w" d="M638 371 q0 28 24.5 55 q24.5 27 54.5 27 q35 0 53.5 -25.5 q18.5 -25.5 18.5 -66.5 q0 -49 -24 -131 q-24 -82 -44 -124 q-39 -76 -91 -102 q-24 -12 -57 -12 q-67 0 -109 24 q-20 11 -29 23 q-47 -47 -103 -47 q-176 0 -176 137 q0 33 10 68 q10 35 44 124 q20 53 20 67 q0 13 -8 13 q-34 0 -60 -52 q-11 -21 -18 -43 q-5 -18 -8.5 -21 q-3.5 -3 -22.5 -3 l-7 0 q-25 0 -29 2 q-7 4 -7 12 q0 10 10 32 q19 50 60 87 q41 37 91 37 q40 0 69 -18 q29 -18 40 -49 q2 -8 2 -22 q0 -21 -14 -55 q-38 -100 -49 -152 q-4 -21 -4 -42 q0 -71 65 -71 q39 0 66 56 l0 25 q1 29 3 38 q2 11 29 119 q27 108 29 115 q7 13 8 15 q21 33 61 33 q21 0 35.5 -12.5 q14.5 -12.5 14.5 -32.5 l0 -7 q0 -6 -28.5 -122 q-28.5 -116 -30.5 -123 q-2 -13 -2 -35 q0 -36 12.5 -52 q12.5 -16 43.5 -16 q17 0 25 4 q8 4 19 16 q15 15 26 38 q22 45 45 134 q6 26 6 37 q-3 32 -51 63 q-13 14 -13 35 Z" /><glyph glyph-name="x" unicode="x" d="M154 59 q20 -16 33 -16 q26 0 45 33 q11 16 41 140 q27 102 30 122 q2 8 2 26 q1 18 -8 25 q-11 11 -37 11 q-22 0 -42 -10 q-56 -28 -75 -89 q-4 -14 -8 -16.5 q-4 -2.5 -22 -2.5 l-8 0 q-24 0 -28 2 q-7 4 -7 12 q0 2 4 16 q18 54 66 92.5 q48 38.5 106 46.5 l14 0 q89 0 133 -44 l7 6 q39 39 91 39 q45 0 76.5 -28.5 q31.5 -28.5 31.5 -74.5 q0 -38 -22.5 -65.5 q-22.5 -27.5 -59.5 -27.5 q-24 0 -39.5 14 q-15.5 14 -15.5 38 q0 48 46 72 l10 5 q-20 16 -33 16 q-26 0 -45 -33 q-8 -13 -13.5 -31.5 q-5.5 -18.5 -27.5 -106.5 q-33 -131 -33 -147 q0 -22 11 -30.5 q11 -8.5 36 -8.5 q53 0 93 55 q15 19 23 44 q4 14 8 16.5 q4 2.5 22 2.5 l8 0 q24 0 28 -2 q7 -4 7 -12 q0 -2 -4 -16 q-16 -50 -59.5 -87.5 q-43.5 -37.5 -98.5 -49.5 q-12 -2 -36 -2 q-81 0 -125 44 l-7 -6 q-39 -39 -90 -39 q-46 0 -77.5 28.5 q-31.5 28.5 -31.5 76.5 q0 38 23 64.5 q23 26.5 59 26.5 q24 0 39.5 -14 q15.5 -14 15.5 -38 q0 -47 -46 -72 l-10 -5 Z" /><glyph glyph-name="y" unicode="y" d="M309 -8 q-73 0 -113.5 32.5 q-40.5 32.5 -40.5 98.5 q0 54 55 198 q20 53 20 67 q0 13 -8 13 q-34 0 -60 -52 q-11 -21 -18 -43 q-5 -18 -8.5 -21 q-3.5 -3 -23.5 -3 l-7 0 q-24 0 -28 2 q-7 4 -7 12 q0 10 10 32 q19 49 55.5 83 q36.5 34 77.5 40 q2 0 8 0.5 q6 0.5 9 0.5 q41 0 70 -18 q29 -18 40 -49 q2 -8 2 -22 q0 -21 -14 -55 q-34 -92 -45 -132 q-11 -46 -11 -72 q0 -61 48 -61 q44 0 78 44 l8 10 l35 143 q8 33 18 72 q10 39 15.5 59 q5.5 20 5.5 22 q7 22 25.5 36.5 q18.5 14.5 43.5 14.5 q24 0 38 -13.5 q14 -13.5 14 -37.5 q-1 -7 -52 -209 q-51 -202 -54 -211 q-31 -84 -125 -139 q-69 -36 -136 -36 q-98 0 -126 55 q-7 14 -7 32 q0 35 22.5 59.5 q22.5 24.5 57.5 24.5 q24 0 39.5 -14.5 q15.5 -14.5 15.5 -37.5 q0 -32 -23 -55 l-8 -8 q17 -5 34 -5 q60 0 107 71 q21 32 35 77 q0 3 1 6 q1 3 2 5 l0 2 q-3 -1 -6 -3 q-30 -15 -69 -15 Z" /><glyph glyph-name="z" unicode="z" d="M199 422 q44 30 85 30 q18 0 29 -3 q21 -6 57 -30 q38 -25 58 -27 l6 0 l8 10 q18 24 27 39 q5 8 9.5 9.5 q4.5 1.5 26.5 1.5 q29 0 33 -6 q5 -8 0 -16 q-10 -21 -37 -53 q-53 -66 -159 -154 q-53 -45 -79 -68 q-55 -49 -55 -52 q17 0 81 5 q64 5 72 5 q47 2 70 10.5 q23 8.5 32 33.5 q2 3 8 9 l50 0 q10 -2 12 -11 q0 -8 -8 -29 q-22 -56 -71 -94 q-49 -38 -104 -40 q-24 0 -40 6 q-16 5 -49 27 q-28 18 -42 23 q-9 4 -22 4 q-11 0 -18 -3 q-29 -10 -53 -47 q-4 -8 -8.5 -9 q-4.5 -1 -26.5 -1 q-29 0 -33 6 q-5 7 4 22 q29 49 86 106 q41 41 106 95 q53 45 79 68 q53 48 53 50 l-4 -1 q-3 0 -8.5 -0.5 q-5.5 -0.5 -11.5 -0.5 q-65 -5 -99 -6 q-53 -1 -58 -7 q-4 -6 -16 -6 l-16 0 q-5 0 -10.5 0 q-5.5 0 -9.5 0.5 q-4 0.5 -5 0.5 q-11 3 -11 11 q0 17 21 51 q16 23 41 41 Z" /><glyph glyph-name="asciitilde" unicode="~" d="M294 215 q-7 0 -17 10 q-10 10 -10 18 q0 7 28 33 q44 42 70 55 q16 8 30 12 q1 0 7 0.5 q6 0.5 11 0.5 q25 -3 58 -24 q36 -26 50 -26 q29 0 73 41 q13 9 18 9 q7 0 18 -11 q12 -14 6 -25 q-2 -5 -53 -52 q-33 -27 -64 -38 q-8 -2 -23 -2 q-31 0 -66 27 q-30 22 -45 22 q-27 0 -72 -39 q-13 -11 -19 -11 Z" /><glyph glyph-name="endash" unicode="&#x2013;" d="M98 267 q0 24 13 31 l5 2 l500 0 q14 -6 14 -18 q0 -22 -13 -31 l-5 -2 l-250 0 q-250 0 -253 2 q-11 5 -11 16 Z" /><glyph glyph-name="quotedblleft" unicode="&#x201c;" d="M346 500 q30 0 48 -17 q18 -17 18 -47 q0 -34 -22 -60 q-22 -26 -53 -35 q-8 -2 -24 -2 q-16 0 -24 2 q-50 18 -50 86 q0 75 64 164 q38 54 94 93 q12 10 19 10 q5 0 11 -6 q14 -19 14 -24 q0 -5 -2 -7 q0 -2 -14 -12 q-92 -64 -121 -154 q22 9 42 9 ZM596 500 q30 0 48 -17 q18 -17 18 -47 q0 -34 -22 -60 q-22 -26 -53 -35 q-8 -2 -24 -2 q-16 0 -24 2 q-50 18 -50 86 q0 75 64 164 q38 54 94 93 q12 10 19 10 q5 0 11 -6 q14 -19 14 -24 q0 -5 -2 -7 q0 -2 -14 -12 q-92 -64 -121 -154 q22 9 42 9 Z" /><glyph glyph-name="quotedblright" unicode="&#x201d;" d="M283 532 q-30 0 -48 17 q-18 17 -18 46 q0 43 30 71 q30 28 72 28 q35 -2 53 -26 q18 -24 18 -63 q0 -75 -64 -164 q-38 -53 -94 -94 q-15 -9 -20 -9 q-6 0 -18 16 q-6 10 -6 14 q0 5 2 7 q0 2 14 12 q92 64 121 154 q-22 -9 -42 -9 ZM533 532 q-30 0 -48 17 q-18 17 -18 46 q0 43 30 71 q30 28 72 28 q35 -2 53 -26 q18 -24 18 -63 q0 -75 -64 -164 q-38 -53 -94 -94 q-15 -9 -20 -9 q-6 0 -18 16 q-6 10 -6 14 q0 5 2 7 q0 2 14 12 q92 64 121 154 q-22 -9 -42 -9 Z" /></font>
</defs>
</svg>
