<?xml version="1.0" standalone="no"?><!DOCTYPE svg PUBLIC "-//W3C//DTD SVG 1.1//EN" "http://www.w3.org/Graphics/SVG/1.1/DTD/svg11.dtd" ><svg xmlns="http://www.w3.org/2000/svg"><metadata></metadata><defs><font id="FontForge 2.0 : KaTeX_Main-Italic" horiz-adv-x="999"><font-face font-family="KaTeX_Main" font-weight="400" font-stretch="normal" units-per-em="1000" panose-1="0 0 0 0 0 0 0 0 0 0" ascent="750" descent="-250" x-height="0" bbox="-32 -250 1123 750" underline-thickness="50" underline-position="-125" unicode-range="U+0020-201d" /><missing-glyph horiz-adv-x="250" d="M50 0 l0 533 l150 0 l0 -533 l-150 0 ZM100 50 l50 0 l0 433 l-50 0 l0 -433 Z" /><glyph glyph-name="exclam" unicode="!" d="M330 716 q21 0 35.5 -12 q14.5 -12 14.5 -34 l0 -11 l-76 -226 q-74 -226 -77 -229 q-2 -6 -22 -6 q-21 0 -21 9 q0 9 36.5 232 q36.5 223 39.5 230 q10 25 37 39 q3 1 7 2.5 q4 1.5 7 2.5 q3 1 5 1 q8 2 14 2 ZM107 51 q3 29 23 49.5 q20 20.5 49 20.5 q23 0 37.5 -13.5 q14.5 -13.5 14.5 -35.5 q0 -26 -23 -49 q-23 -23 -52 -23 q-21 0 -35 13.5 q-14 13.5 -14 37.5 Z" /><glyph glyph-name="quotedbl" unicode="&quot;" d="M264 573 q-23 0 -36.5 12.5 q-13.5 12.5 -13.5 34.5 q0 30 22 52 q22 22 53 22 q23 0 37.5 -17.5 q14.5 -17.5 14.5 -43.5 l0 -9 q0 -22 -2 -33 q-21 -90 -86 -162 q-25 -29 -49 -46 q-10 -7 -21 6 q-7 11 -7 12 q0 5 13 15 q69 56 98 131 q12 29 12 35 q-4 -1 -7 -3 q-12 -6 -28 -6 ZM461 573 q-23 0 -36.5 12.5 q-13.5 12.5 -13.5 34.5 q0 30 22 52 q22 22 53 22 q23 0 37.5 -17.5 q14.5 -17.5 14.5 -43.5 l0 -9 q0 -22 -2 -33 q-21 -90 -86 -162 q-25 -29 -49 -46 q-10 -7 -21 6 q-7 10 -7 12 q0 5 13 15 q69 56 98 131 q12 29 12 35 q-4 -1 -7 -3 q-12 -6 -28 -6 Z" /><glyph glyph-name="numbersign" unicode="#" d="M115 153 q0 10 16 20 l175 0 l38 77 q38 76 38 77 l-101 0 q-102 0 -105 2 q-12 5 -12 18 q0 12 12 18 q3 2 116 2 l112 0 l78 159 l81 162 q6 6 15 6 q8 0 14 -7.5 q6 -7.5 5 -16.5 q0 -3 -66 -135 q-16 -32 -33 -67 q-17 -35 -28.5 -58 q-11.5 -23 -12.5 -25 l-9 -18 l166 0 l78 159 l81 162 q6 6 14 6 q7 0 14 -5.5 q7 -5.5 7 -13.5 q0 -3 -1 -5 q0 -3 -75 -153 l-74 -149 l78 -1 l78 0 q14 -10 14 -20 q0 -10 -16 -20 l-175 0 l-38 -77 q-38 -76 -38 -77 l101 0 q81 0 93.5 -0.5 q12.5 -0.5 17.5 -4.5 q6 -6 6 -15 q0 -9 -6 -15 q-5 -4 -19 -4.5 q-14 -0.5 -103 -0.5 l-111 0 l-79 -159 q-9 -18 -18 -36.5 q-9 -18.5 -16.5 -33.5 q-7.5 -15 -15 -29.5 q-7.5 -14.5 -13 -25.5 q-5.5 -11 -9.5 -19 q-4 -8 -7 -13 l-2 -5 q-6 -6 -14 -6 q-7 0 -14 5.5 q-7 5.5 -7 13.5 q0 3 1 5 q0 3 66 135 q16 32 33 67 q17 35 28.5 58 q11.5 23 12.5 25 l9 18 l-165 0 l-79 -159 q-9 -18 -18 -36.5 q-9 -18.5 -16.5 -33.5 q-7.5 -15 -15 -29.5 q-7.5 -14.5 -13 -25.5 q-5.5 -11 -9.5 -19 q-4 -8 -7 -13 l-2 -5 q-6 -6 -14 -6 q-7 0 -14 5.5 q-7 5.5 -7 13.5 q0 3 1 5 q0 3 75 153 l74 150 l-78 0 l-77 1 q-15 7 -15 19 ZM592 327 l-165 0 l-38 -77 q-38 -76 -38 -77 l165 0 l38 77 q38 76 38 77 Z" /><glyph glyph-name="percent" unicode="%" d="M346 736 q23 14 48 14 q24 0 36 -7.5 q12 -7.5 28 -28.5 q54 -70 148 -70 q24 0 31 1 q99 14 165 87 q13 15 17 16 q6 2 8 2 q7 0 13.5 -5.5 q6.5 -5.5 6.5 -14.5 q0 -3 -1 -5 q-2 -6 -169.5 -200 q-167.5 -194 -333 -384.5 q-165.5 -190.5 -167.5 -192.5 q-5 -4 -11 -4 q-8 0 -14 6.5 q-6 6.5 -6 14.5 q0 2 2 8 q3 5 144.5 168.5 q141.5 163.5 280.5 324.5 q139 161 139 162 l-10 -4 q-49 -17 -97 -17 q-51 0 -110 27 l-15 8 l0 -18 q0 -79 -40 -157 q-47 -95 -116 -117 q-7 -2 -22 -2 q-16 0 -22 2 q-34 10 -54 44 q-20 34 -20 86 q0 16 1 22 q7 75 46.5 141.5 q39.5 66.5 93.5 92.5 ZM434 627 q0 68 -29 83 q-11 5 -24 2 q-29 -10 -53 -49 q-20 -32 -40 -113 q-18 -69 -18 -99 l0 -8 q0 -36 14 -50 q9 -9 22 -8 q10 0 17.5 3 q7.5 3 11.5 6.5 q4 3.5 13 12.5 q66 63 84 187 q2 16 2 33 ZM704 347 q42 0 63 -35.5 q21 -35.5 21 -89.5 q0 -74 -32.5 -144 q-32.5 -70 -82.5 -109 q-32 -25 -65 -25 q-58 0 -86 71 q-9 28 -9 61 q0 64 26 122.5 q26 58.5 65 97.5 q51 51 100 51 ZM742 222 q0 88 -42 88 q-6 0 -9 -1 q-20 -5 -39 -27 q-19 -22 -32 -55 q-12 -31 -26 -88 q-16 -64 -16 -97 q0 -46 22 -58 q12 -6 28 0 q38 15 74 83 q40 78 40 155 Z" /><glyph glyph-name="ampersand" unicode="&amp;" d="M626 300 q0 -24 -18 -41 q-18 -17 -45 -17 q-33 2 -52.5 22.5 q-19.5 20.5 -19.5 55.5 q4 45 40 83 q25 25 82 63 q44 30 71.5 57.5 q27.5 27.5 47.5 66.5 l6 11 q0 1 -2 1 q-12 0 -20.5 11 q-8.5 11 -8.5 25 q0 23 17 39.5 q17 16.5 40 16.5 q35 0 38 -34 q0 -11 -3 -22 q-29 -99 -107 -168 l-4 -3 q47 -71 47 -140 q0 -27 -2 -45 q-22 -140 -114.5 -222 q-92.5 -82 -243.5 -82 q-74 0 -130.5 27.5 q-56.5 27.5 -87.5 74.5 q-30 45 -30 101 q0 30 14 72 q22 67 66 121 l9 12 q-7 35 -7 58 q0 24 2 35 q14 87 70 155.5 q56 68.5 124 79.5 q10 2 19 2 q49 0 77.5 -32.5 q28.5 -32.5 28.5 -82.5 q0 -38 -16 -62 q-16 -24 -47 -24 q-17 0 -28.5 10.5 q-11.5 10.5 -11.5 27.5 q0 20 13.5 35 q13.5 15 31.5 20 q6 2 9 2 l2 0 l0 7 q-3 27 -20 44.5 q-17 17.5 -44 17.5 q-27 0 -51 -23 q-24 -23 -40 -53 q-17 -35 -34 -104 q-3 -11 -6 -24.5 q-3 -13.5 -4 -22.5 l-2 -9 q34 15 37 16 q28 10 52 10 q27 0 43 -19 q16 -19 16 -46 q0 -38 -24 -68 q-24 -30 -57 -39 q-12 -2 -18 -2 q-39 0 -75 27 q-4 0 -26 -83 q-13 -49 -13 -81 q0 -72 46 -107.5 q46 -35.5 124 -35.5 q66 0 120 19 q122 45 166 189 q15 49 15 94 q0 44 -16 80 q-5 11 -14 25.5 q-9 14.5 -11 14.5 q-7 0 -55 -36 q-47 -35 -54 -69 q-2 -22 3 -22 q13 25 46 25 q17 0 28 -9.5 q11 -9.5 11 -25.5 ZM335 332 q24 0 37.5 24.5 q13.5 24.5 13.5 55.5 q0 20 -20 20 q-30 0 -60 -30 q-22 -22 -22 -27 l0 -1 q1 -2 2 -4 q1 -2 1 -4 q16 -34 48 -34 Z" /><glyph glyph-name="quotesingle" unicode="&#39;" d="M300 573 q-23 0 -36.5 12.5 q-13.5 12.5 -13.5 34.5 q0 30 22 52 q22 22 53 22 q23 0 37.5 -17.5 q14.5 -17.5 14.5 -43.5 l0 -9 q0 -22 -2 -33 q-18 -79 -75 -150 q-32 -40 -62 -59 q-10 -6 -19 7 q-6 9 -6 12 q0 5 12 15 q69 56 98 131 q12 26 12 35 q-4 -1 -7 -3 q-12 -6 -28 -6 Z" /><glyph glyph-name="parenleft" unicode="(" d="M241 -250 q-46 46 -71.5 122.5 q-25.5 76.5 -25.5 166.5 q0 78 18 166 q50 243 184 412 q73 87 141 133 l12 0 q8 0 11.5 -0.5 q3.5 -0.5 5 -2.5 q1.5 -2 1.5 -7 q0 -4 -22 -24 q-117 -106 -188 -274 q-79 -188 -97 -381 q-2 -24 -2 -58 q0 -78 14 -131.5 q14 -53.5 46 -103.5 q4 -5 4 -10 q0 -8 -20 -8 l-11 0 Z" /><glyph glyph-name="parenright" unicode=")" d="M35 -250 q-8 0 -11.5 0.5 q-3.5 0.5 -5 2.5 q-1.5 2 -1.5 7 q0 4 22 24 q117 106 188 274 q80 188 97 382 q2 24 2 57 q0 78 -14 131.5 q-14 53.5 -46 103.5 l-4 8 q0 6 5 9 l5 1 q4 0 9 0 l12 0 q46 -46 71.5 -122.5 q25.5 -76.5 25.5 -166.5 q0 -77 -18 -166 q-50 -244 -184 -411 q-68 -85 -141 -134 l-12 0 Z" /><glyph glyph-name="asterisk" unicode="*" d="M239 616 q0 15 13.5 28.5 q13.5 13.5 29.5 13.5 q1 0 3 -0.5 q2 -0.5 3 -0.5 q5 -1 47 -42 l43 -42 q6 33 13 74 q10 61 12.5 72 q2.5 11 9.5 18 q8 8 21 12 q1 0 5 0.5 q4 0.5 6 0.5 q22 -2 24 -22 q0 -5 -12.5 -43.5 q-12.5 -38.5 -24.5 -74.5 l-12 -37 l30 20 q30 20 61.5 40.5 q31.5 20.5 34.5 21.5 q6 3 12 3 q10 0 18 -8 q8 -8 8 -19 q0 -22 -22 -33 l-34 -16 q-33 -16 -66 -32 l-34 -15 q0 -2 51 -33 q51 -30 55 -34 q5 -5 5 -18 q-1 -15 -14.5 -26.5 q-13.5 -11.5 -27.5 -11.5 q-8 0 -11 2 q-3 2 -43 41 q-40 39 -43 39 l-13 -74 q-10 -59 -12.5 -70 q-2.5 -11 -9.5 -18 q-12 -12 -29 -12 l-2 0 q-11 0 -18 6.5 q-7 6.5 -7 16.5 q0 1 24 75 q24 74 26 78 l-125 -82 q-6 -3 -13 -3 q-26 0 -26 28 q2 11 4 15 q5 9 16 15.5 q11 6.5 68 32.5 l70 32 q-24 15 -53 32 q-52 32 -56 36 q-5 7 -5 14 Z" /><glyph glyph-name="plus" unicode="+" d="M502 548 q1 5 9.5 7.5 q8.5 2.5 14.5 -0.5 q12 -5 12 -17 q0 -2 -31.5 -129.5 q-31.5 -127.5 -34.5 -136.5 q0 -2 132 -2 q133 0 137 -2 q11 -6 11 -18 q0 -12 -11 -18 q-4 -2 -142 -2 l-137 0 l-1 -4 q0 -2 -34 -135.5 q-34 -133.5 -35 -137.5 q-6 -10 -17 -10 q-8 0 -14 5.5 q-6 5.5 -6 14.5 q0 6 33 136 l33 131 l-133 0 q-133 0 -136 2 q-12 6 -12 19 q0 11 12 17 q3 2 141 2 l138 0 l34 137 q34 136 37 141 Z" /><glyph glyph-name="comma" unicode="," d="M180 121 q52 0 52 -67 q0 -18 -2 -30 q-20 -94 -83 -165 q-15 -17 -34 -35 q-19 -18 -24 -18 q-5 0 -12.5 9.5 q-7.5 9.5 -7.5 13.5 q0 4 11 13 q18 13 44 44 q41 48 60 108 q4 12 4 13 q-2 0 -5 -2 q-15 -5 -27 -5 q-23 0 -36.5 12 q-13.5 12 -13.5 34 q0 28 18 48 q18 20 43 26 q1 0 6 0.5 q5 0.5 7 0.5 Z" /><glyph glyph-name="hyphen" unicode="-" d="M334 251 q7 -7 7 -10 q0 -4 -6 -28 q-6 -24 -8 -27 q-2 -5 -15.5 -5.5 q-13.5 -0.5 -106.5 -0.5 q-113 0 -117 3 q-4 4 -4 7 q0 5 6 29 q6 25 13 32 l231 0 Z" /><glyph glyph-name="period" unicode="." d="M156 0 q-21 0 -35 13.5 q-14 13.5 -14 36.5 q0 29 22 50 q22 21 52 21 q21 0 35.5 -13.5 q14.5 -13.5 14.5 -35.5 q0 -29 -22.5 -50.5 q-22.5 -21.5 -52.5 -21.5 Z" /><glyph glyph-name="slash" unicode="/" d="M581 742 q4 8 15 8 q7 0 14 -5.5 q7 -5.5 7 -13.5 q0 -3 -1 -5 q-1 -3 -279 -482.5 q-278 -479.5 -282 -485.5 q-6 -8 -15 -8 q-9 0 -15.5 7.5 q-6.5 7.5 -4.5 16.5 q1 3 279 482.5 q278 479.5 282 485.5 Z" /><glyph glyph-name="zero" unicode="0" d="M414 665 q148 0 148 -175 q0 -64 -28 -172 q-41 -164 -109 -249 q-52 -65 -125 -84 q-24 -6 -49 -6 q-136 0 -141 165 q0 55 12 114 q27 134 67 221 q42 90 98 135 q52 43 115 51 l12 0 ZM187 98 q0 -37 21 -60 q21 -23 52 -23 q14 0 31 6 q43 15 74 62 q29 44 81 255 q41 165 41 209 q0 31 -15 52 q-15 21 -39 28 q-5 1 -25 1 q-29 0 -55 -18 q-26 -18 -42 -41 q-30 -41 -81 -247 q-32 -126 -40 -179 q-3 -23 -3 -45 Z" /><glyph glyph-name="one" unicode="1" d="M248 491 q-20 0 -20 11 q0 14 8 30 q1 5 20 6 q33 3 58 14 q69 29 123 102 q8 10 9 10 q4 2 8 2 q14 0 14 -8 q0 -8 -73.5 -302 q-73.5 -294 -73.5 -297 q0 -7 7 -8 q11 -4 60 -5 l34 0 q6 -9 6 -11 q0 -16 -7 -30 q-5 -5 -16 -5 q-18 0 -63 1 q-45 1 -79 1 q-33 0 -76 -1 q-43 -1 -60 -1 q-17 0 -17 11 q0 2 3.5 14.5 q3.5 12.5 4.5 14.5 q2 6 28 6 q57 0 75 5 q7 1 14 10 l118 465 q0 1 -8 -4 q-44 -26 -97 -31 Z" /><glyph glyph-name="two" unicode="2" d="M216 336 q-25 0 -41 17 q-16 17 -16 43 l0 8 q0 23 11 56 q27 83 84 140 q33 33 64 47 q38 19 77 19 q69 0 112.5 -47.5 q43.5 -47.5 43.5 -121.5 q0 -24 -6 -51 q-11 -58 -63 -113 q-47 -47 -155 -110 q-43 -25 -63 -39 q-48 -33 -85 -83 l-8 -10 q0 -1 6 -1 q33 0 87 -12 q71 -14 102 -14 q19 0 24 1 q28 8 51 33 q23 25 34 58 q4 12 6.5 14.5 q2.5 2.5 13.5 2.5 l23 0 q5 -5 5.5 -6.5 q0.5 -1.5 -2.5 -14.5 q-24 -85 -75 -133 q-44 -41 -93 -41 q-23 0 -42 8 q-19 8 -52 29 q-43 30 -66 35 q-12 3 -21 3 q-13 0 -21 -8 q-15 -13 -26 -47 q-4 -12 -4 -14 q-2 -6 -23 -6 l-16 0 q-8 8 -2 24 q21 72 71.5 134.5 q50.5 62.5 122.5 105.5 q83 48 131 108 q43 56 55 133 q6 31 6 55 q0 40 -20.5 65.5 q-20.5 25.5 -56.5 25.5 q-11 0 -23 -3 q-44 -9 -84 -52 q-40 -43 -62 -106 q-16 -43 -16 -69 q0 -15 3.5 -20.5 q3.5 -5.5 14.5 -5.5 q54 3 84 107 q1 4 1 13 q0 15 -7 29 q-5 9 -3 13 q1 3 10 10.5 q9 7.5 14 7.5 q11 0 17 -19 q6 -19 6 -37 q0 -15 -2 -23 q-15 -55 -46 -94.5 q-31 -39.5 -77 -43.5 l-3 0 Z" /><glyph glyph-name="three" unicode="3" d="M276 320 q0 3 3.5 17 q3.5 14 3.5 15 q1 4 7 5 q6 1 35 1 q39 1 43 2 q93 23 117 167 q2 8 2 29 q0 73 -73 73 q-27 0 -55 -11 q-67 -24 -100 -88 q-14 -28 -14 -54 q0 -26 19 -26 q18 0 31 14 q13 14 13 32 q0 13 -8 26 q-7 11 6 22 q11 9 16 9 q9 0 16.5 -19 q7.5 -19 7.5 -33 q0 -34 -26.5 -61.5 q-26.5 -27.5 -61.5 -27.5 q-26 0 -42 18 q-16 18 -16 48 q0 16 2 22 q12 65 79 118 q65 48 135 48 q53 0 88.5 -24 q35.5 -24 49.5 -66 q8 -24 8 -46 q0 -23 -10 -56 q-14 -43 -46.5 -80 q-32.5 -37 -75.5 -59 l-14 -6 q63 -41 63 -123 q0 -91 -70.5 -154.5 q-70.5 -63.5 -158.5 -72.5 q-7 -1 -21 -1 q-54 0 -87.5 27.5 q-33.5 27.5 -44.5 74.5 q-1 6 -1 26 q0 86 61 86 q35 0 40 -35 q0 -26 -15.5 -42 q-15.5 -16 -39.5 -19 l1 -4 q5 -35 28 -56 q23 -21 61 -21 q53 0 99 42 q32 33 52 112 q13 51 13 77 q0 49 -41 63 q-6 2 -39 3 q-6 0 -15 -0.5 q-9 -0.5 -11 -0.5 q-14 0 -14 9 Z" /><glyph glyph-name="four" unicode="4" d="M253 -165 q34 155 39 160 q0 2 -24 11 q-59 23 -99 23 q-57 0 -78 -15 q-19 -16 -26 -13 q-3 2 -11 13 q-8 11 -8 14 q0 8 9 16 q9 8 22.5 16.5 q13.5 8.5 18.5 13.5 q210 185 300 549 q14 43 50 43 q14 0 23 -9.5 q9 -9.5 9 -22.5 q0 -1 -0.5 -3.5 q-0.5 -2.5 -0.5 -3.5 q-7 -38 -34 -114 q-86 -244 -256 -414 l-23 -24 l14 0 q43 0 105 -25 q18 -7 21 -7 q0 5 21 84 q17 68 21 80.5 q4 12.5 12 20.5 q14 14 33 14 q13 0 22.5 -8 q9.5 -8 9.5 -20 q0 -8 -22 -99 q-22 -89 -23 -90 q0 -2 9 -2 q29 0 54 9 q9 3 11.5 1.5 q2.5 -1.5 10.5 -11.5 q10 -12 10 -17 q0 -7 -16 -12 q-40 -15 -74 -16 l-17 0 l-16 -68 q-14 -55 -18.5 -68 q-4.5 -13 -11.5 -21 q-14 -14 -34 -14 q-29 0 -33 29 Z" /><glyph glyph-name="five" unicode="5" d="M196 304 q-7 5 -7 10 q0 3 42.5 173 q42.5 170 43.5 173 q4 9 20 1 q52 -26 118 -26 q66 0 130 26 q12 5 16 5 q2 0 5 -3 q3 -3 3 -5 q0 -19 -10 -29 q-29 -29 -75.5 -52 q-46.5 -23 -90.5 -30 q-20 -2 -32 -2 q-27 0 -54 5 q-7 2 -11 2 l-3 -12 q-3 -11 -8 -33 q-5 -22 -10 -42 l-22 -86 q55 41 113 41 q55 0 88 -33.5 q33 -33.5 43 -87.5 q2 -14 2 -38 q0 -102 -70.5 -183 q-70.5 -81 -164.5 -98 q-3 0 -13.5 -1 q-10.5 -1 -15.5 -1 q-57 0 -92 36 q-35 36 -35 98 q0 96 67 96 q19 0 30 -11 q11 -11 11 -28 q0 -25 -17.5 -43.5 q-17.5 -18.5 -40.5 -18.5 l-3 0 l0 -7 q4 -35 26.5 -57 q22.5 -22 59.5 -22 q6 0 20 2 q49 11 83 55 q30 39 52 129 q18 69 18 105 q0 31 -13.5 51 q-13.5 20 -40.5 20 q-71 0 -125 -69 q-7 -8 -9.5 -9 q-2.5 -1 -14.5 -1 l-13 0 Z" /><glyph glyph-name="six" unicode="6" d="M465 543 q0 42 50 59 q1 0 -0.5 2 q-1.5 2 -4 4.5 q-2.5 2.5 -4.5 4.5 q-15 13 -40 13 q-48 0 -94 -39 q-63 -50 -100 -161 q-17 -51 -17 -56 l8 8 q52 56 114 56 q73 0 111 -70 q21 -44 21 -86 q0 -24 -6 -53 q-14 -67 -42.5 -112.5 q-28.5 -45.5 -77.5 -85.5 q-61 -49 -127 -49 q-58 0 -93 38 q-43 46 -43 143 q0 28 2 48 q10 73 28 137 q46 160 160 255 q71 58 144 66 l11 0 q28 0 33 -1 q34 -8 50.5 -26.5 q16.5 -18.5 16.5 -54.5 q0 -40 -19 -59 q-18 -18 -42 -18 q-18 0 -28.5 11 q-10.5 11 -10.5 26 ZM424 333 q0 30 -15 47 q-15 17 -44 17 q-7 0 -19 -2 q-35 -6 -65.5 -41.5 q-30.5 -35.5 -50.5 -94.5 q-12 -34 -22.5 -87 q-10.5 -53 -10.5 -78 q0 -32 16.5 -52 q16.5 -20 46.5 -20 q40 0 69 25 q34 28 57 104 q18 63 30 121 q8 36 8 61 Z" /><glyph glyph-name="seven" unicode="7" d="M495 524 q-13 -5 -29 -5 q-16 0 -27 7.5 q-11 7.5 -26 27.5 q-18 27 -37 27 q-57 0 -109 -44 q-52 -44 -81 -100 q-7 -12 -8 -13 q-2 -2 -19 -2 q-18 0 -18 1 q-5 0 -5 8 q0 4 28 62.5 q28 58.5 56 114.5 l27 57 q2 1 19 1 l16 0 q6 -6 6 -9 l-15 -37 q3 2 7 5 q41 32 93 40 q6 1 17 1 q27 0 36 -14 q9 -14 15 -50 q5 -36 16 -43 q3 -2 13 -2 q46 0 112 94 q2 3 4 6.5 q2 3.5 3.5 4.5 q1.5 1 2.5 2 q1 1 4 1.5 q3 0.5 6 0.5 q3 0 10 0 l16 0 q6 -6 6 -9 q0 -4 -10 -18 q-166 -244 -257 -596 q-8 -34 -21 -47 q-18 -18 -42 -18 q-39 0 -41 36 q0 10 5 28 q51 202 218 465 q11 17 9 17 Z" /><glyph glyph-name="eight" unicode="8" d="M416 666 q61 0 99 -32 q38 -32 38 -88 q0 -94 -104 -162 q-26 -19 -38 -23 l-1 -1 q39 -33 47 -42 q38 -40 38 -107 q-1 -26 -3 -33 q-15 -65 -61 -115.5 q-46 -50.5 -109 -72.5 q-33 -11 -69 -11 q-56 0 -94.5 25 q-38.5 25 -52.5 68 q-7 21 -7 45 q0 36 12 65 q38 93 148 149 l13 7 l-13 11 q-48 41 -50 100 q0 26 5 50 q16 60 68 108 q52 48 115 58 q5 1 19 1 ZM415 625 q-51 0 -93.5 -36.5 q-42.5 -36.5 -42.5 -83.5 q0 -13 7 -31 q5 -13 51 -52 q9 -8 20 -17 q11 -9 17 -14 l5 -5 q3 -1 9 3 q51 30 84 82 q20 42 20 71 q0 39 -20 61 q-20 22 -57 22 ZM163 118 q0 -43 27 -70 q27 -27 68 -27 q58 0 103.5 38 q45.5 38 57.5 89 q1 6 1 22 q0 23 -8 40 q-6 11 -15 20 q-9 9 -47 41 l-48 41 q-4 0 -30 -18 q-74 -50 -100 -125 q-9 -27 -9 -51 Z" /><glyph glyph-name="nine" unicode="9" d="M169 138 q17 0 27.5 -10.5 q10.5 -10.5 10.5 -26.5 q0 -20 -12.5 -35.5 q-12.5 -15.5 -29.5 -20.5 l-4 -2 q0 -5 15 -13 q17 -9 43 -9 q14 0 26 3 q53 14 99 75 q37 49 67 152 q1 6 2.5 11.5 q1.5 5.5 2.5 9.5 l1 3 q-5 -4 -9 -9 q-37 -42 -87 -53 q-7 -2 -24 -2 q-33 0 -53 10 q-33 13 -57 55 q-24 42 -24 91 q0 28 11 72 q21 86 80 146 q73 71 147 80 q2 0 11 0.5 q9 0.5 15 0.5 q126 -7 126 -175 q0 -85 -32 -192 q-45 -163 -163 -262 q-76 -59 -145 -59 q-75 0 -99 48 q-7 15 -7 29 l0 9 q0 33 16.5 53.5 q16.5 20.5 45.5 20.5 ZM476 552 q0 74 -59 74 q-49 0 -87 -42 q-18 -21 -30 -51 q-12 -30 -30 -100 q-22 -92 -22 -121 q0 -31 16.5 -47.5 q16.5 -16.5 45.5 -16.5 q38 0 69 31 q62 57 94 234 q3 18 3 39 Z" /><glyph glyph-name="colon" unicode=":" d="M233 310 q-21 0 -35 14 q-14 14 -14 34 q0 29 22.5 51 q22.5 22 51.5 22 q21 0 35.5 -13.5 q14.5 -13.5 14.5 -34.5 q0 -29 -23 -51 q-23 -22 -52 -22 ZM156 0 q-21 0 -35 13.5 q-14 13.5 -14 36.5 q0 29 22 50 q22 21 52 21 q21 0 35.5 -13.5 q14.5 -13.5 14.5 -35.5 q0 -29 -22.5 -50.5 q-22.5 -21.5 -52.5 -21.5 Z" /><glyph glyph-name="semicolon" unicode=";" d="M233 310 q-21 0 -35 14 q-14 14 -14 34 q0 29 22.5 51 q22.5 22 51.5 22 q21 0 35.5 -13.5 q14.5 -13.5 14.5 -34.5 q0 -29 -23 -51 q-23 -22 -52 -22 ZM156 0 q-22 0 -35.5 12.5 q-13.5 12.5 -13.5 34.5 q0 30 21.5 52 q21.5 22 51.5 22 q46 0 46 -60 q0 -22 -6 -50 q-20 -84 -80 -156 q-8 -10 -25 -27.5 q-17 -17.5 -21 -19.5 q-9 -5 -17 7 q-8 11 -7 15 q0 3 16 18 q48 48 75 104 q19 38 19 51 q-1 1 -2 0.5 q-1 -0.5 -4 -1.5 l-7 -1 q-7 -1 -11 -1 Z" /><glyph glyph-name="equal" unicode="=" d="M761 367 q15 -9 15 -20 q0 -11 -15 -20 l-291 0 q-290 0 -294 2 q-12 5 -12 18 q0 12 12 18 q3 2 294 2 l291 0 ZM131 133 q-15 9 -15 20 q0 11 15 20 l291 0 q291 0 295 -2 q11 -5 11 -18 q0 -13 -11 -18 q-4 -2 -295 -2 l-291 0 Z" /><glyph glyph-name="question" unicode="?" d="M235 431 q-17 0 -28.5 10.5 q-11.5 10.5 -11.5 26.5 q0 4 4 20 q16 61 51.5 113 q35.5 52 79.5 82 q48 28 86 32 q4 2 20 0 q53 0 84 -34.5 q31 -34.5 31 -90.5 q0 -24 -6 -48 q-18 -63 -63 -103 q-9 -9 -95 -74 q-62 -48 -69 -55 q-18 -23 -18 -51 q0 -23 15 -23 q22 0 44 22 q15 13 25 42 q2 6 23 6 l16 0 q6 -6 6 -9 q0 -10 -10 -28 q-16 -31 -46 -51 q-30 -20 -65 -20 q-27 0 -42 20.5 q-15 20.5 -15 51.5 q0 60 42 104 q1 1 12.5 10 q11.5 9 31 23.5 q19.5 14.5 37.5 28.5 q62 48 76.5 60 q14.5 12 23.5 26 q27 39 27 76 q0 16 -2 28 q-16 52 -73 52 q-28 0 -45.5 -8 q-17.5 -8 -40.5 -26 q-46 -38 -76 -104 l-5 -12 l5 -2 q26 -6 30 -34 q0 -26 -18 -43.5 q-18 -17.5 -41 -17.5 ZM209 51 q3 29 23 49.5 q20 20.5 49 20.5 q23 0 37.5 -13.5 q14.5 -13.5 14.5 -35.5 q0 -26 -23 -49 q-23 -23 -52 -23 q-21 0 -35 13.5 q-14 13.5 -14 37.5 Z" /><glyph glyph-name="at" unicode="@" d="M617 185 q-1 -14 1 -18.5 q2 -4.5 10 -4.5 q12 0 25 8 q33 21 59 108 q25 83 30 138 q1 7 1 26 q0 92 -42.5 151.5 q-42.5 59.5 -114.5 71.5 q-16 3 -33 3 q-49 0 -103 -23 q-100 -44 -176 -154.5 q-76 -110.5 -76 -240.5 q0 -81 34.5 -137 q34.5 -56 93.5 -77 q29 -10 68 -10 q29 0 60 4 q93 11 186 50 l10 4 l25 0 q22 0 27 -1 q5 -1 6 -5 q1 -9 -8 -14 l-5 -2 q-107 -51 -227 -67 q-39 -6 -85 -6 q-95 0 -156 60.5 q-61 60.5 -74 157.5 q-1 9 -1 41 q0 33 1 43 q18 143 115 261 q35 38 56 56 q98 84 205 96 q2 0 9.5 0.5 q7.5 0.5 12.5 0.5 q118 0 185 -85 q53 -71 53 -166 q0 -25 -2 -47 q-5 -51 -25.5 -116 q-20.5 -65 -41.5 -99 q-43 -67 -103 -67 q-51 0 -71 39 q-5 10 -5 12 q0 2 -1 2 q0 1 -2.5 -1 q-2.5 -2 -6.5 -5 q-57 -47 -114 -47 q-63 0 -100.5 45.5 q-37.5 45.5 -37.5 113.5 q0 110 77.5 197.5 q77.5 87.5 166.5 87.5 q39 0 68 -22.5 q29 -22.5 41 -56.5 l5 -10 l20 -1 l8 0 q19 0 19 -9 q0 -5 -34 -137 l-33 -134 l0 -14 ZM568 511 q-21 21 -50 21 q-9 0 -12 -1 q-30 -7 -60.5 -37.5 q-30.5 -30.5 -52.5 -74.5 q-37 -74 -37 -148 q0 -79 40 -102 q10 -7 27 -7 q23 0 52 16 q34 20 77 77 l23 93 q23 92 23 97 q0 16 -9.5 35.5 q-9.5 19.5 -20.5 30.5 Z" /><glyph glyph-name="A" unicode="A" d="M259 0 q-13 0 -45 1 q-32 1 -55 1 q-60 0 -73 -1 q-16 -1 -21.5 0 q-5.5 1 -5.5 7 q0 4 3 17.5 q3 13.5 4 14.5 q2 6 19 6 q63 4 93 47 q6 10 7 11 q0 2 168.5 303 q168.5 301 170.5 302 q2 3 7 5 q3 2 20 2 q17 0 23 -6 q2 -2 20 -326 q19 -330 23 -332 q0 0 1 0 q8 -6 54 -6 l17 0 q6 -5 7 -8.5 q1 -3.5 -3 -18.5 q-4 -13 -10 -19 l-13 0 q-31 2 -113 2 q-20 0 -59 -0.5 q-39 -0.5 -57 -0.5 q-16 0 -16 8 q0 3 2 15 q1 3 2 7.5 q1 4.5 1.5 6 q0.5 1.5 2 4 q1.5 2.5 3.5 3 q2 0.5 5.5 1 q3.5 0.5 8.5 0.5 q64 0 64 23 q0 6 -3 67 l-5 73 l-214 0 l-32 -57 q-34 -61 -34 -63 q-4 -7 -4 -15 q0 -26 42 -28 q12 0 15 -6 q2 -3 -1 -19 q-3 -14 -6 -17.5 q-3 -3.5 -13 -3.5 ZM504 260 q-1 2 -5 75.5 q-4 73.5 -8 145.5 q-4 72 -5 72 q-3 0 -84 -147 l-84 -150 q0 -1 93 -1 l93 0 l0 5 Z" /><glyph glyph-name="B" unicode="B" d="M219 664 q4 13 10 19 l182 0 l182 -1 l12 -2 q105 -19 125 -105 q2 -8 2 -28 q0 -28 -6 -44 q-15 -49 -63 -88 q-48 -39 -107 -55 l-11 -3 l11 -2 q52 -9 87 -45 q35 -36 35 -89 q0 -21 -6 -42 q-18 -60 -70.5 -107.5 q-52.5 -47.5 -119.5 -63.5 q-23 -6 -43 -6.5 q-20 -0.5 -183 -1.5 l-102 0 q-95 0 -96 6 q0 0 0 1 q-2 3 1 18 q5 17 10 20 l5 1 q4 0 11 0 q7 0 14 0 q35 1 46.5 4 q11.5 3 16.5 12 q2 4 71.5 282 q69.5 278 69.5 282 q0 1 -1 3 l0 2 q-6 6 -61 6 l-18 0 q-6 5 -7 8.5 q-1 3.5 3 18.5 ZM629 549 q0 74 -59 87 q-6 1 -80 1 q-18 0 -36.5 -0.5 q-18.5 -0.5 -30 -0.5 q-11.5 0 -12.5 0 q-11 -1 -15 -9 q-2 -4 -32 -126.5 q-30 -122.5 -32 -124.5 q0 -2 76 -2 l77 1 l10 2 q49 13 85.5 52 q36.5 39 46.5 90 q2 9 2 30 ZM504 336 q-4 1 -94 1 q-87 0 -88 -1 q0 -2 -17.5 -73 q-17.5 -71 -35 -141 q-17.5 -70 -17.5 -71 q0 -4 85 -5 q67 0 81 1 q14 1 30 6 q53 17 89.5 68 q36.5 51 36.5 114 q0 41 -19.5 69 q-19.5 28 -50.5 32 Z" /><glyph glyph-name="C" unicode="C" d="M705 493 q0 75 -29.5 120.5 q-29.5 45.5 -92.5 45.5 q-103 0 -196 -89 q-49 -51 -82 -125 q-42 -99 -52 -202 q-1 -8 -1 -30 q0 -90 45 -139 q50 -50 124 -50 q80 0 143.5 66.5 q63.5 66.5 88.5 149.5 q3 13 6 15 q3 2 18 2 q21 0 23 -6 q1 -5 -6 -29 q-27 -83 -92 -149.5 q-65 -66.5 -148 -87.5 q-25 -6 -59 -6 q-27 0 -33 1 q-78 11 -130.5 60 q-52.5 49 -72.5 126 q-9 40 -9 78 q0 21 2 45 q17 138 113 254 q35 41 63 63 q103 86 218 98 l16 0 q34 0 42 -1 q71 -14 107 -70 q3 -6 5 -6 l76 77 q5 3 12.5 1 q7.5 -2 7.5 -7 q0 -8 -33 -139 q-33 -131 -35 -138 q-2 -5 -5 -6.5 q-3 -1.5 -18 -1.5 l-16 0 q-6 6 -6 13 q2 6 2 18 q4 22 4 49 Z" /><glyph glyph-name="D" unicode="D" d="M218 664 q4 13 10 19 l175 0 q179 0 186 -1 q83 -8 134.5 -74.5 q51.5 -66.5 51.5 -167.5 q0 -115 -62 -225 q-60 -104 -151 -161 q-60 -40 -130 -52 q-9 -1 -189 -2 l-95 0 q-90 0 -91 6 q0 0 0 1 q-2 3 1 18 q5 17 10 20 l4 1 q5 0 12 0 q7 0 14 0 q35 1 46.5 4 q11.5 3 16.5 12 q2 4 71.5 282 q69.5 278 69.5 282 q0 1 0 3 l-1 2 q-6 6 -61 6 l-18 0 q-6 5 -7 8.5 q-1 3.5 3 18.5 ZM254 51 q0 -5 62 -5 l32 0 q53 0 77.5 4 q24.5 4 58.5 21 q101 50 149 184 q31 96 42 173 q4 36 4 49 q0 69 -34.5 110 q-34.5 41 -96.5 49 q-1 0 -12 0 q-11 0 -26.5 0.5 q-15.5 0.5 -29.5 0.5 q-14 0 -29.5 -0.5 q-15.5 -0.5 -26 -0.5 q-10.5 0 -11.5 0 q-11 -1 -15 -9 q-2 -4 -73 -288.5 q-71 -284.5 -71 -287.5 Z" /><glyph glyph-name="E" unicode="E" d="M61 0 q-7 7 -7 11 q0 16 7 30 q4 5 34 5 q36 1 47.5 4 q11.5 3 16.5 12 l35 138 q35 137 70 277 q35 140 35 146 q0 6 -4 7 q-9 3 -47 4 q-32 0 -34 6 q-2 3 1 19 q5 17 9 19 q2 2 257 2 l255 0 q7 -7 7 -11 q0 -4 -14.5 -112 q-14.5 -108 -15.5 -110 q-2 -7 -23 -7 l-15 0 q-8 6 -8 10 q0 5 3 20 q5 32 5 66 q0 48 -17.5 68.5 q-17.5 20.5 -65.5 27.5 q-18 2 -117 2 q-54 0 -59 -1 q-14 -1 -17 -8 q-2 -3 -32.5 -124 q-30.5 -121 -30.5 -124 q0 -1 31 -1 q86 0 112.5 14.5 q26.5 14.5 42.5 80.5 q3 12 6 18 q3 4 21 4 q17 0 21 -7 q1 -2 2 -3 l-33 -132 q-9 -34 -19 -78 q-14 -54 -19 -59 l-1 -1 l-16 0 q-16 0 -19 3 q-6 4 -1 24 q8 32 8 50 q0 17 -6.5 24.5 q-6.5 7.5 -22.5 11.5 q-16 4 -75 4 l-44 0 q-69 -266 -69 -279 q0 -4 76 -5 q90 0 121 4 q80 12 118 63 q30 36 69 132 q10 25 13 27 q4 2 18 2 q13 0 17 -2 q6 -6 6 -10 q0 -3 -48 -122.5 q-48 -119.5 -48 -120.5 q-5 -13 -9 -17 q-3 -2 -265 -2 l-262 0 Z" /><glyph glyph-name="F" unicode="F" d="M342 1 q-19 0 -64.5 0.5 q-45.5 0.5 -78.5 0.5 q-32 0 -72.5 -0.5 q-40.5 -0.5 -55.5 -0.5 q-14 0 -16 6 q-2 3 1 18 q5 17 10 20 l4 1 q5 0 12 0 q7 0 14 0 q35 1 46.5 4 q11.5 3 16.5 12 l35 138 q35 137 70 277 q35 140 35 146 q0 6 -4 7 q-9 3 -48 4 l-28 0 q-6 6 -6.5 8.5 q-0.5 2.5 2.5 18.5 q3 12 10 19 l499 0 q7 -7 7 -11 q0 -4 -14.5 -112 q-14.5 -108 -15.5 -110 q-2 -7 -23 -7 l-15 0 q-7 5 -7 12 q0 2 0.5 4.5 q0.5 2.5 1 7.5 q0.5 5 0.5 10 q5 40 5 64 q0 53 -21.5 72.5 q-21.5 19.5 -75.5 22.5 q-2 0 -31 0.5 q-29 0.5 -49 0.5 q-15 0 -31.5 0 q-16.5 0 -27.5 -0.5 q-11 -0.5 -12 -0.5 q-13 -1 -16 -8 q-3 -5 -35 -133 l-32 -129 l48 0 q58 1 74 7 q23 7 36 26 q13 19 24 62 q1 3 2 8 q1 5 1.5 6.5 q0.5 1.5 1.5 4 q1 2.5 4 2.5 q3 0 7 0.5 q4 0.5 11 0.5 l15 0 q7 -5 7 -10 q0 -3 -31.5 -131 q-31.5 -128 -33.5 -132 q-2 -7 -23 -7 l-15 0 q-7 7 -7 12 q11 33 11 66 q0 27 -23 33 q-16 6 -72 6 l-48 0 l-32 -127 q-32 -124 -32 -131 q0 -7 13 -10 q33 -3 67 -3 q19 0 24.5 -1 q5.5 -1 5.5 -7 q0 -11 -7 -32 q-2 -5 -18 -5 Z" /><glyph glyph-name="G" unicode="G" d="M394 -22 q-107 0 -175.5 74 q-68.5 74 -68.5 192 q0 21 2 45 q17 138 113 254 q35 41 63 63 q103 86 218 98 l16 0 q34 0 42 -1 q71 -14 107 -70 q3 -6 5 -6 l76 77 q5 3 12.5 1 q7.5 -2 7.5 -7 q0 -8 -33 -139 q-33 -131 -35 -138 q-2 -5 -5 -6.5 q-3 -1.5 -18 -1.5 l-16 0 q-6 6 -6 13 q2 6 2 18 q4 22 4 49 q0 75 -29.5 120.5 q-29.5 45.5 -92.5 45.5 q-103 0 -196 -89 q-60 -61 -93 -154 q-27 -76 -37 -149 q-5 -35 -5 -59 q0 -83 46.5 -133.5 q46.5 -50.5 126.5 -50.5 q45 0 84.5 22 q39.5 22 56.5 58 q6 13 17 58 q12 45 12 52 q0 8 -12 9 q-22 4 -66 4 l-22 0 q-7 7 -7 11 q0 16 7 30 q5 5 16 5 q21 0 69 -1 q48 -1 69 -1 q82 0 103 2 l9 0 q6 -6 6.5 -8.5 q0.5 -2.5 -2.5 -18.5 q-4 -13 -10 -19 l-13 0 q-43 0 -49 -14 l-54 -209 q-3 -5 -6 -5 q-4 0 -19 15 q-18 18 -31 39 q-75 -75 -189 -75 Z" /><glyph glyph-name="H" unicode="H" d="M61 0 q-7 7 -7 11 q0 16 7 30 q4 5 34 5 q36 1 47.5 4 q11.5 3 16.5 12 q2 4 71.5 282 q69.5 278 69.5 282 q0 1 0 3 l-1 2 q-6 6 -61 6 l-18 0 q-6 5 -7 8.5 q-1 3.5 3 18.5 q4 13 10 19 l13 0 q68 -2 133 -2 l49 0 q57 0 65 2 l10 0 q6 -6 6.5 -8.5 q0.5 -2.5 -2.5 -18.5 q-4 -13 -10 -19 l-18 0 q-54 0 -66 -7 q-6 -3 -10.5 -18 q-4.5 -15 -28.5 -112 q-7 -26 -15 -58 q-8 -32 -12 -47 l-4 -15 q0 -2 130 -2 l130 0 q61 232 61 248 q0 1 -1 3 l0 2 q-6 6 -61 6 l-18 0 q-6 5 -7 8.5 q-1 3.5 3 18.5 q4 13 10 19 l13 0 q68 -2 133 -2 l49 0 q57 0 65 2 l10 0 q6 -6 6.5 -8.5 q0.5 -2.5 -2.5 -18.5 q-4 -14 -9 -19 l-29 0 q-36 -1 -47.5 -3.5 q-11.5 -2.5 -15.5 -10.5 q-3 -5 -72.5 -283 q-69.5 -278 -69.5 -283 q0 -3 1.5 -5 q1.5 -2 4 -3 q2.5 -1 5.5 -1.5 q3 -0.5 8.5 -1 q5.5 -0.5 9.5 -0.5 q4 0 11 0 q7 0 12 0 q31 0 33 -6 q2 -3 -1 -19 q-5 -18 -9 -20 q-3 -1 -12 -1 q-20 0 -63 1 q-43 1 -68 1 q-93 0 -118 -2 l-10 0 q-7 7 -7 11 q0 16 7 30 q4 5 34 5 q36 1 47.5 4 q11.5 3 16.5 12 q1 2 34.5 134.5 q33.5 132.5 33.5 134.5 q0 1 -130 1 l-130 0 l-33 -135 q-34 -133 -34 -141 q0 -2 1.5 -4 q1.5 -2 4 -3 q2.5 -1 6 -1.5 q3.5 -0.5 8.5 -0.5 q5 0 9.5 -0.5 q4.5 -0.5 11 -0.5 q6.5 0 11.5 0 q31 0 33 -6 q2 -3 -1 -19 q-5 -18 -9 -20 q-3 -1 -12 -1 q-20 0 -63 1 q-43 1 -68 1 q-93 0 -118 -2 l-10 0 Z" /><glyph glyph-name="I" unicode="I" d="M300 625 q0 12 -42 12 l-23 0 q-23 0 -25 6 q-2 3 1 19 q5 17 9 20 q2 1 17 1 q41 -2 132 -2 q72 0 103 1 q27 1 30 -1 q6 -2 6 -9 q0 -2 -3.5 -14.5 q-3.5 -12.5 -4.5 -14.5 q-2 -6 -36 -6 q-42 -1 -54 -5 q-6 -2 -12 -11 q-2 -3 -71.5 -281 q-69.5 -278 -69.5 -282 q0 -7 11 -9 q13 -3 54 -3 q22 0 26 -7 q1 -4 -2 -17 q-5 -20 -9 -21 q-3 -1 -8 -1 q-20 0 -66.5 1 q-46.5 1 -72.5 1 q-95 0 -123 -2 l-11 0 q-6 6 -6.5 8.5 q-0.5 2.5 2.5 18.5 q4 13 6 16 l4 3 l29 0 q38 1 50.5 4 q12.5 3 17.5 12 q2 4 71.5 282 q69.5 278 69.5 281 Z" /><glyph glyph-name="J" unicode="J" d="M444 627 q0 10 -83 10 q-20 0 -24.5 1 q-4.5 1 -5.5 6 q-2 3 1 18 q4 17 9 20 q2 1 19 1 q45 -2 140 -2 q24 0 58.5 0.5 q34.5 0.5 48.5 0.5 q11 0 13.5 -4 q2.5 -4 -0.5 -15 q0 -2 -1 -5 q-1 -3 -2 -6.5 q-1 -3.5 -1 -4.5 q-2 -7 -6.5 -8.5 q-4.5 -1.5 -22.5 -1.5 q-40 -1 -46 -13 q-3 -6 -64 -248.5 q-61 -242.5 -64 -251.5 q-19 -54 -67.5 -94 q-48.5 -40 -111.5 -50 q-7 -1 -27 -1 q-58 0 -93.5 28.5 q-35.5 28.5 -35.5 78.5 q0 38 19 61 q19 23 52 23 q20 0 33 -11 q13 -11 14 -30 q0 -27 -17.5 -47.5 q-17.5 -20.5 -41.5 -23.5 l-5 -1 q-3 -3 13 -19 q22 -22 60 -22 q15 0 20 2 q28 9 54 37.5 q26 28.5 40 66.5 q3 7 64 249.5 q61 242.5 61 255.5 Z" /><glyph glyph-name="K" unicode="K" d="M190 2 q-23 0 -62.5 -0.5 q-39.5 -0.5 -57.5 -0.5 q-13 0 -15 6 q-2 3 1 18 q5 17 10 20 l4 1 q5 0 12 0 q7 0 14 0 q35 1 46.5 4 q11.5 3 16.5 12 q2 4 71.5 282 q69.5 278 69.5 282 q0 1 0 3 l-1 2 q-6 6 -61 6 l-18 0 q-6 5 -7 8.5 q-1 3.5 3 18.5 q4 13 10 19 l13 0 q68 -2 133 -2 l49 0 q58 0 66 2 l9 0 q6 -6 6.5 -8.5 q0.5 -2.5 -2.5 -18.5 q-4 -14 -9 -19 l-29 0 q-36 -1 -47 -3.5 q-11 -2.5 -16 -10.5 q-3 -4 -79 -309 q1 0 164 138 q124 105 150.5 128.5 q26.5 23.5 30.5 30.5 q2 8 2 9 q0 14 -22 17 q-16 0 -16 11 q0 2 3.5 14.5 q3.5 12.5 4.5 14.5 q3 5 16 5 q16 0 52 -1 q36 -1 59 -1 q51 0 71 2 q15 1 19 -0.5 q4 -1.5 4 -8.5 q0 -21 -6 -30 q-3 -6 -13 -6 q-10 0 -16 -1 q-62 -8 -116 -50 q-6 -6 -10 -8 q-1 0 -97 -81 l-95 -80 l3 -9 q35 -97 66 -181.5 q31 -84.5 44.5 -120.5 q13.5 -36 13.5 -37 q13 -22 56 -23 l19 0 q5 -7 5.5 -8.5 q0.5 -1.5 -2.5 -18.5 q-4 -13 -10 -19 l-12 0 q-29 2 -101 2 q-18 0 -56 -0.5 q-38 -0.5 -57 -0.5 q-13 0 -15 6 q-2 3 1 16 q4 16 6.5 19.5 q2.5 3.5 13.5 3.5 q46 0 46 26 q0 5 -99 278 q-3 0 -62 -52 q-62 -52 -63 -56 q0 -1 -22.5 -88.5 q-22.5 -87.5 -22.5 -98.5 q0 -3 2.5 -4.5 q2.5 -1.5 8.5 -2.5 q6 -1 10.5 -1.5 q4.5 -0.5 15 -0.5 q10.5 0 15.5 0 l28 0 q6 -6 6.5 -8.5 q0.5 -2.5 -2.5 -18.5 q-4 -13 -10 -19 l-15 0 q-36 2 -126 2 Z" /><glyph glyph-name="L" unicode="L" d="M61 0 q-7 7 -7 11 q0 16 7 30 q4 5 34 5 q36 1 47.5 4 q11.5 3 16.5 12 q2 4 71.5 282 q69.5 278 69.5 282 q0 1 0 3 l-1 2 q-6 6 -61 6 l-18 0 q-6 5 -7 8.5 q-1 3.5 3 18.5 q4 13 10 19 l14 0 q35 -2 131 -2 q25 0 71 0.5 q46 0.5 67 0.5 q17 0 17 -7 q0 -4 -3 -17.5 q-3 -13.5 -4 -14.5 q-2 -6 -41 -6 q-59 -1 -70 -7 q-8 -4 -12 -13 q-1 -3 -71 -283.5 q-70 -280.5 -70 -282.5 q0 -4 64 -4 q68 0 91 5 q68 19 102 63.5 q34 44.5 66 134.5 q4 14 11 23 l33 0 q6 -9 6 -11 q0 -3 -44 -129.5 q-44 -126.5 -45 -127.5 q-2 -4 -28 -4 q-29 -1 -215 -1 l-235 0 Z" /><glyph glyph-name="M" unicode="M" d="M171 2 q-19 0 -51.5 -0.5 q-32.5 -0.5 -47.5 -0.5 q-13 0 -13 9 q0 24 7 31 q2 5 21 5 q64 3 81 38 q4 7 70 272 q66 265 66 270 q0 1 0 3 l-1 2 q-6 6 -61 6 l-18 0 q-6 5 -7 8.5 q-1 3.5 3 18.5 q4 13 10 19 l96 0 q96 0 99 -2 q3 -3 4 -5 l51 -549 q0 -3 81 134.5 q81 137.5 163 276.5 l81 138 q1 1 6 3.5 q5 2.5 6 3.5 l186 0 q6 -5 7 -8.5 q1 -3.5 -3 -18.5 q-4 -13 -10 -19 l-18 0 q-25 0 -34 -1 q-33 -3 -39 -13 q-3 -5 -72.5 -283 q-69.5 -278 -69.5 -283 q0 -6 4 -7 q9 -3 49 -4 l28 0 q5 -7 5.5 -8.5 q0.5 -1.5 -2.5 -18.5 q-3 -12 -10 -19 l-14 0 q-35 2 -123 2 q-22 0 -60.5 -0.5 q-38.5 -0.5 -56.5 -0.5 q-12 0 -14 6 q-2 3 1 18 q5 17 10 20 l5 1 q4 0 11 0 q7 0 14 0 q35 1 46.5 4 q11.5 3 16.5 12 l139 554 q-360 -608 -361 -609 q-6 -7 -24 -7 q-19 0 -21 6 q-55 598 -56 598 q-1 0 -66 -256 q-65 -265 -65 -266 q0 -32 59 -36 l16 0 q5 -7 5.5 -8.5 q0.5 -1.5 -2.5 -18.5 q-3 -12 -10 -19 l-13 0 q-31 2 -104 2 Z" /><glyph glyph-name="N" unicode="N" d="M275 0 q-16 0 -52 1 q-36 1 -56 1 q-76 0 -97 -2 l-9 0 q-9 9 -4 27 q4 14 7.5 16.5 q3.5 2.5 18.5 2.5 q64 3 81 38 q4 8 139 550 q-3 1 -50 3 l-33 0 q-6 6 -6.5 8 q-0.5 2 2.5 19 q4 13 10 19 l88 0 q72 0 83 -0.5 q11 -0.5 13 -5.5 q2 -2 91 -249.5 q89 -247.5 90 -248.5 q0 -1 1 1 q1 2 3 9 q2 7 5.5 20 q3.5 13 9.5 37 q6 24 14.5 57 q8.5 33 20.5 82 q53 210 53 221 q0 31 -65 31 q-16 0 -16 10 q0 5 3 17 q4 13 10 19 l11 0 q41 -3 95 -3 q10 0 28 0.5 q18 0.5 26 0.5 q10 0 24 0.5 q14 0.5 21.5 1 q7.5 0.5 9.5 0.5 l8 0 q6 -6 6.5 -8.5 q0.5 -2.5 -2.5 -18.5 q-4 -14 -9 -19 l-16 0 q-36 -1 -56 -13 q-20 -10 -26 -26 q-3 -6 -40.5 -153.5 q-37.5 -147.5 -73.5 -292 q-36 -144.5 -36 -145.5 q-2 -7 -24 -7 l-17 0 q-7 7 -59 151 q-9 27 -15 43 q-6 16 -16.5 45.5 q-10.5 29.5 -20.5 57.5 l-106 291 q-1 0 -63.5 -252 q-62.5 -252 -62.5 -255 q0 -31 58 -35 q19 0 21 -6 q2 -3 -1 -19 q-1 -2 -2 -5.5 q-1 -3.5 -1 -5 q0 -1.5 -1 -3.5 q-1 -2 -1.5 -3 q-0.5 -1 -2 -2 q-1.5 -1 -3 -1 q-1.5 0 -3.5 -0.5 q-2 -0.5 -5 -0.5 Z" /><glyph glyph-name="O" unicode="O" d="M540 704 l12 0 q29 0 43 -2 q88 -13 140.5 -83.5 q52.5 -70.5 52.5 -174.5 q0 -72 -26 -146 q-35 -103 -114 -187.5 q-79 -84.5 -177 -116.5 q-47 -16 -94 -16 q-93 0 -156 63 q-72 72 -72 196 q0 125 66.5 235.5 q66.5 110.5 160.5 171.5 q79 52 164 60 ZM688 487 q0 79 -36.5 128.5 q-36.5 49.5 -103.5 49.5 q-16 0 -38 -5 q-56 -14 -106.5 -61.5 q-50.5 -47.5 -84.5 -117.5 q-48 -99 -64 -227 q-2 -22 -2 -51 q0 -75 29 -123 q29 -48 81 -59 q6 -1 24 -1 q22 0 30 2 q64 14 120 70 q71 71 111 188 q31 93 39 171 q1 8 1 36 Z" /><glyph glyph-name="P" unicode="P" d="M62 0 q-7 7 -7 11 q0 16 7 30 q4 5 34 5 q36 1 47.5 4 q11.5 3 16.5 12 q2 4 71.5 282 q69.5 278 69.5 282 q0 1 -1 3 l0 2 q-6 6 -61 6 l-18 0 q-6 5 -7 8.5 q-1 3.5 3 18.5 q4 13 10 19 l177 0 q177 -1 188 -3 q86 -15 120 -81 q17 -32 17 -68 q0 -37 -20 -79 q-25 -51 -74.5 -90 q-49.5 -39 -110.5 -54 q-25 -6 -120 -7 l-86 0 l-30 -119 q-30 -119 -30 -127 q0 -2 1.5 -3.5 q1.5 -1.5 4 -2.5 q2.5 -1 6 -1.5 q3.5 -0.5 8.5 -0.5 q5 0 9.5 -0.5 q4.5 -0.5 11 -0.5 q6.5 0 11.5 0 q31 0 33 -6 q2 -3 -1 -19 q-5 -18 -9 -20 q-3 -1 -12 -1 q-20 0 -63 1 q-43 1 -68 1 q-93 0 -118 -2 l-10 0 ZM552 635 q-6 1 -71 2 q-15 0 -31.5 -0.5 q-16.5 -0.5 -26.5 -0.5 q-10 0 -11 0 q-10 -1 -15 -9 q-1 -2 -18.5 -72.5 q-17.5 -70.5 -35.5 -140.5 l-18 -70 q0 -2 65 -2 q69 0 76 1 q64 6 101 43 q29 29 46 100 q12 45 13 69 q0 18 -1 24 q-11 44 -73 56 Z" /><glyph glyph-name="Q" unicode="Q" d="M468 -7 q-45 -15 -89 -15 q-95 0 -158 63 q-72 72 -72 196 q0 125 66.5 235.5 q66.5 110.5 160.5 171.5 q79 52 164 60 l12 0 q29 0 43 -2 q89 -13 141 -83 q52 -70 52 -177 q0 -21 -1 -28 q-9 -127 -88.5 -240 q-79.5 -113 -181.5 -161 l-11 -5 l1 -6 q4 -42 14 -61.5 q10 -19.5 31 -24.5 q3 -1 13 -1 q43 0 77 34 q22 23 30 51 q4 11 12 11 q9 0 11 -9 q0 -7 -10 -37 q-46 -146 -133 -158 q-4 -1 -14 -1 q-75 0 -78 87 q0 29 5 75 q3 20 3 25 ZM315 46 q0 40 30.5 74 q30.5 34 74.5 34 q38 0 55.5 -21.5 q17.5 -21.5 24.5 -63.5 l2 -11 l10 7 q87 66 135 200 q28 79 38 160 q4 38 4 56 q0 75 -32 124.5 q-32 49.5 -88 58.5 q-6 1 -18 1 q-83 0 -160 -79 q-92 -96 -130 -278 q-12 -52 -12 -106 q0 -97 46 -144 q15 -17 19 -17 q1 0 1 5 ZM472 49 q0 35 -13 52 q-13 17 -44 17 q-25 0 -43.5 -20.5 q-18.5 -20.5 -18.5 -46.5 q0 -33 34 -33 q33 0 85 22 l0 9 Z" /><glyph glyph-name="R" unicode="R" d="M62 0 q-7 7 -7 11 q0 16 7 30 q4 5 34 5 q36 1 47.5 4 q11.5 3 16.5 12 q2 4 71.5 282 q69.5 278 69.5 282 q0 1 -1 3 l0 2 q-6 6 -61 6 l-18 0 q-6 5 -7 8.5 q-1 3.5 3 18.5 q4 13 10 19 l159 0 q168 -1 183 -4 q2 -1 11 -3 q63 -14 100 -53.5 q37 -39.5 37 -89.5 q0 -33 -16 -65 q-21 -43 -67 -77.5 q-46 -34.5 -106 -53.5 q4 -3 10 -7 q56 -36 56 -102 q0 -12 -6.5 -86.5 q-6.5 -74.5 -6.5 -76.5 q0 -26 7 -37.5 q7 -11.5 28 -11.5 q22 0 36 21 q16 20 25 57 q2 11 24 11 q22 0 22 -10 q0 -8 -4 -17 q-14 -40 -38.5 -66.5 q-24.5 -26.5 -53.5 -32.5 q-5 -1 -17 -1 q-63 0 -101 27.5 q-38 27.5 -38 82.5 q0 20 15 80 q16 63 16 76 q0 59 -50 76 q-7 2 -70 3 l-62 0 l-32 -131 q-33 -129 -33 -137 q0 -2 1.5 -3.5 q1.5 -1.5 4 -2.5 q2.5 -1 6 -1.5 q3.5 -0.5 8.5 -0.5 q5 0 9.5 -0.5 q4.5 -0.5 11 -0.5 q6.5 0 11.5 0 q31 0 33 -6 q2 -3 -1 -19 q-4 -18 -9 -20 q-4 -1 -10 -1 q-19 0 -62.5 1 q-43.5 1 -67.5 1 q-91 0 -117 -2 l-11 0 ZM612 558 q0 36 -20 52.5 q-20 16.5 -60 24.5 q-6 1 -62 2 q-12 0 -25.5 -0.5 q-13.5 -0.5 -22.5 -0.5 q-9 0 -10 0 q-10 -1 -15 -9 l-7 -29 q-7 -28 -17 -66 q-10 -38 -19.5 -77 q-9.5 -39 -16.5 -66 q-7 -27 -7 -28 q26 -1 54 -1 q60 0 86 3.5 q26 3.5 57 18.5 q30 17 47 42.5 q17 25.5 30 73.5 q8 35 8 60 Z" /><glyph glyph-name="S" unicode="S" d="M169 147 q3 -60 38.5 -91 q35.5 -31 98.5 -31 q18 0 25 2 q41 10 76.5 50.5 q35.5 40.5 45.5 91.5 q2 11 2 34 q0 61 -41 82 q-5 3 -67 20 q-73 22 -92 34 q-26 18 -41.5 50.5 q-15.5 32.5 -15.5 70.5 q0 38 17 83 q25 63 78 108 q53 45 113 52 q16 2 26 2 q84 0 125 -61 q14 15 26.5 29.5 q12.5 14.5 19 21.5 q6.5 7 8.5 9 q22 6 22 -6 q0 -7 -28.5 -121.5 q-28.5 -114.5 -31.5 -117.5 l-3 -3 l-16 0 q-8 0 -11.5 0 q-3.5 0 -6.5 1 q-3 1 -4 3 q-1 2 -1 6 q0 7 1 12 q4 25 4 54 q0 130 -109 130 q-56 0 -101 -49 q-45 -49 -45 -110 q0 -27 13 -49.5 q13 -22.5 34 -29.5 l135 -41 q55 -29 70 -91 q5 -17 5 -34 l0 -14 q0 -34 -6 -57 q-17 -67 -61 -119.5 q-44 -52.5 -102 -76.5 q-33 -13 -69 -13 q-101 0 -148 63 l-9 -10 q-2 -2 -6.5 -7 q-4.5 -5 -10.5 -12 q-6 -7 -10 -11 q-19 -21 -21 -22 l-3 -1 q-4 0 -6 0 q-12 0 -12 8 q0 3 58 235 q2 6 23 6 l16 0 q6 -6 6 -9 q0 -4 -3 -20 q-5 -24 -5 -51 Z" /><glyph glyph-name="T" unicode="T" d="M178 437 q-5 5 -7 9 q0 5 67 208 q5 16 12 23 l431 0 q123 0 124 -5 l0 -1 l1 -1 q0 -2 0 -3 q0 -6 -18.5 -114 q-18.5 -108 -19.5 -109 q0 -3 -4 -5 q-2 -2 -18 -2 q-16 0 -19 3 q-2 1 -4 5 q0 9 4 29 q9 58 9 88 q0 30 -9.5 42 q-9.5 12 -33.5 20 q-18 6 -71 6 q-45 0 -50 -1 q-5 -2 -8 -6 q-2 -2 -72 -281 q-70 -279 -70 -283 q0 -2 3 -5 q7 -7 77 -8 l40 0 q5 -7 5.5 -8.5 q0.5 -1.5 -2.5 -18.5 q-4 -13 -10 -19 l-18 0 q-42 2 -160 2 q-30 0 -82.5 -0.5 q-52.5 -0.5 -76.5 -0.5 q-18 0 -18 7 q0 4 3 17.5 q3 13.5 4 14.5 q1 4 7 5 q6 1 38 1 q55 1 68.5 4 q13.5 3 25.5 15 l69 279 q70 275 70 282 q0 3 -3 3 q-6 2 -51 2 q-98 0 -133 -44 q-22 -26 -54 -120 q-10 -26 -14 -30 l-32 0 Z" /><glyph glyph-name="U" unicode="U" d="M378 -22 q-81 0 -132.5 54.5 q-51.5 54.5 -51.5 134.5 q0 24 4 44 q1 7 51.5 209 q50.5 202 50.5 206 q0 1 0 3 l-1 2 q-6 6 -61 6 l-18 0 q-6 5 -7 8.5 q-1 3.5 3 18.5 q4 13 10 19 l13 0 q68 -2 133 -2 l49 0 q57 0 65 2 l10 0 q6 -6 6.5 -8.5 q0.5 -2.5 -2.5 -18.5 q-4 -13 -10 -19 l-18 0 q-54 0 -66 -7 q-6 -3 -12.5 -27 q-6.5 -24 -49.5 -193 q-13 -50 -26.5 -104.5 q-13.5 -54.5 -20.5 -84.5 q-7 -30 -8 -33 q-5 -33 -5 -53 q0 -52 27 -81.5 q27 -29.5 76 -29.5 q70 0 132 52 q58 51 85 135 q1 4 49 193 q48 189 48 203 q0 30 -65 30 q-16 0 -16 10 q0 5 3 17 q4 13 10 19 l11 0 q58 -2 109 -2 q82 0 92 2 l8 0 q6 -6 6.5 -8.5 q0.5 -2.5 -2.5 -18.5 q-4 -14 -9 -19 l-16 0 q-36 -1 -56 -13 q-20 -10 -26 -26 q-5 -10 -52.5 -198.5 q-47.5 -188.5 -49.5 -195.5 q-21 -64 -64 -118 q-32 -35 -48 -47 q-53 -42 -105 -54 q-24 -7 -53 -7 Z" /><glyph glyph-name="V" unicode="V" d="M384 615 q1 -3 22 -244 q21 -241 21 -245 q0 -1 68.5 114.5 q68.5 115.5 137 233 q68.5 117.5 71.5 122.5 q3 7 3 14 q0 23 -40 27 q-11 0 -14 4 q-4 4 0 23 q4 13 10 19 l12 0 q29 -2 97 -2 q51 0 70 1 q18 1 20 -1 q6 -2 6 -9 q0 -2 -3.5 -14.5 q-3.5 -12.5 -4.5 -14.5 q-3 -6 -12 -6 q-64 0 -99 -50 l-355 -602 q-7 -7 -28 -7 q-20 0 -24 6 q-2 4 -29 321 q-27 317 -28 318 q-2 14 -42 14 l-14 0 q-20 0 -22 6 q-2 3 1 19 q1 3 2 7.5 q1 4.5 1.5 5.5 q0.5 1 1.5 3.5 q1 2.5 2 2.5 q1 0 3.5 1 q2.5 1 4.5 1 q2 0 7 0 q47 -3 99 -3 q111 0 127 3 l10 0 q6 -6 6.5 -8.5 q0.5 -2.5 -2.5 -18.5 q-4 -13 -10 -19 l-12 0 q-64 0 -64 -22 Z" /><glyph glyph-name="W" unicode="W" d="M774 637 q-55 0 -66 -17 l9 -235 q9 -235 10 -236 q0 -1 25 44 q25 45 60 110 q35 65 70 130.5 q35 65.5 60.5 112.5 q25.5 47 26.5 50 q1 4 1 10 q0 15 -12.5 21 q-12.5 6 -37.5 10 q-12 0 -15 4 q-4 4 0 23 q4 13 10 19 l13 0 q32 -2 103 -2 q52 0 70 1 q14 1 18 -0.5 q4 -1.5 4 -8.5 q0 -21 -6 -30 q-3 -6 -13 -6 q-58 0 -87 -45 q-4 -8 -8 -12 l-322 -596 q-6 -6 -27 -6 q-17 0 -23 6 q-1 1 -10.5 238.5 q-9.5 237.5 -9.5 241.5 l-15 -23 q-24 -44 -115 -213 q-31 -57 -64.5 -118.5 q-33.5 -61.5 -50.5 -92.5 q-17 -31 -17 -32 q-7 -7 -27 -7 q-16 0 -20 2.5 q-4 2.5 -5 10.5 q0 4 -12.5 319 q-12.5 315 -13.5 317 q-4 9 -43 10 q-26 0 -28 7 q-2 3 1 18 q4 17 9 20 q2 1 15 1 q34 -2 109 -2 q62 0 92 1 q26 1 29 -1 q6 -2 6 -9 q0 -2 -3.5 -14.5 q-3.5 -12.5 -4.5 -14.5 q-2 -6 -25 -6 q-46 -1 -57 -15 q-1 -1 -1 -9 q0 -24 9 -236 q9 -212 9 -228 l117 212 q31 58 85 158 l17 32 l-1 34 q-2 36 -2 39 q-2 13 -36 13 l-15 0 q-15 0 -18 3 q-6 4 -1 24 q4 13 10 19 l11 0 q39 -3 95 -3 q110 0 127 3 l9 0 q9 -9 4 -25 q-3 -15 -7 -19 q-3 -2 -15 -2 Z" /><glyph glyph-name="X" unicode="X" d="M151 2 l-38 0 q-42 0 -49 -2 q-7 0 -10 3 q-6 4 -1 24 q4 14 7 16 q3 2 18 3 q76 3 127 54 q2 2 107 125 l99 116 l-4 12 q-3 7 -26 75 q-23 68 -45.5 132 q-22.5 64 -25.5 67 q-9 9 -55 10 l-26 0 q-6 6 -6.5 8 q-0.5 2 2.5 19 q4 13 10 19 l11 0 q42 -3 100 -3 q11 0 32 0.5 q21 0.5 31 0.5 q12 0 29.5 0.5 q17.5 0.5 27 1 q9.5 0.5 11.5 0.5 l10 0 q9 -9 4 -27 q-3 -12 -6 -15 q-3 -3 -14 -4 q-10 -2 -17 -2 q-35 -9 -33 -16 q0 -2 32 -95.5 q32 -93.5 33 -93.5 q1 0 68 79.5 q67 79.5 70 83.5 q7 11 7 18 q0 11 -10 18 q-10 7 -23 8 q-11 0 -14 7 q-2 3 1 16 q1 3 2 7.5 q1 4.5 1 6 q0 1.5 1 4 q1 2.5 2 3 q1 0.5 2.5 1.5 q1.5 1 3.5 1 q2 0 5 0 q15 0 51.5 -1.5 q36.5 -1.5 61.5 -1.5 q53 0 81 2 q19 1 23.5 -0.5 q4.5 -1.5 4.5 -8.5 q0 -24 -7 -31 q-3 -5 -20 -5 q-58 -3 -97 -29 q-16 -11 -41.5 -39.5 q-25.5 -28.5 -153.5 -179.5 l-4 -5 l56 -162 q55 -161 59 -165 q9 -10 55 -11 q29 0 33 -7 q1 -3 -2 -16 q-5 -20 -9 -22 q-3 -1 -31 0 q-17 1 -93 1 q-27 0 -66 -0.5 q-39 -0.5 -54 -0.5 q-13 0 -15 5 q-2 3 1 19 q4 15 7 17.5 q3 2.5 15 3.5 q3 0 9.5 1 q6.5 1 9.5 2 q30 9 30 15 q0 1 -39.5 115.5 q-39.5 114.5 -40.5 115.5 l-44 -51 q-43 -50 -87 -102.5 q-44 -52.5 -46 -55.5 q-4 -7 -4 -14 q0 -24 34 -26 q14 0 14 -10 q0 -5 -3 -17 q-4 -13 -10 -19 l-12 0 q-62 2 -117 2 Z" /><glyph glyph-name="Y" unicode="Y" d="M241 0 q-7 7 -7 11 q0 16 7 30 q4 5 34 5 q37 1 48.5 4 q11.5 3 16.5 14 q0 1 4 15 q4 14 11 41.5 q7 27.5 13 50.5 l25 103 l-52 174 q-53 174 -55 178 q-8 10 -54 11 q-30 0 -33 7 q-1 3 2 17 q4 17 6 19.5 q2 2.5 16 2.5 q46 -3 102 -3 q113 0 130 3 l10 0 q7 -7 7 -11 q0 -16 -7 -30 q-5 -5 -24 -5 q-26 -2 -36 -6 q-10 -2 -10 -8 q0 -2 43 -145.5 q43 -143.5 44 -143.5 q1 0 101.5 126 q100.5 126 104.5 131 q1 2 6.5 11 q5.5 9 5.5 15 q0 20 -32 20 q-13 0 -13 10 q0 7 3 17 q2 8 2.5 9.5 q0.5 1.5 2.5 5 q2 3.5 5 4 q3 0.5 9 0.5 q13 0 45 -1.5 q32 -1.5 54 -1.5 q47 0 71 2 q16 1 21.5 0 q5.5 -1 5.5 -7 q0 -4 -3 -17.5 q-3 -13.5 -4 -14.5 q-2 -6 -19 -6 q-60 -3 -99 -40 q-16 -16 -141 -173 l-121 -151 l-26 -103 q-7 -25 -13.5 -52 q-6.5 -27 -10 -42 q-3.5 -15 -3.5 -16 q0 -9 9 -11 q12 -3 53 -3 l18 0 q6 -5 7 -8.5 q1 -3.5 -3 -18.5 q-4 -13 -10 -19 l-13 0 q-68 2 -131 2 l-49 0 q-57 0 -65 -2 l-9 0 Z" /><glyph glyph-name="Z" unicode="Z" d="M699 683 q5 -5 5 -8 q0 -12 -7 -26 q0 -2 -248 -301 l-248 -298 l65 -1 q96 0 129 8 q66 16 100 59 q30 39 61 135 q7 23 9.5 27 q2.5 4 13.5 4 l6 0 q16 0 18 -2 q6 -2 6 -9 q0 -4 -40.5 -135.5 q-40.5 -131.5 -44.5 -133.5 q-3 -2 -221 -2 q-218 0 -220 2 q-2 1 -2 7 q0 22 8 30 q1 2 115 139.5 q114 137.5 242 292 q128 154.5 129 155.5 l9 11 l-72 0 q-77 -1 -84 -2 q-72 -10 -112 -52 q-38 -38 -62 -116 q-7 -21 -10 -23 q-4 -2 -18 -2 q-23 0 -23 10 q0 3 1 5 q62 216 66 220 q0 4 4 4 q2 2 214 2 l211 0 Z" /><glyph glyph-name="bracketleft" unicode="[" d="M190 -210 q16 0 16 -11 q0 -17 -12 -29 l-57 0 q-57 0 -60 2 q-4 4 -4 6 q0 10 121.5 497.5 q121.5 487.5 126.5 491.5 l3 3 l57 0 q57 0 60 -2 q6 -6 3 -20 q-4 -12 -10 -18 l-84 0 l-1 -4 q0 -2 -114 -457.5 q-114 -455.5 -115 -456.5 q0 -2 39 -2 l31 0 Z" /><glyph glyph-name="bracketright" unicode="]" d="M242 710 q-16 0 -16 11 q0 17 12 29 l57 0 q57 0 60 -2 q4 -4 4 -6 q0 -10 -121.5 -497.5 q-121.5 -487.5 -126.5 -491.5 l-3 -3 l-57 0 q-57 0 -60 2 q-6 6 -3 20 q4 12 10 18 l84 0 l1 4 q0 2 114 457.5 q114 455.5 115 456.5 q0 2 -39 2 l-31 0 Z" /><glyph glyph-name="underscore" unicode="_" d="M100 -26 q2 1 224 1 l118 0 q109 0 110 -5 q0 -1 0 -2 q2 -3 0 -12.5 q-2 -9.5 -4 -11.5 q-2 -4 -10 -5 q-18 -1 -219 -1 l-221 0 q-9 7 -5 22 q2 11 7 14 Z" /><glyph glyph-name="a" unicode="a" d="M461 422 q12 0 22.5 -8 q10.5 -8 10.5 -19 q0 -11 -35.5 -151.5 q-35.5 -140.5 -38.5 -155.5 q-2 -8 -2 -30 q0 -29 13 -31 q13 -4 25 9 q19 20 38 95 q6 20 10 21 q3 1 12 1 l5 0 q17 0 19 -2 q5 -4 1 -22 q-24 -86 -55 -117 q-23 -23 -52 -23 q-48 0 -73 33 q-14 17 -14 26 l-1 0 q-1 -1 -4 -3.5 q-3 -2.5 -5 -4.5 q-55 -51 -109 -51 q-18 0 -36 6 q-41 14 -66 54 q-25 40 -25 97 q0 30 10 73 q17 67 58.5 122.5 q41.5 55.5 95.5 81.5 q40 19 68 19 q37 0 61 -18 q9 -7 25 -28 q3 10 15.5 18 q12.5 8 26.5 8 ZM388 361 q-16 44 -55 44 q-31 0 -62 -33 q-22 -23 -36.5 -56 q-14.5 -33 -31.5 -101 q-19 -80 -19 -107 l0 -8 q0 -47 23 -65 q11 -9 28 -9 q19 0 39 12 q29 17 56 53 q13 18 16.5 27.5 q3.5 9.5 25.5 98.5 q25 100 25 106 q0 13 -9 38 Z" /><glyph glyph-name="b" unicode="b" d="M158 683 q1 0 72 5 l70 6 q12 0 12 -9 q0 -11 -34 -147 l-35 -135 q0 -2 6 4 q46 35 89 35 q59 0 94 -45.5 q35 -45.5 35 -112.5 q0 -84 -49 -166 q-37 -62 -94 -99 q-49 -30 -95 -30 q-52 0 -86.5 42.5 q-34.5 42.5 -34.5 110.5 q0 26 2 42 l106 432 q0 12 -6 16 q-11 4 -40 5 l-21 0 q-6 6 -6.5 8 q-0.5 2 2.5 19 q5 19 13 19 ZM178 109 q0 -82 56 -82 q13 0 20 2 q41 15 69 65 q20 35 43 126 q18 73 18 112 q0 22 -2 29 q-11 44 -50 44 q-9 0 -24 -5 q-41 -16 -80 -74 l-6 -9 l-17 -67 q-27 -108 -27 -141 Z" /><glyph glyph-name="c" unicode="c" d="M414 383 q-24 19 -49 22 q-21 0 -37 -6 q-67 -22 -101 -105 q-24 -58 -39 -148 q-1 -8 -1 -27 q0 -73 51 -90 q7 -2 25 -2 q36 0 67 13 q55 20 96 69 q10 12 14 12 q4 0 14 -10 q10 -10 12 -14 q3 -5 -11 -20 q-54 -63 -142 -82 q-25 -5 -56 -5 q-24 0 -33 2 q-56 11 -88.5 54 q-32.5 43 -32.5 109 q0 27 5 51 q15 75 64.5 135.5 q49.5 60.5 117.5 85.5 q34 14 58 14 l10 0 q91 0 109 -65 q2 -5 2 -20 q0 -29 -16.5 -48 q-16.5 -19 -42.5 -19 q-17 0 -28.5 9.5 q-11.5 9.5 -11.5 26.5 q0 37 34 53 l10 5 Z" /><glyph glyph-name="d" unicode="d" d="M337 441 q29 0 45.5 -10 q16.5 -10 34.5 -31 q2 5 27.5 107.5 q25.5 102.5 26.5 108.5 q0 12 -6 16 q-11 4 -40 5 l-21 0 q-6 6 -6.5 8 q-0.5 2 2.5 19 q5 19 13 19 q1 0 71 5 l71 6 q12 0 12 -8 q0 -8 -148 -600 q-1 -6 -1 -25 q0 -31 13 -34 q13 -4 25 9 q19 20 38 95 q6 20 10 21 q3 1 12 1 l5 0 q17 0 19 -2 q5 -4 1 -22 q-24 -86 -55 -117 q-23 -23 -52 -23 q-48 0 -73 33 q-14 17 -14 26 l-1 0 q-1 -1 -4 -3.5 q-3 -2.5 -5 -4.5 q-55 -51 -109 -51 q-18 0 -36 6 q-41 14 -66 54 q-25 40 -25 97 q0 30 10 73 q20 82 76 144 q56 62 123 76 q8 2 27 2 ZM388 361 q-16 44 -55 44 q-31 0 -62 -33 q-22 -23 -36.5 -56 q-14.5 -33 -31.5 -101 q-19 -80 -19 -107 l0 -8 q0 -29 7 -44 q13 -30 44 -30 q13 0 26 6 q20 8 46.5 34 q26.5 26 36.5 46 q3 5 28 105.5 q25 100.5 25 105.5 q0 13 -9 38 Z" /><glyph glyph-name="e" unicode="e" d="M205 223 q-16 -64 -16 -98 q0 -79 53 -97 q4 -1 19 -1 q21 0 30 2 q82 14 135 80 q10 12 14 12 q4 0 14 -10 q10 -10 12 -14 q3 -5 -11 -20 q-61 -71 -163 -86 q-9 -1 -34 -1 q-62 0 -101 39 q-50 50 -50 137 q0 37 8 69 q14 64 59 115 q45 51 109 76 q32 13 62 15 q1 0 7 0.5 q6 0.5 9 0.5 l3 0 q39 0 66.5 -18 q27.5 -18 36.5 -49 q3 -7 3 -20 q0 -31 -20 -62 q-48 -70 -232 -70 l-13 0 ZM369 282 q47 24 47 69 q0 24 -15.5 39 q-15.5 15 -40.5 15 q-18 0 -36 -6 q-67 -23 -97 -101 q-12 -27 -12 -37 q0 -1 25 -1 q92 3 129 22 Z" /><glyph glyph-name="f" unicode="f" d="M351 608 q0 30 38 53 q-19 7 -24 7 q-16 0 -29 -23 q-4 -9 -18 -74 l-27 -139 q0 -1 52 -1 l51 0 q6 -5 7 -8.5 q1 -3.5 -3 -18.5 q-4 -14 -9 -18 l-54 -1 l-53 0 l-27 -139 q-36 -186 -50 -242 q-24 -98 -56 -147 q-31 -47 -70 -59 q-5 -2 -21 -2 q-35 0 -58 19 q-23 19 -23 51 q0 27 16 46 q16 19 44 19 q17 0 28 -10.5 q11 -10.5 11 -28.5 q0 -31 -37 -53 q0 -2 9 -4.5 q9 -2.5 14 -2.5 q14 0 29 23 q7 16 12 35.5 q5 19.5 12 56.5 q7 37 10 52 q20 91 21 99 q3 11 17 82 q14 71 26.5 137 q12.5 66 12.5 67 q0 1 -44 1 l-44 0 q-6 5 -7 8.5 q-1 3.5 3 18.5 q3 12 10 19 l45 0 q46 0 46 2 l1 5 q2 6 4 17 q2 11 4 20 q23 124 46 164 q29 52 84 64 q10 2 17 2 q35 0 59 -19 q24 -19 24 -51 q0 -29 -16.5 -47.5 q-16.5 -18.5 -43.5 -18.5 q-17 0 -28 10.5 q-11 10.5 -11 28.5 Z" /><glyph glyph-name="g" unicode="g" d="M106 -79 q16 0 28 -10 q12 -10 12 -26 q0 -24 -17 -41 q-6 -7 -4 -7 q8 -3 45 -5 q30 0 47 6 q25 9 47 32 q22 23 33 52 q1 4 8.5 32.5 q7.5 28.5 14.5 55.5 q7 27 7 28 l-1 0 q-1 -1 -2.5 -2 q-1.5 -1 -3.5 -2 q-41 -33 -89 -33 q-18 0 -29 3 q-47 12 -73 53.5 q-26 41.5 -26 105.5 q3 85 49.5 156.5 q46.5 71.5 110.5 103.5 q32 15 57 18 q2 0 9 0.5 q7 0.5 12 0.5 q48 -4 71 -35 l7 -9 q1 1 1 2 q4 8 18 15 q14 7 26 7 q11 -1 20.5 -8.5 q9.5 -7.5 9.5 -17.5 q0 -10 -29 -128 q-29 -118 -58 -230 q-29 -112 -30 -115 q-4 -15 -18 -38 q-26 -40 -74 -65 q-48 -25 -106 -25 q-133 0 -133 66 q0 25 18.5 42.5 q18.5 17.5 41.5 17.5 ZM185 115 q0 -77 53 -77 q12 0 21 3 q41 13 78 66 q10 14 11 15 q1 3 25.5 101 q24.5 98 24.5 101 q0 9 -7 30 q-16 51 -59 51 q-8 0 -12 -1 q-29 -8 -57 -39 q-32 -39 -59 -146 q-18 -69 -19 -104 Z" /><glyph glyph-name="h" unicode="h" d="M397 349 q0 56 -40 56 q-8 0 -13 -1 q-67 -9 -116 -94 q-11 -20 -16 -36 q-5 -16 -32 -122 q-27 -110 -32 -126 q-5 -16 -13 -23 q-14 -14 -33 -14 q-13 0 -22.5 8.5 q-9.5 8.5 -10.5 21.5 l147 597 q0 12 -6 16 q-11 4 -40 5 l-21 0 q-6 6 -6.5 8 q-0.5 2 2.5 19 q5 19 13 19 q1 0 72 5 l70 6 q12 0 12 -9 q0 -9 -35.5 -149.5 q-35.5 -140.5 -35.5 -142.5 l8 6 q49 43 113 43 q52 0 82.5 -27.5 q30.5 -27.5 30.5 -76.5 q0 -28 -12 -74 q-16 -59 -45 -140 q-17 -46 -19 -63 q-2 -12 -2 -16 q0 -18 17 -18 q18 0 37 16 q26 28 45 93 q3 12 5.5 14.5 q2.5 2.5 13.5 2.5 l6 0 q17 0 19 -2 q6 -4 1 -21 q-34 -114 -109 -138 q-8 -2 -24 -2 q-38 0 -60 22 q-22 22 -22 60 q0 21 16 63 q45 126 53 180 q2 9 2 34 Z" /><glyph glyph-name="i" unicode="i" d="M234 599 q0 21 17.5 39 q17.5 18 40.5 18 q17 0 28.5 -11 q11.5 -11 11.5 -28 q0 -23 -18.5 -40 q-18.5 -17 -40.5 -17 q-17 0 -28 11 q-11 11 -11 28 ZM221 384 q0 12 -3.5 16.5 q-3.5 4.5 -14.5 4.5 q-19 -1 -37 -19 q-25 -28 -42 -88 q-4 -16 -8 -19 q-1 -1 -19 -1 l-16 0 q-5 5 -5.5 7.5 q-0.5 2.5 3.5 16.5 q24 85 76 122 q21 14 41 17 l18 0 q36 0 57.5 -23 q21.5 -23 21.5 -61 q-2 -19 -3 -24 q-1 -3 -45.5 -125.5 q-44.5 -122.5 -45.5 -125.5 q-6 -20 -6 -36 q0 -20 16 -20 q19 0 38 17 q26 28 45 93 q3 12 5.5 14.5 q2.5 2.5 13.5 2.5 l6 0 q17 0 19 -2 q6 -4 1 -21 q-34 -114 -109 -138 q-8 -2 -24 -2 q-38 0 -60 23 q-22 23 -22 58 q0 13 3 27 q1 3 45.5 125.5 q44.5 122.5 44.5 123.5 q6 21 6 37 Z" /><glyph glyph-name="j" unicode="j" d="M266 600 q0 20 16.5 38 q16.5 18 39.5 18 q17 0 29.5 -11.5 q12.5 -11.5 12.5 -28.5 q0 -23 -19.5 -39.5 q-19.5 -16.5 -39.5 -16.5 q-18 0 -28.5 11 q-10.5 11 -10.5 29 ZM81 278 q-6 6 -6 9 q0 7 16 39 q50 100 127 114 q10 2 18 2 q62 0 84 -53 q7 -17 7 -31 l0 -26 l-49 -198 q-11 -42 -25 -97.5 q-14 -55.5 -20.5 -81.5 q-6.5 -26 -7.5 -28 q-16 -48 -58 -83.5 q-42 -35.5 -92 -45.5 q-8 -2 -29 -2 q-35 0 -56.5 16.5 q-21.5 16.5 -21.5 47.5 q0 26 18 43.5 q18 17.5 41 17.5 q17 0 28.5 -9.5 q11.5 -9.5 11.5 -25.5 q0 -33 -29 -52 q6 -2 11 -2 q27 0 50 21 q31 27 47 76 q4 12 53.5 209.5 q49.5 197.5 50.5 207.5 q3 14 3 27 q0 32 -23 32 q-38 0 -71 -46 q-20 -26 -35 -65 q-6 -14 -8 -15 q-2 -1 -11 -1 l-7 0 l-17 0 Z" /><glyph glyph-name="k" unicode="k" d="M158 683 q1 0 72 5 l70 6 q12 0 12 -8 q0 -8 -101 -413 q3 -3 28 19 q17 13 57 57 q49 53 75 70 q35 23 68 23 q28 0 43.5 -19 q15.5 -19 15.5 -50 q0 -34 -16 -55.5 q-16 -21.5 -45 -21.5 q-16 0 -27.5 9.5 q-11.5 9.5 -11.5 25.5 q0 23 13.5 39 q13.5 16 33.5 21 q9 1 3 8 q-5 8 -27 5 q-22 -4 -44 -19 q-25 -17 -70 -66 q-29 -33 -57 -58 q-7 -4 -7 -7 q5 -2 11 -3 q112 -26 112 -105 q0 -15 -4 -30 q-7 -31 -7 -54 l0 -8 q0 -28 20 -28 q15 0 26 8.5 q11 8.5 19.5 28 q8.5 19.5 12 30.5 q3.5 11 10.5 37 q6 21 11 22 q3 1 11 1 l5 0 q2 0 4 0 q7 0 9.5 0 q2.5 0 5 -1 q2.5 -1 3 -3 q0.5 -2 0.5 -5 q0 -17 -20 -66 q-29 -65 -69 -83 q-15 -6 -31 -6 q-41 0 -66.5 28 q-25.5 28 -25.5 71 q0 9 3.5 29.5 q3.5 20.5 3.5 28.5 q0 46 -62 67 q-5 2 -11.5 4 q-6.5 2 -11.5 3 l-4 0 q-1 0 -25 -99 q-21 -84 -25.5 -97.5 q-4.5 -13.5 -12.5 -20.5 q-14 -14 -33 -14 q-13 0 -22.5 8.5 q-9.5 8.5 -10.5 21.5 l147 597 q0 12 -6 16 q-11 4 -40 5 l-21 0 q-6 6 -6.5 8 q-0.5 2 2.5 19 q5 19 13 19 Z" /><glyph glyph-name="l" unicode="l" d="M158 683 q1 0 72 5 l70 6 q12 0 12 -8 q0 -8 -148 -600 q-2 -12 -2 -25 q0 -31 14 -34 q13 -4 25 9 q19 20 38 95 q6 20 10 21 q3 1 12 1 l5 0 q17 0 19 -2 q5 -4 1 -22 q-24 -86 -55 -117 q-23 -23 -52 -23 q-41 0 -66.5 25 q-25.5 25 -25.5 67 q0 15 1 21 q5 20 20 80.5 q15 60.5 45 181.5 q30 121 63 252 q0 12 -6 16 q-11 4 -40 5 l-21 0 q-6 6 -6.5 8 q-0.5 2 2.5 19 q5 19 13 19 Z" /><glyph glyph-name="m" unicode="m" d="M704 349 q0 56 -40 56 q-8 0 -13 -1 q-67 -9 -117 -95 q-11 -19 -16 -35 q-5 -16 -31 -123 q-32 -127 -35 -135 q-14 -27 -44 -27 q-30 0 -32 29 q0 8 35 149 q35 141 36 147 q2 11 2 32 q0 26 -5 38 q-14 21 -36 21 q-27 0 -51 -13 q-45 -22 -81 -87 q-10 -16 -14.5 -32.5 q-4.5 -16.5 -30.5 -121.5 q-32 -127 -35 -135 q-14 -27 -44 -27 q-30 0 -32 29 q0 8 39.5 164.5 q39.5 156.5 40.5 164.5 q2 14 2 25 q0 33 -21 33 q-13 0 -22 -14 q-17 -21 -38 -104 q-1 -2 -2 -4 q-2 -5 -15 -5 q-4 0 -6 0 l-17 0 q-6 6 -6 11 q2 10 14 49 q29 90 81 103 q5 1 19 1 q66 -5 82 -58 l4 -10 l11 12 q56 56 128 56 q72 0 100 -50 q1 -1 10 -26 q44 59 117 74 q16 2 26 2 q106 0 115 -98 l0 -6 q0 -28 -12 -74 q-16 -61 -46 -141 q-17 -48 -19 -68 q0 -2 -0.5 -5.5 q-0.5 -3.5 -0.5 -4.5 q0 -19 16 -19 q53 0 82 110 q3 12 5.5 14.5 q2.5 2.5 14.5 2.5 l6 0 q17 0 19 -2 q6 -4 1 -21 q-24 -82 -73 -120 q-27 -20 -60 -20 q-37 0 -60 23 q-23 23 -23 58 q0 10 1 16 q1 6 2 9 q1 3 5.5 15.5 q4.5 12.5 8.5 23.5 q45 129 53 180 q2 9 2 34 Z" /><glyph glyph-name="n" unicode="n" d="M448 349 q0 56 -40 56 q-8 0 -13 -1 q-67 -9 -117 -95 q-11 -19 -16 -35 q-5 -16 -31 -123 q-32 -127 -35 -135 q-14 -27 -44 -27 q-30 0 -32 29 q0 6 39.5 165 q39.5 159 39.5 163 q3 14 3 26 q0 33 -22 33 q-17 0 -32 -31 q-11 -24 -27 -87 q-1 -2 -2 -4 q-2 -5 -15 -5 q-4 0 -6 0 l-17 0 q-6 6 -6 9 q0 11 16 56 q17 51 40 74 q23 25 53 25 q63 0 86 -53 q2 -6 4 -11 l0 -4 l13 13 q55 55 127 55 q51 0 81.5 -27.5 q30.5 -27.5 30.5 -76.5 q0 -28 -12 -74 q-16 -59 -45 -140 q-17 -46 -19 -63 q-2 -12 -2 -16 q0 -18 17 -18 q18 0 37 16 q26 28 45 93 q3 12 5.5 14.5 q2.5 2.5 13.5 2.5 l6 0 q17 0 19 -2 q6 -4 1 -21 q-34 -114 -109 -138 q-8 -2 -24 -2 q-38 0 -60 22 q-22 22 -22 60 q0 21 16 63 q45 126 53 180 q2 9 2 34 Z" /><glyph glyph-name="o" unicode="o" d="M217 385 q72 57 149 57 q68 0 109.5 -46.5 q41.5 -46.5 41.5 -120.5 q0 -92 -65 -177 q-65 -85 -159 -105 q-16 -4 -38 -4 q-71 0 -111.5 46 q-40.5 46 -40.5 120 q0 27 5 51 q22 108 109 179 ZM187 119 q0 -42 18.5 -67.5 q18.5 -25.5 54.5 -25.5 q30 0 61 21 q56 36 83 125 q28 93 28 143 q0 46 -24 70 q-20 20 -50 20 q-3 0 -8 -0.5 q-5 -0.5 -7 -0.5 q-35 -7 -66 -36.5 q-31 -29.5 -50 -73.5 q-24 -58 -39 -148 q-1 -8 -1 -27 Z" /><glyph glyph-name="p" unicode="p" d="M81 278 q-6 6 -6 9 q0 11 16 56 q17 51 40 74 q24 25 58 25 q31 -2 53.5 -18.5 q22.5 -16.5 29.5 -41.5 l8 8 q55 52 109 52 q59 0 94 -45.5 q35 -45.5 35 -112.5 q0 -84 -49 -166 q-53 -89 -141 -121 q-21 -7 -46 -7 q-18 0 -26 2 q-30 10 -52 36 l-2 4 l-21 -83 q-21 -84 -21 -88 q0 -8 34 -9 q7 0 11 0 l25 0 q5 -7 5.5 -9 q0.5 -2 -2.5 -18 q-3 -12 -6 -15.5 q-3 -3.5 -13 -3.5 q-16 0 -52 1 q-36 1 -54 1 q-68 0 -87 -2 l-8 0 q-6 6 -6.5 8.5 q-0.5 2.5 2.5 18.5 q4 14 7 16 q3 2 23 3 q34 1 39 12 q2 4 61.5 240.5 q59.5 236.5 59.5 242.5 q3 15 3 25 q0 33 -21 33 q-11 0 -22 -14 q-17 -21 -38 -104 q-1 -2 -2 -4 q-2 -5 -15 -5 q-4 0 -6 0 l-17 0 ZM221 111 q12 -85 65 -85 q28 0 55 25.5 q27 25.5 44 64.5 q12 28 32 104 q18 73 18 112 q0 22 -2 29 q-11 44 -50 44 q-9 0 -24 -5 q-41 -16 -80 -74 l-6 -9 q-9 -34 -26 -103 q-17 -69 -26 -103 Z" /><glyph glyph-name="q" unicode="q" d="M228 -11 q-57 0 -92 46 q-35 46 -35 112 q0 25 4 46 q13 74 57 137.5 q44 63.5 103 92.5 q40 19 68 19 q55 0 87 -48 l9 9 q10 10 19 16 q9 6 26 14.5 q17 8.5 20 8.5 q10 0 10 -8 q0 -8 -70 -289 q-70 -281 -70 -284 q0 -8 34 -9 q7 0 11 0 l25 0 q5 -7 5.5 -9 q0.5 -2 -2.5 -18 q-4 -16 -8 -18 q-4 -1 -11 -1 q-14 0 -48.5 1 q-34.5 1 -60.5 1 q-25 0 -58.5 -0.5 q-33.5 -0.5 -46.5 -0.5 q-10 0 -13 5 q-2 3 1 19 q4 16 7 18.5 q3 2.5 20 2.5 q47 0 58 7 q6 4 28 90 l20 80 l-9 -7 q-44 -33 -88 -33 ZM388 361 q-16 44 -55 44 q-31 0 -62 -33 q-22 -23 -36.5 -56 q-14.5 -33 -31.5 -101 q-19 -80 -19 -107 l0 -8 q0 -29 7 -44 q13 -30 44 -30 q13 0 26 6 q20 8 46.5 34 q26.5 26 36.5 46 q3 5 28 105.5 q25 100.5 25 105.5 q0 13 -9 38 Z" /><glyph glyph-name="r" unicode="r" d="M81 278 q-6 6 -6 11 q2 12 14 50 q29 89 81 102 q4 1 13 1 q69 0 88 -58 l12 12 q27 29 60 39 q18 7 41 7 q41 0 70.5 -21.5 q29.5 -21.5 29.5 -58.5 q0 -27 -17 -46.5 q-17 -19.5 -43 -19.5 q-16 0 -27.5 9.5 q-11.5 9.5 -11.5 25.5 q0 40 32 54 q7 3 7 5 q-15 15 -46 15 q-9 0 -13 -1 q-48 -9 -89 -89 l-8 -15 l-34 -139 q-34 -136 -38 -145 q-14 -27 -44 -27 q-30 0 -32 29 q0 6 39.5 165 q39.5 159 39.5 163 q3 14 3 26 q0 33 -20 33 q-8 0 -13 -4 q-23 -15 -48 -114 q-1 -2 -2 -4 q-2 -5 -15 -5 q-4 0 -6 0 l-17 0 Z" /><glyph glyph-name="s" unicode="s" d="M331 326 q0 32 35 50 q0 5 -13 15 q-16 13 -45 13 q-50 0 -73 -43 q-9 -19 -9 -36 q0 -22 14 -34 q8 -8 42 -15 q37 -8 49.5 -13 q12.5 -5 29.5 -21 q34 -34 34 -79 q0 -38 -19 -74 q-19 -36 -43 -57 q-54 -43 -126 -43 q-93 0 -123 60 q-8 14 -8 37 q0 31 15.5 50.5 q15.5 19.5 43.5 19.5 q17 0 28.5 -10.5 q11.5 -10.5 11.5 -27.5 q0 -36 -33 -52 q-2 -1 -5 -2 q-4 -2 -5 -2 q-5 0 4 -9 q24 -27 74 -27 q33 0 57 12 q23 12 38.5 36 q15.5 24 15.5 49 q0 22 -14 37 q-15 15 -57 24 q-37 9 -46 14 q-51 23 -51 87 q0 48 31 95 q45 62 127 62 q45 0 76 -22.5 q31 -22.5 31 -63.5 q0 -27 -15 -44.5 q-15 -17.5 -38 -17.5 q-29 0 -34 32 Z" /><glyph glyph-name="t" unicode="t" d="M283 626 q13 0 22 -8.5 q9 -8.5 10 -20.5 q0 -8 -19 -84 q-20 -79 -21 -80 q0 -2 45 -2 l46 0 q6 -6 6.5 -8.5 q0.5 -2.5 -2.5 -18.5 q-3 -12 -10 -19 l-97 0 l-36 -145 q-6 -22 -11.5 -46 q-5.5 -24 -10 -42 q-4.5 -18 -8 -33 q-3.5 -15 -6 -23.5 q-2.5 -8.5 -2.5 -9.5 q-1 -6 -1 -25 q0 -32 13 -34 q12 -4 28 3 q24 7 47 36 q23 29 40 72 q4 11 7.5 13 q3.5 2 18.5 2 q17 0 19 -2 q6 -5 -1 -21 q-11 -25 -25 -50 q-31 -49 -72 -74 q-31 -17 -61 -17 q-40 0 -65.5 26 q-25.5 26 -25.5 66 q0 13 37 160 q35 141 36 142 q0 2 -45 2 l-45 0 q-6 6 -6.5 8 q-0.5 2 2.5 17 q4 14 5 15 q2 5 8.5 5.5 q6.5 0.5 45.5 0.5 l47 0 l19 80 q16 66 20.5 79.5 q4.5 13.5 12.5 21.5 q14 14 35 14 Z" /><glyph glyph-name="u" unicode="u" d="M269 -10 q-58 0 -89.5 31 q-31.5 31 -31.5 87 q0 36 13 81 q16 53 37 111 q23 61 23 83 q0 22 -15 22 q-21 0 -40 -19 q-25 -28 -42 -88 q-4 -16 -8 -19 q-1 -1 -19 -1 l-16 0 q-5 5 -5.5 7.5 q-0.5 2.5 3.5 16.5 q19 69 60 108 q31 31 66 31 q42 0 65 -21.5 q23 -21.5 23 -62.5 q-1 -22 -18 -67 q-36 -98 -44 -143 q-6 -29 -6 -52 q0 -69 49 -69 q45 0 78 44 q17 23 17 29 q0 3 37 150.5 q37 147.5 40 154.5 q14 27 44 27 q30 0 32 -29 q0 -8 -37.5 -157 q-37.5 -149 -38.5 -156 q-3 -15 -3 -33 q0 -29 18 -30 q11 0 18 7 q15 14 28 53 q17 44 17 60 q0 1 6 7 l17 0 q17 0 19 -2 q6 -4 -1 -27 q-25 -100 -73 -127 q-16 -8 -38 -8 q-39 3 -62 27 q-13 15 -16 25 q-1 0 -12 -11 q-43 -40 -95 -40 Z" /><glyph glyph-name="v" unicode="v" d="M387 386 q0 20 17.5 38.5 q17.5 18.5 40.5 18.5 q23 0 35 -21.5 q12 -21.5 12 -50.5 q0 -38 -19 -118 q-30 -117 -73 -185 q-25 -36 -51 -56 q-31 -22 -70 -22 q-63 0 -96.5 32.5 q-33.5 32.5 -33.5 91.5 q0 33 9.5 67.5 q9.5 34.5 40.5 118.5 q22 63 22 84 q0 21 -15 21 q-21 0 -40 -19 q-25 -28 -42 -88 q-4 -16 -8 -19 q-1 -1 -19 -1 l-16 0 q-5 5 -5.5 7.5 q-0.5 2.5 3.5 16.5 q31 112 108 137 q7 2 23 2 l8 0 q34 0 54.5 -23.5 q20.5 -23.5 20.5 -60.5 q-1 -22 -18 -67 q-30 -81 -40 -122 q-9 -38 -9 -66 q0 -76 59 -76 q8 0 20 2 q42 12 68.5 68 q26.5 56 48.5 141 q7 28 7 53 q-1 38 -29 69 q-13 13 -13 27 Z" /><glyph glyph-name="w" unicode="w" d="M591 386 q0 20 17.5 38.5 q17.5 18.5 40.5 18.5 q23 0 35 -21.5 q12 -21.5 12 -50.5 q0 -37 -21 -124 q-28 -109 -54 -162 q-35 -73 -88 -90 q-18 -6 -40 -6 q-48 0 -82 23 q-19 14 -25 26 q-3 5 -4 5 q-37 -53 -96 -53 q-66 0 -101 31.5 q-35 31.5 -35 93.5 q0 51 49 185 q22 63 22 84 q0 21 -15 21 q-21 0 -40 -19 q-25 -28 -42 -88 q-4 -16 -8 -19 q-1 -1 -19 -1 l-16 0 q-5 5 -5.5 7.5 q-0.5 2.5 3.5 16.5 q31 112 108 137 q7 2 23 2 l8 0 q34 0 54.5 -23.5 q20.5 -23.5 20.5 -60.5 q-1 -22 -18 -67 q-37 -101 -45 -148 q-3 -18 -3 -34 q0 -82 65 -82 q9 0 15 2 q31 11 54 65 l5 10 l0 16 q0 3 1 14.5 q1 11.5 2 16.5 q3 17 32 132.5 q29 115.5 32 121.5 q13 27 44 27 q30 0 32 -29 q0 -6 -9.5 -44.5 q-9.5 -38.5 -26 -103.5 q-16.5 -65 -27.5 -114 q-2 -14 -2 -36 l0 -12 q0 -29 16.5 -47.5 q16.5 -18.5 41.5 -18.5 q30 0 56 32 q33 43 65 168 q10 39 10 64 q-1 38 -29 69 q-13 13 -13 27 Z" /><glyph glyph-name="x" unicode="x" d="M275 356 q0 49 -42 49 q-39 0 -73 -41 q-26 -30 -39 -75 q-2 -9 -4 -10 q-2 -1 -19 -1 l-17 0 q-8 8 -3 22 q15 52 54 93.5 q39 41.5 89 47.5 q2 0 6.5 0.5 q4.5 0.5 7.5 0.5 q70 0 98 -56 q8 10 18 22 q36 34 76 34 q36 0 61 -21.5 q25 -21.5 25 -56.5 q0 -29 -16.5 -48.5 q-16.5 -19.5 -43.5 -19.5 q-16 0 -27.5 9.5 q-11.5 9.5 -11.5 25.5 q0 42 36 56 l6 3 l-8 7 q-10 7 -27 7 q-11 0 -18 -3 q-27 -14 -45 -60 q-3 -9 -30 -114.5 q-27 -105.5 -30 -121.5 q-3 -15 -3 -30 q0 -49 44 -49 q10 0 18 2 q51 15 81 80 q13 32 13 38 q0 1 6 7 l17 0 q20 0 21 -3 q1 -1 1 -6 q0 -8 -9 -30.5 q-9 -22.5 -18 -37.5 q-31 -49 -74 -71 q-31 -16 -62 -16 q-62 0 -92 50 l-4 6 q-39 -56 -91 -56 q-37 0 -62.5 21.5 q-25.5 21.5 -25.5 56.5 q0 29 16.5 48.5 q16.5 19.5 44.5 19.5 q17 0 28 -10.5 q11 -10.5 11 -28.5 q0 -34 -33 -51 l-10 -4 q9 -15 36 -15 q40 0 63 67 q3 9 30 117 q27 108 29 120 q2 9 2 26 Z" /><glyph glyph-name="y" unicode="y" d="M269 -10 q-58 0 -89.5 31 q-31.5 31 -31.5 87 q0 36 13 81 q16 53 37 111 q23 61 23 83 q0 22 -15 22 q-21 0 -40 -19 q-25 -28 -42 -88 q-4 -16 -8 -19 q-1 -1 -19 -1 l-16 0 q-5 5 -5.5 7.5 q-0.5 2.5 3.5 16.5 q19 69 60 108 q31 31 66 31 q42 0 65 -21.5 q23 -21.5 23 -62.5 q-1 -22 -18 -67 q-36 -98 -44 -143 q-6 -29 -6 -52 q0 -69 49 -69 q31 0 52 17.5 q21 17.5 41 49.5 l38 152 q37 148 41 159 q14 27 44 27 q30 0 32 -29 q0 -2 -106 -426 q-27 -78 -89.5 -129.5 q-62.5 -51.5 -130.5 -51.5 q-40 0 -68 19.5 q-28 19.5 -36 52.5 q-1 5 -1 14 q0 30 16.5 50 q16.5 20 44.5 20 q17 0 28 -10.5 q11 -10.5 11 -28.5 q0 -41 -42 -54 l-3 -2 q23 -23 53 -23 q43 0 77 37 q39 41 60 106 q11 26 11 39 q0 1 -2 -0.5 q-2 -1.5 -6 -4.5 q-35 -20 -70 -20 Z" /><glyph glyph-name="z" unicode="z" d="M202 423 q27 19 58 19 q8 0 16 -2 q22 -5 48 -34 q25 -28 41 -31 q9 -2 17 4 q10 9 34 48 q6 14 9 14 q2 1 8 1 l11 0 l16 0 q6 -6 6 -8 q0 -2 -7 -17 q-19 -31 -33 -50 q-43 -57 -153 -165 q-59 -58 -95 -97 l-8 -10 l11 -1 q18 -1 56 -13 q36 -13 58 -13 q33 0 61.5 22 q28.5 22 38.5 51 q3 9 6 10.5 q3 1.5 18 1.5 q10 0 13.5 -0.5 q3.5 -0.5 6 -2.5 q2.5 -2 2.5 -6 q0 -19 -17 -48 q-29 -62 -84 -91 q-29 -16 -58 -16 q-12 0 -21 3 q-11 4 -18.5 10.5 q-7.5 6.5 -34.5 34.5 q-20 20 -37 20 q-13 0 -28 -9 q-20 -14 -40 -46 q-12 -12 -16 -13 l-11 0 l-16 0 q-6 6 -6 9 q0 3 7 16 q42 74 172 201 q116 114 116 123 l-47 13 q-33 11 -55 11 q-24 0 -42.5 -9.5 q-18.5 -9.5 -22.5 -25.5 q-2 -6 -4 -7 q-3 -3 -18 -3 q-24 0 -24 8 q0 5 3 14 q16 52 63 84 Z" /><glyph glyph-name="asciitilde" unicode="~" d="M266 208 q-4 0 -11.5 7.5 q-7.5 7.5 -7.5 12.5 q0 5 3 8.5 q3 3.5 24 22.5 q50 49 81 57 q14 3 28 0 q17 -4 41 -28 q24 -23 40 -23 q23 0 74 45 q11 12 22 3 q11 -10 11 -16 q-1 -4 -23 -26 q-32 -32 -53 -45 q-24 -17 -44 -17 l-4 0 q-12 0 -18 2 q-15 7 -32 24 q-20 19 -29 24 q-4 2 -13 2 q-27 0 -70 -40 q-14 -13 -19 -13 Z" /><glyph glyph-name="endash" unicode="&#x2013;" d="M100 284 q2 1 224 1 l118 0 q109 0 110 -5 q0 -1 0 -2 q2 -3 0 -12.5 q-2 -9.5 -4 -11.5 l0 -1 q-2 -4 -71 -5 q-33 0 -158 0 l-221 0 q-9 7 -5 22 q2 11 7 14 Z" /><glyph glyph-name="quotedblleft" unicode="&#x201c;" d="M295 379 q-52 0 -52 69 q0 85 74 179 q35 42 66 64 q7 4 11 2 q2 -1 8 -9 q6 -8 7 -10 q1 -5 -9 -14 q-63 -49 -98 -123 q-18 -44 -16 -46 q1 0 5 2 q13 7 30 7 q23 0 37 -12.5 q14 -12.5 14 -33.5 q0 -29 -23 -52 q-23 -23 -54 -23 ZM492 379 q-52 0 -52 69 q0 85 74 179 q35 42 66 64 q7 4 11 2 q2 -1 8 -9 q6 -8 7 -10 q1 -5 -9 -14 q-63 -49 -98 -123 q-18 -44 -16 -46 q1 0 5 2 q13 7 30 7 q23 0 37 -12.5 q14 -12.5 14 -33.5 q0 -29 -23 -52 q-23 -23 -54 -23 Z" /><glyph glyph-name="quotedblright" unicode="&#x201d;" d="M264 573 q-23 0 -36.5 12.5 q-13.5 12.5 -13.5 34.5 q0 30 22 52 q22 22 53 22 q23 0 37.5 -17.5 q14.5 -17.5 14.5 -43.5 l0 -9 q0 -22 -2 -33 q-21 -90 -86 -162 q-25 -29 -49 -46 q-10 -7 -21 6 q-7 11 -7 12 q0 5 13 15 q69 56 98 131 q12 29 12 35 q-4 -1 -7 -3 q-12 -6 -28 -6 ZM461 573 q-23 0 -36.5 12.5 q-13.5 12.5 -13.5 34.5 q0 30 22 52 q22 22 53 22 q23 0 37.5 -17.5 q14.5 -17.5 14.5 -43.5 l0 -9 q0 -22 -2 -33 q-21 -90 -86 -162 q-25 -29 -49 -46 q-10 -7 -21 6 q-7 10 -7 12 q0 5 13 15 q69 56 98 131 q12 29 12 35 q-4 -1 -7 -3 q-12 -6 -28 -6 Z" /></font>
</defs>
</svg>
