<?xml version="1.0" standalone="no"?><!DOCTYPE svg PUBLIC "-//W3C//DTD SVG 1.1//EN" "http://www.w3.org/Graphics/SVG/1.1/DTD/svg11.dtd" ><svg xmlns="http://www.w3.org/2000/svg"><metadata></metadata><defs><font id="FontForge 2.0 : KaTeX_Caligraphic-Regular" horiz-adv-x="1201"><font-face font-family="KaTeX_Caligraphic" font-weight="400" font-stretch="normal" units-per-em="1000" panose-1="0 0 0 0 0 0 0 0 0 0" ascent="789" descent="-143" x-height="0" bbox="-30 -143 1137 789" underline-thickness="50" underline-position="-125" unicode-range="U+0020-005a" /><missing-glyph horiz-adv-x="250" d="M50 0 l0 533 l150 0 l0 -533 l-150 0 ZM100 50 l50 0 l0 433 l-50 0 l0 -433 Z" /><glyph glyph-name="A" unicode="A" d="M30 43 q0 28 15.5 55 q15.5 27 28.5 27 q10 0 13 -19 q2 -21 22.5 -35 q20.5 -14 41.5 -14 q9 0 13 2 q37 16 113 123 q155 218 265 443 l17 34 l8 0 q7 0 8 1 q1 1 1 8 q0 4 2 12 q8 16 33.5 32 q25.5 16 48.5 16 q18 0 15 -16 l0 -141 q0 -162 13 -319 q5 -78 18 -139 l14 -56 q5 -11 23 -18 l11 6 q34 16 49 16 q16 0 16 -14 q-1 -4 -5 -12 q-12 -16 -53 -39 q-27 -14 -48 -20 q-18 -6 -38 -6 q-34 0 -48 24 q-4 6 -13 40 q-14 58 -20 105 q-2 19 -3 21 l0 3 l-131 0 l-131 1 l-13 -19 q-35 -52 -50 -70 q-92 -125 -147 -125 q-35 0 -62 26.5 q-27 26.5 -27 66.5 ZM584 249 q-4 73 -10 271 l0 61 l-11 -21 q-66 -134 -151 -270 q-7 -11 -18 -28 q-11 -17 -17.5 -27 q-6.5 -10 -6.5 -11 l1 0 l12 4 l10 4 l193 0 l-2 17 Z" /><glyph glyph-name="B" unicode="B" d="M305 342 q-13 0 -13 11 q0 17 31 38 q14 9 58 24 q40 15 48 17 q77 29 104 55 q30 26 30 68 l0 7 q0 14 -7 28 q-21 41 -81 46 q-23 0 -43 -6 q-51 -14 -102 -91 q-17 -24 -34 -59 q-48 -93 -86 -242 q-14 -55 -37 -118 q-38 -89 -52 -104 q-13 -15 -36 -26.5 q-23 -11.5 -38 -11.5 q-8 0 -12 3.5 q-4 3.5 -3 10.5 q0 2 10 24 q46 90 70 190 q48 193 75 379 q1 7 2 14.5 q1 7.5 1 11.5 l1 4 q0 3 -18 -7 q-27 -13 -42 -14 q-18 0 -18 12 q0 18 31 38 q6 5 55 29.5 q49 24.5 56 26.5 q9 3 12 3 q10 2 12 2 q16 0 16 -12 q0 -6 -7.5 -58 q-7.5 -52 -9.5 -60 q0 -3 9 7 q95 103 220 121 q8 1 33 1 q98 0 121 -78 q3 -10 3 -27 q0 -10 -2 -20 q-9 -37 -32 -68 q-46 -54 -126 -98 l-13 -6 l13 -5 q55 -18 89 -59.5 q34 -41.5 34 -98.5 q0 -31 -11 -64 q-24 -72 -106 -129 q-82 -57 -179 -70 q-19 -3 -47 -3 q-76 0 -126 50 q-14 14 -12 22 q4 17 32.5 35 q28.5 18 51.5 18 q7 0 21 -14 q42 -42 106 -42 q78 0 129 46 q40 42 40 105 l0 12 q0 16 -5 31 q-18 52 -63 78 q-44 26 -108 26 q-5 0 -22 -1.5 q-17 -1.5 -23 -1.5 Z" /><glyph glyph-name="C" unicode="C" d="M481 171 q15 0 15 -11 q0 -10 -20 -37 q-50 -67 -126.5 -107.5 q-76.5 -40.5 -148.5 -40.5 q-66 0 -113 37 q-76 56 -76 190 q0 58 17 124 q39 152 132 248 q53 54 120.5 88 q67.5 34 136.5 41 q6 1 15 1 q2 1 24 1 q76 -3 76 -65 q0 -4 -2 -20 q-7 -42 -46 -114 q-13 -25 -27 -37.5 q-14 -12.5 -39 -20.5 q-16 -4 -23 -4 q-11 0 -15 8 q-2 4 9 26 q24 44 38 85 q5 17 5 31 q0 23 -12.5 32.5 q-12.5 9.5 -39.5 9.5 q-47 0 -92 -21 q-76 -39 -130 -159 q-47 -108 -47 -209 q0 -91 41 -147 q41 -56 120 -56 q74 0 125 77 q13 20 36.5 35 q23.5 15 46.5 15 Z" /><glyph glyph-name="D" unicode="D" d="M37 475 q-9 0 -14 4 q-5 4 -4 10 q0 1 0.5 3 q0.5 2 1.5 5 q1 3 1 5 q22 69 110 121 q88 52 195 59 l29 0 q30 1 52 1 q97 0 152 -9.5 q55 -9.5 107 -40.5 q99 -62 99 -183 q0 -34 -9 -75 q-32 -139 -171 -243 q-137 -103 -307 -126 q-31 -5 -119 -6 q-77 0 -81 2 q-7 4 -7 10 q0 11 16 25 q20 19 45 27 l11 4 l8 20 q95 240 120 499 q0 1 0 3 q3 23 0 23 q0 0 -2 0 l-1 0 q-64 -4 -100.5 -21.5 q-36.5 -17.5 -49.5 -59.5 q-1 -2 -3 -7 q-2 -5 -3 -7 q-11 -16 -33.5 -28.5 q-22.5 -12.5 -42.5 -14.5 ZM663 444 q-16 87 -90 128.5 q-74 41.5 -190 41.5 q-13 0 -13 -2 q0 -15 -15 -110 q-35 -203 -113 -399 l-14 -34 l37 0 q120 3 216 50 q150 78 179 228 q5 24 5 45 l0 15 q0 26 -2 37 Z" /><glyph glyph-name="E" unicode="E" d="M223 362 q-79 40 -79 108 q0 50 32 94 q37 55 106 94 q69 39 142 46 q3 0 12.5 0.5 q9.5 0.5 14.5 0.5 q87 0 106 -41 q7 -13 7 -27 q0 -27 -24 -64 q-11 -14 -35 -26.5 q-24 -12.5 -41 -12.5 q-16 0 -16 11 q0 7 7 17 q8 15 8 29 q0 45 -83 45 q-90 0 -122 -68 q-13 -24 -13 -52 q0 -48 43 -77 q40 -26 103 -29 q24 0 24 -12 q0 -10 -15 -24 q-30 -30 -74 -33 q-38 -1 -66 -14 q-80 -31 -116 -118 q-14 -34 -14 -58 q0 -46 38.5 -75 q38.5 -29 99.5 -29 q81 0 135 78 q10 16 35 31 q25 15 45 15 q16 0 16 -11 q0 -8 -16 -30 q-51 -68 -130 -110 q-79 -42 -156 -42 q-69 0 -118 35.5 q-49 35.5 -49 91.5 q0 37 21 81 q44 100 158 168 l14 8 Z" /><glyph glyph-name="F" unicode="F" d="M269 614 q-40 -34 -72 -34 q-16 0 -16 11 q0 4 5 16 q16 31 57 51 q41 20 92 24 q1 0 14 0 q13 0 34.5 0 q21.5 0 48 0.5 q26.5 0.5 61.5 0.5 q35 0 68 0 q215 -1 223 -2 q42 -8 45 -34 q0 -26 -30 -46.5 q-30 -20.5 -55 -20.5 q-16 0 -16 15 q1 11 -9 13 q-17 5 -121 6 l-98 0 l-1 -4 q0 -1 -8 -33 q-19 -78 -49 -171 q-12 -38 -14 -39 q0 -2 123 -2 l123 0 q9 -6 10 -10 q3 -9 -7 -26 q-11 -17 -35.5 -30.5 q-24.5 -13.5 -43.5 -13.5 q-12 0 -16 11 l-180 0 l-3 -6 q-71 -176 -113 -239 q-23 -30 -57 -52.5 q-34 -22.5 -69 -29.5 q-6 -1 -27 -1 q-79 0 -111 64 q-4 8 -4 15 q0 9 11 20 q31 33 69 36 q11 0 13.5 -2 q2.5 -2 7.5 -13 q18 -36 52 -46 q15 -5 24 -5 q4 0 8 6 q21 34 58 118 q83 185 130 371 q2 11 7 32 q5 21 8 34.5 q3 13.5 3 14.5 q0 1 -70 1 l-70 0 Z" /><glyph glyph-name="G" unicode="G" d="M144 318 q0 -80 36 -130.5 q36 -50.5 107 -50.5 q38 0 72 23 q58 38 92 118 q4 9 15 44 q5 17 33 35.5 q28 18.5 52 18.5 q14 0 14 -11 q0 -10 -26 -105 q-42 -153 -88 -229 q-69 -114 -182 -143 q-26 -7 -65 -7 q-75 3 -135 32 q-16 11 -17 16 q0 10 13 24 q31 30 67 33 l8 0 l11 -5 q59 -30 130 -30 l8 0 q23 0 40 18 q36 39 69 123 q18 44 18 50 q-5 -3 -10 -7 q-72 -52 -154 -65 q-18 -2 -36 -2 q-71 0 -115 44 q-57 55 -57 161 q0 45 13 96 q29 118 113 205.5 q84 87.5 203 117.5 q45 12 93 12 q42 0 49 -1 q40 -7 59 -19.5 q19 -12.5 24 -36.5 q1 -4 1 -12 q0 -27 -27.5 -72.5 q-27.5 -45.5 -48.5 -66.5 q-32 -30 -68 -30 q-15 0 -15 10 q0 11 13 26 q14 18 28.5 42.5 q14.5 24.5 16.5 35.5 q1 3 1 9 q0 47 -96 47 q-75 0 -124 -34 q-54 -35 -92.5 -111.5 q-38.5 -76.5 -42.5 -163.5 l0 -9 Z" /><glyph glyph-name="H" unicode="H" d="M300 578 q0 35 -46 35 q-54 0 -83 -19.5 q-29 -19.5 -52 -62.5 q-7 -14 -15 -23 q-32 -30 -67 -33 q-9 0 -14.5 4.5 q-5.5 4.5 -3.5 11.5 q4 17 26 48 q44 63 119 103.5 q75 40.5 166 40.5 q49 0 63 -34 q7 -14 7 -27 q0 -17 -9 -82 q-15 -113 -43 -197 q0 -1 119 -1 l120 0 l7 24 q21 74 54.5 168.5 q33.5 94.5 41.5 106.5 q11 15 33 28 q22 13 41 14 q19 0 19 -11 q0 -3 -9 -27 q-56 -147 -99 -304 q-39 -140 -50 -240 q-1 -9 -2 -19.5 q-1 -10.5 -1.5 -16.5 q-0.5 -6 -0.5 -9 q0 -36 37 -36 q8 0 43 5 q6 19 17 30 q27 27 64 32 q21 2 21 -12 q0 -9 -11 -29 q-23 -42 -79.5 -68 q-56.5 -26 -124.5 -26 q-20 0 -26 2 q-40 16 -40 59 l0 10 q10 112 47 258 q-3 -3 -20 -7 l-111 -1 l-110 0 l-7 -24 q-27 -91 -63 -187 q-20 -55 -26 -62 q-13 -16 -36 -28.5 q-23 -12.5 -41 -12.5 q-16 0 -16 12 l20 55 q36 94 74 221 q7 23 7 25 q0 1 -46 1 q-36 0 -42.5 0.5 q-6.5 0.5 -10.5 5.5 q-2 4 -2 6 q0 10 14 23.5 q14 13.5 34 23.5 q19 9 49 10 l24 1 l4 16 q36 139 36 219 Z" /><glyph glyph-name="I" unicode="I" d="M330 69 q107 1 111 3 q1 1 1 2 q1 0 3 8 q5 12 15 23 q30 29 67 32 q18 0 18 -12 q0 -5 -3 -13 q-11 -34 -51.5 -63.5 q-40.5 -29.5 -91.5 -41.5 q-20 -5 -39.5 -5.5 q-19.5 -0.5 -185.5 -1.5 q-194 0 -197 1 q-7 4 -7 11 q0 11 13 24 q27 25 59 32 q19 0 56.5 1 q37.5 1 56.5 1 q24 24 43 68 q24 56 58 191 q22 89 42 149 q30 91 68 132 l3 4 l-64 0 q-13 0 -32.5 -0.5 q-19.5 -0.5 -30.5 -1 q-11 -0.5 -14 -0.5 q-60 -5 -82 -15 q-10 -4 -18 -28 q-5 -15 -16 -26 q-29 -27 -65 -31 q-19 0 -19 11 q0 7 4 16 q24 75 127 115 q59 24 153 28 q2 0 27.5 0 q25.5 0 65 0.5 q39.5 0.5 76.5 0.5 l151 0 q10 -6 10 -13 q0 -13 -23.5 -30 q-23.5 -17 -41.5 -23 q-7 -2 -70 -3 l-63 0 q-15 -19 -38 -72 q-23 -61 -52 -178 q-29 -115 -44 -155 q-30 -86 -72 -131 l-8 -9 l100 0 Z" /><glyph glyph-name="J" unicode="J" d="M583 681 q20 2 130 2 l117 0 q9 -9 9 -13 q0 -3 -2 -7 q-8 -18 -34.5 -33.5 q-26.5 -15.5 -48.5 -15.5 q-19 0 -33 -13 q-53 -48 -103 -197 q-29 -86 -61 -212 q-8 -36 -16 -60 q-20 -63 -66 -116 q-43 -52 -103 -87.5 q-60 -35.5 -119 -44.5 q-19 -3 -40 -3 q-53 0 -92.5 23 q-39.5 23 -58.5 61 q-15 36 -15 68 q0 50 24 70 q30 25 61 28 q20 2 20 -11 q0 -2 -2 -12 q-2 -8 -2 -30 q0 -60 38.5 -94 q38.5 -34 99.5 -34 q37 0 67 21 q63 42 91 130 q2 6 16 58 q41 167 83 275 q42 108 106 171 l10 9 l-68 0 q-74 -1 -97 -7 q-92 -23 -128 -112 q-5 -12 -6 -18 q-5 -19 -26 -34 q-30 -24 -59 -24 q-20 0 -15 16 q8 34 28 66 q42 71 124.5 121.5 q82.5 50.5 170.5 58.5 Z" /><glyph glyph-name="K" unicode="K" d="M267 703 q10 2 12 2 q16 0 16 -14 q0 -31 -6 -87 q-12 -103 -39 -207 q-43 -160 -91 -292 q-30 -78 -31 -80 q-8 -17 -34.5 -32 q-26.5 -15 -46.5 -15 q-7 0 -12 4.5 q-5 4.5 -3 9.5 q0 1 10 29 q51 131 94 285 q36 126 49 224 q13 81 9 88 l-20 -9 q-27 -14 -43 -15 q-18 0 -18 12 q0 18 31 38 q6 5 55 29.5 q49 24.5 56 26.5 q9 3 12 3 ZM677 586 q-11 0 -16 4.5 q-5 4.5 -4 13.5 l0 15 q0 13 -8 20.5 q-8 7.5 -20 7.5 q-6 0 -9 -1 q-44 -11 -125.5 -63.5 q-81.5 -52.5 -129.5 -100.5 q-21 -20 -27.5 -30.5 q-6.5 -10.5 -6.5 -22.5 q0 -36 23 -107 q32 -100 80 -181.5 q48 -81.5 85 -99.5 q11 -5 23 -5 q42 0 71.5 17.5 q29.5 17.5 38.5 49.5 q6 17 22 28.5 q16 11.5 35 11.5 q18 0 18 -15 q0 -8 -4 -17 q-19 -56 -82.5 -94.5 q-63.5 -38.5 -143.5 -38.5 q-13 0 -16 1 q-52 16 -99 92 q-40 57 -80 157.5 q-40 100.5 -45 157.5 q0 3 -0.5 7 q-0.5 4 -0.5 6 q0 35 32 74 q43 52 137.5 118.5 q94.5 66.5 169.5 96.5 q44 17 75 17 q29 -2 45.5 -17.5 q16.5 -15.5 16.5 -43.5 q0 -26 -15 -41 q-15 -15 -40 -17 Z" /><glyph glyph-name="L" unicode="L" d="M503 519 q0 5 2 19 q2 14 2 22 q0 70 -55 70 q-28 0 -42 -13 q-47 -42 -88 -153 q-26 -71 -55 -184 q-17 -68 -34 -110 q-22 -47 -29 -58 l-6 -9 l26 -1 q55 0 146 -24 q92 -24 139 -26 l14 0 q13 13 21 35 q8 23 35 41 q37 24 62 24 q14 0 14 -10 q0 -2 -2 -14 q-16 -48 -69 -91 q-53 -43 -113 -56 q-15 -3 -38 -3 q-30 0 -54 4 q-35 5 -124 28 q-54 15 -99 18 l-15 1 l-10 -9 q-16 -16 -41 -29 q-25 -13 -43 -13 q-15 0 -15 9 q0 14 31 45 q36 36 54.5 79.5 q18.5 43.5 39.5 124.5 q46 175 90 263 q33 65 76 110 q87 86 190 95 q2 0 8 0.5 q6 0.5 10 0.5 q61 0 81 -51 q6 -14 6 -31 l0 -12 q0 -27 -3.5 -39 q-3.5 -12 -16.5 -24 q-17 -17 -40.5 -28 q-23.5 -11 -39.5 -11 q-15 0 -15 10 Z" /><glyph glyph-name="M" unicode="M" d="M414 703 q19 4 25 1 q5 -3 7 -8.5 q2 -5.5 7 -36.5 q34 -187 86 -365 q14 -49 29 -87 q21 -57 26 -57 q2 0 41 38.5 q39 38.5 58 59.5 q123 131 363 416 q30 36 33 37 q5 4 10 4 q12 0 12 -23 q0 -18 -5 -33 q-13 -64 -20 -109 q-45 -263 -45 -396 q0 -71 6 -89 q4 -13 14 -13 q6 0 14 4 q22 16 48 16 q14 0 14 -12 q0 -13 -21 -31 q-13 -11 -35 -22 q-37 -19 -66 -25 q-5 -1 -15 -1 q-26 0 -41 15 q-13 13 -16 53 q-2 30 -2 57 q0 7 0.5 20.5 q0.5 13.5 0.5 18.5 q8 156 41 345 l2 9 l-5 -6 q-6 -6 -17 -19 q-11 -13 -20 -23 q-167 -194 -245 -277 q-33 -36 -78 -79.5 q-45 -43.5 -52 -47.5 q-4 -3 -10 -3 q-8 0 -12 3.5 q-4 3.5 -11 16.5 q-41 68 -67 145 q-16 48 -37 128 q-21 80 -34 135 l-13 56 q-36 -152 -93 -301 q-53 -139 -93 -202 q-37 -55 -70 -64 q-3 -1 -11 -1 q-26 0 -53.5 14.5 q-27.5 14.5 -33.5 29.5 q-2 8 -2 15 q0 44 30 74 q8 7 15 7 q5 0 10 -6 q19 -21 58 -27 q12 -1 20 4 q35 23 104 219 q65 177 90 355 q6 32 16 42 q18 19 43 26 Z" /><glyph glyph-name="N" unicode="N" d="M61 -50 q-32 0 -60 17 q-28 17 -28 41 q0 18 9 40.5 q9 22.5 21 34.5 q8 7 15 7 q4 0 10 -6 q21 -21 59 -27 q14 -1 21 4 q21 14 54 112 q81 231 106 454 q4 32 8 40 q8 14 28 26 q20 12 39 12 q15 0 15 -7 q3 -3 8 -24 q49 -174 118 -355 q54 -148 106 -237 l5 -9 l20 79 q31 122 68 255 q46 164 69.5 230 q23.5 66 46.5 90 q52 52 138 61 q2 0 10 0.5 q8 0.5 11 0.5 q13 0 17 -5 q4 -5 4 -19 q0 -43 -28 -73 q-9 -9 -27 -9 q-54 -3 -90 -21 q-27 -14 -31 -23 q-5 -9 -23 -64 q-40 -128 -95 -338 q-54 -209 -54 -222 q0 -1 -1 0 q0 2 -1 0 q-1 -1 -1 -3 q-7 -15 -26.5 -29 q-19.5 -14 -41.5 -14 q-10 0 -14 3 q-4 3 -16 21 q-46 74 -69 122.5 q-23 48.5 -63 156.5 q-46 120 -84 242 l-8 21 l0 -1 q-2 -3 -7 -34 q-33 -170 -91 -337 q-50 -144 -97 -189 q-25 -24 -50 -24 Z" /><glyph glyph-name="O" unicode="O" d="M599 705 q88 0 133 -61 q45 -61 45 -161 q0 -75 -24 -149 q-34 -109 -122 -199.5 q-88 -90.5 -201 -131.5 q-68 -25 -137 -25 q-57 0 -102 22 q-63 29 -98 92 q-35 63 -35 153 q0 32 1 41 q12 104 59 185 q72 127 211 211 q27 17 48 22 q4 1 10 1 q17 0 17 -11 q0 -5 -3 -11 q-9 -17 -38 -34 q-82 -48 -137 -131 q-55 -83 -67 -187 q-1 -9 -1 -41 q0 -140 86 -205 q50 -37 120 -37 q56 0 110 26 q59 29 109 91.5 q50 62.5 73 136.5 q21 68 21 136 q0 89 -36.5 143.5 q-36.5 54.5 -112.5 54.5 q-21 0 -33 -6 q-12 -6 -29 -23 q-43 -43 -74 -117 q-9 -20 -20 -31 q-31 -29 -64 -31 q-20 0 -20 10 q0 6 8 24 q31 74 82 131 q80 92 188 110 q20 2 33 2 Z" /><glyph glyph-name="P" unicode="P" d="M37 475 q-9 0 -14 4 q-5 4 -4 10 q0 1 0.5 3 q0.5 2 1.5 5 q1 3 1 5 q22 69 110 121 q88 52 195 59 q2 0 17 0 q15 0 36.5 0.5 q21.5 0.5 40.5 0.5 q19 0 40.5 -0.5 q21.5 -0.5 36.5 -0.5 q15 0 17 0 q119 -8 180 -67 q38 -41 38 -90 q0 -7 -2 -21 q-9 -67 -62 -132 q-24 -29 -49 -50 q-62 -52 -141 -83 q-79 -31 -158 -34 q-22 0 -26 6 q-2 4 -2 6 q0 10 13.5 24 q13.5 14 33.5 23 q20 9 45 10 q84 6 142.5 40 q58.5 34 86.5 93 q19 37 19 70 q0 48 -36 81 q-61 56 -198 56 l-29 0 l-2 -11 q-26 -238 -114 -485 q-41 -115 -52 -131 q-10 -16 -32.5 -29 q-22.5 -13 -43.5 -14 q-7 -1 -12.5 2 q-5.5 3 -5.5 9 q0 5 13 38 q111 275 145 546 q1 7 3 26 q2 19 3.5 33 q1.5 14 1.5 15 q-2 1 -5 0 q-64 -4 -100.5 -21.5 q-36.5 -17.5 -49.5 -59.5 q-1 -2 -3 -7 q-2 -5 -3 -7 q-11 -16 -33.5 -28.5 q-22.5 -12.5 -42.5 -14.5 Z" /><glyph glyph-name="Q" unicode="Q" d="M675 416 q0 97 -50 158.5 q-50 61.5 -141 61.5 q-92 0 -169 -77 q-69 -69 -93 -162 q-8 -29 -8 -64 q0 -79 45 -124 q38 -37 101 -37 q45 0 93 21 q23 11 37 12 q20 0 20 -13 q-1 -9 -13 -21 q-28 -30 -93 -49.5 q-65 -19.5 -117 -19.5 q-44 0 -76 16 q-97 45 -97 168 q0 117 87 229 q55 72 135 121.5 q80 49.5 161 63.5 q30 5 61 5 q67 0 120 -35 q96 -65 96 -210 q0 -32 -1 -42 q-13 -108 -76 -197.5 q-63 -89.5 -152 -149.5 q-65 -44 -133 -67 l-13 -6 q3 -3 75 -27 q96 -33 162 -33 q23 0 33.5 8.5 q10.5 8.5 17.5 30.5 q5 14 13 23 q34 34 73 34 q14 0 14 -12 q0 -5 -3 -14 q-16 -49 -70 -87.5 q-54 -38.5 -112 -48.5 q-16 -3 -39 -3 q-38 0 -81 8 q-47 10 -149 47 q-92 32 -141 38 q-34 4 -47 4 q-18 0 -18 12 q0 10 15 24 q20 20 48 29 l10 3 l37 1 q87 1 139 13 q52 11 91 31 q51 25 95 69 q44 44 72 98 q41 84 41 170 Z" /><glyph glyph-name="R" unicode="R" d="M37 475 q-9 0 -14 4 q-5 4 -4 10 q0 1 0.5 3 q0.5 2 1.5 5 q1 3 1 5 q17 55 77.5 100.5 q60.5 45.5 142.5 65.5 q50 14 132 14 l84 0 q87 0 139 -7.5 q52 -7.5 89 -32.5 q45 -28 45 -85 q0 -13 -3 -28 q-13 -72 -75 -134 q-33 -34 -76 -59 q-22 -13 -73 -36 q2 -4 5 -9 q17 -25 44 -89 q41 -97 58 -120 q24 -35 54 -35 q18 0 33.5 7.5 q15.5 7.5 23.5 15.5 q8 8 20 23 q32 40 77 44 q18 0 18 -11 q0 -13 -30 -46 q-69 -73 -162 -96 q-27 -6 -56 -6 q-11 0 -15 1 q-38 9 -69 60 q-17 29 -50 109 q-31 78 -56 105 q-17 17 -37 20 q-16 0 -16 14 q2 11 15.5 23.5 q13.5 12.5 32.5 21.5 q19 9 42 10 q4 0 13.5 0.5 q9.5 0.5 12.5 1.5 q65 8 109.5 45 q44.5 37 56.5 95 q2 8 2 27 q0 46 -34 68 q-53 35 -203 35 q-23 0 -23 -1 q-2 -14 -4 -29 q-30 -245 -126 -493 q-22 -55 -27 -66 q-8 -17 -34.5 -32 q-26.5 -15 -46.5 -15 q-7 0 -12 4.5 q-5 4.5 -3 9.5 q0 3 11 29 q120 292 146 585 l0 8 l-5 -1 q-64 -4 -100.5 -21.5 q-36.5 -17.5 -49.5 -59.5 q-1 -2 -3 -7 q-2 -5 -3 -7 q-11 -16 -33.5 -28.5 q-22.5 -12.5 -42.5 -14.5 Z" /><glyph glyph-name="S" unicode="S" d="M489 704 q63 0 108 -22.5 q45 -22.5 45 -71.5 q0 -13 -5 -35 q-5 -19 -16 -30 q-29 -29 -67 -33 q-18 0 -18 12 q0 2 2 12 q4 13 4 28 q0 24 -14 40 q-14 12 -49 21.5 q-35 9.5 -69 9.5 q-90 0 -115 -73 q-5 -17 -5 -30 q0 -42 37 -77 q27 -25 82 -51 q73 -34 108 -64 q57 -46 57 -109 q0 -13 -3 -27 q-12 -59 -62 -111 q-27 -25 -53 -42 q-107 -73 -236 -73 q-118 0 -181 82 q-21 27 -21 63 q0 61 44 105 q43 43 94 46 q22 0 22 -11 q0 -9 -5 -14 q-15 -22 -41 -33 l-5 -3 l-3 -11 q-6 -16 -6 -39 q1 -25 20 -49 q53 -66 154 -66 q129 0 168 82 q13 25 13 56 q0 18 -2 25 q-18 64 -124 116 q-72 34 -95 52 q-49 37 -59 82 q-2 6 -2 25 q0 18 2 26 q9 40 37 75 q37 46 98.5 78.5 q61.5 32.5 132.5 38.5 q4 2 28 0 Z" /><glyph glyph-name="T" unicode="T" d="M742 683 q48 34 74 34 q17 0 17 -9 q0 -14 -16 -34 q-16 -19 -45.5 -36 q-29.5 -17 -57.5 -23 q-23 -5 -126 -6 q-98 0 -98 -2 l-113 -447 q-26 -93 -63 -168 q-19 -38 -72 -56 q-11 -4 -24 -4 q-15 0 -15 11 q0 5 8 19 q36 82 56 154 q2 8 31 125 q29 117 57.5 230 q28.5 113 32.5 121 q2 2 6.5 8.5 q4.5 6.5 6.5 8.5 l-99 0 q-109 0 -122 -4 q-15 -5 -25 -25 q-10 -20 -10 -39 q0 -5 -3 -12 q-7 -13 -29.5 -28.5 q-22.5 -15.5 -42.5 -21.5 q-13 -5 -21 -5 q-15 0 -15 16 q0 36 27 74 q31 44 88 77 q57 33 112 40 q11 2 246 2 l235 0 Z" /><glyph glyph-name="U" unicode="U" d="M25 580 q-17 0 -17 12 q0 24 67 59 q58 32 118 32 q53 0 53 -52 q0 -35 -27 -105 q-15 -40 -50 -120 q-61 -138 -76 -196 q-10 -33 -10 -67 q0 -43 17.5 -69 q17.5 -26 53.5 -26 q23 0 57 22 q72 48 161.5 164 q89.5 116 152.5 241 q22 42 35 78 q29 82 33 87 q10 16 33 28.5 q23 12.5 43 14.5 q9 0 13 -3 q7 -4 1 -24 q-8 -31 -24 -70 q-51 -122 -112 -366 q-22 -83 -26 -152 q0 -15 2 -18.5 q2 -3.5 10 -7.5 l10 5 q30 14 45 14 q16 0 16 -14 q-5 -31 -98 -69 q-20 -6 -38 -6 q-22 0 -34.5 12 q-12.5 12 -12.5 34 q0 71 47 240 q0 1 -1.5 -1 q-1.5 -2 -7.5 -9 q-113 -146 -220 -215 q-69 -43 -126 -53 q-16 -2 -30 -2 q-17 0 -25 2 q-36 10 -55.5 41.5 q-19.5 31.5 -19.5 77.5 q0 33 11 75 q19 66 82 210 q46 105 61 152 q9 30 9 50 q0 16 -5.5 21.5 q-5.5 5.5 -20.5 5.5 q-22 0 -42 -13 q-29 -20 -53 -20 Z" /><glyph glyph-name="V" unicode="V" d="M25 633 q0 16 24 33 q24 17 51 17 q59 0 102 -40 q89 -83 89 -337 q0 -79 -10 -182 q-2 -9 -2.5 -15.5 q-0.5 -6.5 0.5 -6.5 q27 22 46 39 q107 95 179 184.5 q72 89.5 92 153.5 q4 11 4 23 q0 30 -22.5 51.5 q-22.5 21.5 -54.5 23.5 q-18 0 -18 24 q0 21 11 46 q11 25 26 34 q4 2 16 2 q46 -4 73 -38 q27 -34 27 -86 q0 -11 -4 -39 q-22 -131 -167 -305 q-76 -88 -176 -176 q-93 -80 -115 -90 q-6 -2 -7 -2 q-12 0 -12 25 q0 6 2 20 q9 43 16.5 130 q7.5 87 7.5 148 q0 203 -58 290 q-31 45 -72 55 q-17 5 -32 5 q-16 0 -16 13 Z" /><glyph glyph-name="W" unicode="W" d="M25 633 q0 18 24.5 34 q24.5 16 53.5 16 q97 0 140 -115 q26 -80 26 -194 q0 -100 -18 -224 l1 2 q2 1 5 5.5 q3 4.5 7.5 10 q4.5 5.5 10 13 q5.5 7.5 11.5 16.5 q109 145 198 300 q65 111 65 119 q0 3 -3 9 q-2 8 -1 13 q5 16 27.5 30.5 q22.5 14.5 42.5 14.5 q12 0 15 -6 q5 -7 27 -82 q69 -225 84 -467 l1 -18 l3 4 q30 34 85 111 q115 162 142 257 q4 13 4 29 q0 29 -15.5 47.5 q-15.5 18.5 -42.5 18.5 q-12 0 -12 25 q0 25 10.5 47.5 q10.5 22.5 25.5 31.5 q6 2 12 2 q16 0 28 -6 q52 -24 52 -108 q0 -18 -2 -34 q-25 -164 -217 -422 q-110 -147 -134 -162 q-15 -10 -21 4 q-1 5 -4 77 q-8 230 -65 445 q-18 74 -21 74 q-3 -6 -7 -12 q-154 -295 -381 -564 q-22 -27 -31 -28 q-14 0 -14 23 q0 15 6 33 q8 25 21 120 q17 121 17 215 q0 56 -6.5 103 q-6.5 47 -21.5 89 q-15 42 -44 66 q-29 24 -69 24 q-15 0 -15 13 Z" /><glyph glyph-name="X" unicode="X" d="M324 614 q-34 -39 -74 -41 q-19 0 -19 12 q0 4 1 7 q12 41 61 66 q49 25 107 25 q30 0 49 -16 q22 -17 32 -57 q7 -28 16 -154 q1 -10 2 -20.5 q1 -10.5 1 -16.5 l1 -6 q1 0 46 28 q146 93 158 120 q2 4 2 17 q0 32 -25 36 q-15 0 -15 12 q0 16 29.5 36.5 q29.5 20.5 58.5 20.5 q25 0 38.5 -16.5 q13.5 -16.5 13.5 -43.5 q0 -30 -19 -54 q-16 -22 -49 -50 q-72 -59 -209 -143 l-25 -15 l0 -5 q0 -1 8 -92 q10 -121 15 -139 q13 -56 52 -56 q5 0 13 8 q31 31 67 33 q11 0 15 -3.5 q4 -3.5 3 -12.5 q-11 -37 -44 -57 q-50 -37 -124 -37 q-21 0 -36 7 q-31 16 -41 53 q-10 37 -16 112 q-1 10 -1 16 q-1 9 -3.5 40 q-2.5 31 -4.5 51 q-2 20 -3 20 q-7 0 -133 -83 q-110 -73 -118 -94 q-2 -4 -2 -17 q0 -36 28 -36 q3 0 7 -3 q4 -3 4 -6 q3 -6 -4 -16 q-11 -17 -35 -30.5 q-24 -13.5 -47 -13.5 q-25 0 -39 16.5 q-14 16.5 -14 43.5 q0 38 41 79 q26 26 62 52 q61 47 202 133 q45 27 45 28 q-8 131 -16 186 q-10 62 -38 73 q-2 1 -7.5 2 q-5.5 1 -7.5 1 l-9 0 Z" /><glyph glyph-name="Y" unicode="Y" d="M83 586 q-18 0 -18 13 q0 11 20 31 q51 53 119 53 q84 0 134 -69 q86 -117 86 -397 q0 -13 -1 -49 q-1 -36 -1 -45 q2 0 42 45 q139 157 186 301 q11 34 11 50 q0 49 -49 66 q-16 6 -29 6 q-14 0 -14 25 q0 21 9.5 40 q9.5 19 21.5 25 q6 2 13 2 q32 0 57 -20 q44 -35 44 -105 q0 -30 -8 -62 q-28 -108 -100.5 -225.5 q-72.5 -117.5 -179.5 -225.5 q-76 -78 -148 -129.5 q-72 -51.5 -112 -57.5 q-4 -1 -12 -1 q-22 0 -40 6 q-34 12 -58.5 44.5 q-24.5 32.5 -24.5 72.5 q0 23 13.5 44.5 q13.5 21.5 25.5 21.5 q12 0 15 -22 q15 -68 88 -74 q11 -1 17 0 q43 9 124 75 q16 11 16 15 q6 38 6 138 q0 67 -4 111 q-18 235 -109 305 q-24 20 -65 25 l-10 1 l-9 -9 q-28 -25 -56 -25 Z" /><glyph glyph-name="Z" unicode="Z" d="M51 0 q-14 0 -14 10 q0 12 26 35 q165 141 304 274 l24 24 l-48 0 l-47 1 q-11 6 -11 14 q0 23 36 38 l8 4 l121 0 l32 33 q101 107 125 138 l14 16 l-25 0 q-41 1 -108 11 q-77 11 -105 11 q-37 0 -54.5 -11.5 q-17.5 -11.5 -27.5 -42.5 q-7 -21 -36 -40 q-30 -21 -57 -23 q-19 0 -19 11 q0 7 8.5 25.5 q8.5 18.5 17.5 30.5 q34 47 98 82.5 q64 35.5 126 40.5 q1 0 10.5 0.5 q9.5 0.5 16.5 0.5 q45 0 114 -11 q68 -9 89 -10 l21 -1 q44 21 58 22 q19 0 19 -9 q0 -9 -21 -34 q-91 -109 -191 -212 l-26 -28 q0 -1 14 -1 q47 -2 59 -24 q2 -6 2 -9 q0 -16 -18 -29.5 q-18 -13.5 -35 -14.5 q-10 0 -12 1 q-10 5 -10 11 q0 5 -42 8 l-17 1 l-24 -23 q-127 -122 -241 -220 l-5 -4 l35 -1 q60 0 163 -10 q84 -8 135 -11 l21 0 q33 44 43 85 q6 19 29.5 35.5 q23.5 16.5 49.5 23.5 q6 2 18 2 q14 0 14 -9 q0 -2 -2 -14 q-18 -56 -50 -96 q-63 -79 -154 -98 q-10 -2 -44 -2 q-55 0 -157 10 q-104 11 -151 11 q-30 0 -56 -10 q-21 -12 -43 -12 Z" /></font>
</defs>
</svg>
