<?xml version="1.0" standalone="no"?><!DOCTYPE svg PUBLIC "-//W3C//DTD SVG 1.1//EN" "http://www.w3.org/Graphics/SVG/1.1/DTD/svg11.dtd" ><svg xmlns="http://www.w3.org/2000/svg"><metadata></metadata><defs><font id="FontForge 2.0 : KaTeX_Caligraphic-Bold" horiz-adv-x="1378"><font-face font-family="KaTeX_Caligraphic" font-weight="700" font-stretch="normal" units-per-em="1000" panose-1="0 0 8 0 0 0 0 0 0 0" ascent="840" descent="-164" x-height="0" bbox="-27 -164 1353 840" underline-thickness="50" underline-position="-125" unicode-range="U+0020-005a" /><missing-glyph horiz-adv-x="250" d="M50 0 l0 533 l150 0 l0 -533 l-150 0 ZM100 50 l50 0 l0 433 l-50 0 l0 -433 Z" /><glyph glyph-name="A" unicode="A" d="M142 -49 q-40 0 -71.5 29.5 q-31.5 29.5 -31.5 74.5 q0 26 12.5 57.5 q12.5 31.5 29.5 48.5 q13 12 22 13 q15 0 20 -22 q4 -19 23.5 -33 q19.5 -14 43.5 -14 q5 0 7 1 q43 11 144 140 q146 185 265 397 l5 8 l29 0 l0 12 q0 10 4 19 q10 21 41 41.5 q31 20.5 60 26.5 q2 0 7.5 0.5 q5.5 0.5 8.5 0.5 q12 0 21 -9 q2 -3 2 -31 q0 -128 10.5 -288.5 q10.5 -160.5 25.5 -231.5 q17 -79 29 -102 q7 -13 16 -13 q4 0 28 12 q44 23 69 24 l11 0 q16 -8 16 -17 q0 -27 -45 -56 q-29 -19 -98 -50 q-34 -14 -67 -15 q-57 0 -71 35 q-9 16 -21 66 q-12 50 -18 86 l-145 0 l-145 1 q-9 -12 -20 -26 q-93 -120 -153 -161 q-38 -24 -64 -24 ZM448 253 q18 8 45 8 l75 0 l90 0 l0 5 q-11 93 -15 226 q0 8 -0.5 26 q-0.5 18 -1.5 23 l0 15 l-15 -26 q-82 -144 -178 -277 Z" /><glyph glyph-name="B" unicode="B" d="M316 703 q23 0 23 -18 q0 -31 -11 -102 q2 1 4 3 q2 2 5.5 5 q3.5 3 6.5 6 q107 91 232 106 q16 2 35 2 q40 -1 70 -16 q58 -30 58 -91 q0 -53 -51 -103 q-37 -37 -93 -68 l-11 -6 l9 -4 q54 -19 88 -57.5 q34 -38.5 34 -95.5 q0 -72 -50 -134 q-20 -26 -48 -48 q-105 -84 -239 -98 q-8 -1 -30 -1 q-73 0 -123 27 q-29 13 -31 20 q-1 3 -1 6 q0 15 21 36 q44 44 97 47 l11 0 q63 -36 119 -36 q130 0 130 112 q0 68 -53 103 q-53 35 -132 35 q-8 0 -29 -3 q-21 -3 -28 -3 q-22 0 -22 18 q0 15 18.5 34 q18.5 19 46.5 33 q14 7 47 18 q128 43 162 68 q13 10 13 37 q0 33 -23.5 51 q-23.5 18 -62.5 18 q-39 0 -66 -21 q-52 -37 -100.5 -126 q-48.5 -89 -76.5 -201 q-28 -108 -79 -196 q-19 -31 -42 -47 q-39 -28 -76 -30 q-28 0 -28 18 q0 8 12 28 q46 77 72 181 q40 170 63 341 l3 24 q-3 0 -25 -12 q-41 -21 -67 -21 q-23 0 -23 18 q0 28 48 58 q12 7 80.5 41 q68.5 34 77.5 37 q18 7 35 7 Z" /><glyph glyph-name="C" unicode="C" d="M553 187 q27 0 27 -19 q0 -11 -19 -34 q-41 -46 -99 -83 q-96 -61 -194 -70 q-7 -1 -25 -1 q-105 0 -164 65 q-59 65 -59 173 q0 30 3 50 q15 119 88 222 q141 191 377 212 q4 2 30 0 q30 0 45 -7 q36 -18 36 -64 q0 -19 -6 -38 q-5 -19 -23 -56 q-18 -37 -29 -51 q-18 -23 -51 -39.5 q-33 -16.5 -59 -16.5 q-22 0 -22 20 q1 7 10 24 q26 47 33 72 q2 6 2 21 q0 36 -39 36 q-99 0 -161 -71 q-72 -87 -88 -209 q-2 -20 -2 -39 q0 -107 65 -164 q47 -40 111 -40 q61 0 110 53 q49 50 103 54 Z" /><glyph glyph-name="D" unicode="D" d="M107 0 q-15 7 -15 18 q0 6 3 13 q10 21 38 40 q28 19 60 27 l4 2 l9 20 q89 225 102 445 q1 11 1 20 q-38 0 -79.5 -9.5 q-41.5 -9.5 -50.5 -18.5 q-9 -9 -15 -29 q-4 -13 -8 -19 q-15 -23 -48.5 -42.5 q-33.5 -19.5 -64.5 -19.5 q-23 0 -23 18 q0 3 2 13 q14 48 56.5 88.5 q42.5 40.5 94.5 65.5 q89 45 212 53 q1 0 35 0.5 q34 0.5 60 0.5 q25 0 60.5 -0.5 q35.5 -0.5 37.5 -0.5 q307 -18 307 -235 q0 -79 -45 -160 q-55 -94 -167 -167 q-170 -110 -387 -122 q-10 -1 -99 -1 l-80 0 ZM741 391 q0 175 -260 193 q-5 0 -13.5 0.5 q-8.5 0.5 -10.5 0.5 l-8 1 l0 -7 q-24 -233 -121 -457 q-9 -20 -9 -22 l5 0 q186 0 304 75 q76 51 101 139 q12 45 12 77 Z" /><glyph glyph-name="E" unicode="E" d="M547 187 q27 0 27 -17 q0 -16 -29 -45 q-52 -52 -124 -90.5 q-72 -38.5 -150 -49.5 q-11 -1 -45 -1 q-45 0 -74 7 q-115 31 -115 120 q0 17 4 33 q26 107 144 191 q4 3 31 21 q-3 3 -8 5 q-58 36 -58 95 q0 64 60 126 q45 47 113.5 79.5 q68.5 32.5 136.5 39.5 q6 1 14 1 q1 1 25 1 q63 0 84 -9 q41 -16 44 -57 q0 -13 -2 -21 q-9 -35 -41 -63 q-32 -28 -72 -35 q-6 -2 -17 -2 q-24 0 -24 14 q0 5 5.5 20.5 q5.5 15.5 5.5 19.5 q0 20 -16 26 q-26 7 -65 7 q-57 0 -82 -21 q-24 -24 -24 -63 q0 -28 21 -49 q19 -20 58 -31.5 q39 -11.5 81 -11.5 q22 0 22 -18 q0 -6 -4 -14 q-9 -18 -33.5 -35.5 q-24.5 -17.5 -50.5 -26.5 q-15 -5 -45 -7 q-77 -4 -121 -54 q-33 -38 -41 -83 q-1 -4 -1 -13 q0 -45 43 -69 q43 -24 100 -24 q41 0 67.5 13 q26.5 13 56.5 41 q47 47 99 50 Z" /><glyph glyph-name="F" unicode="F" d="M665 268 q-18 0 -23 16 l-185 0 l-10 -23 q-51 -111 -87 -167 q-31 -47 -84.5 -82 q-53.5 -35 -105.5 -41 q-5 -1 -21 -1 q-22 0 -36 2 q-53 11 -87 48 q-10 10 -9 19 q4 24 43.5 51 q39.5 27 74.5 29 q5 0 8 -0.5 q3 -0.5 5 -1 q2 -0.5 4.5 -2 q2.5 -1.5 3.5 -2.5 q1 -1 4.5 -4.5 q3.5 -3.5 4.5 -4.5 q27 -27 62 -32 q5 0 7 4 q29 45 70 136 q83 180 120 358 l4 16 l-152 0 q-14 -14 -38.5 -24.5 q-24.5 -10.5 -47.5 -10.5 q-10 0 -16.5 5 q-6.5 5 -6.5 13 q0 11 12 29 q17 26 56 50 q58 34 136 37 q3 1 253 1 q252 -1 271 -5 q13 -2 24 -10 q11 -8 11 -20 q0 -6 -2 -10 q-8 -22 -41 -45 q-33 -23 -64 -28 q-18 -3 -27 2 q-10 4 -10 9 q0 7 -96 7 l-43 0 l-88 0 l-1 -4 l-3 -12 q-19 -79 -57 -186 l277 0 q14 -6 15 -16 q0 -18 -9 -34 q-16 -26 -51.5 -46 q-35.5 -20 -64.5 -20 Z" /><glyph glyph-name="G" unicode="G" d="M527 562 q0 14 -8 23 q-8 9 -25 12 q-17 3 -28.5 4 q-11.5 1 -32.5 1 q-82 0 -131 -33 q-72 -48 -99 -158 q-9 -35 -9 -67 q0 -76 42.5 -126 q42.5 -50 115.5 -50 q34 0 63 17 q62 37 90 131 q11 29 47.5 52 q36.5 23 69.5 25 q27 0 27 -17 q0 -5 -14 -58 q-14 -53 -23 -81 q-32 -108 -72 -175 q-40 -67 -98 -111 q-69 -51 -146 -63 q-11 -1 -50 -1 q-71 0 -137 11 q-21 3 -28 6 q-10 6 -10 15 q0 15 18 34 q19 19 46.5 33 q27.5 14 51.5 16 q12 0 32 -4 q57 -9 119 -12 q33 0 39 5 q33 33 69 122 l5 14 q-43 -26 -97.5 -42.5 q-54.5 -16.5 -100.5 -16.5 q-93 0 -148 58.5 q-55 58.5 -55 152.5 q0 27 3 45 q15 98 75.5 180 q60.5 82 158.5 135 q102 57 216 63 l11 0 q10 1 18 1 q86 0 115 -25 q24 -20 24 -52 q0 -17 -8 -38 q-20 -44 -64 -90 q-21 -22 -50.5 -36.5 q-29.5 -14.5 -53.5 -14.5 q-23 0 -23 18 q0 14 18 33 q29 33 36 55 q1 3 1 9 Z" /><glyph glyph-name="H" unicode="H" d="M42 447 q-22 0 -22 18 q0 9 14 31 q53 79 139 130 q86 51 194 59 q2 1 25 1 q41 0 65.5 -18 q24.5 -18 26.5 -52 q0 -25 -5 -64 q-7 -72 -31 -164 l-7 -28 q0 -1 109 -1 l110 0 l3 11 q69 214 95 254 q13 21 49 41.5 q36 20.5 63 20.5 q24 0 24 -18 q0 -4 -11 -32 q-43 -104 -79.5 -221 q-36.5 -117 -51.5 -197 q-15 -83 -15 -125 q0 -40 41 -40 l10 0 q15 1 18 2 q3 1 8 8 q17 23 50.5 40 q33.5 17 59.5 17 q22 0 22 -20 q-3 -35 -61 -86 q-80 -58 -201 -62 q-33 0 -48 8 q-43 23 -43 69 q0 2 0.5 8 q0.5 6 0.5 9 q7 95 33 198 l7 25 q-2 0 -10 -3 q-14 -5 -24 -5.5 q-10 -0.5 -93 -1.5 l-96 0 l-12 -37 q-32 -94 -59 -158 q-13 -32 -18 -43 q-12 -17 -28 -29 q-46 -33 -85 -33 q-21 0 -24 16 q0 6 16 47 q33 81 60 162 q23 72 23 74 q0 1 -57 1 l-57 0 q-15 9 -15 18 q0 19 29.5 43.5 q29.5 24.5 65.5 35.5 q9 2 36 3 q26 0 26 1 q2 12 6 25 q14 65 21 141 q0 4 0.5 9.5 q0.5 5.5 0.5 7.5 q0 43 -44 43 q-54 0 -81 -14 q-27 -14 -54 -55 q-16 -27 -52.5 -48.5 q-36.5 -21.5 -66.5 -21.5 Z" /><glyph glyph-name="I" unicode="I" d="M56 499 q-24 0 -24 17 q0 4 2 12 q7 22 22 42 q37 49 109 79 q76 33 200 36 q1 0 11.5 0 q10.5 0 28.5 0.5 q18 0.5 40 0.5 q22 0 51 0 q29 0 57 0 l179 0 q14 -10 14 -18 q0 -7 -8 -20 q-13 -20 -40 -37 q-27 -17 -56 -24 l-70 -1 l-69 0 q-17 -28 -27 -56 q-21 -54 -48 -162 q-44 -177 -110 -257 l-9 -10 l103 -1 l102 0 l9 9 q44 41 95 44 q26 0 26 -18 q0 -3 -2 -11 q-13 -38 -61 -72.5 q-48 -34.5 -105 -45.5 q-22 -4 -43.5 -4.5 q-21.5 -0.5 -216.5 -1.5 q-227 0 -231 2 q-12 4 -12 16 q0 16 23 37 q27 27 63 38 q18 7 83 7 l56 0 q58 78 101 269 q38 144 83 205 l9 12 l-43 0 q-88 0 -172 -10 q-9 -21 -32 -41 q-23 -20 -53 -29 q-18 -7 -35 -7 Z" /><glyph glyph-name="J" unicode="J" d="M200 127 q0 -5 -2 -16 q-2 -11 -2 -15 q0 -50 44 -79.5 q44 -29.5 105 -29.5 q24 0 41 6 q50 15 82 80 q10 20 30 96 q20 76 21 81 q64 229 156 326 l10 10 l-51 0 q-60 0 -88.5 -3.5 q-28.5 -3.5 -61.5 -18.5 q-55 -27 -76 -90 q-6 -17 -13 -27 q-17 -23 -50 -40 q-33 -17 -59 -17 q-23 0 -23 17 q0 5 5 23 q28 80 99 136 q85 70 190 101 q48 14 103 18 q2 1 133 1 l130 0 q14 -10 14 -18 q0 -7 -8 -20 q-12 -18 -37 -34.5 q-25 -16.5 -50 -24.5 q-14 -2 -25 -3 q-22 -1 -29 -8 q-35 -31 -75 -124 q-39 -93 -81 -265 q-17 -63 -35 -94 q-62 -107 -184 -167 q-87 -42 -166 -42 q-56 0 -89 14 q-77 29 -98 86 q-7 20 -7 46 q0 27 5 41 q5 14 21 29 q47 45 98 45 q23 0 23 -20 Z" /><glyph glyph-name="K" unicode="K" d="M98 542 q-23 0 -23 18 q0 28 48 58 q9 6 76 39.5 q67 33.5 76 36.5 q19 9 40 9 q10 0 15 -3 q7 -4 8 -8 q1 -4 1 -22 q0 -98 -22 -199 q-28 -136 -95 -316 q-30 -82 -41 -102 q-11 -23 -46 -45.5 q-35 -22.5 -67 -24.5 q-27 0 -27 16 q0 8 6 22 q71 171 115 345 q27 103 32 198 l0 14 l-26 -13 q-43 -23 -70 -23 ZM807 163 q27 0 27 -21 q0 -7 -3 -16 q-19 -60 -91 -101 q-72 -41 -164 -41 q-26 0 -32 2 q-14 5 -36 20 q-31 21 -69 75 q-43 62 -80 144.5 q-37 82.5 -48 143.5 q-2 8 -2 29 q0 19 2 25 q8 26 36 59 q72 80 215 160 q88 50 148 60 q2 0 11 0.5 q9 0.5 14 0.5 q37 0 56 -13 q28 -16 28 -44 q0 -28 -28 -48.5 q-28 -20.5 -58 -23.5 l-11 0 q-18 10 -18 25 q2 10 -5.5 13 q-7.5 3 -26.5 5 l-12 -4 q-36 -12 -93.5 -47 q-57.5 -35 -99.5 -70 q-37 -31 -44 -46 l0 -10 q0 -30 18 -81 q48 -141 124 -237 q24 -29 39 -39 q17 -13 36 -13 q35 0 61 12 q14 6 21 26 q11 34 61 52 q9 3 24 3 Z" /><glyph glyph-name="L" unicode="L" d="M63 -17 q-22 0 -22 17 q0 7 4 14 q10 18 40 40 q14 11 25 31 q20 36 43 127 q14 54 29 103 q48 147 124 238 q52 63 124 103 q72 40 143 46 q4 2 25 0 q42 0 66.5 -24 q24.5 -24 24.5 -65 q0 -25 -6 -38 q-9 -25 -51.5 -52 q-42.5 -27 -79.5 -27 q-22 0 -22 16 q0 3 1.5 12.5 q1.5 9.5 1.5 13.5 q0 26 -13.5 42 q-13.5 16 -39.5 16 l-7 0 q-13 0 -25 -12 q-14 -13 -33 -40 q-65 -97 -105 -263 q-26 -100 -49 -145 l-6 -12 l30 0 q56 -1 180 -21 q79 -12 118 -13 l13 -1 q6 26 50.5 55 q44.5 29 82.5 29 q22 0 22 -16 q0 -3 -2 -11 q-16 -57 -85.5 -103 q-69.5 -46 -140.5 -58 q-9 -1 -44 -1 q-57 0 -141 13 q-120 19 -167 21 l-16 0 l-13 -8 q-44 -27 -79 -27 Z" /><glyph glyph-name="M" unicode="M" d="M38 20 q0 38 22 78.5 q22 40.5 44 40.5 q5 0 13 -7 q23 -22 59 -26 q13 -1 23 5 q27 20 87 170 q64 159 85 323 q4 26 5 30 q8 23 42.5 46 q34.5 23 68.5 23 q14 0 18.5 -4.5 q4.5 -4.5 8.5 -20.5 q62 -240 135 -406 q35 -70 37 -70 q3 0 54.5 43 q51.5 43 89.5 77 q138 127 336 320 q58 56 60 57 q3 2 11 4 q21 0 21 -36 q0 -17 -6 -36 q-15 -64 -29 -209.5 q-14 -145.5 -14 -219.5 q0 -54 7 -96 q4 -29 16 -29 q2 0 28 12 q41 22 66 23 q27 0 27 -18 q0 -13 -19 -34 q-20 -20 -76 -48 q-45 -23 -67 -29 q-22 -7 -41 -7 l-9 0 q-19 0 -25 2 q-35 14 -42 48 q-10 49 -10 108 q0 123 22 292 q1 4 1 8 q-234 -223 -304 -285 q-11 -9 -43 -35 q-32 -26 -46 -38 q-41 -32 -47.5 -36.5 q-6.5 -4.5 -15.5 -5.5 q-8 0 -13 2 q-6 3 -24 27 q-48 62 -80 135 q-47 109 -91 251 l-5 17 l-6 -22 q-36 -134 -106 -291 q-70 -160 -137 -194 q-19 -8 -38 -8 q-28 1 -54.5 15.5 q-26.5 14.5 -34.5 31.5 q-4 8 -4 22 Z" /><glyph glyph-name="N" unicode="N" d="M47 139 q34 -34 75 -34 q15 0 25 12 q17 24 50 128 q59 179 77 365 q1 24 10 37 q15 21 44.5 38.5 q29.5 17.5 60.5 17.5 q7 0 11 -1 q4 -1 7 -4 q3 -3 4 -5.5 q1 -2.5 3 -9 q2 -6.5 4 -10.5 q58 -174 149 -375 q40 -87 66 -132 q26 -46 40 -63 q1 -1 2 1 q0 1 0 2 q57 225 128 445 q39 123 72 174 q45 68 125 99 q41 16 81 16 q24 0 24 -37 q0 -35 -18 -70 q-18 -35 -36 -44 q-6 -3 -19 -3 q-69 -5 -118 -46 q-11 -11 -13 -16 q-12 -28 -46 -136 q-64 -207 -117 -416 l-12 -44 l-1 1 q0 1 -1 -1 q0 -1 -1 -3 q-7 -25 -42 -49 q-35 -24 -70 -24 q-11 0 -15 3 q-6 3 -20 22 q-54 67 -96 147 q-63 119 -148 339 l-4 10 l-3 -16 q-33 -162 -98 -333 q-59 -150 -130 -170 q-11 -3 -25 -3 q-34 0 -67 21 q-29 20 -29 49 q0 27 12 57.5 q12 30.5 30 48.5 q12 12 23 12 l6 0 Z" /><glyph glyph-name="O" unicode="O" d="M416 701 q6 2 16 2 q24 0 24 -17 q0 -6 -3 -13 q-13 -29 -71 -60 q-63 -30 -106 -89 q-59 -78 -68 -178 q0 -4 -0.5 -11 q-0.5 -7 -0.5 -11 q0 -130 92 -197 q58 -43 142 -43 q28 0 54 5 q103 20 172.5 107 q69.5 87 69.5 204 l0 5 q0 86 -41.5 142 q-41.5 56 -119.5 56 q-20 0 -33 -10 q-16 -10 -33 -33 q-25 -30 -46 -75 q-10 -19 -22 -31 q-45 -42 -96 -45 q-25 0 -25 19 q0 5 1 8 q9 30 40 74 q49 76 122.5 126.5 q73.5 50.5 150.5 63.5 q18 3 42 3 q30 0 46 -4 q75 -16 117 -77.5 q42 -61.5 42 -153.5 q0 -92 -42 -176 q-37 -75 -105 -140 q-68 -65 -155 -109 q-118 -60 -237 -60 q-30 0 -48 2 q-88 14 -148.5 69.5 q-60.5 55.5 -77.5 140.5 q-6 30 -6 62 q0 54 16 108 q27 95 103 179.5 q76 84.5 181 136.5 q33 17 53 20 Z" /><glyph glyph-name="P" unicode="P" d="M170 -67 q-23 0 -23 18 q0 5 16 44 q121 279 144 572 q2 18 1 18 q-38 0 -79 -9.5 q-41 -9.5 -50 -18.5 q-9 -9 -15 -29 q-4 -13 -8 -19 q-15 -23 -48.5 -42.5 q-33.5 -19.5 -64.5 -19.5 q-23 0 -23 18 q0 3 2 13 q14 48 56.5 88.5 q42.5 40.5 94.5 65.5 q89 45 212 53 l40 1 q40 0 70 0 q119 0 177.5 -8.5 q58.5 -8.5 111.5 -40.5 q62 -39 62 -104 q0 -24 -8 -51 q-26 -92 -125 -163.5 q-99 -71.5 -215 -97.5 q-68 -15 -120 -15 l-12 0 l-8 -25 q-17 -51 -42.5 -113.5 q-25.5 -62.5 -33.5 -74.5 q-17 -22 -51 -41 q-34 -19 -61 -19 ZM638 554 q-64 32 -177 32 l-13 0 l0 -4 q0 -1 -1 -5 q-1 -4 -1.5 -10 q-0.5 -6 -1.5 -11 q-13 -114 -55 -276 l12 6 q32 18 68 20 q128 8 182 53 q36 31 49 86 q1 6 1 23 q0 15 -2 22 q-14 42 -61 64 Z" /><glyph glyph-name="Q" unicode="Q" d="M568 222 q26 0 26 -18 q0 -16 -23 -38 q-30 -28 -70 -40 q-40 -12 -108 -19 q-48 -4 -77 -4 q-21 0 -37 2 q-70 13 -114.5 61.5 q-44.5 48.5 -44.5 123.5 q0 53 25 112 q51 123 187 210 q121 78 258 90 l2 0 q1 0 3.5 0.5 q2.5 0.5 5.5 0.5 q3 0 10.5 -0.5 q7.5 -0.5 11.5 -0.5 q40 0 64 -6 q84 -20 135.5 -84 q51.5 -64 51.5 -159 q0 -81 -37 -155 q-45 -89 -138 -166 q-91 -73 -216 -125 q3 -3 75 -24 q102 -29 168 -29 q26 0 31 8 q3 3 5 11 q8 26 44.5 50.5 q36.5 24.5 71.5 26.5 l12 0 q15 -8 15 -18 q0 -5 -1 -8 q-21 -78 -127 -133 q-48 -26 -107 -36 q-8 -1 -42 -1 q-35 0 -45 1 q-74 8 -198 47 q-89 28 -136 37 q-44 10 -85 11 q-33 0 -33 17 q0 6 4 14 q9 19 36 38.5 q27 19.5 56 27.5 q8 2 38 3 q255 11 376 130 q79 81 88 187 q1 7 1 20 q0 95 -58 155 q-58 60 -152 60 q-61 0 -115 -26 q-53 -27 -91 -79 q-38 -52 -48 -112 q-2 -16 -2 -30 q0 -68 40.5 -107.5 q40.5 -39.5 108.5 -44.5 l7 0 q53 0 148 19 Z" /><glyph glyph-name="R" unicode="R" d="M187 -17 q-28 0 -28 17 q0 6 11 31 q120 267 139 544 l0 10 l-5 0 q-1 0 -9 -0.5 q-8 -0.5 -13 -0.5 q-84 -8 -103 -27 q-9 -9 -15 -29 q-4 -13 -8 -19 q-15 -23 -48.5 -42.5 q-33.5 -19.5 -64.5 -19.5 q-23 0 -23 18 q0 3 2 13 q14 48 56.5 88.5 q42.5 40.5 94.5 65.5 q89 45 212 53 q3 0 21.5 0.5 q18.5 0.5 46 0.5 q27.5 0 52.5 0 l70 0 q78 0 125 -5 q47 -5 82 -23 q36 -18 52 -47 q8 -17 8 -46 q0 -21 -2 -32 q-13 -58 -55 -107 q-56 -67 -153 -108 l-13 -6 l7 -10 q12 -18 43 -78 q23 -46 27 -52 q40 -75 72 -86 q8 -2 16 -2 q44 0 83 31 q46 38 90 38 q24 0 24 -18 q0 -3 -2 -9 q-6 -16 -33 -39 q-58 -48 -129 -76 q-71 -28 -133 -28 q-21 0 -30 3 q-37 13 -64 50 q-21 27 -55 94 q-41 80 -58 104 q-16 22 -31 31 q-9 7 -25 9 q-21 0 -21 17 q0 7 3 13 q9 20 36 39.5 q27 19.5 56 27.5 q6 2 30 3 q125 7 156 62 q18 31 18 67 q0 47 -53 65 q-57 18 -175 18 l-22 0 l0 -4 q-1 -3 -3 -23 q-21 -192 -98 -394 q-35 -92 -52 -120 q-15 -22 -49 -41.5 q-34 -19.5 -60 -20.5 Z" /><glyph glyph-name="S" unicode="S" d="M203 290 q26 0 28 -16 q0 -14 -10 -26 q-15 -19 -41 -35 q-7 -4 -8.5 -7.5 q-1.5 -3.5 -1.5 -16.5 q0 -14 2 -20 q7 -24 44 -48 q57 -38 140 -38 q58 0 103 17 q34 11 48 41 q11 24 11 44 q0 30 -19 55 q-32 43 -139 80 q-70 23 -107 52 q-36 29 -47 68 q-2 8 -2 27 l0 9 q0 15 7 37 q14 41 52 79 q38 38 94 66 q88 45 182 45 q52 0 85 -4.5 q33 -4.5 61 -22 q28 -17.5 35 -49.5 q1 -5 1 -15 q0 -24 -7 -43 q-10 -22 -45 -45 q-35 -23 -68 -25 q-28 0 -28 17 q0 4 2 13 q2 9 2 14 q0 23 -13 36 q-5 6 -25 11 q-49 13 -95 13 q-25 0 -49.5 -6 q-24.5 -6 -30.5 -14 q-16 -16 -16 -50 q0 -26 15 -48 q15 -19 41 -35 q22 -14 69 -30 q120 -42 160 -90 q29 -38 29 -81 q0 -60 -46 -116 q-46 -56 -126 -96 q-103 -53 -233 -53 q-65 0 -98 12 q-55 16 -95 50 q-39 29 -39 80 q0 26 14 55 q37 73 121 100 q23 8 43 9 Z" /><glyph glyph-name="T" unicode="T" d="M61 462 q-23 0 -23 17 q0 6 3 15 q20 77 122 140 q59 35 126 49 l15 2 q89 1 266.5 1 q177.5 0 266.5 1 l9 6 q30 19 61 25 q6 2 16 2 q24 0 24 -18 q-2 -27 -43 -62 q-59 -49 -128 -57 q-2 0 -4 -0.5 q-2 -0.5 -3.5 -0.5 q-1.5 0 -2.5 0 l-2 -1 l-6 0 q-5 0 -14.5 -0.5 q-9.5 -0.5 -22 -0.5 q-12.5 0 -28.5 0 q-16 0 -31 0 l-99 0 l-49 -195 q-51 -203 -53 -211 q-24 -80 -59 -150 q-10 -22 -17 -30 q-18 -23 -51.5 -41.5 q-33.5 -18.5 -67.5 -21.5 q-24 0 -24 19 q2 8 11 25 q34 72 54 140 q111 438 111 439 q5 13 18 26 l-229 0 q-8 -12 -13 -28 q-1 -6 -4 -15 q-10 -19 -37.5 -39 q-27.5 -20 -57.5 -30 q-20 -6 -34 -6 Z" /><glyph glyph-name="U" unicode="U" d="M88 577 q-48 -25 -73 -25 q-25 0 -25 18 q0 28 57 62 q77 45 155 53 q2 1 20 1 q61 0 61 -55 q0 -39 -29 -110 q-9 -24 -41 -96 q-55 -126 -69 -179 q-9 -34 -9 -65 q0 -54 26 -80 q20 -18 44 -18 q16 0 54 23 q78 52 172 166.5 q94 114.5 152 226.5 q4 9 16.5 40 q12.5 31 23.5 58 l11 27 q15 23 51 42.5 q36 19.5 63 19.5 q23 0 23 -17 q0 -23 -33 -95 q-7 -15 -25 -68 q-46 -129 -83 -277 q-15 -61 -20 -124 q0 -16 7 -27 l24 12 q40 21 65 22 q27 0 27 -18 q0 -13 -19 -34 q-20 -20 -81 -50 q-66 -33 -101 -34 q-66 0 -66 56 q0 20 3 42 q5 53 31 151 q-83 -83 -89 -88 q-147 -130 -268 -151 q-15 -3 -41 -3 q-26 0 -49 12 q-63 31 -63 123 q0 46 20 107 q19 55 66 164 q41 92 56 139 q7 21 7 39 q0 20 -16 20 q-15 0 -35 -10 Z" /><glyph glyph-name="V" unicode="V" d="M50 589 q-25 0 -25 19 q0 20 30 44 q30 24 64 32 q8 2 29 2 q81 -5 132 -68 q70 -86 91 -279 q8 -62 9 -155 l1 -50 l18 14 q149 112 232 218 q41 51 55 88 q3 6 3 13 q-3 27 -29 44.5 q-26 17.5 -60 20.5 q-24 0 -24 35 q0 29 12 59 q12 30 30 48 q12 11 23 11 l8 0 q57 0 91 -40 q34 -40 34 -100 q0 -30 -9 -66 q-49 -199 -304 -413 q-103 -86 -181 -132 q-18 -11 -25 -11 q-18 0 -18 54 q4 43 4 132 q0 82 -4 126 q-20 264 -122 334 q-24 17 -65 20 Z" /><glyph glyph-name="W" unicode="W" d="M25 607 q0 24 38.5 51.5 q38.5 27.5 78.5 27.5 q49 0 90 -28 q94 -62 111 -283 q4 -54 4 -100 q0 -26 -2 -72 l0 -14 q3 3 6.5 7 q3.5 4 9.5 11 q6 7 12 14 q118 141 214 295 q42 68 42 71 q0 1 -3.5 10 q-3.5 9 -3.5 10 q0 23 37 49.5 q37 26.5 73 29.5 l12 0 q1 0 6.5 -3.5 q5.5 -3.5 6.5 -4.5 q0 -1 3.5 -8.5 q3.5 -7.5 8.5 -18.5 q5 -11 9 -21 q93 -217 126 -447 q4 -26 6 -32 l15 18 q118 135 172 238 q14 28 21 49 q3 8 3 18 q-1 24 -18.5 40 q-17.5 16 -43.5 18 q-23 0 -23 36 q0 33 17.5 69.5 q17.5 36.5 36.5 45.5 l7 3 l12 0 q47 -2 72 -39.5 q25 -37.5 25 -95.5 q0 -16 -2 -32 q-11 -77 -60 -174 q-79 -156 -247 -338 q-68 -73 -80 -80 q-13 -6 -20 -2 q-10 6 -14 49 q-14 202 -73 399 q-39 128 -45 128 q-1 0 -15 -25 q-157 -263 -370 -491 q-47 -51 -57 -58 q-7 -4 -12 -4 q-20 0 -20 37 q0 14 1 20 q17 75 17 237 q0 287 -101 354 q-27 18 -63 18 q-8 0 -14 5 q-6 5 -6 13 Z" /><glyph glyph-name="X" unicode="X" d="M265 560 q-22 0 -22 17 q0 24 32 53 q32 29 75 43 q38 13 97 13 q8 0 19 0 l12 -1 q24 -4 44 -22 q29 -26 40 -87 q1 -3 8 -69 q7 -66 7 -70 q0 -1 36.5 20 q36.5 21 81 49.5 q44.5 28.5 61.5 44.5 q6 7 6 11 q0 16 -25.5 22.5 q-25.5 6.5 -25.5 19.5 q0 6 1 9 q8 24 46.5 48.5 q38.5 24.5 75.5 24.5 q29 0 50.5 -16.5 q21.5 -16.5 21.5 -42.5 q0 -25 -21 -53 q-17 -24 -51 -52 q-68 -56 -220 -143 l-30 -17 l0 -5 q1 -2 10 -87.5 q9 -85.5 9 -86.5 q6 -42 20 -62.5 q14 -20.5 48 -20.5 q9 0 16 4 q34 22 67 22 q24 0 24 -19 q-2 -21 -26 -45 q-51 -49 -126 -60 q-11 -1 -48 -1 q-36 0 -43 2 q-39 12 -58 50 q-11 20 -15 43.5 q-4 23.5 -13 104.5 q-2 19 -4 39 q-2 20 -3 30 l-1 11 q-6 0 -84 -48 q-117 -68 -151 -98 q-6 -7 -6 -11 q0 -20 31 -24 q21 -2 21 -18 q0 -15 -20 -35 q-33 -33 -77 -44 q-7 -2 -26 -2 l-9 0 q-27 0 -45.5 17.5 q-18.5 17.5 -18.5 41.5 q0 23 21 53 q19 25 51 51 q77 64 286 181 q14 7 17 9.5 q3 2.5 2 4.5 q0 4 -7 69 q-6 73 -12 94 q-9 36 -27 53 q-11 11 -37 11 l-9 0 l-9 -6 q-38 -20 -67 -20 Z" /><glyph glyph-name="Y" unicode="Y" d="M73 555 q-24 0 -24 18 q0 16 22 39 q78 74 168 74 q24 0 44 -5 q93 -23 147 -139 q45 -93 64 -252 q9 -83 9 -117 q0 -8 1 -8 q2 0 20.5 19 q18.5 19 31.5 34 q105 110 151 227 q11 31 11 40 q0 29 -28 48 q-28 19 -62 19 q-10 0 -15.5 12 q-5.5 12 -5.5 26 q0 27 15 56 q15 29 36 39 q3 1 13 1 q51 0 83 -31 q32 -31 41 -78 q2 -9 2 -32 q0 -38 -14 -85 q-45 -155 -181 -314 q-112 -130 -250 -227 q-94 -66 -149 -80 q-12 -3 -27 -3 q-53 0 -89 31 q-36 31 -47 77 q-4 20 -4 27 q0 34 19.5 65 q19.5 31 39.5 31 q14 0 19 -23 q11 -39 40 -56 q29 -18 62 -18 q8 0 11 1 q26 6 78 36 q5 4 19 13 q14 9 25.5 16.5 q11.5 7.5 17.5 12.5 l0 5 q0 19 -1 35 q-9 256 -74 386 q-51 101 -136 113 l-10 -7 q-38 -26 -73 -26 Z" /><glyph glyph-name="Z" unicode="Z" d="M622 574 q-128 5 -202 5 l-23 0 q-25 0 -33.5 -4.5 q-8.5 -4.5 -12.5 -24.5 q-10 -27 -37.5 -48 q-27.5 -21 -60.5 -32 q-17 -7 -35 -8 q-24 0 -24 16 q0 6 3 14 q17 55 78 105 q96 77 209 88 l25 0 q29 0 125 -2.5 q96 -2.5 121 -2.5 q36 0 57 4 q16 2 19 2 q22 0 22 -17 q0 -12 -27 -43 q-84 -94 -185 -189 l-22 -22 l3 -1 q4 0 9.5 0 q5.5 0 10.5 0 q33 -1 42 -7 q13 -7 13 -19 q0 -2 -2 -10 q-7 -20 -32.5 -37.5 q-25.5 -17.5 -55.5 -17.5 q-7 0 -9 1 q-7 4 -52 5 l-24 0 l-5 -4 q-85 -77 -228 -189 l-29 -23 l58 -1 q23 -1 128.5 -2.5 q105.5 -1.5 140.5 -3.5 l40 0 q22 35 29 64 q10 28 55.5 55.5 q45.5 27.5 76.5 27.5 q23 0 23 -16 q0 -5 -3 -16 q-22 -78 -94 -140.5 q-72 -62.5 -154 -77.5 q-13 -2 -76 -2 q-41 0 -159.5 2.5 q-118.5 2.5 -147.5 2.5 q-54 0 -82 -4 q-12 0 -24 -2 q-25 0 -25 17 q0 11 12 27 q13 14 48 40 q146 112 277 223 l25 22 l-47 0 l-47 1 q-17 7 -17 20 q0 6 5 16 q8 16 27 29.5 q19 13.5 39 17.5 q7 2 73 2 l65 0 l25 24 q62 60 116 116 l17 19 l-42 0 Z" /></font>
</defs>
</svg>
