<?xml version="1.0" standalone="no"?><!DOCTYPE svg PUBLIC "-//W3C//DTD SVG 1.1//EN" "http://www.w3.org/Graphics/SVG/1.1/DTD/svg11.dtd" ><svg xmlns="http://www.w3.org/2000/svg"><metadata></metadata><defs><font id="FontForge 2.0 : KaTeX_AMS-Regular" horiz-adv-x="1000"><font-face font-family="KaTeX_AMS" font-weight="400" font-stretch="normal" units-per-em="1000" panose-1="0 0 0 0 0 0 0 0 0 0" ascent="1003" descent="-463" x-height="0" bbox="0 -179 996 753" underline-thickness="50" underline-position="-125" unicode-range="U+0020-2605" /><missing-glyph horiz-adv-x="250" d="M50 0 l0 533 l150 0 l0 -533 l-150 0 ZM100 50 l50 0 l0 433 l-50 0 l0 -433 Z" /><glyph glyph-name="A" unicode="A" d="M703 17 q0 -10 -14 -17 l-150 0 q-151 0 -153 1 q-15 5 -10 24 q7 9 12 9 q1 0 3 0.5 q2 0.5 4.5 1 q2.5 0.5 4.5 0.5 q27 1 55 26 l0 5 q0 25 -31 113 l-6 17 l-220 0 l0 -3 q-1 -1 -5 -22 q-8 -40 -8 -71 q0 -33 7.5 -48 q7.5 -15 31.5 -18 q13 -1 17 -7 q5 -7 3 -15 q-2 -8 -9 -11 q-4 -2 -104 -2 q-100 0 -104 2 q-7 3 -9 10.5 q-2 7.5 2 14.5 q5 7 18 8 q23 3 41 19 q13 15 26 50 q225 590 228 593 q14 14 26 1 q2 -1 64.5 -143 q62.5 -142 129.5 -296 q67 -154 77 -174 q16 -31 33 -43 q9 -7 21 -7 q9 0 14 -5.5 q5 -5.5 5 -12.5 ZM490 67 q0 -19 -13 -32 l71 0 q70 0 70 1 q0 2 -7 11 q-7 11 -15.5 29 q-8.5 18 -22 47.5 q-13.5 29.5 -26 58.5 q-12.5 29 -35 81 q-22.5 52 -42.5 98 l-122 278 q-37 -93 -37 -95 q0 -1 16 -38 q107 -244 142 -348 q21 -69 21 -91 ZM404 232 q-75 257 -107 257 q-4 0 -61 -164 q-28 -86 -28 -92 q0 -1 98 -1 l98 0 ZM163 35 q-13 26 -13 66 q0 21 -1 21 q-3 -6 -8.5 -22 q-5.5 -16 -9 -26 q-3.5 -10 -10 -21.5 q-6.5 -11.5 -12.5 -17.5 l54 0 Z" /><glyph glyph-name="B" unicode="B" d="M20 683 q3 2 183 2 q191 -1 213 -5 q3 0 13 -2 q102 -16 136 -83 q18 -35 18 -82 q0 -43 -29.5 -80.5 q-29.5 -37.5 -70.5 -58.5 l-11 -7 l13 -4 q52 -17 87.5 -54.5 q35.5 -37.5 45.5 -88.5 q2 -9 2 -35 q0 -21 -1 -27 q-11 -60 -66 -99.5 q-55 -39.5 -144 -53.5 q-30 -4 -209 -5 q-176 0 -178 1 q-13 3 -13 15 q0 11 12 18 q1 0 4.5 0 q3.5 0 9 0.5 q5.5 0.5 10.5 0.5 q40 2 48 9 q9 7 11 24 q0 1 0 17 q0 16 0 43 q0 27 0.5 60 q0.5 33 0.5 74.5 q0 41.5 0 79.5 q0 38 0 79.5 q0 41.5 -0.5 74.5 q-0.5 33 -0.5 60.5 q0 27.5 0 43.5 q0 16 0 17 q-3 21 -13.5 26.5 q-10.5 5.5 -36.5 6.5 q-6 0 -9 0 q-5 0 -10.5 0 q-5.5 0 -9 0.5 q-3.5 0.5 -4.5 0.5 q-12 3 -12 16 q0 11 11 16 ZM140 343 l0 -213 q0 -22 0 -35 q0 -13 0 -21.5 q0 -8.5 -1.5 -14.5 q-1.5 -6 -1.5 -8 q0 -2 -2.5 -7.5 q-2.5 -5.5 -3.5 -8.5 l109 0 q-7 10 -12 26 q-2 10 -2 281 q0 272 2 282 q5 16 12 26 l-109 0 q1 -3 3.5 -8.5 q2.5 -5.5 2.5 -7.5 q0 -2 1.5 -8 q1.5 -6 1.5 -14.5 q0 -8.5 0 -21.5 q0 -13 0 -35 l0 -212 ZM418 509 q0 55 -20 91.5 q-20 36.5 -57 46.5 q-12 2 -27 2 q-39 0 -51 -30 l-1 -124 l0 -123 l7 0 q79 0 114 32 q35 32 35 105 ZM547 516 q0 107 -121 127 q-12 3 -17 3 q-2 0 3 -5 q40 -43 40 -130 q0 -81 -35 -122 l-1 -1 q-3 -3 -2.5 -3.5 q0.5 -0.5 9.5 2.5 q2 1 3 1 q69 19 105 72 q16 24 16 56 ZM586 187 q0 60 -38 98 q-38 38 -99 52 q-11 3 -16 3 l-4 1 l8 -8 q47 -45 47 -144 q0 -89 -45 -143 l3 1 q61 14 102.5 50 q41.5 36 41.5 90 ZM322 36 q127 0 127 152 q0 119 -71 140 q-25 9 -92 9 l-24 0 l0 -135 l1 -135 q10 -31 59 -31 Z" /><glyph glyph-name="C" unicode="C" d="M214 341 q0 -311 193 -311 q25 0 33 1 q61 8 117 37 q56 29 89 70 q11 11 19 11 q9 0 15.5 -8.5 q6.5 -8.5 3.5 -17.5 q-7 -16 -53 -55 q-105 -87 -241 -87 q-78 0 -143 27 q-82 32 -135 98.5 q-53 66.5 -68 156.5 q-6 35 -6 80 q0 154 87 252 q84 92 221 106 q14 2 19 2 q1 0 9 0.5 q8 0.5 14 0.5 q56 0 119 -25 q47 -21 84 -21 q13 0 22 8 q9 8 9 20 q0 8 5.5 13 q5.5 5 12.5 5 q7 0 11 -4 q5 -5 5.5 -17.5 q0.5 -12.5 0.5 -94.5 q0 -83 -0.5 -95.5 q-0.5 -12.5 -5.5 -17.5 q-4 -4 -11 -4 q-7 0 -11.5 4.5 q-4.5 4.5 -5.5 7.5 q-1 3 -5 14 q-13 43 -57 87.5 q-44 44.5 -96 67.5 q-40 17 -73 17 q-24 0 -46 -9 q-46 -18 -78.5 -71.5 q-32.5 -53.5 -45.5 -133.5 q-8 -45 -8 -114 ZM264 643 q5 5 4 5 q-7 0 -38 -17 q-158 -80 -158 -289 q0 -232 198 -306 q3 -1 6 -2 q3 -1 5 -2 l2 0 q-4 4 -9 8 q-96 85 -96 302 q0 134 39 223 q21 51 47 78 ZM622 630 q-14 -7 -37 -7 l-13 1 l15 -16 q7 -7 35 -40 l0 62 Z" /><glyph glyph-name="D" unicode="D" d="M27 683 q3 2 174 2 l1 0 l1 0 l1 0 l2 0 l1 0 l1 0 l1 0 l1 0 l1 0 l1 0 l1 0 l1 0 l2 0 l1 0 l1 0 l1 0 l1 0 l1 0 l1 0 l1 0 l1 0 l1 0 l2 0 l1 0 l1 0 l1 0 l1 0 l1 0 l1 0 l1 0 l1 0 l1 0 l1 0 l1 0 l1 0 l1 0 l2 0 l1 0 l1 0 l1 0 l1 0 l1 0 l1 0 l1 0 l1 0 l1 0 l1 0 l1 0 l1 0 l1 0 l1 0 l1 0 l1 0 l1 0 l1 0 l1 0 q121 -1 145 -6 q2 0 5 -1 l1 0 l1 0 q118 -18 190 -93 q87 -87 87 -231 q0 -157 -95 -255 q-71 -68 -177 -91 q-30 -6 -59 -7 q-29 -1 -167 -1 q-128 0 -147 0.5 q-19 0.5 -23 4.5 q-6 4 -6 12 q0 14 12 17 l8 0 q7 1 13 1 q30 2 38.5 7 q8.5 5 10.5 25 q0 1 0 17.5 q0 16.5 0 43.5 q0 27 0.5 60 q0.5 33 0.5 74.5 q0 41.5 0 79.5 q0 38 0 79.5 q0 41.5 -0.5 74.5 q-0.5 33 -0.5 60.5 q0 27.5 0 44 q0 16.5 0 17.5 q-2 20 -10.5 25 q-8.5 5 -38.5 7 q-6 0 -13 0 l-8 1 q-12 3 -12 16 q0 11 11 16 ZM228 624 q3 13 12 26 l-57 0 q-57 0 -57 -2 q4 -9 6 -20 q2 -12 2 -286 q0 -273 -2 -285 q-2 -11 -6 -20 q0 -2 57 -2 l57 0 q-7 10 -12 26 q-2 10 -2 281 q0 272 2 282 ZM515 350 q0 121 -39 200.5 q-39 79.5 -120 96.5 q-10 2 -24 2 l-6 0 q-39 0 -57 -19 q-1 -1 -2 -2 q-2 -1 -2.5 -3.5 q-0.5 -2.5 -1.5 -17 q-1 -14.5 -1 -41 q0 -26.5 0 -79.5 l0 -147 l1 -273 q11 -32 58 -32 q64 0 110 39 q41 36 62.5 111 q21.5 75 21.5 165 ZM464 57 q192 77 192 300 q0 100 -46 167 q-46 67 -126 99 q-8 2 -26 9 l9 -10 q83 -90 83 -268 q0 -211 -86 -297 Z" /><glyph glyph-name="E" unicode="E" d="M639 192 q0 -10 -14.5 -94 q-14.5 -84 -14.5 -87 q-2 -6 -10 -10 q-2 -1 -287 -1 q-289 0 -292 4 q-1 0 -1 0 l0 1 q-6 4 -6 12 q0 14 12 17 q1 0 4.5 0 q3.5 0 8.5 0.5 q5 0.5 10 0.5 q32 2 41 7.5 q9 5.5 11 24.5 q0 1 0 17 q0 16 0.5 43.5 q0.5 27.5 0.5 60.5 q0 33 0 74.5 q0 41.5 0 79.5 q0 38 0 79.5 q0 41.5 0 75 q0 33.5 -0.5 60.5 q-0.5 27 -0.5 43.5 q0 16.5 0 17.5 q-2 19 -11 24.5 q-9 5.5 -41 7.5 q-5 0 -10 0 q-5 0 -8.5 0.5 q-3.5 0.5 -4.5 0.5 q-12 3 -12 16 q0 11 11 16 q3 2 279 2 q276 0 278 -1 q7 -3 10 -10 q1 -2 1 -87 q0 -69 -0.5 -79 q-0.5 -10 -5.5 -15 q-4 -4 -11 -4 q-7 0 -12.5 5.5 q-5.5 5.5 -5.5 14.5 q0 5 -2 15 q-8 46 -49.5 79.5 q-41.5 33.5 -102.5 42.5 q-28 4 -80 4 q-41 0 -45 -2 q-12 -7 -19 -37 l-1 -120 l0 -119 l13 0 q104 6 135 77 q12 29 12 61 q0 22 18 22 q11 0 15 -9 q2 -4 2 -159 q0 -154 -2 -158 q-4 -9 -15 -9 q-18 0 -18 22 q0 22 -11 46.5 q-11 24.5 -27 38.5 q-38 32 -111 32 l-11 0 l0 -131 l1 -130 l2 -10 q5 -21 17 -28 q4 -2 49 -2 q52 0 80 4 q43 7 86 29 q43 22 71 50 q30 33 39 69 q2 18 19 18 q5 0 10 -4 q5 -4 6 -9 ZM235 648 q0 2 -53 2 l-53 0 q0 -3 3 -10 q3 -7 3 -10 q2 -16 2 -287 q0 -272 -2 -288 q0 -3 -3 -10 q-3 -7 -3 -10 l53 0 q53 0 53 2 q-6 6 -9 28 q-1 9 -1 278 q0 268 1 277 q3 22 9 28 ZM558 602 l0 48 l-57 0 l10 -7 q19 -11 36 -30 l11 -11 ZM419 316 l0 84 l-12 -12 q-17 -17 -44 -32 q3 -2 8 -4 q20 -9 38 -27 l10 -9 ZM583 63 l5 28 q-47 -38 -71 -51 l-10 -5 l72 0 l4 28 Z" /><glyph glyph-name="F" unicode="F" d="M426 197 q-18 0 -18 20 q0 59 -38.5 89 q-38.5 30 -102.5 30 l-8 0 l0 -129 q0 -132 1 -137 q2 -17 8 -23 q9 -11 62 -12 q25 0 27 -1 q13 0 13 -16 q0 -14 -11 -17 q-2 -1 -167 -1 q-129 0 -148.5 0.5 q-19.5 0.5 -23.5 4.5 q-6 4 -6 12 q0 14 12 17 q1 0 4.5 0 q3.5 0 8.5 0.5 q5 0.5 10 0.5 q32 2 41 7.5 q9 5.5 11 24.5 q0 1 0 17 q0 16 0.5 43.5 q0.5 27.5 0.5 60.5 q0 33 0 74.5 q0 41.5 0 79.5 q0 38 0 79.5 q0 41.5 0 75 q0 33.5 -0.5 60.5 q-0.5 27 -0.5 43.5 q0 16.5 0 17.5 q-2 19 -11 24.5 q-9 5.5 -41 7.5 q-5 0 -10 0 q-5 0 -8.5 0.5 q-3.5 0.5 -4.5 0.5 q-12 3 -12 16 q0 11 11 16 q3 2 274 2 q271 0 273 -1 q7 -3 10 -10 q1 -2 1 -87 q0 -69 -0.5 -79 q-0.5 -10 -5.5 -15 q-4 -4 -11 -4 q-7 0 -12.5 5.5 q-5.5 5.5 -5.5 14.5 q0 16 -6 31 q-12 40 -50.5 69 q-38.5 29 -90.5 37 q-28 4 -77 4 q-41 0 -45 -2 q-12 -7 -19 -37 l-1 -120 l0 -119 l11 0 q66 5 100 37 q34 32 38 96 q0 17 6 22 q7 5 12 5 q10 0 15 -9 q2 -4 2 -158 q0 -155 -2 -159 q-5 -9 -15 -9 ZM235 648 q0 2 -53 2 l-53 0 q0 -3 3 -10 q3 -7 3 -10 q2 -16 2 -287 q0 -272 -2 -288 q0 -3 -3 -10 q-3 -7 -3 -10 l105 0 q-6 10 -9 30 q-1 10 -1 280 q1 229 1.5 253.5 q0.5 24.5 5.5 39.5 q1 2 2 5 q1 2 1 3 l1 2 ZM548 603 l0 47 l-54 0 q0 -1 5 -3 q19 -13 36 -31 l13 -13 ZM408 317 l0 81 q-6 -5 -12 -12 q-19 -21 -41 -30 q5 -3 11 -6 q17 -8 34 -25 l8 -8 Z" /><glyph glyph-name="G" unicode="G" d="M585 658 q36 0 36 28 q0 8 5.5 13 q5.5 5 12.5 5 q7 0 11 -4 q5 -5 5.5 -17.5 q0.5 -12.5 0.5 -94.5 q0 -83 -0.5 -95.5 q-0.5 -12.5 -5.5 -17.5 q-5 -4 -11 -4 q-13 0 -18 16 q-21 80 -112 141 q-61 40 -117 40 q-26 0 -46 -8 q-84 -33 -116 -169 q-17 -64 -17 -148 q0 -297 151 -325 q8 -1 35 -1 q95 0 109 29 q4 7 4 82 q-1 62 -3 69 q-16 52 -75 57 q-13 1 -18.5 4.5 q-5.5 3.5 -5.5 13.5 q0 14 14 17 l10 0 q9 0 24.5 0.5 q15.5 0.5 34 0.5 q18.5 0 42.5 0 q24 0 45 0 q21 0 44.5 0 q23.5 0 42.5 0 q19 0 34.5 -0.5 q15.5 -0.5 24.5 -0.5 l9 0 q13 -3 13 -17 q0 -18 -22 -18 q-46 0 -60 -63 l0 -65 q0 -66 -1 -68 q-2 -9 -25 -20 q-115 -56 -249 -56 q-78 0 -144 26 q-82 32 -135 98.5 q-53 66.5 -68 156.5 q-6 35 -6 80 q0 154 87 252 q90 97 240 108 l17 0 q48 0 67 -4.5 q19 -4.5 65 -22.5 q34 -15 71 -18 ZM178 340 q0 202 86 303 q5 5 4 5 q-7 0 -38 -17 q-158 -81 -158 -287 q0 -109 46 -185 q46 -76 127 -113 l10 -4 q0 2 -5 7 q-72 88 -72 291 ZM621 630 q-14 -7 -37 -7 l-13 1 q19 -16 43 -46 l7 -10 l0 62 ZM547 112 q-1 -56 -4 -74 q2 0 15 5 q22 6 62 24 l11 5 l0 64 l1 64 l2 10 q6 21 19 39 q4 6 4 6 l-143 0 q20 -20 28 -47 q5 -15 5 -96 Z" /><glyph glyph-name="H" unicode="H" d="M28 683 q3 2 159 2 q124 0 142 -0.5 q18 -0.5 22 -5.5 q13 -13 -1 -25 q-5 -4 -29 -4 q-32 -2 -41 -7.5 q-9 -5.5 -11 -24.5 q-1 -4 -1 -128 l0 -120 l242 0 l0 120 q0 130 -4 141 q-3 10 -12.5 13.5 q-9.5 3.5 -36.5 5.5 q-5 0 -10 0 q-5 0 -8.5 0.5 q-3.5 0.5 -4.5 0.5 q-11 3 -11 15 q0 12 10 17 q4 2 159 2 q124 0 142 -0.5 q18 -0.5 22 -5.5 q13 -13 -1 -25 q-5 -4 -29 -4 q-32 -2 -41 -7.5 q-9 -5.5 -11 -24.5 q0 -1 0 -17.5 q0 -16.5 0 -43.5 q0 -27 -0.5 -60.5 q-0.5 -33.5 -0.5 -75 q0 -41.5 0 -79.5 l0 -161 q0 -116 4 -127 q3 -10 12.5 -13.5 q9.5 -3.5 36.5 -5.5 q24 0 29 -4 q14 -12 1 -25 q-4 -5 -22 -5.5 q-18 -0.5 -142 -0.5 q-123 0 -141.5 0.5 q-18.5 0.5 -22.5 4.5 q-6 4 -6 13 q0 13 12 16 q1 0 4.5 0 q3.5 0 8.5 0.5 q5 0.5 10 0.5 q32 2 41 7.5 q9 5.5 11 24.5 q1 4 1 132 l0 125 l-242 0 l0 -125 q0 -23 -0.5 -54 q-0.5 -31 -0.5 -40 q0 -37 5 -51 q3 -10 12.5 -13.5 q9.5 -3.5 36.5 -5.5 q20 0 22 -1 q13 0 13 -16 q0 -14 -11 -17 q-2 -1 -158 -1 q-123 0 -141.5 0.5 q-18.5 0.5 -22.5 4.5 q-6 4 -6 12 q0 14 12 17 q1 0 4.5 0 q3.5 0 8.5 0.5 q5 0.5 10 0.5 q32 2 41 7.5 q9 5.5 11 24.5 q0 1 0 17 q0 16 0 43.5 q0 27.5 0.5 60.5 q0.5 33 0.5 74.5 q0 41.5 0 79.5 q0 38 0 79.5 q0 41.5 -0.5 75 q-0.5 33.5 -0.5 60.5 q0 27 0 43.5 q0 16.5 0 17.5 q-2 19 -11 24.5 q-9 5.5 -41 7.5 q-5 0 -10 0 q-5 0 -8.5 0.5 q-3.5 0.5 -4.5 0.5 q-12 3 -12 16 q0 11 11 16 ZM241 650 l-109 0 q0 -3 3 -10 q3 -7 3 -10 q2 -16 2 -287 q0 -272 -2 -288 q0 -3 -3 -10 q-3 -7 -3 -10 l109 0 q0 3 -3 10 q-3 7 -3 10 q-1 8 -1 288 q0 279 1 287 q0 3 3 10 q3 7 3 10 ZM646 650 l-109 0 q0 -3 3 -10 q3 -7 3 -10 q2 -16 2 -287 q0 -272 -2 -288 q0 -3 -3 -10 q-3 -7 -3 -10 l109 0 q0 3 -3 10 q-3 7 -3 10 q-1 8 -1 288 q0 279 1 287 q0 3 3 10 q3 7 3 10 Z" /><glyph glyph-name="I" unicode="I" d="M31 683 q3 2 164 2 q128 0 146.5 -0.5 q18.5 -0.5 22.5 -5.5 q13 -13 -1 -25 q-5 -4 -30 -4 q-3 0 -10.5 -0.5 q-7.5 -0.5 -10 -0.5 q-2.5 0 -7.5 -0.5 q-5 -0.5 -7 -1.5 q-2 -1 -5.5 -2 q-3.5 -1 -5 -2.5 q-1.5 -1.5 -3.5 -4 q-2 -2.5 -3.5 -5.5 q-1.5 -3 -2.5 -7 q-1 -6 -1 -283 q0 -278 1 -284 q1 -4 2.5 -7 q1.5 -3 3.5 -5.5 q2 -2.5 3.5 -4 q1.5 -1.5 5 -2.5 q3.5 -1 5.5 -2 q2 -1 7 -1.5 q5 -0.5 7.5 -0.5 q2.5 0 10 -0.5 q7.5 -0.5 10.5 -0.5 q21 0 23 -1 q13 0 13 -16 q0 -14 -11 -17 q-2 -1 -163 -1 q-127 0 -146 0.5 q-19 0.5 -23 4.5 q-6 4 -6 12 q0 14 12 17 q1 0 4.5 0 q3.5 0 9 0.5 q5.5 0.5 10.5 0.5 q3 0 10.5 0.5 q7.5 0.5 10 0.5 q2.5 0 7.5 0.5 q5 0.5 7 1.5 q2 1 5.5 2 q3.5 1 5 2.5 q1.5 1.5 3.5 4 q2 2.5 3.5 5.5 q1.5 3 2.5 7 q2 12 2 284 q0 271 -2 283 q-1 4 -2.5 7 q-1.5 3 -3.5 5.5 q-2 2.5 -3.5 4 q-1.5 1.5 -5 2.5 q-3.5 1 -5.5 2 q-2 1 -7 1.5 q-5 0.5 -7.5 0.5 q-2.5 0 -10 0.5 q-7.5 0.5 -10.5 0.5 q-5 0 -10.5 0 q-5.5 0 -9 0.5 q-3.5 0.5 -4.5 0.5 q-12 3 -12 16 q0 11 11 16 ZM242 621 q1 13 8 29 l-111 0 q7 -16 8 -29 q0 -1 0 -17.5 q0 -16.5 0.5 -44 q0.5 -27.5 0.5 -61 q0 -33.5 0 -75.5 q0 -42 0 -80 q0 -38 0 -80 q0 -42 0 -75.5 q0 -33.5 -0.5 -61 q-0.5 -27.5 -0.5 -44 q0 -16.5 0 -17.5 q-1 -14 -8 -30 l111 0 q-7 16 -8 30 q0 1 0 17.5 q0 16.5 0 44 q0 27.5 -0.5 61 q-0.5 33.5 -0.5 75.5 q0 42 0 80 q0 38 0 80 q0 42 0.5 75.5 q0.5 33.5 0.5 61 q0 27.5 0 44 q0 16.5 0 17.5 Z" /><glyph glyph-name="J" unicode="J" d="M134 683 q3 2 166 2 q130 0 148.5 -0.5 q18.5 -0.5 22.5 -5.5 q13 -13 -1 -25 q-5 -4 -29 -4 q-32 -2 -41 -7.5 q-9 -5.5 -11 -24.5 q-1 -5 -1 -263 q0 -260 -1 -266 q-5 -45 -32 -90 q-54 -73 -186 -73 q-122 0 -154 72 q-8 17 -8 37 q0 14 2 22 q7 22 26.5 35.5 q19.5 13.5 42.5 13.5 q31 0 51 -19 q20 -19 20 -50 q0 -31 -18 -49 q-9 -10 -9 -17 q0 -11 39 -11 q42 0 59 35 q4 10 4.5 44.5 q0.5 34.5 0.5 276.5 l-1 304 q-3 10 -5 14 q-2 4 -6.5 7.5 q-4.5 3.5 -13.5 5.5 q-27 3 -47 3 q-22 0 -27 10 q-9 15 9 23 ZM361 649 q0 1 -55 1 q-54 0 -54 -2 q0 -4 3 -8 q4 -12 4.5 -50 q0.5 -38 0.5 -278 q0 -303 -1 -307 q-1 -15 -14 -36 q1 0 13.5 4.5 q12.5 4.5 19.5 7.5 q58 28 73 98 q1 8 2 277 l1 268 q0 2 2.5 10 q2.5 8 2.5 11 l2 4 ZM114 36 q0 30 -34 35 q-17 0 -28 -10 q-11 -10 -11 -25 q0 -26 24 -47 q17 -13 22 -13 l1 2 q0 2 0 4 q1 9 13.5 25.5 q12.5 16.5 12.5 28.5 Z" /><glyph glyph-name="K" unicode="K" d="M480 18 q0 17 25 17 q17 3 17 9 q0 4 -12 19 q-5 7 -103.5 125 q-98.5 118 -103.5 123 q-4 -5 -13.5 -13.5 q-9.5 -8.5 -14.5 -12.5 l0 -105 q0 -115 4 -126 q3 -10 12.5 -13.5 q9.5 -3.5 36.5 -5.5 q20 0 22 -1 q13 0 13 -16 q0 -14 -11 -17 q-2 -1 -158 -1 q-123 0 -141.5 0.5 q-18.5 0.5 -22.5 4.5 q-6 4 -6 12 q0 14 12 17 q1 0 4.5 0 q3.5 0 8.5 0.5 q5 0.5 10 0.5 q32 2 41 7.5 q9 5.5 11 24.5 q0 1 0 17 q0 16 0.5 43.5 q0.5 27.5 0.5 60.5 q0 33 0 74.5 q0 41.5 0 79.5 q0 38 0 79.5 q0 41.5 0 75 q0 33.5 -0.5 60.5 q-0.5 27 -0.5 43.5 q0 16.5 0 17.5 q-2 19 -11 24.5 q-9 5.5 -41 7.5 q-5 0 -10 0 q-5 0 -8.5 0.5 q-3.5 0.5 -4.5 0.5 q-12 3 -12 16 q0 11 11 16 q3 2 159 2 q124 0 142 -0.5 q18 -0.5 22 -5.5 q13 -13 -1 -25 q-5 -4 -29 -4 q-27 -2 -36.5 -5.5 q-9.5 -3.5 -12.5 -13.5 q-4 -12 -4 -156 l1 -132 l107 103 q25 24 53.5 51.5 q28.5 27.5 43.5 42 q15 14.5 16 15.5 q17 20 17 46 q0 44 -40 49 q-19 2 -19 18 q0 13 11 16 q2 1 128 1 q99 0 114 -0.5 q15 -0.5 19 -5.5 q5 -5 5 -12 q0 -17 -19 -17 q-36 0 -92 -42 q-40 -30 -144 -131 l-63 -60 l71 -85 q72 -86 148.5 -177 q76.5 -91 87.5 -104 q14 -14 28 -16 q11 -1 15 -4 q14 -12 1 -25 q-4 -5 -19 -5.5 q-15 -0.5 -120 -0.5 q-132 0 -134 1 q-11 6 -11 17 ZM248 650 l-109 0 q0 -3 3 -10 q3 -7 3 -10 q2 -16 2 -287 q0 -272 -2 -288 q0 -3 -3 -10 q-3 -7 -3 -10 l109 0 q0 3 -3 10 q-3 7 -3 10 q-1 8 -1 288 q0 279 1 287 q0 3 3 10 q3 7 3 10 ZM616 649 l-2 1 q-3 0 -9.5 0 q-6.5 0 -12 0 q-5.5 0 -16.5 0 q-41 0 -41 -1 q6 -12 10 -22 q5 -21 3 -30 l0 -2 q2 0 13 11 q23 20 44 34 l11 9 ZM687 35 q-21 21 -299 357 q-1 0 -30 -28 q-29 -28 -28 -29 q2 -2 103.5 -124.5 q101.5 -122.5 104.5 -127.5 q19 -25 19 -43 l0 -5 l130 0 Z" /><glyph glyph-name="L" unicode="L" d="M622 224 q6 0 11 -4 q5 -4 6 -9 q0 -3 -14 -100 q-14 -97 -15 -98 q0 -7 -10 -12 q-2 -1 -287 -1 q-289 0 -292 4 q-1 0 -1 0 l0 1 q-6 4 -6 12 q0 14 12 17 q1 0 4.5 0 q3.5 0 8.5 0.5 q5 0.5 10 0.5 q32 2 41 7.5 q9 5.5 11 24.5 q0 1 0 17 q0 16 0.5 43.5 q0.5 27.5 0.5 60.5 q0 33 0 74.5 q0 41.5 0 79.5 q0 38 0 79.5 q0 41.5 0 75 q0 33.5 -0.5 60.5 q-0.5 27 -0.5 43.5 q0 16.5 0 17.5 q-2 19 -11 24.5 q-9 5.5 -41 7.5 q-5 0 -10 0 q-5 0 -8.5 0.5 q-3.5 0.5 -4.5 0.5 q-12 3 -12 16 q0 11 11 16 q3 2 154 2 q121 0 138.5 -0.5 q17.5 -0.5 21.5 -5.5 q13 -13 -1 -25 q-5 -4 -27 -4 q-30 -2 -38.5 -7 q-8.5 -5 -10.5 -26 q-1 -6 -1 -276 l1 -266 l2 -10 q5 -21 17 -28 q4 -2 54 -2 q54 1 60 2 q75 12 140 65 q56 44 68 101 q5 21 19 21 ZM234 648 q0 2 -52 2 l-53 0 q0 -3 3 -10 q3 -7 3 -10 q2 -16 2 -287 q0 -272 -2 -288 q0 -3 -3 -10 q-3 -7 -3 -10 l54 0 q54 0 54 2 q-6 6 -9 28 q-1 9 -1 282 q0 274 1 281 q2 11 6 20 ZM578 36 l11 67 l0 1 q-50 -50 -91 -68 l40 -1 q40 0 40 1 Z" /><glyph glyph-name="M" unicode="M" d="M31 684 q2 1 115 1 q113 0 117 -2 q5 -2 6 -5 q-1 1 197 -466 q0 1 49.5 117.5 q49.5 116.5 98.5 232.5 l49 116 q4 4 10 7 l116 0 q93 0 107 -0.5 q14 -0.5 18 -5.5 q5 -5 5 -11 q0 -8 -5.5 -13 q-5.5 -5 -13.5 -5 q-19 0 -37 -10 q-18 -10 -25 -24 q-5 -9 -5.5 -38.5 q-0.5 -29.5 -0.5 -237.5 l1 -257 q16 -47 67 -47 q14 -1 19 -5 q14 -12 1 -25 q-4 -5 -21.5 -5.5 q-17.5 -0.5 -139.5 -0.5 q-121 0 -139.5 0.5 q-18.5 0.5 -22.5 4.5 q-6 6 -6 13 q0 4 1 6.5 q1 2.5 2.5 4 q1.5 1.5 5 3 q3.5 1.5 5 2 q1.5 0.5 6.5 1.5 q5 1 7 1 q22 2 38 14.5 q16 12.5 20 30.5 q2 6 2 266 l0 259 l-125 -298 q-126 -300 -127 -301 q-5 -7 -14 -7 q-11 0 -17 14 l-248 590 q-1 1 -1 -59 q0 -60 0 -201 l1 -261 q16 -47 67 -47 q26 -2 26 -17 q0 -12 -12 -18 q-2 -1 -100 -1 q-76 0 -88.5 0.5 q-12.5 0.5 -16.5 4.5 q-6 6 -6 13 q0 4 1 6.5 q1 2.5 2.5 4 q1.5 1.5 5 3 q3.5 1.5 5 2 q1.5 0.5 6.5 1.5 q5 1 7 1 q22 2 38 14.5 q16 12.5 20 30.5 q2 6 2 283 q0 276 -2 277 q-12 7 -52 9 q-17 0 -24 4 q-6 6 -6 13 q0 11 11 17 ZM457 169 q-11 5 -13 8 q-6 8 -96 222 q-3 7 -6 15 l-98 236 l-88 0 l7 -8 q8 -8 14 -21 q6 -12 30 -70 q24 -58 85.5 -203.5 q61.5 -145.5 119.5 -283.5 q11 24 23 53 l22 52 ZM818 649 q0 1 -52 1 l-53 0 l0 -286 q-1 -286 -2 -292 q-4 -16 -19 -36 q0 -1 63 -1 l65 0 q-18 24 -22 43 q-1 7 -1 269 q1 260 2 266 q1 4 10 17.5 q9 13.5 9 18.5 ZM134 35 l-8 10 q-1 1 -5 -5 q-1 -1 -3 -4 l7 -1 l9 0 Z" /><glyph glyph-name="N" unicode="N" d="M25 17 q0 18 24 18 q31 0 45 10 q14 10 17 36 q1 7 1 267 l0 257 l-7 8 q-31 34 -60 37 q-23 2 -23 17 q0 11 11 17 q2 1 110 1 q87 0 100 -0.5 q13 -0.5 18 -5.5 q2 -3 160.5 -210.5 q158.5 -207.5 159.5 -208.5 q1 -1 1 26.5 q0 27.5 0 145.5 l-1 174 q-7 26 -20 35 q-13 9 -47 9 q-18 0 -23 10 q-8 16 9 23 q3 2 96 2 q74 0 85.5 -0.5 q11.5 -0.5 15.5 -5.5 q13 -13 -1 -25 q-5 -4 -21 -4 q-24 -2 -34.5 -8.5 q-10.5 -6.5 -14.5 -25.5 q-1 -7 -2 -315 q0 -307 -2 -311 q-5 -7 -11 -9 q-8 0 -14 3 q-5 5 -115.5 146.5 q-110.5 141.5 -218 280 q-107.5 138.5 -108.5 138.5 q-1 1 -1 -41.5 q0 -42.5 0 -192.5 l1 -235 q6 -27 19 -36 q13 -9 48 -9 q25 0 25 -18 q0 -11 -11 -16 q-2 -1 -100 -1 q-76 0 -88.5 0.5 q-12.5 0.5 -16.5 4.5 q-6 4 -6 12 ZM589 191 q-234 306 -350 459 l-121 0 l11 -12 q5 -6 236 -300 l224 -288 l0 141 Z" /><glyph glyph-name="O" unicode="O" d="M158 629 q97 74 219 74 q48 0 59 -1 q106 -13 184 -73 q124 -98 124 -286 q0 -137 -69 -231 q-22 -30 -55 -56 q-96 -74 -231 -74 q-135 0 -231 74 q-124 98 -124 286 q0 138 69 231 q22 30 55 56 ZM419 666 q-14 2 -36 2 q-56 0 -96 -40 q-77 -75 -77 -286 q0 -155 41 -234 q33 -66 89 -85 q20 -6 49 -6 q29 0 49 6 q94 33 121 191 q9 49 9 129 q0 93 -15 158 q-33 147 -134 165 ZM175 343 q0 206 72 293 q2 3 3.5 5 q1.5 2 0.5 2 q-8 0 -35 -17 q-148 -89 -148 -284 q0 -197 148 -283 q31 -17 36 -17 q-2 3 -5 7 q-72 85 -72 294 ZM603 343 q0 -208 -77 -301 q5 0 36 17 q147 86 147 284 q0 150 -86 236 q-38 38 -84 59 q-12 5 -13 5 q2 -3 5 -7 q72 -87 72 -293 Z" /><glyph glyph-name="P" unicode="P" d="M27 683 q3 2 167 2 q169 0 178 -1 q103 -6 165 -51.5 q62 -45.5 62 -135.5 q0 -67 -45 -114 q-42 -42 -100 -59 q-58 -17 -149 -17 l-43 1 l0 -117 q0 -120 1 -124 q2 -19 11.5 -24.5 q9.5 -5.5 41.5 -7.5 q20 0 22 -1 q13 0 13 -16 q0 -14 -11 -17 q-2 -1 -156 -1 q-121 0 -139.5 0.5 q-18.5 0.5 -22.5 4.5 q-6 4 -6 12 q0 14 12 17 l8 0 q7 1 13 1 q30 2 38.5 7 q8.5 5 10.5 25 q0 1 0 17.5 q0 16.5 0 43.5 q0 27 0.5 60 q0.5 33 0.5 74.5 q0 41.5 0 79.5 q0 38 0 79.5 q0 41.5 -0.5 74.5 q-0.5 33 -0.5 60.5 q0 27.5 0 44 q0 16.5 0 17.5 q-2 20 -10.5 25 q-8.5 5 -38.5 7 q-6 0 -13 0 l-8 1 q-12 3 -12 16 q0 11 11 16 ZM235 36 q-1 2 -2 5.5 q-1 3.5 -1.5 5 q-0.5 1.5 -1.5 4.5 q-1 3 -1 6 q0 3 -0.5 7 q-0.5 4 -0.5 9.5 q0 5.5 -0.5 12.5 q-0.5 7 -0.5 17.5 q0 10.5 0 22 q0 11.5 0 28.5 l0 191 q0 273 1 279 q5 16 12 26 l-57 0 q-57 0 -57 -2 q4 -9 6 -20 q2 -12 2 -286 q0 -273 -2 -285 q-2 -11 -6 -20 q0 -2 54 -2 q55 0 55 1 ZM418 584 q-9 35 -31 50.5 q-22 15.5 -64 15.5 q-48 0 -60 -31 l-1 -138 l0 -138 l39 0 q49 1 65 7 q35 13 48 50 q13 37 13 99 q0 51 -9 85 ZM444 638 q-10 2 -11 3 q-2 0 -1 -2 q30 -48 30 -139 q0 -99 -35 -147 l3 1 q5 0 18 5 q97 33 114 111 q1 6 1 25 q0 52 -24 85 q-29 40 -95 58 Z" /><glyph glyph-name="Q" unicode="Q" d="M478 -10 q55 -107 172 -107 q24 0 51 6 q18 5 25 -1 q6 -5 6 -13 q0 -8 -6 -13 q-1 -1 -10 -6 q-84 -35 -171 -35 q-26 0 -56 6 q-101 20 -167 99 q-23 27 -35 54 l-8 15 l-17 6 q-107 37 -167.5 123 q-60.5 86 -60.5 218 q0 138 69 231 q22 30 55 56 q97 74 219 74 q48 0 59 -1 q106 -13 184 -73 q124 -98 124 -286 q0 -137 -69 -231 q-22 -30 -55 -56 q-60 -46 -129 -62 l-13 -4 ZM419 666 q-14 2 -36 2 q-56 0 -96 -40 q-77 -75 -77 -286 q0 -155 41 -234 q33 -66 89 -85 q20 -6 49 -6 q29 0 49 6 q94 33 121 191 q9 49 9 129 q0 93 -15 158 q-33 147 -134 165 ZM175 343 q0 206 72 293 q2 3 3.5 5 q1.5 2 0.5 2 q-8 0 -35 -17 q-148 -89 -148 -284 q0 -197 148 -283 q31 -17 36 -17 q-2 3 -5 7 q-72 85 -72 294 ZM603 343 q0 -208 -77 -301 q5 0 36 17 q147 86 147 284 q0 150 -86 236 q-38 38 -84 59 q-12 5 -13 5 q2 -3 5 -7 q72 -87 72 -293 ZM343 -17 q-15 2 -17 3 l-3 0 l2 -5 q33 -55 91.5 -90 q58.5 -35 133.5 -35 q29 0 29 2 q-3 2 -9 4 q-54 19 -95 69 q-17 21 -27 42 l-5 11 l-6 0 q-21 -3 -51 -3 q-19 0 -43 2 Z" /><glyph glyph-name="R" unicode="R" d="M27 683 q3 2 187 2 q193 -1 212 -4 q2 -1 10 -2 q81 -14 131 -53 q50 -39 60 -97 q1 -8 1 -31 q0 -75 -44 -116 q-25 -24 -57.5 -36.5 q-32.5 -12.5 -52.5 -16 q-20 -3.5 -20 -4.5 q0 -6 66 -102 q107 -158 155 -185 q2 0 5 -1 q5 -2 6 -2 q7 0 12 -5 q5 -5 5 -12 q0 -7 -5 -12 q-4 -5 -15 -5.5 q-11 -0.5 -82 -0.5 l-42 0 q-38 0 -46 1 q-8 1 -11 6 q-1 1 -1 2 q-1 1 -100 154 l-97 151 l-36 0 l0 -120 q0 -123 1 -127 q2 -19 11.5 -24.5 q9.5 -5.5 41.5 -7.5 q20 0 22 -1 q13 0 13 -16 q0 -14 -11 -17 q-2 -1 -159 -1 q-124 0 -142.5 0.5 q-18.5 0.5 -22.5 4.5 q-6 4 -6 12 q0 14 12 17 q1 0 4.5 0 q3.5 0 8.5 0.5 q5 0.5 10 0.5 q32 2 41.5 7.5 q9.5 5.5 11.5 24.5 q0 1 0 17 q0 16 0 43.5 q0 27.5 0.5 60.5 q0.5 33 0.5 74.5 q0 41.5 0 79.5 q0 38 0 79.5 q0 41.5 -0.5 75 q-0.5 33.5 -0.5 60.5 q0 27 0 43.5 q0 16.5 0 17.5 q-2 19 -11.5 24.5 q-9.5 5.5 -41.5 7.5 q-5 0 -10 0 q-5 0 -8.5 0.5 q-3.5 0.5 -4.5 0.5 q-12 3 -12 16 q0 11 11 16 ZM241 36 q-1 2 -2 5.5 q-1 3.5 -1.5 5 q-0.5 1.5 -1.5 4.5 q-1 3 -1 6 q0 3 -0.5 7 q-0.5 4 -0.5 9.5 q0 5.5 -0.5 12.5 q-0.5 7 -0.5 17.5 q0 10.5 0 22 q0 11.5 0 28.5 l0 191 q0 273 1 279 q5 16 12 26 l-57 0 q-57 0 -57 -1 q1 -2 2 -5.5 q1 -3.5 1.5 -5 q0.5 -1.5 1.5 -4.5 q1 -3 1 -6 q0 -3 0.5 -7 q0.5 -4 0.5 -9.5 q0 -5.5 0.5 -12.5 q0.5 -7 0.5 -17.5 q0 -10.5 0 -22 q0 -11.5 0 -28.5 l0 -189 q0 -217 -0.5 -252 q-0.5 -35 -5.5 -47 l-2 -7 q0 -1 55 -1 q54 0 54 1 ZM448 573 q-12 42 -41.5 59 q-29.5 17 -84.5 17 q-41 0 -53 -30 l-1 -135 l0 -135 l27 0 q80 2 112 17 q32 15 43 55 q7 27 7 71 q0 51 -9 81 ZM453 640 q39 -51 39 -144 q0 -89 -32 -134 q14 3 28 7 q55 16 80.5 46 q25.5 30 25.5 82 q0 93 -105 132 q-4 2 -14 5 q-10 3 -11 3 l-11 3 ZM435 289 q-20 31 -23 31 l-3 0 q0 -2 -25 -2 q-29 -2 -32 -3 l-7 0 l180 -279 l49 -1 l48 0 l-11 11 q-40 42 -91 116 q-45 63 -85 127 Z" /><glyph glyph-name="S" unicode="S" d="M29 504 q0 89 54.5 141.5 q54.5 52.5 149.5 57.5 l8 1 q8 0 14 0 q40 0 79 -13 q40 -14 66 -14 q30 0 47 17 q11 10 18 10 q11 0 16 -11 q1 -2 1 -98 q0 -96 -1 -98 q-6 -13 -19 -11 q-13 3 -16 24 q-16 65 -76 112 q-43 35 -87 45 q-14 2 -23 2 q-50 0 -80.5 -27.5 q-30.5 -27.5 -30.5 -73.5 q0 -20 7 -33 q15 -33 58 -57.5 q43 -24.5 112 -50.5 q60 -25 90 -45 q88 -58 108 -141 q6 -24 6 -49 q0 -33 -11 -64 q-24 -64 -92.5 -102 q-68.5 -38 -164.5 -38 q-44 0 -84 15 q-35 13 -61 13 q-26 0 -46 -19 q-9 -9 -17 -9 q-9 0 -17 14 l0 225 q9 13 18 13 q17 0 17 -25 q0 -52 44 -109 q52 -66 120 -81 q6 -1 29 -1 q66 0 97.5 25 q31.5 25 31.5 84 q0 14 -2 22 q-16 83 -169 145 q-100 43 -145 88 q-49 49 -49 116 ZM446 651 q-29 -9 -35 -10 l-8 0 l12 -13 q4 -5 32 -37 l0 30 q0 30 -1 30 ZM413 58 q40 26 61 56.5 q21 30.5 21 76.5 q0 5 -0.5 13 q-0.5 8 -0.5 10 q-12 82 -98 139 q-26 18 -82 41 q-69 27 -105.5 47 q-36.5 20 -60.5 45 q-35 37 -35 79 q0 36 15 66 l4 9 l-4 -2 q-3 -3 -9 -7 q-6 -4 -8 -6 q-47 -42 -47 -122 q0 -35 15 -60 q34 -58 152 -108 q45 -19 74 -34.5 q29 -15.5 61 -40 q32 -24.5 47.5 -55.5 q15.5 -31 15.5 -70 q0 -39 -16 -77 ZM108 63 q-12 12 -36 44 l0 -33 q0 -33 1 -33 q23 10 40 10 l6 0 l-11 12 Z" /><glyph glyph-name="T" unicode="T" d="M44 684 q2 1 290 1 q287 0 291 -2 q6 -3 9 -12 q1 -3 1 -91 q0 -86 -3 -90 q-4 -8 -11.5 -9.5 q-7.5 -1.5 -14.5 3.5 q-6 6 -7 21 q-5 67 -68 108 q-45 31 -107 36 l-9 0 l0 -286 q0 -289 1 -295 q2 -22 12.5 -27 q10.5 -5 46.5 -6 q22 0 24 -1 q13 0 13 -16 q0 -14 -11 -17 q-2 -1 -167 -1 q-130 0 -149.5 0.5 q-19.5 0.5 -23.5 4.5 q-6 4 -6 13 q0 13 12 16 q1 0 4.5 0 q3.5 0 9.5 0.5 q6 0.5 11 0.5 q36 1 46.5 6 q10.5 5 12.5 27 q1 6 1 295 l0 286 l-9 0 q-59 -5 -105 -34.5 q-46 -29.5 -63 -75.5 q-5 -14 -7 -34 q-1 -17 -8 -22 q-17 -11 -26 7 q-2 4 -2 92 q0 89 2 93 q5 7 10 9 ZM68 598 q19 26 50 45 l10 7 l-60 0 l0 -52 ZM380 356 l0 294 l-93 0 l0 -294 q0 -44 0 -113 q-1 -189 -5 -198 l-1 -3 l-3 -7 l111 0 l-3 7 q-4 12 -4.5 37 q-0.5 25 -1.5 277 ZM600 597 l0 53 l-61 0 l10 -7 q28 -18 47 -42 l4 -4 Z" /><glyph glyph-name="U" unicode="U" d="M27 683 q3 2 157 2 q123 0 140.5 -0.5 q17.5 -0.5 21.5 -5.5 q13 -13 -1 -25 q-5 -4 -30 -4 q-39 -2 -47 -9 q-5 -6 -8 -14 q-1 -6 -2 -211 q0 -212 1 -226 q5 -79 28 -117.5 q23 -38.5 72 -47.5 q6 -1 30 -1 q36 0 73 10 q96 34 114 170 q1 11 2 169 q0 159 -1 168 q-4 48 -20 76.5 q-16 28.5 -42 31.5 q-1 0 -4 1 q-3 1 -5 1.5 q-2 0.5 -4.5 1 q-2.5 0.5 -3.5 1.5 q-1 1 -3 2 q-2 1 -3 2.5 q-1 1.5 -1.5 3.5 q-0.5 2 -0.5 5 q0 7 6 13 q4 4 16 4.5 q12 0.5 87 0.5 q76 0 88 -0.5 q12 -0.5 16 -5.5 q5 -5 5 -12 q0 -17 -18 -17 q-28 0 -46 -28 q-18 -28 -23 -79 q-1 -8 -1 -160 q0 -154 -1 -162 q-9 -115 -73 -177.5 q-64 -62.5 -182 -62.5 q-106 0 -174 45 q-68 45 -84 131 q-5 22 -5.5 44.5 q-0.5 22.5 -1.5 206.5 q0 24 0 48.5 q0 24.5 0 45.5 q0 21 -0.5 40 q-0.5 19 -0.5 33.5 q0 14.5 0 25.5 q0 11 0 17 l0 6 q-1 1 -2.5 7 q-1.5 6 -3.5 8 q-7 10 -43 11 q-6 0 -13 0 l-8 1 q-12 3 -12 16 q0 11 11 16 ZM224 621 q1 13 8 29 l-106 0 q1 -2 2 -6 q5 -14 6 -129 q0 -62 0 -105 q0 -32 0 -84 q1 -142 5 -160 q1 -2 1 -3 q23 -108 132 -136 l9 -3 q-51 51 -57 162 q0 2 0 36.5 q0 34.5 -0.5 87 q-0.5 52.5 -0.5 98.5 q0 29 0 61 q0 32 0.5 57.5 q0.5 25.5 0.5 46.5 q0 21 0 34 q0 13 0 14 ZM619 649 l-20 1 l0 0 l-20 -1 q0 -1 4 -7 q2 -4 8 -15.5 q6 -11.5 8 -15.5 q2 2 3 5 q3 11 13 26 q4 6 4 7 Z" /><glyph glyph-name="V" unicode="V" d="M19 650 q-8 0 -13.5 5.5 q-5.5 5.5 -5.5 12.5 q0 10 10 15 q4 2 155 2 q120 0 137.5 -0.5 q17.5 -0.5 21.5 -5.5 q13 -13 -1 -25 q-5 -4 -18 -5 q-26 -2 -43 -16 q-12 -9 -12 -16 q2 -47 90 -252 q79 -180 81 -180 q0 3 26 65 q79 193 97 289 q5 30 5 54 q0 27 -7 40.5 q-7 13.5 -26 16.5 q-8 0 -10 1 q-5 0 -12 9 q-5 19 10 24 q2 1 103 1 q100 0 102 -1 q15 -5 10 -24 q-7 -9 -12 -9 q-1 -1 -5 -1.5 q-4 -0.5 -5 -0.5 q-36 -2 -55 -38 q-1 -3 -130 -312.5 q-129 -309.5 -130 -310.5 q-5 -9 -18 -7 l-1 0 q-5 1 -23 38 q-14 30 -84 183 q-25 55 -40 88 q-135 297 -142 311 q-27 49 -55 49 ZM215 620 q0 15 12 30 l-71 0 q-71 0 -71 -1 q0 -1 4 -7 q4 -6 9.5 -14 q5.5 -8 7.5 -13 q1 -2 128 -280.5 q127 -278.5 134 -292.5 l18 45 l19 46 q0 1 -20 45 q-170 374 -170 442 ZM585 594 q0 -5 -1 -17.5 q-1 -12.5 -1 -15.5 l5 11 q23 60 39 78 l-54 0 q12 -26 12 -56 Z" /><glyph glyph-name="W" unicode="W" d="M847 576 q0 36 -9.5 55 q-9.5 19 -35.5 19 q-18 0 -18 17 q0 7 5 12 q4 5 15.5 5.5 q11.5 0.5 83.5 0.5 q91 0 93 -1 q15 -5 10 -24 q-7 -10 -17 -10 q-18 0 -33 -29 q-4 -9 -60 -166.5 q-56 -157.5 -110.5 -310 q-54.5 -152.5 -54.5 -153.5 q-6 -8 -12 -10 q-14 -2 -19 9 l-172 451 q-1 0 -98 -223 q-96 -221 -99 -227 q-7 -10 -16 -10 q-8 0 -15 10 q-1 1 -53.5 147.5 q-52.5 146.5 -107.5 301.5 q-55 155 -60 168 q-17 42 -38 42 q-7 0 -12.5 5 q-5.5 5 -5.5 13 q0 12 11 16 q2 1 128 1 q126 0 130 -2 q7 -3 9 -10.5 q2 -7.5 -2 -14.5 q-5 -7 -17 -8 q-14 -2 -26 -12 q-7 -5 -8 -6 q-1 -1 -2 -5 q-1 -4 1 -9 q1 -13 11 -55 q25 -97 118 -364 l3 -6 l2 4 q128 288 128 295 q0 1 -18 49 q-18 48 -22 57 q-21 49 -51 52 q-12 1 -17 8 q-4 7 -2 14.5 q2 7.5 9 10.5 q4 2 144 2 q112 0 128.5 -0.5 q16.5 -0.5 20.5 -5.5 q13 -13 -1 -25 q-4 -3 -17 -4 q-18 -2 -46 -24 l0 -10 q5 -54 82 -270 q44 -124 48 -128 q0 -1 5.5 14 q5.5 15 13 37 q7.5 22 15.5 46.5 q8 24.5 15 44.5 q39 127 45 193 q1 6 1 23 ZM202 650 l-119 0 q0 -1 5 -11 q12 -25 65 -173.5 q53 -148.5 100 -283 q47 -134.5 49 -134.5 q1 0 21 48 l21 47 l-22 62 q-114 325 -125 405 q-1 6 -1 15 q0 11 3 19 q3 4 3 6 ZM595 647 l2 3 l-66 0 q-65 0 -65 -1 q0 -1 4 -7 q8 -11 21 -42 q3 -11 55.5 -147.5 q52.5 -136.5 102.5 -268.5 q50 -132 50 -133 q0 -2 9.5 24.5 q9.5 26.5 19.5 54.5 l9 27 q-11 29 -24 63 q-98 262 -119 353 q-6 30 -6 47 q0 15 2 20 q3 6 5 7 ZM867 650 q14 -29 15 -65 l0 -21 l11 30 q13 34 17 43 l7 13 l-50 0 Z" /><glyph glyph-name="X" unicode="X" d="M346 667 q0 -17 -22 -17 q-35 0 -49 -10 q-2 -2 -1 -7 q5 -12 26 -50 q29 -49 78 -124 l7 -10 q7 9 28.5 37 q21.5 28 36.5 48.5 q15 20.5 17 23.5 q12 20 12 44 q0 41 -31 48 q-7 0 -9 1 q-5 0 -12 9 q-5 19 10 24 q2 1 122 1 q120 0 122 -1 q15 -5 10 -24 q-7 -9 -12 -9 q-2 -1 -13 -1 q-69 -4 -140 -87 q-11 -12 -77 -99 l-40 -52 l47 -70 q192 -288 212 -300 q10 -7 20 -7 q7 0 12 -5 q5 -5 5 -12 q0 -2 -0.5 -4.5 q-0.5 -2.5 -0.5 -3.5 q-5 -7 -10 -9 q-2 -1 -156 -1 q-153 0 -157 2 q-10 5 -10 16 q0 17 25 17 q63 0 63 17 q0 22 -94 164 q-12 18 -18 27 l-15 23 l-55 -63 q-55 -63 -61 -70 q-17 -20 -17 -48 q0 -20 11 -35 q11 -15 28 -15 q9 0 14 -5.5 q5 -5.5 5 -12.5 q0 -10 -14 -17 l-105 0 q-106 0 -110 2 q-10 5 -10 16 q0 7 5.5 12 q5.5 5 12.5 5 q27 0 88 59 q26 27 121 136 l63 72 l-24 36 q-177 268 -211 300 q-14 12 -33 12 q-8 0 -13 6 q-5 6 -5 13 q0 10 10 14 q4 2 152 2 q149 0 151 -1 q11 -3 11 -17 ZM496 45 q0 -4 -2 -10 l132 0 l-15 20 q-61 82 -200 291 q-132 198 -161 256 q-13 29 -13 40 l0 8 l-128 0 l9 -12 q48 -59 216 -311 q93 -140 122 -191 q40 -67 40 -91 ZM567 649 q0 1 -31 1 q-33 0 -33 -1 l1 -1 q1 -2 1.5 -4 q0.5 -2 1.5 -4 q4 -9 8 -31 l0 -6 l13 13 q3 3 13 10.5 q10 7.5 18 14 q8 6.5 8 8.5 ZM177 35 q-10 23 -14 49 q-6 -5 -12 -12 q-25 -25 -40 -37 l66 0 Z" /><glyph glyph-name="Y" unicode="Y" d="M502 650 q-8 0 -13.5 5.5 q-5.5 5.5 -5.5 12.5 q0 8 6 12 q4 4 16 4.5 q12 0.5 88 0.5 q77 0 89 -0.5 q12 -0.5 16 -5.5 q5 -5 5 -11 q0 -7 -5 -12.5 q-5 -5.5 -12 -5.5 q-17 0 -49 -41 q-18 -23 -119 -185 l-75 -121 l0 -114 q1 -119 4 -128 q0 -1 2 -5 q3 -13 15.5 -16.5 q12.5 -3.5 37.5 -4.5 q19 0 21 -1 q13 0 13 -16 q0 -14 -11 -17 q-2 -1 -163 -1 q-127 0 -146 0.5 q-19 0.5 -23 4.5 q-6 4 -6 13 q0 13 12 16 l8 0 q8 1 14 1 q17 1 25 2 q8 1 17 5.5 q9 4.5 11 13.5 q5 15 6 113 l0 94 l-81 145 q-120 215 -132 231 q-7 10 -23 11 q-3 0 -7.5 0.5 q-4.5 0.5 -5.5 0.5 q-12 3 -12 16 q0 11 11 16 q3 2 133 2 q104 0 119.5 -0.5 q15.5 -0.5 19.5 -5.5 q13 -13 -1 -25 q-7 -4 -23 -4 q-21 -2 -24 -5 q0 -7 7 -21 l160 -288 q135 216 138 224 q4 11 4 24 q0 23 -14 41.5 q-14 18.5 -36 23.5 q-1 0 -5 0.5 q-4 0.5 -6 0.5 ZM232 603 q-13 30 -13 40 q0 5 1 7 l-118 0 l211 -376 q2 -3 2 -102 q-1 -100 -2 -108 q-1 -2 -3 -8 q-2 -6 -3.5 -11 q-1.5 -5 -1.5 -8 q0 -2 57 -2 q56 0 56 2 q0 3 -1.5 8 q-1.5 5 -3.5 11 q-2 6 -3 8 q-1 8 -2 117 q0 108 -2 111 q-7 11 -174 311 ZM623 648 l2 2 l-50 0 l19 -36 q1 0 14 15.5 q13 15.5 15 18.5 Z" /><glyph glyph-name="Z" unicode="Z" d="M620 243 q5 0 10 -4 q5 -4 6 -9 q0 -7 -14 -111.5 q-14 -104.5 -15 -105.5 q0 -7 -10 -12 q-2 -1 -278 -1 q-276 0 -280 2 q-17 7 -9 23 q3 4 191.5 311 q188.5 307 191.5 314 l-57 0 q-70 -1 -98 -7 q-65 -12 -109 -48.5 q-44 -36.5 -51 -85.5 q-3 -20 -18 -20 q-12 0 -18 15 l9 83 q9 83 11 87 q3 6 9 9 q3 2 252 2 q249 0 251 -1 q13 -6 11 -19 q-1 -3 -191 -314 q-190 -311 -193 -314 l-1 -2 l86 0 q86 1 99 3 q74 11 128.5 61 q54.5 50 65.5 120 q5 24 21 24 ZM158 644 l10 6 l-27 0 q-28 0 -28 -1 q0 -21 -5 -41 q0 -3 8 5 q1 0 3 2 q17 16 39 29 ZM179 36 q1 0 90 145 q89 145 183 299.5 q94 154.5 104 169.5 l-102 0 l-21 -34 q-5 -9 -188 -307 l-168 -273 l51 -1 q51 0 51 1 ZM575 37 q1 1 5 32 q4 31 4 33 q-1 0 -1 -1 q0 -1 -16.5 -17.5 q-16.5 -16.5 -23.5 -22.5 q-11 -10 -38 -26 l70 0 l0 2 Z" /><glyph glyph-name="k" unicode="k" d="M294 18 q0 17 25 17 q18 2 18 8 q-2 10 -70 96 q-11 14 -25.5 32 q-14.5 18 -21.5 26 l-6 8 q-3 -3 -11 -9 l0 -62 q1 -62 3 -69 q8 -30 25 -30 q7 0 12.5 -5 q5.5 -5 5.5 -12 q0 -11 -10 -16 q-4 -2 -105 -2 q-101 0 -103 1 q-15 5 -10 24 q7 10 16 10 q25 0 28 51 l1 40 q0 39 0 100.5 q0 61.5 0 116.5 q0 55 0 116.5 q0 61.5 -0.5 100.5 q-0.5 39 -0.5 40 q-3 50 -28 50 q-7 0 -12 6 q-5 6 -5 13 q0 12 11 15 q2 1 80 1 q78 0 82 -2 q6 -3 9 -11 q1 -3 1 -215 q0 -211 1 -211 q1 0 57.5 51.5 q56.5 51.5 61.5 56.5 q19 25 19 46 q0 11 -5.5 19.5 q-5.5 8.5 -14.5 8.5 q-8 0 -13 5 q-5 5 -5 13 q0 8 6 12 q4 4 16 4.5 q12 0.5 85 0.5 q94 0 96 -1 q11 -6 11 -17 q0 -13 -22 -18 q-39 -3 -138 -92 l-50 -45 q0 -1 40.5 -52 q40.5 -51 85 -106.5 q44.5 -55.5 52.5 -64.5 q18 -21 23.5 -26 q5.5 -5 13.5 -6 q15 -4 15 -17 q0 -7 -6 -13 q-4 -4 -17.5 -4.5 q-13.5 -0.5 -98.5 -0.5 q-109 0 -111 1 q-11 6 -11 17 ZM168 359 l0 291 l-40 0 q-39 0 -39 -2 q10 -24 11 -46 q0 -1 0 -40.5 q0 -39.5 0.5 -102 q0.5 -62.5 0.5 -117.5 q0 -55 -0.5 -117 q-0.5 -62 -0.5 -101.5 q0 -39.5 0 -40.5 q-1 -22 -11 -46 q0 -2 45 -2 q45 0 45 2 q-4 9 -10 32 l-1 290 ZM416 428 l-22 0 q-22 0 -22 -2 q4 -7 6 -28 q13 11 26 20 l12 10 ZM466 35 q-6 6 -102 128 q-81 101 -81 102 q-1 1 -22 -18 l-21 -18 q102 -125 117 -149 q14 -20 15 -37 l0 -8 l94 0 Z" /><glyph glyph-name="uni2266" unicode="&#x2266;" d="M665 751 q6 2 9 2 q9 0 14.5 -6.5 q5.5 -6.5 5.5 -14.5 q0 -8 -7 -14 q-1 -1 -42 -20.5 q-41 -19.5 -185.5 -88 q-144.5 -68.5 -308.5 -146.5 q112 -53 248 -118 q288 -136 292 -141 q3 -6 3 -11 q0 -18 -18 -20 l-6 0 l-288 136 q-290 137 -292 139 q-7 5 -7 17 q1 11 13 17 q8 4 286 135.5 q278 131.5 283 133.5 ZM84 39 q0 11 15 20 l579 0 q16 -7 16 -20 q0 -13 -15 -20 l-581 0 q-14 7 -14 20 ZM98 -175 q-14 7 -15 18 q0 12 16 22 l579 0 q16 -10 16 -20 q0 -13 -15 -20 l-581 0 Z" /><glyph glyph-name="uni2267" unicode="&#x2267;" d="M83 734 q0 6 4.5 12.5 q4.5 6.5 11.5 6.5 q8 0 154.5 -68.5 q146.5 -68.5 289.5 -137 q143 -68.5 144 -69.5 q7 -5 7 -15 q0 -10 -7 -15 q-2 -2 -292 -139 l-288 -136 l-6 0 q-18 2 -18 20 q0 5 3 11 q4 5 292 141 l248 118 l-536 255 q-7 7 -7 16 ZM84 39 q0 11 15 20 l579 0 q16 -7 16 -20 q0 -13 -15 -20 l-581 0 q-14 7 -14 20 ZM98 -175 q-14 7 -15 18 q0 12 16 22 l579 0 q16 -10 16 -20 q0 -13 -15 -20 l-581 0 Z" /><glyph glyph-name="uni2605" unicode="&#x2605;" d="M367 395 q0 1 47.5 146.5 q47.5 145.5 48.5 146.5 q0 4 4 4 q6 5 12 -1 q3 -3 97 -291 l1 -5 l154 0 q120 0 140.5 -0.5 q20.5 -0.5 21.5 -4.5 l0 -1 q3 -4 0 -11 q-4 -4 -67 -50 q-63 -46 -123 -89.5 q-60 -43.5 -60 -44.5 q22 -71 41 -129.5 q19 -58.5 28 -85.5 q9 -27 15.5 -46.5 q6.5 -19.5 8 -25.5 q1.5 -6 1.5 -10 q0 -6 -6.5 -7.5 q-6.5 -1.5 -10.5 1.5 q-5 2 -126 91 l-122 89 l-122 -89 q-121 -89 -126 -91 q-4 -3 -10.5 -1.5 q-6.5 1.5 -6.5 7.5 q0 11 94 297 q0 1 -60.5 45 q-60.5 44 -123 89.5 q-62.5 45.5 -66.5 49.5 q-3 7 0 11 q2 4 17 5 q18 1 145 1 l154 0 Z" /></font>
</defs>
</svg>
