<?xml version="1.0" standalone="no"?><!DOCTYPE svg PUBLIC "-//W3C//DTD SVG 1.1//EN" "http://www.w3.org/Graphics/SVG/1.1/DTD/svg11.dtd" ><svg xmlns="http://www.w3.org/2000/svg"><metadata></metadata><defs><font id="FontForge 2.0 : KaTeX_Math-Italic" horiz-adv-x="970"><font-face font-family="KaTeX_Math" font-weight="400" font-stretch="normal" units-per-em="1000" panose-1="0 0 0 0 0 0 0 0 0 0" ascent="717" descent="-218" x-height="0" bbox="-39 -216 1051 716" underline-thickness="50" underline-position="-125" unicode-range="U+0020-007a" /><missing-glyph horiz-adv-x="250" d="M50 0 l0 533 l150 0 l0 -533 l-150 0 ZM100 50 l50 0 l0 433 l-50 0 l0 -433 Z" /><glyph glyph-name="zero" unicode="0" d="M39 213 q0 112 50 175.5 q50 63.5 153 63.5 q113 0 165.5 -60.5 q52.5 -60.5 52.5 -178.5 q0 -235 -210 -235 q-211 0 -211 235 ZM364 242 q0 37 -1.5 59 q-1.5 22 -7.5 47 q-6 25 -17.5 37.5 q-11.5 12.5 -32 21 q-20.5 8.5 -51.5 8.5 q-4 0 -9 0.5 q-5 0.5 -7 0.5 q-30 0 -54.5 -14 q-24.5 -14 -33.5 -34 q-8 -17 -13 -64 q-1 -10 -1 -83 l0 -48 q0 -66 11.5 -99.5 q11.5 -33.5 52.5 -50.5 q19 -7 50 -7 q33 0 55 10 q22 10 33.5 23.5 q11.5 13.5 17.5 42.5 q6 29 7 51.5 q1 22.5 1 65.5 l0 12 l0 21 Z" /><glyph glyph-name="one" unicode="1" d="M86 403 q4 4 6 7 l24 0 q102 3 158 37 q10 6 14 6 q5 0 13 -6 l0 -193 q0 -192 2 -194 q4 -7 10 -9 q17 -5 81 -5 q24 0 28 -3 q4 -3 4 -20 q0 -16 -2 -19.5 q-2 -3.5 -13 -3.5 q-19 0 -67.5 1 q-48.5 1 -85.5 1 q-37 0 -85 -1 q-48 -1 -67 -1 q-11 0 -13 3.5 q-2 3.5 -2 19.5 q0 17 4 20 q4 3 28 3 q64 0 81 5 q8 4 11 10 q1 2 1 159 l0 156 q-23 -10 -97 -12 l-26 0 l-7 7 l0 32 Z" /><glyph glyph-name="two" unicode="2" d="M55 334 q0 58 53.5 88.5 q53.5 30.5 127.5 30.5 q84 0 140.5 -30.5 q56.5 -30.5 70.5 -91.5 q1 -6 1 -24 q0 -21 -2 -27 q-4 -17 -14 -31.5 q-10 -14.5 -19.5 -23.5 q-9.5 -9 -29 -20.5 q-19.5 -11.5 -30.5 -17 q-11 -5.5 -37 -17.5 q-6 -3 -15.5 -7.5 q-9.5 -4.5 -15.5 -7.5 q-6 -3 -8 -4 q-8 -4 -61 -35 q-53 -31 -53 -32 q0 -1 104 -1 l115 2 l9 0 q7 11 15 41 q4 16 7 19 q3 3 16 3 q12 0 14.5 -1 q2.5 -1 5.5 -8 q-27 -130 -29 -132 q0 -1 -6 -7 l-181 0 q-139 0 -162.5 0.5 q-23.5 0.5 -24.5 4.5 q0 0 0 1 q-2 2 -2 18 q0 15 2 17 q1 3 169 116 q64 43 79 55 q53 45 53 92 q0 48 -39.5 75.5 q-39.5 27.5 -104.5 27.5 q-53 0 -83 -30 q-2 -2 3 -4 q23 -11 23 -41 q0 -19 -12.5 -31.5 q-12.5 -12.5 -32.5 -12.5 q-20 0 -33 13 q-13 13 -13 33 Z" /><glyph glyph-name="three" unicode="3" d="M104 -7 q25 0 41.5 -17.5 q16.5 -17.5 16.5 -41.5 q0 -21 -13 -37.5 q-13 -16.5 -31 -21.5 l-5 -1 q0 -3 13.5 -12.5 q13.5 -9.5 23.5 -14.5 q42 -20 89 -20 q29 0 53 15 q53 34 53 134 q0 57 -16 91 q-26 48 -72 56 q-6 2 -47 2 l-38 0 q-6 6 -6 17 q0 17 6 19 q4 0 36.5 3.5 q32.5 3.5 35.5 4.5 q6 0 16 6 q30 15 48.5 52 q18.5 37 18.5 87 q0 99 -89 99 q-58 0 -108 -44 q24 -7 37.5 -19.5 q13.5 -12.5 13.5 -37.5 q0 -23 -16 -39 q-16 -16 -40 -16 q-24 0 -40 15 q-16 15 -16 40 q0 15 3 27 q9 41 43.5 70 q34.5 29 85.5 40 q17 3 32 3 q83 0 135 -35 q62 -40 62 -104 q0 -37 -17 -71 q-31 -62 -102 -93 l-10 -5 l2 -1 q2 -1 5.5 -1.5 q3.5 -0.5 5.5 -1.5 q118 -39 140 -136 q2 -8 2 -29 q0 -22 -2 -30 q-13 -62 -60.5 -104.5 q-47.5 -42.5 -116.5 -54.5 q-16 -2 -36 -2 q-117 0 -177 78 q-22 33 -22 70 q0 29 16.5 45 q16.5 16 45.5 16 Z" /><glyph glyph-name="four" unicode="4" d="M193 -154 l6 6 l29 0 q4 0 10.5 0 q6.5 0 10 0.5 q3.5 0.5 8.5 0.5 q5 0 7.5 0.5 q2.5 0.5 6 1 q3.5 0.5 5.5 1 q2 0.5 4.5 1.5 q2.5 1 3.5 2 q1 1 2 3 l3 4 l0 134 l-126 0 q-102 0 -116.5 0.5 q-14.5 0.5 -16.5 5.5 q-2 2 -2 21 l0 19 l12 17 l71 98 q71 98 143 197.5 q72 99.5 76 103.5 q3 2 22 2 l19 0 l6 -6 l0 -412 l87 0 q4 -4 7 -6 l0 -34 q-3 -2 -7 -6 l-87 0 l0 -65 q0 -67 1 -69 q2 -9 13 -10 q18 -4 55 -4 l18 0 q4 -3 7 -7 l0 -32 l-7 -7 l-11 0 q-58 2 -128 2 q-98 0 -115 -2 l-11 0 l-6 6 l0 34 ZM295 46 l0 304 q-50 -68 -110 -152 l-110 -152 l220 0 Z" /><glyph glyph-name="five" unicode="5" d="M159 -44 q0 -23 -14.5 -36.5 q-14.5 -13.5 -35.5 -15.5 l-7 0 l5 -9 q41 -68 121 -68 q50 0 80.5 29.5 q30.5 29.5 37.5 75.5 q5 30 5 76 q0 59 -7.5 90.5 q-7.5 31.5 -27.5 52.5 q-26 25 -61 25 q-80 0 -119 -67 q-7 -9 -22 -9 q-17 0 -19 6 q-2 4 -2 171 q0 29 -0.5 69 q-0.5 40 -0.5 51 q0 54 6 54 q5 2 12 0 q68 -28 141 -28 q76 0 137 26 q14 6 19 1 q3 -3 3 -15 l0 -13 q-77 -91 -207 -91 q-47 0 -63 8 q-1 0 -1 -85 l0 -86 q25 21 43 29 q36 17 74 17 q89 0 144 -71 q48 -59 48 -143 q0 -60 -32 -113 q-27 -44 -77 -73.5 q-50 -29.5 -110 -29.5 q-57 0 -104 32 q-69 48 -75 135 q0 29 14.5 45.5 q14.5 16.5 40.5 16.5 q24 0 39 -15.5 q15 -15.5 15 -41.5 Z" /><glyph glyph-name="six" unicode="6" d="M143 356 q23 38 51.5 58 q28.5 20 71.5 20 q51 0 91 -25 q36 -24 62.5 -65 q26.5 -41 34.5 -91 q2 -12 2 -43 l0 -18 q0 -23 -5 -43 q-12 -59 -62 -111 q-43 -45 -96 -56 q-16 -4 -40 -4 q-19 0 -34 3 q-92 18 -134.5 108.5 q-42.5 90.5 -42.5 223.5 q0 108 38 189 q38 81 106 126 q54 37 110 37 q127 0 136 -108 q0 -26 -14 -42.5 q-14 -16.5 -38 -16.5 q-23 0 -37.5 15 q-14.5 15 -14.5 37 q0 23 14 37 q10 10 25 14 l5 1 q0 3 -17 13 q-20 11 -48 11 q-17 0 -42 -7 q-60 -19 -91 -82 q-27 -54 -31 -161 l0 -20 ZM351 311 q-16 85 -100 85 l-10 0 q-45 -7 -70.5 -57.5 q-25.5 -50.5 -25.5 -121.5 q0 -86 12 -122 q9 -31 35.5 -52.5 q26.5 -21.5 59.5 -21.5 q41 0 69 26 q21 21 28 52 q7 31 7 104 q0 68 -5 108 Z" /><glyph glyph-name="seven" unicode="7" d="M75 246 q-12 0 -14.5 1 q-2.5 1 -5.5 8 q0 4 17 102.5 q17 98.5 18 100.5 l4 4 l5 0 q5 1 10 1 l12 0 q7 -7 7 -11 q0 -14 37 -18 q39 -3 191 -3 l122 0 q4 -4 7 -6 l0 -33 l-71 -94 q-73 -98 -76 -103 q-51 -83 -61 -224 q-3 -36 -3 -108 q0 -36 -2 -40 q-10 -39 -49 -39 q-42 0 -52 39 q-1 5 -1 29 q4 150 88 297 q29 48 90 130 q47 61 47 63 q1 1 -19 1 q-20 0 -102 0 q-152 -1 -157 -4 q-8 -4 -19 -67 q-4 -21 -8 -24 q-2 -2 -15 -2 Z" /><glyph glyph-name="eight" unicode="8" d="M69 496 q0 69 52 119.5 q52 50.5 126 50.5 q69 0 118 -35 q49 -35 63 -92 q1 -6 1 -24 q0 -43 -24 -81 q-25 -36 -85 -73 q12 -8 26 -17 q40 -26 57.5 -43 q17.5 -17 35.5 -51 q17 -39 17 -78 l0 -12 q0 -16 -5 -33 q-16 -64 -71 -106 q-55 -42 -134 -42 q-78 0 -132.5 41 q-54.5 41 -68.5 105 q-2 8 -2 30 q0 64 40 110 q33 39 84 67 l9 5 l-15 10 q-27 17 -40 30 q-52 52 -52 119 ZM249 626 q-46 0 -84 -25.5 q-38 -25.5 -38 -68.5 q0 -32 24 -58 q8 -9 77 -54 l56 -36 l10 7 q52 33 69 78 q8 17 8 44 q0 18 -2 26 q-10 38 -42.5 62.5 q-32.5 24.5 -77.5 24.5 ZM250 21 q60 0 101.5 35.5 q41.5 35.5 41.5 83.5 q0 39 -31 73 q-12 12 -85 59 q-14 9 -31.5 20 q-17.5 11 -25.5 16 l-8 5 q-5 0 -28 -18 q-57 -41 -73 -101 q-5 -22 -5 -37 q0 -57 43 -96.5 q43 -39.5 101 -39.5 Z" /><glyph glyph-name="nine" unicode="9" d="M119 -49 q23 0 37.5 -15.5 q14.5 -15.5 14.5 -36.5 q0 -23 -14 -37 q-13 -13 -23 -13 q-6 0 3 -6 q27 -16 69 -16 q67 0 111 65 q39 59 39 187 l0 7 l-6 -9 q-43 -68 -119 -68 q-16 0 -30 2 q-63 12 -109 70 q-50 60 -50 147 q0 60 22 105 q15 29 42 56.5 q27 27.5 54 41.5 q38 21 75 21 q1 0 8 0.5 q7 0.5 12 0.5 q5 0 12 -0.5 q7 -0.5 9 -0.5 q76 -10 120 -74.5 q44 -64.5 55 -158.5 q6 -40 6 -91 q0 -104 -36.5 -184.5 q-36.5 -80.5 -100.5 -123.5 q-57 -36 -114 -36 q-60 0 -99.5 29.5 q-39.5 29.5 -39.5 82.5 q0 25 15 40 q15 15 37 15 ZM303 397 q-20 15 -55 15 q-41 0 -69 -26 q-24 -26 -30 -58.5 q-6 -32.5 -6 -103.5 q0 -39 1 -51 q3 -59 19 -85 q27 -42 79 -42 q39 0 66 28 q47 47 47 149 q0 99 -18 133 q-11 25 -34 41 Z" /><glyph glyph-name="A" unicode="A" d="M251 0 q-17 0 -54 1 q-37 1 -56 1 q-71 0 -91 -2 l-8 0 q-6 6 -6.5 8.5 q-0.5 2.5 2.5 18.5 q4 13 6 16 l4 3 l14 0 q70 3 102 50 q6 6 181.5 305.5 q175.5 299.5 177.5 302.5 q5 9 9.5 10.5 q4.5 1.5 22.5 1.5 l17 0 q6 -9 6 -10 l28 -323 q28 -323 30 -326 q5 -11 65 -11 q21 0 24 -7 q1 -4 -2 -17 q-3 -15 -5.5 -18.5 q-2.5 -3.5 -13.5 -3.5 q-18 0 -59.5 1 q-41.5 1 -66.5 1 q-94 0 -123 -2 l-12 0 q-6 6 -6.5 8.5 q-0.5 2.5 2.5 18.5 q4 13 6 16 l4 3 l20 0 q54 2 64 17 l-12 150 l-238 0 l-34 -58 q-36 -60 -37 -65 q-4 -8 -4 -15 q0 -25 46 -29 q19 0 19 -10 q0 -5 -3 -14 q-3 -14 -6 -18 q-3 -4 -13 -4 ZM516 260 q-21 297 -26 302 l-27 -43 q-16 -27 -63 -107 l-90 -152 l103 -1 q103 0 103 1 Z" /><glyph glyph-name="B" unicode="B" d="M288 628 q0 1 -1 2.5 q-1 1.5 -3 2 q-2 0.5 -4 1.5 q-2 1 -6 1.5 q-4 0.5 -7 0.5 q-3 0 -8 0 q-5 0 -8.5 0.5 q-3.5 0.5 -9.5 0.5 q-6 0 -10 0 q-24 0 -29 1 q-5 1 -7 6 q-2 3 1 18 q5 18 9 20 q1 1 130 1 q259 0 273 -2 q69 -10 108 -48 q40 -38 40 -89 q0 -35 -19 -68 q-22 -40 -70.5 -72.5 q-48.5 -32.5 -101.5 -43.5 l-10 -3 q66 -9 106.5 -46 q40.5 -37 40.5 -92 q0 -72 -66 -135 q-77 -74 -183 -83 q-7 -1 -211 -1 q-200 0 -203 2 q-7 4 -2 22 q0 1 1 4 q5 16 11 17 q3 1 13 1 l6 0 q27 0 60 3 q14 3 19 12 q3 4 72 278 q69 274 69 289 ZM649 544 q0 34 -17.5 58 q-17.5 24 -46.5 32 q-7 2 -92 3 q-20 0 -42 -0.5 q-22 -0.5 -35 -0.5 l-13 0 q-14 -1 -18 -7 q-2 -3 -65 -255 l81 0 q81 0 93 2 q41 7 77.5 32.5 q36.5 25.5 56.5 61.5 q21 38 21 74 ZM595 229 q0 44 -23.5 73 q-23.5 29 -59.5 34 q-6 1 -83 1 q-118 0 -119 -1 q0 -2 -17.5 -73 q-17.5 -71 -34.5 -141 l-18 -70 q0 -4 12 -4.5 q12 -0.5 81 -1.5 q89 0 96 1 q65 7 115.5 58 q50.5 51 50.5 124 Z" /><glyph glyph-name="C" unicode="C" d="M651 481 q0 83 -36.5 130.5 q-36.5 47.5 -104.5 47.5 q-53 0 -115 -25 q-108 -46 -169 -155 q-55 -97 -69 -228 q-1 -8 -1 -29 q0 -89 45 -138.5 q45 -49.5 129 -58.5 q7 -1 20 -1 q38 0 83 17 q59 24 107 79 q48 55 66 120 q4 13 6.5 15 q2.5 2 15.5 2 q21 0 21 -8 q0 -2 -2 -10 q-24 -89 -96 -160 q-72 -71 -162 -92 q-35 -9 -70 -9 q-103 0 -173 58.5 q-70 58.5 -89 150.5 q-7 29 -7 65 q0 120 75 233 q45 69 111 122 q66 53 146 79 q59 18 108 18 q36 0 42 -1 q60 -10 101 -50 q2 -2 8 -10 q6 -8 10.5 -14 q4.5 -6 5.5 -6 q3 0 27 26 l41 41 l15 15 l6 0 q14 0 14 -7 q0 -8 -33 -139 q-33 -131 -35 -138 q-2 -5 -5 -6.5 q-3 -1.5 -18 -1.5 l-16 0 q-5 5 -5.5 6.5 q-0.5 1.5 1.5 17.5 q2 20 2 44 Z" /><glyph glyph-name="D" unicode="D" d="M287 628 q0 1 -1 2.5 q-1 1.5 -3 2 q-2 0.5 -4 1.5 q-2 1 -6 1.5 q-4 0.5 -7 0.5 q-3 0 -8 0 q-5 0 -8.5 0.5 q-3.5 0.5 -9.5 0.5 q-6 0 -10 0 q-34 0 -37 7 q-1 3 2 17 q5 19 9 21 q2 1 199 1 q167 -1 187 -1.5 q20 -0.5 40 -5.5 q79 -18 126 -83 q47 -65 47 -162 q0 -50 -12 -98 q-28 -113 -117 -205 q-101 -104 -230 -125 l-14 -2 l-194 -1 l-111 0 q-89 0 -90 5 l0 1 q-2 3 1 19 q4 16 7.5 18.5 q3.5 2.5 23.5 2.5 q27 0 60 3 q14 3 19 12 q3 4 72 278 q69 274 69 289 ZM703 469 q0 74 -39 117 q-39 43 -109 50 q-2 0 -14 0 q-12 0 -29.5 0.5 q-17.5 0.5 -32.5 0.5 q-15 0 -32.5 -0.5 q-17.5 -0.5 -29.5 -0.5 q-12 0 -13 0 q-13 -1 -18 -9 q-2 -4 -73 -288 q-71 -284 -71 -287 q0 -4 11.5 -4.5 q11.5 -0.5 76.5 -0.5 q81 0 91 1 q95 15 160 80 q36 36 59 84 q23 48 43 127 q20 79 20 130 Z" /><glyph glyph-name="E" unicode="E" d="M698 450 q0 10 3 40 q3 30 3 38 q0 44 -14.5 67 q-14.5 23 -51.5 32 q-33 7 -153 7 q-85 -1 -89 -2 q-7 -3 -10 -10 q-1 -3 -31.5 -123 q-30.5 -120 -30.5 -122 q23 -1 48 -1 l9 0 q65 0 93.5 8.5 q28.5 8.5 44.5 44.5 q6 11 15 43 q1 3 1.5 7.5 q0.5 4.5 1 6 q0.5 1.5 1.5 3.5 q1 2 3.5 2.5 q2.5 0.5 6 1 q3.5 0.5 9.5 0.5 q5 0 8 -0.5 q3 -0.5 5 -1.5 q2 -1 2.5 -1.5 q0.5 -0.5 2 -3 q1.5 -2.5 2.5 -3.5 l-33 -132 q-33 -133 -36 -135 q-3 -3 -16 -3 q-13 0 -16 3 q-6 3 -1 24 q7 26 7 45 q0 29 -20 37 q-18 8 -98 8 l-52 0 q-6 -21 -37.5 -148.5 q-31.5 -127.5 -31.5 -129.5 q0 -4 11.5 -4.5 q11.5 -0.5 79.5 -1.5 q94 0 124.5 2.5 q30.5 2.5 59.5 12.5 q49 16 81.5 56 q32.5 40 70.5 131 q10 22 13 24 q3 2 14.5 2 q11.5 0 14.5 -2 q6 -4 6 -11 q-105 -254 -110 -259 q-3 -2 -286 -2 q-216 0 -252 0.5 q-36 0.5 -37 4.5 l0 1 q-2 3 1 19 q4 16 8 18.5 q4 2.5 23 2.5 q27 0 60 3 q14 3 19 12 q2 5 71.5 281 q69.5 276 69.5 280 q0 7 -4 7 q-8 3 -53 5 l-31 0 q-6 6 -6.5 8.5 q-0.5 2.5 2.5 16.5 q4 18 10 21 l554 0 q7 -7 7 -11 q0 -5 -13 -112.5 q-13 -107.5 -14 -109.5 q-2 -7 -20 -7 l-12 0 q-7 6 -7 10 Z" /><glyph glyph-name="F" unicode="F" d="M185 2 q-28 0 -72.5 -0.5 q-44.5 -0.5 -64.5 -0.5 q-12 0 -15 5 q-2 3 1 19 q4 16 8 18.5 q4 2.5 23 2.5 q27 0 60 3 q14 3 19 12 q2 5 71.5 281 q69.5 276 69.5 280 q0 7 -4 7 q-8 3 -53 5 l-31 0 q-6 6 -6.5 8.5 q-0.5 2.5 2.5 16.5 q4 18 10 21 l539 0 q7 -7 7 -11 q0 -5 -13 -112.5 q-13 -107.5 -14 -109.5 q-2 -7 -20 -7 l-12 0 q-7 6 -7 10 q0 2 0.5 4.5 q0.5 2.5 1 7.5 q0.5 5 0.5 10 q4 29 4 58 q0 72 -46 91 q-21 9 -49 11 q-28 2 -114 2 q-80 -1 -84 -2 q-8 -3 -10 -9 q-1 -1 -34 -131 l-32 -129 l55 0 q60 1 66 2 q33 6 48 21 q21 18 35 72 q1 3 2 7 q1 4 1 5.5 q0 1.5 1 4 q1 2.5 2.5 3 q1.5 0.5 4 1.5 q2.5 1 5.5 1 q3 0 8 0 l12 0 q7 -5 7 -10 q0 -3 -31.5 -131 q-31.5 -128 -33.5 -132 q-2 -7 -20 -7 l-12 0 q-6 5 -7 8.5 q-1 3.5 3 17.5 q7 28 7 48 q0 30 -25 37 q-18 6 -84 6 l-55 0 l-32 -127 q-32 -124 -32 -130 q0 -6 6 -8 q12 -6 83 -6 l25 0 q6 -6 6.5 -8.5 q0.5 -2.5 -2.5 -18.5 q-4 -13 -10 -19 l-17 0 q-41 2 -151 2 Z" /><glyph glyph-name="G" unicode="G" d="M322 -22 q-118 0 -195 74.5 q-77 74.5 -77 199.5 q0 120 75 233 q45 69 111 122 q66 53 146 79 q59 18 108 18 q36 0 42 -1 q60 -10 101 -50 q2 -2 8 -10 q6 -8 10.5 -14 q4.5 -6 5.5 -6 q3 0 27 26 l41 41 l15 15 l6 0 q14 0 14 -7 q0 -8 -33 -139 q-33 -131 -35 -138 q-2 -5 -5 -6.5 q-3 -1.5 -18 -1.5 l-16 0 q-5 5 -5.5 6.5 q-0.5 1.5 1.5 17.5 q2 20 2 44 q0 83 -36.5 130.5 q-36.5 47.5 -104.5 47.5 q-53 0 -115 -25 q-100 -42 -159.5 -139.5 q-59.5 -97.5 -77.5 -234.5 q-2 -18 -2 -39 q0 -57 20 -99 q47 -91 171 -98 l6 0 q54 0 99 23 q45 23 62 59 q3 8 15 55.5 q12 47.5 12 52.5 q0 8 -13.5 10 q-13.5 2 -59.5 3 l-37 0 q-6 6 -6.5 8 q-0.5 2 2.5 19 q4 13 10 19 l17 0 q40 -2 140 -2 q26 0 62 0.5 q36 0.5 51 0.5 q14 0 14 -8 q0 -3 -2 -15 q-1 -3 -2 -7.5 q-1 -4.5 -1.5 -6 q-0.5 -1.5 -2 -4 q-1.5 -2.5 -3.5 -3 q-2 -0.5 -6 -1 q-4 -0.5 -10 -0.5 l-9 0 q-39 0 -43 -14 q-1 -1 -27 -104 q-26 -103 -29 -106 q-5 -5 -11 -1 q-9 5 -24.5 22.5 q-15.5 17.5 -20.5 27.5 q0 1 -2 -0.5 q-2 -1.5 -6 -4.5 q-33 -31 -87 -50 q-54 -19 -113 -19 Z" /><glyph glyph-name="H" unicode="H" d="M285 628 q0 1 -1 2.5 q-1 1.5 -3 2 q-2 0.5 -4 1.5 q-2 1 -6 1.5 q-4 0.5 -7 0.5 q-3 0 -8 0 q-5 0 -8.5 0.5 q-3.5 0.5 -9.5 0.5 q-6 0 -10 0 q-24 0 -29 1 q-5 1 -7 6 q-2 3 1 18 q4 17 9 20 q2 1 17 1 q41 -2 136 -2 q24 0 66.5 0.5 q42.5 0.5 61.5 0.5 q13 0 15 -6 q2 -3 -1 -18 q-5 -17 -10 -20 l-5 0 q-5 0 -12.5 -0.5 q-7.5 -0.5 -14.5 -0.5 q-53 -1 -61 -7 q-4 -2 -7 -7 q-3 -5 -32.5 -123.5 q-29.5 -118.5 -30.5 -119.5 q0 -2 145 -2 l145 0 l1 3 q0 3 29.5 118 q29.5 115 29.5 128 q0 2 -1.5 4 q-1.5 2 -4.5 3 q-3 1 -6.5 1.5 q-3.5 0.5 -9.5 0.5 q-6 0 -10.5 0.5 q-4.5 0.5 -12 0.5 q-7.5 0 -12.5 0 q-36 0 -36 10 q0 21 6 30 q3 5 17 5 q18 0 61 -1 q43 -1 75 -1 q32 0 73.5 1 q41.5 1 57.5 1 q14 0 16 -6 q2 -3 -1 -18 q-5 -17 -10 -20 l-5 0 q-5 0 -12.5 -0.5 q-7.5 -0.5 -14.5 -0.5 q-4 0 -11 0 q-45 -1 -53 -9 q-2 -2 -4 -5 q-3 -5 -72.5 -283.5 q-69.5 -278.5 -69.5 -281.5 q0 -7 4 -7 q8 -3 54 -5 l31 0 q5 -7 5.5 -8.5 q0.5 -1.5 -2.5 -18.5 q-4 -13 -10 -19 l-15 0 q-37 2 -134 2 q-25 0 -67.5 -0.5 q-42.5 -0.5 -62.5 -0.5 q-17 0 -17 8 q0 1 1 6 q1 5 2 9 q0 1 1 4 q5 16 11 17 q3 1 13 1 l6 0 q27 0 60 3 q14 3 19 12 q3 5 36 136 q33 131 33 134 q0 1 -145 1 l-145 0 l-33 -135 q-34 -134 -34 -139 q0 -6 3 -7 q7 -3 55 -5 l31 0 q5 -7 5.5 -8.5 q0.5 -1.5 -2.5 -18.5 q-4 -13 -10 -19 l-15 0 q-37 2 -134 2 q-25 0 -67.5 -0.5 q-42.5 -0.5 -62.5 -0.5 q-17 0 -17 8 q0 1 1.5 6.5 q1.5 5.5 1.5 8.5 q0 1 1 4 q5 16 11 17 q3 1 13 1 l6 0 q27 0 60 3 q14 3 19 12 q3 4 72 278 q69 274 69 289 Z" /><glyph glyph-name="I" unicode="I" d="M179 2 q-25 0 -70.5 -0.5 q-45.5 -0.5 -65.5 -0.5 q-17 0 -17 8 q0 5 3 15 q1 2 2 6 q3 14 9 15 l14 1 l6 0 q61 0 76 7 q1 0 2 1 q5 2 11 23 q6 21 49 196 q12 45 18 71 q70 280 70 282 q-2 4 -2 5 q-10 6 -71 6 l-20 0 q-6 5 -7 8.5 q-1 3.5 3 16.5 q3 15 7 19 q3 2 17 2 q72 -2 146 -2 l55 0 q64 0 73 2 l10 0 q9 -9 4 -25 q-3 -15 -7 -19 q-3 -2 -23 -2 q-31 0 -64 -3 q-13 -3 -19 -10 q-3 -4 -39 -145 q-36 -141 -70 -281 l-34 -139 q0 -8 7 -9 q10 -3 55 -4 l32 0 q5 -7 5.5 -8.5 q0.5 -1.5 -2.5 -18.5 q-4 -13 -10 -19 l-16 0 q-37 2 -137 2 Z" /><glyph glyph-name="J" unicode="J" d="M447 625 q0 12 -93 12 l-25 0 q-6 5 -7 8.5 q-1 3.5 3 18.5 q4 13 10 19 l17 0 q41 -2 146 -2 q27 0 66 0.5 q39 0.5 55 0.5 q11 0 12 -5 q2 -3 -1 -19 q-4 -16 -7.5 -18.5 q-3.5 -2.5 -18.5 -2.5 l-9 0 q-44 0 -50 -14 q-2 -5 -62.5 -247.5 q-60.5 -242.5 -63.5 -248.5 q-21 -61 -83 -105 q-62 -44 -141 -44 q-61 0 -99.5 30.5 q-38.5 30.5 -38.5 79.5 q0 35 20.5 60.5 q20.5 25.5 54.5 25.5 q45 0 50 -44 q0 -29 -16.5 -49 q-16.5 -20 -42.5 -25 q-8 -2 -8 -3.5 q0 -1.5 7 -8.5 q26 -29 75 -29 q38 0 74.5 33.5 q36.5 33.5 52.5 81.5 q4 12 63.5 250 q59.5 238 59.5 245 Z" /><glyph glyph-name="K" unicode="K" d="M285 628 q0 1 -1 2.5 q-1 1.5 -3 2 q-2 0.5 -4 1.5 q-2 1 -6 1.5 q-4 0.5 -7 0.5 q-3 0 -8 0 q-5 0 -8.5 0.5 q-3.5 0.5 -9.5 0.5 q-6 0 -10 0 q-34 0 -37 7 q-1 3 2 17 q5 18 9 21 q2 1 17 1 q41 -2 136 -2 q24 0 66.5 0.5 q42.5 0.5 61.5 0.5 q17 0 17 -8 q0 -5 -3 -14 q-5 -20 -9 -21 q-4 -2 -32 -2 q-54 -1 -62 -7 q-4 -2 -7 -7 l-81 -318 q1 0 184.5 144 q183.5 144 187.5 148 q14 14 14 23 q0 15 -25 17 q-16 0 -16 11 q0 2 3.5 14.5 q3.5 12.5 4.5 14.5 q3 5 17 5 q16 0 53.5 -1 q37.5 -1 61.5 -1 q54 0 74 2 q15 1 19 -0.5 q4 -1.5 4 -8.5 q0 -24 -7 -31 q-3 -5 -19 -5 q-75 -5 -136 -51 q-2 -1 -5 -3 q-3 -2 -5 -3 l-2 -2 q-2 -1 -103 -80 q-101 -79 -102 -80 l9 -22 q9 -22 28 -67 q19 -45 35 -85 q75 -177 80 -183 q2 -2 5 -4 q14 -10 51 -11 l21 0 q5 -7 5.5 -8.5 q0.5 -1.5 -2.5 -18.5 q-4 -13 -10 -19 l-11 0 q-40 3 -95 3 q-119 0 -137 -3 l-10 0 q-6 6 -6.5 8.5 q-0.5 2.5 2.5 18.5 q3 12 7 16 q3 3 13 3 q50 0 50 25 q0 7 -117 283 l-68 -53 l-68 -53 l-23 -93 q-23 -92 -23 -97 q0 -6 3 -7 q7 -3 55 -5 l31 0 q6 -9 6 -11 q0 -16 -7 -30 q-5 -5 -16 -5 q-17 0 -60.5 1 q-43.5 1 -76.5 1 q-32 0 -73.5 -0.5 q-41.5 -0.5 -57.5 -0.5 q-13 0 -16 5 q-2 3 1 19 q4 16 8 18.5 q4 2.5 23 2.5 q27 0 60 3 q14 3 19 12 q3 4 72 278 q69 274 69 289 Z" /><glyph glyph-name="L" unicode="L" d="M285 628 q0 1 -1 2.5 q-1 1.5 -3 2 q-2 0.5 -4 1.5 q-2 1 -6 1.5 q-4 0.5 -7 0.5 q-3 0 -8 0 q-5 0 -8.5 0.5 q-3.5 0.5 -9.5 0.5 q-6 0 -10 0 q-24 0 -29 1 q-5 1 -7 6 q-2 3 1 18 q5 19 9 20 q3 1 15 1 q54 -3 127 -3 q14 0 40 0.5 q26 0.5 38 0.5 q15 0 36.5 0.5 q21.5 0.5 33 1 q11.5 0.5 14.5 0.5 l12 0 q6 -6 6.5 -8.5 q0.5 -2.5 -2.5 -18.5 q-4 -14 -9 -19 l-38 0 q-69 -1 -81 -9 q-7 -4 -14 -28.5 q-7 -24.5 -67 -263.5 q-16 -65 -34 -138.5 q-18 -73.5 -27 -109.5 l-9 -36 q0 -4 9 -4.5 q9 -0.5 59 -1.5 q75 0 106.5 5 q31.5 5 69.5 27 q40 23 64.5 61.5 q24.5 38.5 48.5 102.5 q7 20 11 28 q5 3 17 3 l13 0 q6 -9 6 -11 q0 -2 -20.5 -59 q-20.5 -57 -43.5 -120.5 q-23 -63.5 -26 -73.5 q-3 -6 -5 -7 q-3 -2 -258 -2 q-255 0 -258 2 q-7 4 -2 22 q0 1 1 4 q5 16 11 17 q3 1 13 1 l6 0 q27 0 60 3 q14 3 19 12 q3 4 72 278 q69 274 69 289 Z" /><glyph glyph-name="M" unicode="M" d="M267 0 q-14 0 -48.5 1 q-34.5 1 -61.5 1 q-72 0 -89 -1 q-24 -1 -27 1 q-6 2 -6 9 q0 2 3.5 14.5 q3.5 12.5 4.5 14.5 q2 6 22 6 q72 4 89 40 q4 6 69.5 268.5 q65.5 262.5 65.5 274.5 q0 4 -3 4 q-1 0 -2 0 q-10 3 -52 4 q-25 0 -30 1.5 q-5 1.5 -7 6.5 q-1 4 1 14 q6 20 9 22 q3 2 102 2 q79 0 91.5 -0.5 q12.5 -0.5 15.5 -4.5 q1 -4 37 -281.5 q36 -277.5 36 -279.5 q0 -1 12 17.5 q12 18.5 32.5 51 q20.5 32.5 47 74 q26.5 41.5 55.5 88 q29 46.5 58 93 q29 46.5 55.5 88.5 q26.5 42 47 74.5 q20.5 32.5 32.5 52.5 l12 19 q1 1 3.5 3 q2.5 2 3.5 3 l6 2 l96 0 q96 0 99 -2 q4 -3 4 -9 q0 -5 -3 -15.5 q-3 -10.5 -3 -13.5 q-4 -6 -37 -6 q-54 -1 -62 -7 q-4 -2 -7 -7 q-3 -5 -72.5 -283 q-69.5 -278 -69.5 -281 q0 -7 3 -8 q7 -3 55 -5 l31 0 q6 -9 6 -11 q0 -16 -7 -30 q-5 -5 -16 -5 q-17 0 -59 1 q-42 1 -74 1 q-31 0 -71.5 -0.5 q-40.5 -0.5 -55.5 -0.5 q-13 0 -16 5 q-2 3 1 19 q4 16 8 18.5 q4 2.5 23 2.5 q27 0 60 3 q14 3 19 12 q2 4 38 146.5 q36 142.5 71 282.5 q35 140 35 141 q-88 -139 -194 -309 l-197 -313 q-9 -9 -24 -9 q-15 0 -18 7 q-3 5 -38.5 286 q-35.5 281 -41.5 331 q-135 -540 -135 -545 q6 -33 72 -33 l10 0 q6 -5 7 -9 q1 -4 -3 -18 q-4 -16 -8 -18 q-4 -1 -11 -1 Z" /><glyph glyph-name="N" unicode="N" d="M151 2 q-20 0 -54.5 -0.5 q-34.5 -0.5 -50.5 -0.5 q-15 0 -15 8 q0 2 1.5 7 q1.5 5 1.5 8 q1 4 2.5 9.5 q1.5 5.5 2 6.5 q0.5 1 3.5 3.5 q3 2.5 7 2.5 q4 0 13 0 q68 3 88 39 q5 9 139 549 q-2 1 -55 3 q-29 0 -35 1 q-6 1 -7 6 q-2 3 1 18 q5 18 9 20 q2 1 97 1 q77 0 88.5 -0.5 q11.5 -0.5 13.5 -5.5 q3 -6 107 -252.5 q104 -246.5 107 -252.5 l1 -4 l54 213 q53 211 53 225 q0 26 -64 31 q-21 0 -23 7 q-2 3 1 16 q1 3 2 7 q1 4 1 6 q0 2 1 4 q1 2 2 3 q1 1 2 2 q1 1 3 1 q2 0 5 0 q14 0 50.5 -1.5 q36.5 -1.5 63.5 -1.5 q26 0 59.5 1 q33.5 1 46.5 1 q14 0 14 -9 q0 -24 -7 -31 q-2 -5 -22 -5 q-71 -3 -89 -40 l-149 -590 q-2 -7 -21 -7 q-14 0 -17 2 l-256 602 q-16 -59 -73 -288 q-57 -229 -57 -237 q6 -33 72 -33 l10 0 q6 -5 7 -8.5 q1 -3.5 -3 -18.5 q-4 -13 -10 -19 l-13 0 q-31 2 -108 2 Z" /><glyph glyph-name="O" unicode="O" d="M459 704 l17 0 q38 0 48 -1 q98 -14 157 -86 q59 -72 59 -182 q0 -135 -87 -256 q-57 -82 -138 -133 q-105 -68 -211 -68 q-107 0 -178 68 q-76 74 -76 198 q0 35 1 45 q18 137 116 252 q28 32 60 60 q111 92 232 103 ZM637 476 q0 76 -34.5 125 q-34.5 49 -95.5 61 q-14 3 -31 3 q-21 0 -37 -4 q-62 -11 -117 -56 q-23 -18 -55 -55 q-46 -59 -78 -151.5 q-32 -92.5 -32 -182.5 q0 -72 28.5 -122 q28.5 -50 79.5 -67 q26 -8 49 -8 q61 0 120 38 q119 78 174 256 q29 95 29 163 Z" /><glyph glyph-name="P" unicode="P" d="M287 628 q0 1 -1 2.5 q-1 1.5 -3 2 q-2 0.5 -4 1.5 q-2 1 -6 1.5 q-4 0.5 -7 0.5 q-3 0 -8 0 q-5 0 -8.5 0.5 q-3.5 0.5 -9.5 0.5 q-6 0 -10 0 q-25 0 -30 1.5 q-5 1.5 -7 6.5 q-1 4 1 14 q6 20 9 22 q3 2 194 2 q190 -1 203 -3 q59 -10 98.5 -41.5 q39.5 -31.5 51.5 -82.5 q1 -6 1 -26 q0 -25 -2 -33 q-12 -57 -64 -108 q-69 -68 -178 -86 q-7 -1 -105 -2 l-95 0 l-30 -119 q-30 -116 -30 -123 q0 -7 3 -8 q7 -3 55 -5 l31 0 q6 -9 6 -11 q0 -16 -7 -30 q-5 -5 -16 -5 q-17 0 -60.5 1 q-43.5 1 -76.5 1 q-32 0 -73.5 -0.5 q-41.5 -0.5 -57.5 -0.5 q-13 0 -16 5 q-2 3 1 19 q4 16 7.5 18.5 q3.5 2.5 23.5 2.5 q27 0 60 3 q14 3 19 12 q3 4 72 278 q69 274 69 289 ZM645 554 q0 38 -22 55.5 q-22 17.5 -63 25.5 q-7 1 -80 2 q-17 0 -35 -0.5 q-18 -0.5 -29 -0.5 q-11 0 -12 0 q-13 -1 -18 -9 q-2 -6 -19.5 -77 q-17.5 -71 -34.5 -138 q-17 -67 -18 -68 q0 -2 81 -2 q84 1 92 2 q67 10 103 48 q27 27 45 97 q10 41 10 65 Z" /><glyph glyph-name="Q" unicode="Q" d="M399 -80 q0 11 1.5 36.5 q1.5 25.5 1.5 32.5 l0 4 l-15 -4 q-46 -11 -84 -11 q-106 0 -177 68 q-76 74 -76 198 q0 35 1 45 q18 137 116 252 q28 32 60 60 q111 92 232 103 l17 0 q38 0 48 -1 q98 -14 157 -86 q59 -72 59 -182 q0 -134 -83 -250.5 q-83 -116.5 -196 -168.5 l-17 -8 l0 -5 q0 -1 1 -3.5 q1 -2.5 1.5 -6 q0.5 -3.5 1.5 -6.5 q9 -39 23 -54 q14 -15 45 -15 q38 0 69 23.5 q31 23.5 40 55.5 q6 14 13 14 q9 0 11 -9 q0 -6 -7 -29 q-41 -121 -111 -156 q-25 -11 -50 -11 q-46 0 -64 29.5 q-18 29.5 -18 84.5 ZM347 155 q36 0 59.5 -26 q23.5 -26 28.5 -74 l13 9 q77 53 124.5 147 q47.5 94 62.5 214 q1 10 1 43 q0 117 -68 167 q-39 30 -91 30 q-48 0 -98 -25 q-90 -44 -150 -148.5 q-60 -104.5 -75 -234.5 q-1 -11 -1 -41 q0 -104 54 -157 q24 -21 29 -21 l0 8 q0 45 35.5 77 q35.5 32 75.5 32 ZM314 18 q46 0 90 21 l-1 10 q-2 35 -15 51.5 q-13 16.5 -41 16.5 l-5 0 q-28 0 -48 -19.5 q-20 -19.5 -20 -45.5 q0 -34 40 -34 Z" /><glyph glyph-name="R" unicode="R" d="M287 628 q0 1 -1 2.5 q-1 1.5 -3 2 q-2 0.5 -4 1.5 q-2 1 -6 1.5 q-4 0.5 -7 0.5 q-3 0 -8 0 q-5 0 -8.5 0.5 q-3.5 0.5 -9.5 0.5 q-6 0 -10 0 q-24 0 -29 1 q-5 1 -7 6 q-2 3 1 18 q5 18 9 20 q2 1 174 1 q172 -1 186 -3 q91 -13 138 -62 q37 -40 37 -89 q0 -10 -4 -30 q-23 -89 -147 -144 q-44 -17 -50 -17 l7 -5 q67 -38 67 -110 q0 -12 -5 -64 q-5 -48 -5 -79 q0 -35 7 -49.5 q7 -14.5 31 -14.5 q14 0 18 2 q38 15 54 67 q5 14 8 17 q3 3 15 3 q20 0 20 -12 q0 -18 -24 -57 q-30 -44 -70 -55 q-8 -2 -29 -2 q-104 0 -135 63 q-9 16 -10 40 q0 11 0.5 17.5 q0.5 6.5 1.5 14.5 q1 8 2 12 q1 4 5 17 q4 13 6 23 q15 57 15 73 q0 50 -43 74 q-15 7 -25 8 q-10 1 -71 2 l-69 0 l-32 -130 q-33 -132 -33 -134 q0 -7 3 -8 q7 -3 55 -5 l31 0 q5 -7 5.5 -8.5 q0.5 -1.5 -2.5 -18.5 q-4 -13 -10 -19 l-15 0 q-36 2 -131 2 q-24 0 -67 -0.5 q-43 -0.5 -63 -0.5 q-17 0 -17 8 q0 1 1.5 6 q1.5 5 1.5 9 q0 1 1 4 q5 16 11 17 q3 1 13 1 l6 0 q27 0 60 3 q14 3 19 12 q3 4 72 278 q69 274 69 289 ZM614 602 q-21 22 -55 28.5 q-34 6.5 -97 6.5 q-12 0 -25 -0.5 q-13 -0.5 -22.5 -0.5 q-9.5 0 -10.5 0 q-13 -1 -18 -9 q-1 -3 -34 -133.5 q-33 -130.5 -33 -132.5 q0 -1 69 -1 q78 1 104 7 q65 11 100 59 q16 23 27 60.5 q11 37.5 11 67.5 q0 31 -16 48 Z" /><glyph glyph-name="S" unicode="S" d="M553 520 q0 68 -34.5 105 q-34.5 37 -99.5 37 q-55 0 -105.5 -45 q-50.5 -45 -50.5 -107 q0 -31 15.5 -53 q15.5 -22 40.5 -30 q3 -2 69.5 -19.5 q66.5 -17.5 67.5 -17.5 q15 -4 38 -20 q60 -43 60 -128 q0 -57 -28 -111 q-62 -123 -194 -151 q-12 -2 -34 -2 q-99 0 -154 55 l-10 11 l-28 -31 q-28 -31 -31 -33 q-3 -2 -10 -2 q-13 0 -13 8 q0 3 58 235 q2 6 20 6 l13 0 q5 -5 5.5 -6.5 q0.5 -1.5 -1.5 -16.5 q-5 -25 -5 -51 q4 -65 47.5 -97 q43.5 -32 118.5 -32 q10 0 24 2 q47 11 84.5 50 q37.5 39 47.5 90 q2 8 2 31 q0 64 -52 87 q-6 1 -72 18.5 q-66 17.5 -69 19.5 q-44 13 -70.5 50.5 q-26.5 37.5 -26.5 89.5 q0 50 28.5 103.5 q28.5 53.5 68.5 82.5 q51 44 123 55 q4 1 11 1 l11 0 q104 0 146 -64 l59 64 q22 6 22 -6 q0 -7 -28.5 -121.5 q-28.5 -114.5 -31.5 -117.5 q-3 -3 -16 -3 q-20 0 -20 9 q0 6 1 10 q0 5 1.5 21.5 q1.5 16.5 1.5 23.5 Z" /><glyph glyph-name="T" unicode="T" d="M415 0 q-27 0 -89.5 1 q-62.5 1 -97.5 1 q-129 0 -164 -2 l-15 0 q-6 6 -6.5 8.5 q-0.5 2.5 2.5 18.5 q4 13 10 19 l28 0 q60 0 81 3 q17 1 25 6 q1 1 2 1 q5 3 10 20.5 q5 17.5 40 156.5 q17 68 28 111 q70 275 70 281 q0 5 -29 5 l-31 0 q-67 0 -88 -6 q-43 -9 -65 -35 q-27 -30 -59 -122 q-7 -22 -10 -26 q-3 -4 -14 -4 l-3 0 q-13 0 -16 3 q-3 3 -3 5 q0 6 30 96 q22 69 37 110 q6 19 13 26 l468 0 q133 -2 134 -6 l1 -1 q0 -2 0 -3 q0 -6 -17.5 -114 q-17.5 -108 -18.5 -109 q0 -3 -4 -5 q-2 -2 -15 -2 q-6 0 -9.5 0.5 q-3.5 0.5 -4.5 1 q-1 0.5 -3 3 q-2 2.5 -3 3.5 q0 7 3 27 q9 54 9 79 q0 23 -6 38 q-6 15 -13.5 23 q-7.5 8 -27 12 q-19.5 4 -33.5 5 q-14 1 -46 2 q-46 0 -58.5 -1.5 q-12.5 -1.5 -17.5 -7.5 q-1 -1 -71 -279.5 q-70 -278.5 -70 -282.5 q0 -7 13 -9 q14 -4 75 -5 q34 0 40.5 -1 q6.5 -1 8.5 -6 q1 -3 -2 -17 q-1 -3 -1.5 -6.5 q-0.5 -3.5 -1 -5 q-0.5 -1.5 -1.5 -4 q-1 -2.5 -1.5 -3 q-0.5 -0.5 -1.5 -1.5 q-1 -1 -2.5 -1.5 q-1.5 -0.5 -3.5 -0.5 q-2 0 -5 0 Z" /><glyph glyph-name="U" unicode="U" d="M152 140 q0 -55 30.5 -85.5 q30.5 -30.5 86.5 -30.5 q82 0 144.5 53 q62.5 53 87.5 128 q98 391 98 401 q0 26 -64 31 q-21 0 -23 7 q-2 3 1 16 q1 3 2 7 q1 4 1 6 q0 2 1 4 q1 2 2 3 q1 1 2 2 q1 1 3 1 q2 0 5 0 q15 0 52 -1.5 q37 -1.5 64 -1.5 q26 0 60 1 q34 1 47 1 q14 0 14 -9 q0 -24 -7 -31 q-3 -5 -22 -5 q-71 -3 -89 -40 q-3 -8 -25.5 -96.5 q-22.5 -88.5 -46.5 -184.5 q-24 -96 -28 -111 q-30 -89 -109 -158 q-79 -69 -176 -69 q-81 0 -136 46 q-55 46 -66 120 q-1 6 -1 23 q0 23 2 41 q2 9 27.5 111.5 q25.5 102.5 50 201.5 q24.5 99 24.5 107 q0 7 -57 9 q-24 0 -29 1 q-5 1 -7 6 q-2 3 1 18 q4 17 9 20 q2 1 17 1 q41 -2 136 -2 q24 0 66.5 0.5 q42.5 0.5 61.5 0.5 q13 0 15 -6 q2 -3 -1 -18 q-5 -17 -10 -20 l-5 0 q-5 0 -12.5 -0.5 q-7.5 -0.5 -14.5 -0.5 q-53 -1 -61 -7 q-4 -2 -7 -7 q-1 -2 -28 -105.5 q-27 -103.5 -54.5 -216 q-27.5 -112.5 -29.5 -132.5 q-2 -14 -2 -29 Z" /><glyph glyph-name="V" unicode="V" d="M558 683 q17 0 54.5 -1 q37.5 -1 55.5 -1 q69 0 87 2 l7 0 q6 -6 6.5 -8.5 q0.5 -2.5 -2.5 -18.5 q-1 -3 -2 -7 q-1 -4 -1.5 -5.5 q-0.5 -1.5 -1.5 -3.5 q-1 -2 -3.5 -2 q-2.5 0 -5.5 -0.5 q-3 -0.5 -9 -0.5 q-54 -3 -86 -32 q-2 -2 -6.5 -7 q-4.5 -5 -5.5 -6 q-3 -6 -7 -10 q-368 -597 -374 -600 l-5 -3 l-18 -1 q-18 0 -21 2 q-4 2 -4 5 q-3 5 -39.5 321 q-36.5 316 -38.5 320 q-6 11 -51 11 l-11 0 l-17 0 q-6 5 -7 8.5 q-1 3.5 3 18.5 q4 13 10 19 l11 0 q42 -3 105 -3 q118 0 139 3 l10 0 q6 -6 6.5 -8.5 q0.5 -2.5 -2.5 -18.5 q-4 -14 -9 -19 l-21 0 q-22 -2 -30 -2 q-29 -5 -32 -15 q0 -2 29 -251.5 q29 -249.5 30 -250.5 l73 117 q73 117 146 236 q73 119 75 123 q5 10 5 15 q0 23 -45 28 q-19 0 -19 10 q0 5 3 14 q3 14 6 18 q3 4 13 4 Z" /><glyph glyph-name="W" unicode="W" d="M839 682 q18 0 55.5 -0.5 q37.5 -0.5 54.5 -0.5 q66 0 85 2 q7 0 10 -3 q6 -4 1 -24 q-3 -13 -5.5 -16 q-2.5 -3 -11.5 -3 q-63 0 -97 -47 q-26 -44 -113 -197 q-87 -153 -159 -280 q-72 -127 -74 -128 q-6 -7 -24 -7 q-15 0 -19 5 q-3 3 -19.5 246.5 q-16.5 243.5 -16.5 250.5 l-12 -18 q-22 -37 -128 -223 q-31 -55 -68.5 -121 q-37.5 -66 -55.5 -97.5 q-18 -31.5 -19 -32.5 q-6 -10 -26 -10 q-19 0 -21 7 q0 3 -22 319.5 q-22 316.5 -23 317.5 q-2 9 -10 11.5 q-8 2.5 -39 3.5 l-24 0 q-6 6 -6.5 8.5 q-0.5 2.5 2.5 18.5 q4 13 10 19 l12 0 q42 -3 100 -3 q10 0 32 0.5 q22 0.5 33 0.5 q13 0 31.5 0.5 q18.5 0.5 28.5 1 q10 0.5 12 0.5 l10 0 q6 -6 6.5 -8.5 q0.5 -2.5 -2.5 -18.5 q-4 -14 -9 -19 l-21 0 q-29 -1 -48 -6 q-15 -6 -17 -11 q0 -7 16.5 -242 q16.5 -235 17.5 -242 q156 276 235 414 l-2 37 q-3 42 -10 45 q-6 4 -42 5 q-28 0 -30 7 q-2 3 1 16 q5 20 9 22 q3 1 31 0 q34 -2 95 -2 q29 0 68.5 1 q39.5 1 55.5 1 q17 0 17 -7 q0 -4 -3 -17.5 q-3 -13.5 -4 -14.5 q-2 -6 -26 -6 q-52 -2 -62 -15 q-3 -3 -2 -7 q0 -12 16 -238.5 q16 -226.5 16 -238.5 l2 3 q2 3 6.5 10.5 q4.5 7.5 11.5 19 q7 11.5 17.5 29.5 q10.5 18 23.5 41 q13 23 30.5 54 q17.5 31 38.5 67 q129 227 131 233 q2 6 2 9 q0 16 -19.5 24.5 q-19.5 8.5 -41.5 8.5 q-14 0 -14 10 q0 3 2 13 q1 3 1.5 7 q0.5 4 1 6 q0.5 2 1.5 4 q1 2 3 3 q2 1 5 1.5 q3 0.5 8 0.5 Z" /><glyph glyph-name="X" unicode="X" d="M261 1 q-19 0 -59 0.5 q-40 0.5 -60 0.5 q-78 0 -100 -2 q-9 0 -12 3 q-6 4 -1 24 q4 14 7 16 q3 2 19 3 q86 3 135 52 q10 10 116 126.5 q106 116.5 105 117.5 q-109 278 -114 283 q-9 11 -63 12 l-28 0 q-6 6 -6.5 8.5 q-0.5 2.5 2.5 18.5 q4 13 10 19 l14 0 q34 -2 121 -2 q22 0 64 0.5 q42 0.5 62 0.5 q10 0 13 -1.5 q3 -1.5 3 -7.5 q0 -24 -7 -31 q-2 -5 -17 -5 q-38 -4 -52 -16 l-2 -1 q45 -110 77 -194 l53 59 q47 51 74 82 q31 33 31 44 q0 17 -24 24 q-5 0 -13 2 q-9 0 -13 4 q-4 4 0 23 q4 13 10 19 l12 0 q22 -3 120 -3 q87 0 99 3 l8 0 q6 -6 6.5 -8.5 q0.5 -2.5 -2.5 -18.5 q-4 -14 -9 -19 l-16 0 q-77 -3 -126 -43 q-9 -9 -11 -10 q-2 -3 -5 -5 q-4 -4 -90 -99 l-87 -96 q0 -1 31.5 -80.5 q31.5 -79.5 64.5 -161.5 q33 -82 37 -86 q10 -9 61 -10 q35 0 35 -8 q0 -11 -7 -32 q-3 -5 -16 -5 q-15 0 -53 0.5 q-38 0.5 -69 0.5 q-30 0 -71 -0.5 q-41 -0.5 -57 -0.5 q-13 0 -16 5 q-2 3 1 19 q4 15 7 17.5 q3 2.5 15 3.5 q18 1 38 8 q17 8 17 10 l-94 235 q-1 0 -94.5 -103.5 q-93.5 -103.5 -94.5 -105.5 q-8 -8 -8 -18 q0 -19 29 -25 q1 0 6 -0.5 q5 -0.5 6 -0.5 q12 0 12 -10 q0 -7 -3 -17 q-3 -13 -6 -15.5 q-3 -2.5 -15 -2.5 Z" /><glyph glyph-name="Y" unicode="Y" d="M295 57 q0 -11 68 -11 q17 0 21.5 -1.5 q4.5 -1.5 4.5 -8.5 q0 -21 -6 -30 q-3 -5 -17 -5 q-18 0 -60 0.5 q-42 0.5 -74 0.5 q-32 0 -73 -0.5 q-41 -0.5 -57 -0.5 q-17 0 -17 7 q0 4 3 17.5 q3 13.5 4 14.5 q2 6 37 6 q39 1 51.5 4 q12.5 3 17.5 13 q3 5 29 108 l25 103 q-41 117 -123 349 q-9 9 -18.5 11 q-9.5 2 -44.5 3 q-32 0 -35 7 q-1 3 2 17 q4 18 9 21 q2 1 14 1 q48 -3 109 -3 q122 0 141 3 l10 0 q6 -6 6.5 -8.5 q0.5 -2.5 -2.5 -18.5 q-4 -13 -10 -19 l-12 0 q-56 0 -56 -13 q0 -5 50 -147.5 q50 -142.5 51 -143.5 l3 3 q4 4 12 13.5 q8 9.5 21 24 q13 14.5 32 37 q19 22.5 43 50.5 q107 125 114 135 q9 13 9 22 q0 16 -32 19 q-17 0 -17 10 q0 2 2 14 q3 15 5.5 18.5 q2.5 3.5 13.5 3.5 q14 0 49 -1.5 q35 -1.5 59 -1.5 q51 0 77 2 q17 1 22.5 0 q5.5 -1 5.5 -7 q0 -4 -3 -17.5 q-3 -13.5 -4 -14.5 q-2 -6 -21 -6 q-72 -5 -117 -50 q-9 -9 -140 -163 l-129 -151 l-26 -104 q-27 -107 -27 -112 Z" /><glyph glyph-name="Z" unicode="Z" d="M607 282 q21 0 21 -11 q0 -4 -41 -135 q-41 -131 -46 -134 q-3 -2 -241 -2 q-237 0 -239 2 q-4 3 -1 18 q1 3 1.5 6.5 q0.5 3.5 1.5 5.5 q1 2 1 3 q0 1 265 299.5 q265 298.5 267 300.5 l-11 2 q-10 0 -73 0 q-90 -1 -98 -2 q-76 -10 -119 -51 q-43 -41 -67 -115 q-1 -3 -2 -6 q-1 -3 -2 -5.5 q-1 -2.5 -1.5 -4.5 q-0.5 -2 -0.5 -3 l-1 -2 q-3 -5 -19 -5 q-17 0 -20 10 l32 108 q8 26 16.5 54 q8.5 28 13 43 q4.5 15 4.5 16 q3 6 5 7 q3 2 234 2 l231 0 q5 -5 5 -8 q0 -2 -6 -26 q-528 -595 -529 -597 l-3 -3 l89 0 q95 1 103 2 q73 9 115.5 43 q42.5 34 70.5 107 q7 16 16 46 q8 25 11.5 30 q3.5 5 12.5 5 l4 0 Z" /><glyph glyph-name="a" unicode="a" d="M449 394 q0 -13 -37.5 -160.5 q-37.5 -147.5 -37.5 -165.5 q0 -42 28 -42 q9 1 20 9 q21 20 41 96 q6 20 10 21 q2 1 10 1 l4 0 q19 0 19 -8 q0 -4 -3 -16 q-22 -84 -54 -116 q-23 -23 -56 -23 q-63 0 -88 49 q-5 13 -5 12 q-1 1 -4 -1 q-2 -2 -4 -4 q-48 -45 -95 -55 q-6 -1 -25 -1 q-66 0 -109 55 q-30 44 -30 112 q0 16 1 22 q7 64 41.5 122.5 q34.5 58.5 82.5 94.5 q58 45 122 45 q50 0 90 -49 q16 30 46 30 q13 0 23 -8 q10 -8 10 -20 ZM118 106 q0 -36 15.5 -58 q15.5 -22 45.5 -22 q29 0 62 24 q12 8 32.5 30 q20.5 22 24.5 30 q2 4 27.5 107 q25.5 103 25.5 111 q0 12 -11 34 q-22 43 -63 43 q-40 0 -70.5 -34 q-30.5 -34 -46.5 -78 q-29 -79 -41 -164 q0 -3 -0.5 -11 q-0.5 -8 -0.5 -12 Z" /><glyph glyph-name="b" unicode="b" d="M89 683 q1 0 72.5 5.5 q71.5 5.5 72.5 5.5 q12 0 12 -9 q0 -8 -35 -146.5 q-35 -138.5 -35 -139.5 q0 -3 6 3 q34 28 76 38 q12 2 25 2 q13 0 25 -2 q52 -12 83 -54 q31 -42 31 -106 q0 -112 -78.5 -201.5 q-78.5 -89.5 -170.5 -89.5 q-29 0 -55 13 q-78 35 -78 148 q0 29 6 57 q0 1 50 205 l51 204 q2 14 -6.5 17.5 q-8.5 3.5 -28.5 3.5 q-7 0 -11 0 q-21 0 -24 3 q-6 5 -1 24 q4 14 7 16 q3 3 6 3 ZM336 325 q0 80 -61 80 q-2 0 -6.5 -0.5 q-4.5 -0.5 -5.5 -0.5 q-52 -11 -98 -72 q-2 -2 -5 -6 l-3 -4 q0 -1 -17.5 -71.5 q-17.5 -70.5 -19.5 -80.5 q-6 -31 -6 -56 q0 -48 24 -72 q16 -16 40 -16 q33 0 67 32 q25 23 40.5 56.5 q15.5 33.5 32.5 104.5 q18 72 18 106 Z" /><glyph glyph-name="c" unicode="c" d="M427 355 q0 -31 -19 -50.5 q-19 -19.5 -48 -19.5 q-19 0 -30 10.5 q-11 10.5 -11 29.5 q0 17 10 33 q10 16 26 23 q8 5 11 5 q4 0 -7 7 q-19 11 -53 11 q-55 0 -100 -45 q-26 -26 -42 -62 q-16 -36 -32 -103 q-11 -47 -11 -75 q0 -72 63 -91 q8 -2 25 -2 q15 0 31 2 q94 14 154 83 q9 10 12 10 q4 0 13 -9 q12 -12 9 -17 q-4 -11 -30 -34 q-62 -56 -157 -70 q-22 -2 -39 -2 q-107 0 -149 88 q-19 37 -19 82 q0 46 19 94 q29 75 94.5 127.5 q65.5 52.5 139.5 60.5 q6 1 19 1 q35 0 65 -11 q56 -24 56 -76 Z" /><glyph glyph-name="d" unicode="d" d="M366 683 q1 0 72.5 5.5 q71.5 5.5 72.5 5.5 q12 0 12 -8 q0 -7 -73.5 -302.5 q-73.5 -295.5 -74.5 -300.5 q-1 -5 -1 -15 q0 -42 28 -42 q9 1 20 9 q21 20 41 96 q6 20 10 21 q2 1 10 1 l4 0 q19 0 19 -8 q0 -4 -3 -16 q-22 -84 -54 -116 q-23 -23 -56 -23 q-63 0 -88 49 q-5 13 -5 12 q-1 1 -4 -1 q-2 -2 -4 -4 q-48 -45 -95 -55 q-6 -1 -25 -1 q-66 0 -109 55 q-30 44 -30 112 q0 93 68 184 q62 76 138 95 q21 6 41 6 q55 0 84 -42 q5 -6 5 -4 q1 4 27.5 109.5 q26.5 105.5 27.5 110.5 q0 12 -6 16 q-11 4 -40 5 l-21 0 q-6 6 -6.5 8 q-0.5 2 2.5 19 q5 19 13 19 ZM352 326 q-22 79 -75 79 q-40 0 -70.5 -34 q-30.5 -34 -46.5 -78 q-29 -79 -41 -164 q0 -3 -0.5 -11 q-0.5 -8 -0.5 -12 q0 -36 15.5 -58 q15.5 -22 45.5 -22 q53 0 111 72 l8 11 q9 36 27 108.5 q18 72.5 27 108.5 Z" /><glyph glyph-name="e" unicode="e" d="M205 -11 q-76 0 -121 50 q-45 50 -45 129 q0 38 8 75 q21 78 86.5 133 q65.5 55 157.5 65 q1 1 16 1 l3 0 q42 0 71.5 -18.5 q29.5 -18.5 38.5 -50.5 q1 -4 1 -18 q0 -18 -2 -25 q-21 -71 -109 -93 q-49 -13 -134 -14 q-37 0 -38 -2 q0 -1 -2 -13 q-11 -49 -11 -80 q0 -47 21 -74.5 q21 -27.5 63 -27.5 q112 0 185 85 q9 10 12 10 q4 0 13 -9 q12 -12 9 -17 q-4 -11 -30 -34 q-82 -72 -193 -72 ZM373 353 q-6 52 -68 52 q-35 0 -72 -20 q-49 -29 -73 -91 q-11 -30 -11 -33 q0 -1 20 -1 q33 0 61 2 q59 5 88 17 q29 12 48 40 q7 15 7 34 Z" /><glyph glyph-name="f" unicode="f" d="M118 -162 q27 -6 29 -6 q23 0 40 42 q12 33 73 356 q28 151 29 152 l0 3 l-47 0 q-47 0 -50 2 q-7 4 -2 22 q4 15 5 16 q2 5 9 5.5 q7 0.5 46 0.5 q48 0 48 1 q0 2 9 50 q9 48 12 58 q21 95 63 132 q40 33 83 33 q36 -2 60.5 -22 q24.5 -20 24.5 -53 q0 -29 -18 -49 q-18 -20 -45 -20 q-44 0 -44 42 q0 37 35 54 l9 5 q-18 6 -30 6 q-29 0 -38 -38 q-8 -30 -26 -131 l-13 -66 q0 -2 55 -2 q45 0 54 -1 q9 -1 9 -7 q0 -11 -7 -32 q-2 -5 -9.5 -5.5 q-7.5 -0.5 -53.5 -0.5 l-56 0 l-23 -122 q-37 -191 -46 -231 q-34 -151 -91 -205 q-37 -32 -73 -32 q-36 0 -60 20 q-24 20 -24 53 q0 30 18 50.5 q18 20.5 45 20.5 q44 0 44 -42 q0 -37 -35 -54 l-9 -5 Z" /><glyph glyph-name="g" unicode="g" d="M74 -71 q18 0 30 -11 q12 -11 12 -29 q0 -27 -20 -46 q-7 -7 -5 -7 q11 -3 60 -3 q38 0 60 12 q23 11 43 33.5 q20 22.5 28 46.5 q29 101 29 118 q-36 -30 -80 -41 q-12 -2 -25 -2 q-65 0 -102.5 45.5 q-37.5 45.5 -37.5 114.5 q0 63 29 121 q46 96 132 139 q46 22 87 22 q50 0 87 -48 q2 2 4 5 q14 23 42 23 q13 0 23 -8 q10 -8 10 -20 q0 -15 -57 -242 q-57 -227 -60 -232 q-19 -54 -78.5 -89.5 q-59.5 -35.5 -133.5 -35.5 q-115 0 -136 44 q-5 9 -5 24 q0 26 18 46 q18 20 46 20 ZM384 328 q-8 26 -15.5 40 q-7.5 14 -23.5 25.5 q-16 11.5 -39 11.5 q-2 0 -6.5 -0.5 q-4.5 -0.5 -5.5 -0.5 q-42 -10 -73 -52 q-28 -37 -53 -135 q-17 -68 -17 -100 q0 -79 62 -79 q57 0 110 70 l8 10 q36 140 53 210 Z" /><glyph glyph-name="h" unicode="h" d="M414 -10 q-39 0 -64 23.5 q-25 23.5 -25 60.5 q0 16 10 44 q47 121 60 189 q3 15 3 38 q0 59 -49 59 q-18 0 -26 -2 q-67 -14 -118 -96 l-7 -13 l-34 -135 q-32 -130 -37 -142 q-13 -27 -44 -27 q-12 0 -23.5 7.5 q-11.5 7.5 -11.5 19.5 q0 12 147 600 q0 12 -6 16 q-11 4 -40 5 l-21 0 q-6 6 -6.5 8 q-0.5 2 2.5 19 q5 19 13 19 q1 0 72.5 5.5 q71.5 5.5 72.5 5.5 q12 0 12 -9 q0 -8 -37 -153.5 q-37 -145.5 -37 -148.5 q0 -2 7 5 q59 54 130 54 q55 0 88 -27 q33 -27 33 -79 q0 -23 -3 -38 q-9 -51 -55 -177 q-18 -49 -18 -71 q1 -14 5 -19 q4 -5 15 -5 q28 0 52.5 30.5 q24.5 30.5 38.5 81.5 q3 11 6 13 q3 2 16 2 q20 0 20 -7 q0 -7 -4 -16 q-12 -43 -36.5 -78.5 q-24.5 -35.5 -56.5 -52.5 q-19 -9 -44 -9 Z" /><glyph glyph-name="i" unicode="i" d="M184 600 q0 23 19 42 q19 19 44 19 q18 0 30.5 -12 q12.5 -12 12.5 -30 q0 -22 -20 -42 q-20 -20 -44 -20 q-18 0 -30 12 q-12 12 -12 31 ZM173 380 q0 24 -17 24 l-2 0 q-24 0 -46 -23 q-32 -33 -47 -94 q0 -1 -1 -3.5 q-1 -2.5 -1.5 -3 q-0.5 -0.5 -1.5 -1.5 q-1 -1 -3.5 -1 q-2.5 0 -4.5 0 q-2 0 -8 0 l-14 0 q-8 8 -3 23 q26 86 76 120 q27 21 58 21 q40 0 66 -23 q26 -23 26 -62 q0 -13 -5 -30 q-1 -2 -46 -123 l-45 -121 q-5 -22 -5 -32 q0 -25 17 -25 q14 0 25 6 q44 21 69 105 q3 12 5.5 14 q2.5 2 16.5 2 q14 0 16 -2 q6 -4 1 -21 q-19 -57 -54.5 -99 q-35.5 -42 -83.5 -42 q-38 0 -62.5 23.5 q-24.5 23.5 -24.5 61.5 q0 17 2 23 q1 2 46.5 123.5 q45.5 121.5 45.5 123.5 q5 16 5 36 Z" /><glyph glyph-name="j" unicode="j" d="M297 596 q0 26 19 45.5 q19 19.5 45 19.5 q17 0 28.5 -10.5 q11.5 -10.5 13.5 -27.5 q0 -27 -18 -46.5 q-18 -19.5 -45 -19.5 q-18 0 -30 10.5 q-12 10.5 -13 28.5 ZM288 376 q0 29 -26 29 q-11 0 -23 -4 q-27 -9 -52.5 -38 q-25.5 -29 -42.5 -71 q-1 -3 -3 -7 q-2 -4 -2 -4.5 q0 -0.5 -3 -1.5 q-3 -1 -5.5 -1 q-2.5 0 -9.5 0 l-14 0 q-8 8 -2 21 q30 72 78 110 q34 27 69 32 q1 0 8 0.5 q7 0.5 12 0.5 q75 -4 94 -71 q1 -6 1 -23 l0 -16 l-49 -199 q-51 -200 -54 -208 q-16 -43 -54.5 -76.5 q-38.5 -33.5 -85.5 -46.5 q-25 -6 -49 -6 q-39 0 -63 17 q-24 17 -24 50 q0 28 20 47 q20 19 45 19 q19 0 30.5 -11 q11.5 -11 11.5 -30 q0 -36 -32 -55 q5 -1 14 -1 q34 0 62.5 29 q28.5 29 42.5 65 q1 4 27 105.5 q26 101.5 53 211 q27 109.5 27 122.5 q0 7 -1 11 Z" /><glyph glyph-name="k" unicode="k" d="M137 683 q1 0 72.5 5.5 q71.5 5.5 72.5 5.5 q12 0 12 -8 q0 -9 -50 -209.5 q-50 -200.5 -50 -204.5 q27 16 38 25 q11 9 46 43 q60 60 84 75 q40 27 76 27 q30 0 47.5 -20 q17.5 -20 17.5 -53 q0 -36 -17 -58.5 q-17 -22.5 -48 -22.5 q-19 0 -31.5 11 q-12.5 11 -12.5 29 q0 25 17 42.5 q17 17.5 40 20.5 l7 2 q-12 12 -24 12 q-34 0 -80 -34 q-19 -15 -58 -54 q-46 -45 -68 -62 q48 -11 64 -17 q48 -19 64 -52 q9 -18 9 -39 q0 -13 -5.5 -43 q-5.5 -30 -5.5 -38 q0 -40 27 -40 q18 0 33 15 q25 25 45 104 q2 8 20 8 q14 0 16 -2 q6 -4 1 -21 q-27 -91 -69 -123 q-25 -18 -49 -18 q-46 0 -73.5 27.5 q-27.5 27.5 -27.5 73.5 q0 9 3 28 q3 19 3 27 q0 13 -6 25 q-13 25 -49 39 q-33 11 -46 11 l-2 0 l-12 -46 q-11 -45 -23.5 -95 q-12.5 -50 -15.5 -58 q-5 -13 -18 -22.5 q-13 -9.5 -28 -9.5 q-12 0 -23.5 7.5 q-11.5 7.5 -11.5 19.5 q0 10 36.5 160 q36.5 150 73.5 295 l37 145 q2 14 -6.5 17.5 q-8.5 3.5 -28.5 3.5 q-3 0 -4 0 q-1 0 -3 0 q-2 0 -4 0 q-21 0 -24 3 q-6 5 -1 24 q4 14 7 16 q3 3 6 3 Z" /><glyph glyph-name="l" unicode="l" d="M137 -11 q-45 0 -72 25.5 q-27 25.5 -27 70.5 q0 12 1 17 l128 514 q1 3 0 6 q-1 3 -1 5 q0 2 -2 3.5 q-2 1.5 -3.5 2.5 q-1.5 1 -4.5 1.5 q-3 0.5 -5 1 q-2 0.5 -6.5 1 q-4.5 0.5 -7 0.5 q-2.5 0 -7.5 0 q-5 0 -8 0 q-24 0 -28 7 q-1 3 2 17 q5 19 9 21 q3 1 74.5 6.5 q71.5 5.5 74.5 5.5 q12 0 12 -8 q0 -11 -73 -300 q-73 -289 -75 -303 q0 -2 -0.5 -8.5 q-0.5 -6.5 -0.5 -9.5 q0 -29 14 -37 q4 -2 12 -1.5 q8 0.5 12 2.5 q28 16 50 102 q6 20 10 21 q2 1 10 1 l4 0 q18 -5 19 -9 q0 -7 -8 -34.5 q-8 -27.5 -15 -43.5 q-28 -65 -72 -75 q-10 -2 -16 -2 Z" /><glyph glyph-name="m" unicode="m" d="M108 -11 q-14 0 -24 7.5 q-10 7.5 -10 20.5 q0 13 38.5 165.5 q38.5 152.5 38.5 159.5 q3 15 3 27 q0 36 -25 36 q-10 0 -20 -7 q-24 -19 -48 -111 q0 -1 -1 -3.5 q-1 -2.5 -1.5 -3 q-0.5 -0.5 -1.5 -1.5 q-1 -1 -3.5 -1 q-2.5 0 -4.5 0 q-2 0 -8 0 l-14 0 q-6 6 -6 9 q0 13 14 50 q20 58 44 81 q24 24 53 24 q63 0 88 -45 q11 -19 11 -28 q0 -2 1 -2 l11 11 q61 64 141 64 q97 0 117 -82 l1 -3 l8 10 q37 44 86 64 q31 11 63 11 q55 0 88 -27 q33 -27 33 -79 q0 -23 -3 -38 q-9 -51 -55 -177 q-18 -48 -18 -71 q1 -14 5 -19 q4 -5 15 -5 q28 0 52.5 30.5 q24.5 30.5 38.5 81.5 q3 11 5.5 13 q2.5 2 16.5 2 q20 0 20 -7 q0 -7 -4 -16 q-26 -93 -94 -131 q-18 -9 -43 -9 q-38 0 -65 24 q-24 28 -24 59 q0 19 14 56 q44 117 56 178 q3 15 3 38 q0 59 -49 59 q-18 0 -26 -2 q-70 -15 -119 -99 l-7 -12 l-33 -134 q-33 -131 -38 -141 q-13 -27 -43 -27 q-24 0 -32 20 l-3 9 q0 11 34 143 q8 32 16.5 66.5 q8.5 34.5 14 56 q5.5 21.5 5.5 23.5 q3 15 3 38 q0 59 -49 59 q-18 0 -26 -2 q-70 -15 -119 -99 l-7 -12 l-33 -134 q-33 -131 -38 -141 q-13 -27 -43 -27 Z" /><glyph glyph-name="n" unicode="n" d="M108 -11 q-14 0 -24 7.5 q-10 7.5 -10 20.5 q0 13 38 163 q38 150 40 163 q1 5 1 23 q0 39 -24 39 q-23 0 -42 -37 q-11 -21 -21 -63 q-6 -20 -6 -21 q-2 -6 -19 -6 l-14 0 q-6 6 -6 9 q0 4 5 21 q30 118 92 132 q8 2 17 2 q59 0 85 -45 q11 -19 11 -28 q0 -2 1 -2 l11 11 q62 64 139 64 q55 0 88 -27 q33 -27 33 -79 q0 -23 -3 -38 q-10 -57 -55 -175 q-18 -48 -18 -71 q0 -26 17 -26 q34 0 58.5 36 q24.5 36 37.5 83 q2 8 20 8 q20 0 20 -7 q0 -7 -4 -16 q-26 -93 -94 -131 q-18 -9 -43 -9 q-38 0 -65 24 q-24 28 -24 59 q0 19 14 56 q44 117 56 178 q3 15 3 38 q0 59 -49 59 q-18 0 -26 -2 q-70 -15 -119 -99 l-7 -12 l-33 -134 q-33 -131 -38 -141 q-13 -27 -43 -27 Z" /><glyph glyph-name="o" unicode="o" d="M287 441 l14 0 q32 0 40 -1 q63 -11 99 -56 q36 -45 36 -116 q0 -59 -31 -118 q-37 -72 -105.5 -116.5 q-68.5 -44.5 -138.5 -44.5 q-70 0 -113 40 q-43 40 -53 105 q-1 6 -1 22 q0 26 3 42 q15 90 87 161.5 q72 71.5 163 81.5 ZM121 120 q0 -43 23.5 -68.5 q23.5 -25.5 61.5 -25.5 q18 0 36 6 q73 24 109 110 q22 54 36 135 q1 6 1 31 q0 97 -82 97 q-63 0 -111 -58 q-33 -40 -54 -116 q-20 -73 -20 -111 Z" /><glyph glyph-name="p" unicode="p" d="M29 278 q-6 6 -6 9 q0 8 13 47 q19 58 45 84 q24 24 53 24 q75 0 96 -64 l10 9 q45 42 93 53 q12 2 25 2 q13 0 25 -2 q52 -12 83 -53.5 q31 -41.5 31 -105.5 q0 -47 -19 -102 q-25 -66 -74 -115.5 q-49 -49.5 -107 -67.5 q-22 -6 -48 -6 q-53 0 -83 41 l-5 5 q-1 -1 -22 -87 q-21 -86 -21 -87 q0 -2 0.5 -3.5 q0.5 -1.5 2 -2.5 q1.5 -1 3 -1.5 q1.5 -0.5 4 -1 q2.5 -0.5 5 -0.5 q2.5 0 6.5 -0.5 q4 -0.5 7 -0.5 q3 0 8 0 q5 0 9 0 l25 0 q5 -7 5.5 -9 q0.5 -2 -2.5 -18 q-3 -12 -6 -15.5 q-3 -3.5 -13 -3.5 q-16 0 -52.5 1 q-36.5 1 -54.5 1 q-70 0 -89 -2 l-8 0 q-6 6 -6.5 8.5 q-0.5 2.5 2.5 18.5 q4 13 6 16 l4 3 l20 0 q34 1 39 12 q3 6 61.5 239 q58.5 233 60.5 247 q1 5 1 14 q0 41 -25 41 q-12 0 -20 -7 q-24 -19 -48 -111 q0 -1 -1 -3.5 q-1 -2.5 -1.5 -3 q-0.5 -0.5 -1.5 -1.5 q-1 -1 -3.5 -1 q-2.5 0 -4.5 0 q-2 0 -8 0 l-14 0 ZM232 322 l-27 -107 q-27 -107 -27 -113 q7 -24 13 -35 q22 -41 61 -41 q32 0 59 22.5 q27 22.5 45 58.5 q18 34 37 112 q18 72 18 106 q0 80 -61 80 q-2 0 -6.5 -0.5 q-4.5 -0.5 -5.5 -0.5 q-52 -11 -98 -72 q-2 -2 -5 -6 l-3 -4 Z" /><glyph glyph-name="q" unicode="q" d="M262 -192 q-20 0 -54.5 -0.5 q-34.5 -0.5 -50.5 -0.5 q-15 0 -15 8 q0 2 1.5 7 q1.5 5 1.5 8 q4 16 7.5 19 q3.5 3 19.5 3 q47 0 58 7 q6 4 28 91 q20 81 21 82 q0 1 -7 -3 q-35 -28 -75 -38 q-6 -1 -25 -1 q-66 0 -109 55 q-30 44 -30 112 q0 16 1 22 q7 64 41.5 122.5 q34.5 58.5 82.5 94.5 q58 45 122 45 q57 0 92 -52 q25 25 32 29 q34 24 46 24 q10 0 10 -8 q0 -8 -70 -289 q-70 -281 -70 -284 q0 -8 34 -9 q7 0 11 0 l25 0 q5 -7 5.5 -8.5 q0.5 -1.5 -2.5 -18.5 q-4 -13 -10 -19 l-13 0 q-31 2 -108 2 ZM352 326 q-22 79 -75 79 q-40 0 -70.5 -34 q-30.5 -34 -46.5 -78 q-29 -79 -41 -164 q0 -3 -0.5 -11 q-0.5 -8 -0.5 -12 q0 -36 15.5 -58 q15.5 -22 45.5 -22 q53 0 111 72 l8 11 q9 36 27 108.5 q18 72.5 27 108.5 Z" /><glyph glyph-name="r" unicode="r" d="M108 -11 q-14 0 -24 7.5 q-10 7.5 -10 20.5 q0 13 40 172 q40 159 40 177 q0 39 -26 39 q-11 0 -19 -7 q-24 -19 -48 -111 q0 -1 -1 -3.5 q-1 -2.5 -1.5 -3 q-0.5 -0.5 -1.5 -1.5 q-1 -1 -3.5 -1 q-2.5 0 -4.5 0 q-2 0 -8 0 l-14 0 q-6 6 -6 9 q0 8 13 47 q19 58 45 84 q24 24 53 24 q39 0 64 -19 q22 -17 29 -35 q2 -6 3 -6.5 q1 -0.5 8 7.5 q37 41 85 51 q6 1 26 1 q37 0 60 -21 q23 -21 23 -57 q0 -32 -17.5 -53.5 q-17.5 -21.5 -46.5 -21.5 q-19 0 -31.5 11 q-12.5 11 -12.5 29 q0 49 56 64 q-22 13 -36 13 q-21 0 -40 -10 q-33 -16 -63 -64 q-10 -16 -15 -33 q-5 -17 -34 -133 q-34 -140 -39 -149 q-13 -27 -43 -27 Z" /><glyph glyph-name="s" unicode="s" d="M118 160 q19 0 30.5 -11 q11.5 -11 11.5 -29 q0 -17 -9.5 -33 q-9.5 -16 -25.5 -24 q-13 -5 -14 -5 q-3 -1 -4 -1.5 q-1 -0.5 0 -1.5 q3 -5 18 -13 q29 -15 76 -15 q76 0 107 49 q15 25 15 46 q0 32 -33 48 q-9 6 -50 14 q-5 1 -15.5 3.5 q-10.5 2.5 -14 3 q-3.5 0.5 -10 2.5 q-6.5 2 -10 3.5 q-3.5 1.5 -8 4 q-4.5 2.5 -10.5 6.5 q-41 29 -41 82 q0 56 41 101 q46 52 128 52 q97 0 117 -68 q2 -5 2 -19 q0 -28 -15 -45.5 q-15 -17.5 -40 -17.5 q-16 0 -26 9 q-10 9 -10 25 q0 33 30 48 q8 4 9 4 q3 0 -1 5 q-24 22 -69 22 q-39 0 -66 -22 q-27 -22 -27 -57 q0 -18 15 -32 q10 -9 51 -18 q46 -10 60 -17 q47 -21 63 -70 q2 -6 3 -26 q0 -34 -17 -71 q-49 -102 -184 -102 q-107 0 -135 62 q-7 15 -7 35 q0 31 18.5 52 q18.5 21 46.5 21 Z" /><glyph glyph-name="t" unicode="t" d="M135 68 q0 -42 27 -42 q7 0 12 1 q50 9 91 80 q10 16 18 37 q2 6 5 7.5 q3 1.5 15 1.5 q20 0 20 -8 q0 -2 -4 -12 q-11 -32 -35.5 -64.5 q-24.5 -32.5 -49.5 -51.5 q-37 -28 -79 -28 q-36 0 -61.5 18.5 q-25.5 18.5 -34.5 48.5 q-2 8 -2 27 l0 18 l35 140 q35 141 36 142 q0 2 -51 2 l-51 0 q-6 6 -6.5 8 q-0.5 2 2.5 17 q4 14 5 15 q2 5 9.5 5.5 q7.5 0.5 50.5 0.5 l53 0 l19 80 q21 81 24 87 q12 28 46 28 q13 -1 22.5 -9 q9.5 -8 9.5 -21 q0 -12 -19 -85 q-4 -17 -9.5 -37.5 q-5.5 -20.5 -8.5 -30.5 l-2 -10 q0 -2 50 -2 l51 0 q6 -6 6.5 -8.5 q0.5 -2.5 -2.5 -18.5 q-3 -12 -10 -19 l-107 0 l-36 -145 q-37 -149 -38 -157 q-1 -5 -1 -15 Z" /><glyph glyph-name="u" unicode="u" d="M438 -10 q-66 0 -91 56 q-6 -5 -12 -11 q-50 -46 -102 -46 q-53 0 -86.5 24 q-33.5 24 -42.5 69 q-1 7 -1 31 q0 24 2 37 q7 43 46 147 q22 59 22 82 q0 14 -2.5 19.5 q-2.5 5.5 -11.5 5.5 l-5 0 q-23 0 -44 -21 q-32 -32 -49 -96 q0 -1 -1 -3.5 q-1 -2.5 -1.5 -3 q-0.5 -0.5 -1.5 -1.5 q-1 -1 -3.5 -1 q-2.5 0 -4.5 0 q-2 0 -8 0 l-14 0 q-8 8 -3 23 q20 69 62 109 q35 32 72 32 q42 0 67 -23.5 q25 -23.5 25 -60.5 q0 -20 -18 -67 q-41 -110 -49 -163 q-1 -8 -1 -23 q0 -38 12 -58 q12 -20 44 -20 q42 0 76 36 q20 20 25 32 q2 4 38 152 q30 120 36 140.5 q6 20.5 14 28.5 q17 15 36 15 q14 0 23.5 -7.5 q9.5 -7.5 9.5 -21.5 l-76 -318 q-1 -5 -1 -16 q0 -42 28 -42 q23 3 39 38 q11 23 26 81 q2 8 20 8 q19 0 19 -8 q0 -4 -3 -16 q-30 -118 -86 -137 q-8 -2 -24 -2 Z" /><glyph glyph-name="v" unicode="v" d="M415 443 q26 0 39 -22 q13 -22 13 -54 q0 -35 -20 -115 q-19 -77 -48 -134 q-63 -129 -158 -129 q-64 0 -101.5 32.5 q-37.5 32.5 -37.5 95.5 q0 18 2 34 q9 48 47 147 l16 48 q6 18 6 34 q0 25 -19 25 q-7 0 -16 -3 q-51 -18 -77 -115 q0 -1 -1 -3.5 q-1 -2.5 -1.5 -3 q-0.5 -0.5 -1.5 -1.5 q-1 -1 -3.5 -1 q-2.5 0 -4.5 0 q-2 0 -8 0 l-14 0 q-8 8 -3 24 q24 79 74 118 q27 21 62 21 q39 0 64 -22 q25 -22 25 -58 q0 -17 -3 -26 q0 -7 -15 -44 q-46 -125 -49 -178 q0 -27 5 -44 q13 -43 63 -43 q27 0 48 16 q62 41 103 189 q8 28 8 46 q0 44 -39 79 q-13 12 -13 27 q0 22 18 41 q18 19 40 19 Z" /><glyph glyph-name="w" unicode="w" d="M449 431 q14 0 24 -7.5 q10 -7.5 10 -21.5 q0 -13 -29.5 -128 q-29.5 -115 -31.5 -132 q-2 -11 -2 -35 q0 -50 26 -69 q18 -12 41 -12 q71 0 113 122 q23 60 31 110 q1 5 1 15 q0 50 -36 80 q-16 13 -16 32 q0 22 18.5 40 q18.5 18 41.5 18 q2 0 4 -0.5 q2 -0.5 4 -0.5 q42 -11 42 -74 q0 -44 -19 -117 q-19 -73 -38 -121 q-50 -124 -132 -140 q-6 -1 -19 -1 q-45 0 -79 15.5 q-34 15.5 -48 43.5 q-22 -29 -44.5 -44 q-22.5 -15 -58.5 -15 q-67 0 -107.5 32 q-40.5 32 -40.5 95 q0 27 2 36 q6 40 45 145 q22 59 22 82 q0 14 -2.5 19.5 q-2.5 5.5 -11.5 5.5 l-5 0 q-23 0 -44 -21 q-32 -32 -49 -96 q0 -1 -1 -3.5 q-1 -2.5 -1.5 -3 q-0.5 -0.5 -1.5 -1.5 q-1 -1 -3.5 -1 q-2.5 0 -4.5 0 q-2 0 -8 0 l-14 0 q-8 8 -3 23 q10 30 19 48 q37 75 95 90 q6 2 23 2 q41 0 65 -23.5 q24 -23.5 24 -59.5 q0 -20 -18 -67 q-44 -118 -48 -167 l0 -13 q0 -40 19 -62.5 q19 -22.5 55 -22.5 q43 0 76 61 l5 9 l0 23 q2 29 3 34 q0 1 14 60 q14 59 30 121.5 q16 62.5 20 69.5 q13 27 43 27 Z" /><glyph glyph-name="x" unicode="x" d="M58 278 q-6 6 -6 11 q4 27 31 69 q47 71 118 82 q14 2 21 2 q35 0 64.5 -18 q29.5 -18 42.5 -45 q13 17 16 21 q37 42 85 42 q41 0 66.5 -23.5 q25.5 -23.5 25.5 -57.5 q0 -31 -17.5 -52 q-17.5 -21 -46.5 -21 q-19 0 -31 11 q-12 11 -12 29 q0 46 50 63 q0 1 -11 7 q-10 6 -29 6 q-13 0 -19 -2 q-38 -16 -56 -66 q-3 -8 -29 -111.5 q-26 -103.5 -28 -116.5 q-3 -15 -3 -30 q0 -24 14 -38 q14 -14 37 -14 q42 0 76 35.5 q34 35.5 46 78.5 q3 10 6 11.5 q3 1.5 16 1.5 q19 0 19 -8 q0 -1 -2 -11 q-17 -62 -70 -108 q-47 -37 -99 -37 q-70 0 -106 63 q-29 -45 -74 -60 q-9 -2 -26 -2 q-58 0 -82 41 q-10 17 -10 40 q0 30 18 51 q18 21 46 21 q43 0 43 -42 q0 -37 -35 -54 q-2 -1 -5 -2.5 q-3 -1.5 -5 -2.5 q-2 -1 -3 -1 l-3 -1 q0 -3 15 -9 q12 -5 26 -5 q36 0 62 45 q11 18 39 130 q6 23 13 51 q7 28 10.5 43 q3.5 15 4.5 18 q5 27 5 39 q0 24 -13 38 q-13 14 -36 14 q-45 0 -78 -34.5 q-33 -34.5 -46 -79.5 q-2 -9 -4.5 -10.5 q-2.5 -1.5 -16.5 -1.5 l-14 0 Z" /><glyph glyph-name="y" unicode="y" d="M462 431 q14 0 24 -7.5 q10 -7.5 10 -20.5 q0 -13 -49 -210 q-49 -197 -56 -216 q-16 -49 -51.5 -90.5 q-35.5 -41.5 -82.5 -65.5 q-54 -26 -101 -26 q-76 0 -103 48 q-10 14 -10 40 q0 34 19 53 q21 19 44 19 q44 0 44 -42 q0 -37 -35 -54 q-2 -1 -5 -2.5 q-3 -1.5 -5 -2.5 q-2 -1 -3 -1 l-3 -1 q3 -6 21 -13 q16 -6 32 -6 l8 0 q17 0 26 2 q38 11 72 51 q34 40 52 96 q11 33 11 39 q0 1 -2 -0.5 q-2 -1.5 -6 -4.5 q-37 -27 -82 -27 q-51 0 -84 24 q-33 24 -43 69 q-1 7 -1 31 q0 24 2 37 q7 43 46 147 q22 59 22 82 q0 14 -2.5 19.5 q-2.5 5.5 -11.5 5.5 l-5 0 q-23 0 -44 -21 q-32 -32 -49 -96 q0 -1 -1 -3.5 q-1 -2.5 -1.5 -3 q-0.5 -0.5 -1.5 -1.5 q-1 -1 -3.5 -1 q-2.5 0 -4.5 0 q-2 0 -8 0 l-14 0 q-8 8 -3 23 q21 70 63 109 q34 32 71 32 q42 0 67 -23 q25 -23 25 -64 q-2 -19 -3 -21 q0 -6 -15 -43 q-41 -111 -49 -163 q-1 -8 -1 -23 q0 -38 12 -58 q12 -20 44 -20 q23 0 43.5 12 q20.5 12 31 23.5 q10.5 11.5 26.5 31.5 q0 1 18.5 75.5 q18.5 74.5 38.5 151.5 q20 77 23 83 q13 27 43 27 Z" /><glyph glyph-name="z" unicode="z" d="M229 440 q12 2 17 2 q15 0 28 -6 q13 -6 19.5 -11.5 q6.5 -5.5 20.5 -19.5 q31 -30 53 -30 q9 0 14 2 q17 8 44 53 q7 11 10 11 q3 1 14 1 l13 0 q6 -6 6 -9 q0 -3 -9 -19 q-20 -32 -48 -65 q-45 -53 -142 -140 q-80 -71 -109 -103 l-12 -12 l15 -1 q22 0 57 -9 q51 -13 70 -13 q40 0 71.5 19.5 q31.5 19.5 40.5 49.5 q4 9 7 11 q3 2 15 2 q20 0 20 -10 q0 -1 -2 -9 q-15 -52 -54.5 -92.5 q-39.5 -40.5 -92.5 -51.5 q-6 -1 -17 -1 q-17 0 -31 7 q-14 7 -39 30 q-21 21 -31 26 q-8 5 -22 5 q-44 0 -79 -60 q-5 -8 -22 -8 l-13 0 q-6 6 -6 8.5 q0 2.5 6 13.5 q16 30 52 73 q42 48 143 140 q77 70 104 98 q12 16 7 16 q-12 0 -53 11 q-44 11 -63 11 q-29 0 -49 -9.5 q-20 -9.5 -25 -24.5 q-14 -8 -19 -9 q-21 0 -21 8 q0 5 3 14 q13 39 43 67 q30 28 66 34 Z" /></font>
</defs>
</svg>
